<svg width="197" height="57" viewBox="0 0 197 57" fill="none" xmlns="http://www.w3.org/2000/svg">
<path d="M7.5 2C6.7 7.07294 3.66667 8.72549 2 8.91765V44.6588C3.66667 44.851 6.7 45.9271 7.5 51" stroke="#637CC6" stroke-width="3"/>
<path d="M186.5 2C187.3 7.07294 190.333 8.72549 192 8.91765V44.6588C190.333 44.851 187.3 45.9271 186.5 51" stroke="#637CC6" stroke-width="3"/>
<path d="M196 49.6587V13.9175M10.5 55.9998H190.5M196 49.0822C194.333 49.2743 190.8 50.9269 190 55.9998" stroke="#637CC6" stroke-width="2"/>
<path d="M6 2H188.5" stroke="#637CC6" stroke-width="3"/>
<path d="M6 52H188.5" stroke="#637CC6" stroke-width="3"/>
<path d="M8.5 2L12 5.5" stroke="#637CC6"/>
<path d="M12 2L15.5 5.5" stroke="#637CC6"/>
<path d="M15.5 2L19 5.5" stroke="#637CC6"/>
<path d="M19 2L22.5 5.5" stroke="#637CC6"/>
<path d="M22.5 2L26 5.5" stroke="#637CC6"/>
<path d="M26 2L29.5 5.5" stroke="#637CC6"/>
<path d="M29.5 2L33 5.5" stroke="#637CC6"/>
<path d="M33 2L36.5 5.5" stroke="#637CC6"/>
<path d="M36.5 2L40 5.5" stroke="#637CC6"/>
<path d="M40 2L43.5 5.5" stroke="#637CC6"/>
<path d="M43.5 2L47 5.5" stroke="#637CC6"/>
<path d="M47 2L50.5 5.5" stroke="#637CC6"/>
<path d="M50.5 2L54 5.5" stroke="#637CC6"/>
<path d="M54 2L57.5 5.5" stroke="#637CC6"/>
<path d="M57.5 2L61 5.5" stroke="#637CC6"/>
<path d="M61 2L64.5 5.5" stroke="#637CC6"/>
<path d="M64.5 2L68 5.5" stroke="#637CC6"/>
<path d="M68 2L71.5 5.5" stroke="#637CC6"/>
<path d="M71.5 2L75 5.5" stroke="#637CC6"/>
<path d="M75 2L78.5 5.5" stroke="#637CC6"/>
<path d="M78.5 2L82 5.5" stroke="#637CC6"/>
<path d="M82 2L85.5 5.5" stroke="#637CC6"/>
<path d="M85.5 2L89 5.5" stroke="#637CC6"/>
<path d="M89 2L92.5 5.5" stroke="#637CC6"/>
<path d="M92.5 2L96 5.5" stroke="#637CC6"/>
<path d="M96 2L99.5 5.5" stroke="#637CC6"/>
<path d="M99.5 2L103 5.5" stroke="#637CC6"/>
<path d="M103 2L106.5 5.5" stroke="#637CC6"/>
<path d="M106.5 2L110 5.5" stroke="#637CC6"/>
<path d="M110 2L113.5 5.5" stroke="#637CC6"/>
<path d="M113.5 2L117 5.5" stroke="#637CC6"/>
<path d="M117 2L120.5 5.5" stroke="#637CC6"/>
<path d="M120.5 2L124 5.5" stroke="#637CC6"/>
<path d="M124 2L127.5 5.5" stroke="#637CC6"/>
<path d="M127.5 2L131 5.5" stroke="#637CC6"/>
<path d="M131 2L134.5 5.5" stroke="#637CC6"/>
<path d="M134.5 2L138 5.5" stroke="#637CC6"/>
<path d="M138 2L141.5 5.5" stroke="#637CC6"/>
<path d="M141.5 2L145 5.5" stroke="#637CC6"/>
<path d="M145 2L148.5 5.5" stroke="#637CC6"/>
<path d="M148.5 2L152 5.5" stroke="#637CC6"/>
<path d="M152 2L155.5 5.5" stroke="#637CC6"/>
<path d="M155.5 2L159 5.5" stroke="#637CC6"/>
<path d="M159 2L162.5 5.5" stroke="#637CC6"/>
<path d="M162.5 2L166 5.5" stroke="#637CC6"/>
<path d="M166 2L169.5 5.5" stroke="#637CC6"/>
<path d="M169.5 2L173 5.5" stroke="#637CC6"/>
<path d="M173 2L176.5 5.5" stroke="#637CC6"/>
<path d="M176.5 2L180 5.5" stroke="#637CC6"/>
<path d="M180 2L183.5 5.5" stroke="#637CC6"/>
<path d="M183.5 2L187 5.5" stroke="#637CC6"/>
<path d="M8.5 47.5L12 51" stroke="#637CC6"/>
<path d="M12 47.5L15.5 51" stroke="#637CC6"/>
<path d="M15.5 47.5L19 51" stroke="#637CC6"/>
<path d="M19 47.5L22.5 51" stroke="#637CC6"/>
<path d="M22.5 47.5L26 51" stroke="#637CC6"/>
<path d="M26 47.5L29.5 51" stroke="#637CC6"/>
<path d="M29.5 47.5L33 51" stroke="#637CC6"/>
<path d="M33 47.5L36.5 51" stroke="#637CC6"/>
<path d="M36.5 47.5L40 51" stroke="#637CC6"/>
<path d="M40 47.5L43.5 51" stroke="#637CC6"/>
<path d="M43.5 47.5L47 51" stroke="#637CC6"/>
<path d="M47 47.5L50.5 51" stroke="#637CC6"/>
<path d="M50.5 47.5L54 51" stroke="#637CC6"/>
<path d="M54 47.5L57.5 51" stroke="#637CC6"/>
<path d="M57.5 47.5L61 51" stroke="#637CC6"/>
<path d="M61 47.5L64.5 51" stroke="#637CC6"/>
<path d="M64.5 47.5L68 51" stroke="#637CC6"/>
<path d="M68 47.5L71.5 51" stroke="#637CC6"/>
<path d="M71.5 47.5L75 51" stroke="#637CC6"/>
<path d="M75 47.5L78.5 51" stroke="#637CC6"/>
<path d="M78.5 47.5L82 51" stroke="#637CC6"/>
<path d="M82 47.5L85.5 51" stroke="#637CC6"/>
<path d="M85.5 47.5L89 51" stroke="#637CC6"/>
<path d="M89 47.5L92.5 51" stroke="#637CC6"/>
<path d="M92.5 47.5L96 51" stroke="#637CC6"/>
<path d="M96 47.5L99.5 51" stroke="#637CC6"/>
<path d="M99.5 47.5L103 51" stroke="#637CC6"/>
<path d="M103 47.5L106.5 51" stroke="#637CC6"/>
<path d="M106.5 47.5L110 51" stroke="#637CC6"/>
<path d="M110 47.5L113.5 51" stroke="#637CC6"/>
<path d="M113.5 47.5L117 51" stroke="#637CC6"/>
<path d="M117 47.5L120.5 51" stroke="#637CC6"/>
<path d="M120.5 47.5L124 51" stroke="#637CC6"/>
<path d="M124 47.5L127.5 51" stroke="#637CC6"/>
<path d="M127.5 47.5L131 51" stroke="#637CC6"/>
<path d="M131 47.5L134.5 51" stroke="#637CC6"/>
<path d="M134.5 47.5L138 51" stroke="#637CC6"/>
<path d="M138 47.5L141.5 51" stroke="#637CC6"/>
<path d="M141.5 47.5L145 51" stroke="#637CC6"/>
<path d="M145 47.5L148.5 51" stroke="#637CC6"/>
<path d="M148.5 47.5L152 51" stroke="#637CC6"/>
<path d="M152 47.5L155.5 51" stroke="#637CC6"/>
<path d="M155.5 47.5L159 51" stroke="#637CC6"/>
<path d="M159 47.5L162.5 51" stroke="#637CC6"/>
<path d="M162.5 47.5L166 51" stroke="#637CC6"/>
<path d="M166 47.5L169.5 51" stroke="#637CC6"/>
<path d="M169.5 47.5L173 51" stroke="#637CC6"/>
<path d="M173 47.5L176.5 51" stroke="#637CC6"/>
<path d="M176.5 47.5L180 51" stroke="#637CC6"/>
<path d="M180 47.5L183.5 51" stroke="#637CC6"/>
<path d="M183.5 47.5L187 51" stroke="#637CC6"/>
</svg>
