<?xml version="1.0" encoding="utf-8"?>
<!-- Generator: Adobe Illustrator 16.0.0, SVG Export Plug-In . SVG Version: 6.00 Build 0)  -->
<!DOCTYPE svg PUBLIC "-//W3C//DTD SVG 1.1//EN" "http://www.w3.org/Graphics/SVG/1.1/DTD/svg11.dtd">
<svg version="1.1" id="Layer_1" xmlns="http://www.w3.org/2000/svg" xmlns:xlink="http://www.w3.org/1999/xlink" x="0px" y="0px"
	 width="142px" height="155.923px" viewBox="0 0 142 155.923" enable-background="new 0 0 142 155.923" xml:space="preserve">
<g>
	<path fill="#4374BA" d="M108.195,7.268c-0.688,0.057-1.381,0.254-2.03,0.594c-2.598,1.361-3.579,4.558-2.219,7.155
		c4.614,8.774,2.237,18.345-2.406,26.622c-5.868,10.462-15.306,19.402-25.747,25.31c-0.574-2.212-1.283-4.371-2.218-6.437
		c-1.077-2.383-2.387-4.674-3.843-6.842c-1.116-1.663-2.328-3.254-3.625-4.782c-5.554-6.538-14.179-13.331-23.341-11.092
		c-1.315,0.322-2.598,0.809-3.78,1.469c-1.662,0.927-3.124,2.162-4.406,3.563c-1.68,1.835-3.096,3.97-4.155,6.217
		c-0.855,1.814-1.468,3.765-1.75,5.749c-1.799,12.662,9.196,23.472,20.403,27.123c2.313,0.753,4.723,1.256,7.155,1.373
		c3.613,0.178,7.222-0.352,10.749-1.28c-1.373,20.095-17.037,37.337-35.465,44.183c-4.148,1.541-8.425,2.496-12.81,3.03
		c-2.756,0.336-4.71,2.838-4.375,5.593c0.335,2.756,2.837,4.71,5.593,4.375c5.164-0.628,10.207-1.75,15.091-3.563
		c21.113-7.832,39.092-27.055,41.995-49.869c0.325-2.553,0.352-5.112,0.281-7.686c0.213-0.104,0.445-0.176,0.656-0.282
		c4.02-2.01,7.838-4.432,11.436-7.123c2.78-2.08,5.436-4.313,7.938-6.718c1.953-1.878,3.802-3.846,5.562-5.906
		c9.376-10.973,16.946-25.98,13.28-40.713c-0.631-2.532-1.607-4.941-2.813-7.249C112.33,8.133,110.258,7.098,108.195,7.268z
		 M47.391,47.763c1.004,0.169,1.97,0.544,2.875,1c1.19,0.6,2.301,1.362,3.344,2.188c5.436,4.299,10.093,10.862,12.062,17.529
		c0.268,0.91,0.388,1.851,0.593,2.781c-2.482,0.797-5.03,1.348-7.624,1.5c-6.57,0.385-13.406-3.267-17.248-8.53
		c-2.302-3.154-3.323-7.087-1.594-10.749C41.202,50.511,43.69,47.14,47.391,47.763z"/>
</g>
<g>
	<path fill="#4374BA" d="M40.111,15.642c-4.352,0.407-8.628,1.666-12.686,3.969c-4.501,2.554-8.663,6.014-11.999,9.968
		c-2.135,2.528-3.939,5.329-5.313,8.343c-7.832,17.184,0.17,36.944,11.812,50.305c1.682,1.932,3.475,3.781,5.374,5.5
		c3.461,3.133,7.251,5.855,11.437,7.937c3.244,1.612,6.671,2.871,10.187,3.749c14.935,3.735,30.218,0.322,43.806-6.625
		c-2.949,9.756-7.675,19.048-13.748,27.091c-2.737,3.627-5.753,7.04-9.03,10.187c-6.763,6.498-14.632,11.872-23.528,14.967
		c-1.312,0.457-1.988,1.907-1.532,3.219c0.457,1.311,1.876,1.987,3.188,1.53c9.581-3.335,18.053-9.092,25.341-16.091
		c12.253-11.77,21.476-27.568,25.434-44.369c5.587-3.418,10.831-7.346,15.498-11.593c3.172-2.887,6.163-5.979,8.936-9.249
		c4.433-5.228,8.4-10.932,11.248-17.186c2.184-4.79,3.684-9.887,3.594-15.185c-0.025-1.466-1.221-2.651-2.687-2.625
		c-1.466,0.026-2.65,1.252-2.624,2.718c0.084,4.5-1.243,8.841-3.094,12.905c-3.008,6.605-7.379,12.558-12.218,17.935
		c-2.751,3.058-5.694,5.941-8.812,8.625c-2.648,2.279-5.521,4.424-8.498,6.467c1.346-9.673,0.994-19.533-1.844-29.058
		c-1.275-4.278-2.958-8.455-5.219-12.312c-2.285-3.898-5.086-7.497-8.186-10.78c-2.475-2.617-5.135-5.057-7.969-7.28
		C66.854,20.758,53.166,14.423,40.111,15.642z M45.173,20.705c3.78,0.199,7.564,1.027,11.123,2.25
		c8.979,3.084,17.138,8.638,23.81,15.341c3.633,3.65,6.907,7.747,9.374,12.28c1.919,3.527,3.312,7.352,4.374,11.217
		c2.719,9.888,2.656,20.102,0.656,29.997c-13.838,8.073-30.055,12.554-45.619,8.155c-2.685-0.759-5.312-1.76-7.811-2.999
		c-4.271-2.119-8.1-5.014-11.531-8.313c-2.16-2.078-4.159-4.32-5.999-6.686c-9.123-11.738-15.37-28.432-8.342-42.683
		c1.123-2.277,2.552-4.4,4.186-6.342c2.119-2.517,4.585-4.733,7.25-6.656c2.288-1.649,4.682-3.07,7.343-4.03
		C37.591,20.936,41.393,20.505,45.173,20.705z"/>
</g>
</svg>
