<?xml version="1.0" encoding="utf-8"?>
<!-- Generator: Adobe Illustrator 16.0.0, SVG Export Plug-In . SVG Version: 6.00 Build 0)  -->
<!DOCTYPE svg PUBLIC "-//W3C//DTD SVG 1.1//EN" "http://www.w3.org/Graphics/SVG/1.1/DTD/svg11.dtd">
<svg version="1.1" id="Layer_1" xmlns="http://www.w3.org/2000/svg" xmlns:xlink="http://www.w3.org/1999/xlink" x="0px" y="0px"
	 width="3036px" height="3144px" viewBox="0 0 3036 3144" enable-background="new 0 0 3036 3144" xml:space="preserve">
<g id="Layer_1_1_">
	<g>
		<path fill="#637CC6" d="M887.025,351.524c-3.508,0.291-7.042,1.294-10.352,3.028c-13.254,6.941-18.252,23.245-11.322,36.49
			c23.537,44.746,11.415,93.554-12.264,135.767c-29.927,53.354-78.058,98.945-131.304,129.076
			c-2.926-11.282-6.544-22.291-11.311-32.828c-5.493-12.154-12.174-23.837-19.6-34.894c-5.69-8.481-11.873-16.594-18.487-24.386
			c-28.323-33.343-72.309-67.985-119.033-56.568c-6.706,1.643-13.25,4.126-19.279,7.493c-8.474,4.726-15.931,11.023-22.468,18.171
			c-8.569,9.357-15.79,20.244-21.191,31.704c-4.36,9.25-7.485,19.201-8.925,29.319c-9.173,64.574,46.899,119.703,104.053,138.321
			c11.795,3.844,24.084,6.405,36.487,7.003c18.427,0.906,36.831-1.796,54.817-6.525c-7.002,102.48-86.886,190.413-180.863,225.325
			c-21.154,7.858-42.967,12.729-65.329,15.453c-14.054,1.713-24.019,14.473-22.312,28.522c1.708,14.062,14.468,24.02,28.521,22.312
			c26.336-3.202,52.053-8.925,76.962-18.17c107.671-39.942,199.355-137.973,214.163-254.322c1.659-13.018,1.801-26.064,1.435-39.189
			c1.086-0.531,2.264-0.899,3.339-1.439c20.506-10.25,39.979-22.603,58.326-36.326c14.179-10.608,27.728-21.996,40.482-34.259
			c9.96-9.577,19.391-19.615,28.365-30.121c47.815-55.958,86.422-132.492,67.726-207.627c-3.217-12.913-8.195-25.197-14.346-36.968
			C908.114,355.933,897.546,350.657,887.025,351.524z M576.94,558.04c5.12,0.861,10.045,2.774,14.661,5.1
			c6.069,3.058,11.734,6.945,17.053,11.158c27.722,21.923,51.473,55.393,61.513,89.393c1.367,4.642,1.98,9.44,3.025,14.181
			c-12.657,4.066-25.653,6.875-38.881,7.65c-33.507,1.965-68.369-16.659-87.961-43.5c-11.741-16.083-16.948-36.142-8.131-54.817
			C545.377,572.052,558.064,554.863,576.94,558.04z"/>
	</g>
	<g>
		<path fill="#637CC6" d="M539.813,394.229c-22.195,2.075-44,8.496-64.696,20.24c-22.954,13.026-44.177,30.671-61.192,50.837
			c-10.887,12.891-20.088,27.177-27.095,42.545c-39.942,87.636,0.868,188.408,60.238,256.546
			c8.578,9.854,17.722,19.281,27.406,28.048c17.65,15.977,36.979,29.859,58.327,40.483c16.544,8.215,34.021,14.642,51.951,19.113
			c76.166,19.047,154.106,1.641,223.402-33.785c-15.04,49.752-39.135,97.146-70.112,138.162
			c-13.952,18.497-29.333,35.897-46.044,51.952c-34.491,33.139-74.622,60.545-119.99,76.334c-6.69,2.331-10.137,9.719-7.811,16.416
			c2.331,6.686,9.567,10.129,16.258,7.799c48.861-17.008,92.064-46.369,129.232-82.063
			c62.487-60.029,109.528-140.585,129.708-226.27c28.497-17.432,55.241-37.464,79.037-59.124
			c16.175-14.724,31.435-30.491,45.576-47.167c22.608-26.662,42.833-55.751,57.363-87.646
			c11.143-24.428,18.793-50.419,18.328-77.441c-0.122-7.475-6.226-13.519-13.704-13.387c-7.48,0.132-13.514,6.385-13.387,13.863
			c0.428,22.949-6.333,45.086-15.777,65.812c-15.342,33.684-37.631,64.044-62.311,91.465c-14.03,15.595-29.038,30.297-44.94,43.985
			c-13.503,11.624-28.155,22.561-43.335,32.979c6.863-49.325,5.067-99.608-9.405-148.183c-6.502-21.819-15.09-43.119-26.622-62.789
			c-11.646-19.879-25.937-38.233-41.745-54.977c-12.627-13.345-26.193-25.788-40.646-37.125
			C676.196,420.318,606.392,388.011,539.813,394.229z M565.627,420.049c19.279,1.014,38.575,5.236,56.725,11.475
			c45.791,15.728,87.401,44.051,121.426,78.235c18.526,18.614,35.23,39.508,47.81,62.626c9.781,17.986,16.891,37.492,22.302,57.203
			c13.873,50.428,13.544,102.517,3.344,152.979c-70.571,41.169-153.272,64.026-232.646,41.587
			c-13.693-3.87-27.089-8.976-39.834-15.294c-21.782-10.804-41.309-25.568-58.807-42.394c-11.014-10.596-21.208-22.03-30.594-34.095
			c-46.526-59.868-78.381-145.003-42.542-217.68c5.727-11.614,13.014-22.441,21.349-32.344
			c10.807-12.836,23.382-24.137,36.973-33.941c11.669-8.409,23.878-15.658,37.446-20.554
			C526.96,421.227,546.352,419.029,565.627,420.049z"/>
	</g>
</g>
<g id="Layer_4">
	<g>
		<path fill="#637CC6" d="M913.327,2722.015c6.146-11.772,11.128-24.055,14.346-36.963c18.696-75.132-19.909-151.669-67.727-207.626
			c-8.975-10.51-18.399-20.55-28.362-30.121c-12.762-12.263-26.306-23.656-40.484-34.265
			c-18.347-13.715-37.818-26.076-58.324-36.326c-1.078-0.538-2.256-0.906-3.341-1.435c0.361-13.127,0.224-26.177-1.432-39.194
			c-14.807-116.349-106.496-214.38-214.167-254.321c-24.908-9.249-50.626-14.976-76.962-18.173
			c-14.054-1.709-26.813,8.252-28.522,22.313c-1.708,14.05,8.257,26.809,22.312,28.521c22.361,2.725,44.175,7.596,65.329,15.454
			c93.978,34.916,173.86,122.843,180.862,225.322c-17.985-4.732-36.39-7.432-54.817-6.524c-12.403,0.598-24.692,3.158-36.488,7.002
			c-57.153,18.616-113.227,73.747-104.053,138.321c1.439,10.119,4.564,20.069,8.925,29.313
			c5.401,11.466,12.623,22.353,21.191,31.704c6.537,7.153,13.995,13.457,22.469,18.178c6.028,3.368,12.572,5.849,19.278,7.491
			c46.724,11.415,90.71-23.228,119.033-56.564c6.614-7.8,12.796-15.907,18.487-24.396c7.425-11.055,14.106-22.738,19.6-34.891
			c4.769-10.538,8.384-21.546,11.311-32.83c53.246,30.13,101.377,75.73,131.304,129.078c23.684,42.214,35.806,91.02,12.264,135.771
			c-6.93,13.237-1.932,29.543,11.323,36.485c3.309,1.733,6.842,2.739,10.352,3.028
			C897.546,2737.236,908.114,2731.956,913.327,2722.015z M538.221,2500.693c-8.817-18.676-3.61-38.736,8.131-54.822
			c19.592-26.843,54.454-45.46,87.961-43.498c13.228,0.777,26.224,3.587,38.881,7.65c-1.045,4.739-1.659,9.542-3.025,14.184
			c-10.041,33.995-33.791,67.463-61.513,89.386c-5.319,4.213-10.984,8.1-17.053,11.155c-4.616,2.332-9.542,4.243-14.661,5.1
			C558.064,2533.034,545.377,2515.843,538.221,2500.693z"/>
	</g>
	<g>
		<path fill="#637CC6" d="M727.832,2627.052c14.453-11.334,28.019-23.784,40.647-37.123c15.807-16.743,30.093-35.101,41.744-54.98
			c11.532-19.672,20.115-40.969,26.622-62.791c14.473-48.567,16.263-98.858,9.405-148.185c15.18,10.42,29.832,21.355,43.336,32.98
			c15.896,13.686,30.909,28.387,44.938,43.985c24.68,27.421,46.972,57.78,62.311,91.467c9.446,20.719,16.206,42.86,15.778,65.81
			c-0.127,7.479,5.907,13.726,13.387,13.864c7.478,0.13,13.577-5.917,13.704-13.387c0.465-27.022-7.185-53.021-18.328-77.442
			c-14.53-31.895-34.754-60.988-57.363-87.652c-14.137-16.685-29.401-32.44-45.577-47.168
			c-23.795-21.659-50.539-41.689-79.037-59.12c-20.18-85.689-67.221-166.251-129.708-226.272
			c-37.167-35.692-80.372-65.053-129.232-82.06c-6.691-2.331-13.927,1.115-16.258,7.793c-2.326,6.699,1.121,14.09,7.813,16.42
			c45.367,15.787,85.498,43.194,119.989,76.332c16.711,16.048,32.093,33.459,46.045,51.955
			c30.977,41.018,55.073,88.409,70.112,138.162c-69.296-35.43-147.236-52.836-223.402-33.785
			c-17.929,4.472-35.407,10.896-51.952,19.113c-21.348,10.618-40.674,24.502-58.327,40.479c-9.684,8.767-18.827,18.198-27.406,28.05
			c-59.369,68.14-100.178,168.909-60.238,256.542c7.007,15.37,16.208,29.662,27.095,42.552
			c17.015,20.16,38.238,37.811,61.192,50.839c20.696,11.743,42.501,18.168,64.696,20.238
			C606.392,2699.883,676.196,2667.572,727.832,2627.052z M508.582,2660.041c-13.568-4.9-25.777-12.151-37.446-20.559
			c-13.591-9.802-26.167-21.106-36.973-33.946c-8.334-9.899-15.622-20.717-21.349-32.342
			c-35.84-72.671-3.984-157.813,42.542-217.677c9.386-12.063,19.58-23.498,30.594-34.095c17.498-16.824,37.025-31.585,58.807-42.396
			c12.745-6.319,26.141-11.426,39.834-15.294c79.373-22.433,162.075,0.418,232.646,41.584c10.2,50.471,10.523,102.554-3.344,152.975
			c-5.417,19.712-12.521,39.224-22.302,57.203c-12.58,23.119-29.284,44.016-47.81,62.631
			c-34.025,34.186-75.636,62.502-121.426,78.23c-18.15,6.244-37.446,10.469-56.725,11.474
			C546.352,2668.866,526.96,2666.665,508.582,2660.041z"/>
	</g>
</g>
<g id="Layer_5">
	<g>
		<path fill="#637CC6" d="M2152.969,2736.368c3.513-0.289,7.043-1.295,10.354-3.028c13.253-6.941,18.253-23.248,11.319-36.484
			c-23.531-44.752-11.408-93.559,12.268-135.771c29.927-53.348,78.057-98.948,131.305-129.078
			c2.929,11.284,6.545,22.292,11.311,32.83c5.493,12.151,12.177,23.836,19.599,34.891c5.69,8.487,11.873,16.596,18.485,24.396
			c28.332,33.338,72.318,67.979,119.044,56.565c6.697-1.645,13.247-4.123,19.268-7.491c8.478-4.73,15.938-11.024,22.473-18.179
			c8.566-9.353,15.787-20.238,21.188-31.703c4.354-9.243,7.486-19.194,8.926-29.313c9.174-64.574-46.897-119.705-104.053-138.321
			c-11.794-3.844-24.084-6.403-36.483-7.002c-18.422-0.905-36.834,1.797-54.823,6.524c7.002-102.479,86.886-190.406,180.867-225.322
			c21.15-7.857,42.97-12.729,65.331-15.454c14.055-1.713,24.02-14.472,22.313-28.521c-1.708-14.061-14.469-24.021-28.521-22.313
			c-26.336,3.202-52.057,8.925-76.961,18.173c-107.674,39.941-199.365,137.974-214.166,254.321
			c-1.658,13.02-1.804,26.067-1.436,39.194c-1.085,0.527-2.266,0.896-3.341,1.435c-20.505,10.25-39.977,22.611-58.324,36.326
			c-14.179,10.607-27.729,21.993-40.483,34.266c-9.96,9.57-19.389,19.61-28.363,30.12c-47.813,55.957-86.423,132.484-67.727,207.627
			c3.218,12.907,8.197,25.188,14.349,36.963C2131.884,2731.956,2142.451,2737.236,2152.969,2736.368z M2463.061,2529.857
			c-5.12-0.866-10.056-2.777-14.662-5.1c-6.071-3.066-11.739-6.953-17.058-11.166c-27.728-21.923-51.478-55.381-61.517-89.386
			c-1.369-4.642-1.982-9.443-3.028-14.174c12.655-4.073,25.653-6.883,38.886-7.649c33.503-1.973,68.366,16.653,87.962,43.497
			c11.738,16.076,16.938,36.137,8.128,54.813C2494.62,2515.843,2481.935,2533.034,2463.061,2529.857z"/>
	</g>
	<g>
		<path fill="#637CC6" d="M2500.184,2693.667c22.202-2.081,44.004-8.496,64.702-20.239c22.954-13.027,44.181-30.678,61.191-50.838
			c10.888-12.89,20.087-27.182,27.094-42.552c39.94-87.633-0.866-188.403-60.235-256.547c-8.587-9.853-17.73-19.278-27.407-28.05
			c-17.648-15.979-36.979-29.855-58.333-40.484c-16.544-8.212-34.021-14.637-51.949-19.11
			c-76.168-19.048-154.104-1.644-223.398,33.787c15.035-49.758,39.135-97.148,70.107-138.168
			c13.954-18.496,29.339-35.896,46.048-51.948c34.493-33.139,74.623-60.546,119.988-76.332c6.688-2.33,10.13-9.722,7.813-16.415
			c-2.331-6.688-9.571-10.131-16.261-7.799c-48.86,17.008-92.065,46.366-129.232,82.06
			c-62.487,60.027-109.531,140.589-129.71,226.272c-28.499,17.432-55.237,37.467-79.032,59.12
			c-16.182,14.723-31.437,30.489-45.58,47.174c-22.604,26.654-42.835,55.748-57.361,87.643
			c-11.142,24.424-18.79,50.421-18.327,77.443c0.119,7.479,6.225,13.516,13.699,13.388c7.485-0.131,13.518-6.386,13.389-13.866
			c-0.428-22.948,6.335-45.091,15.781-65.809c15.34-33.677,37.632-64.047,62.309-91.468c14.029-15.599,29.034-30.291,44.938-43.984
			c13.507-11.62,28.158-22.562,43.339-32.979c-6.864,49.323-5.069,99.614,9.406,148.184c6.499,21.821,15.092,43.119,26.62,62.801
			c11.648,19.871,25.937,38.229,41.744,54.972c12.63,13.336,26.195,25.799,40.648,37.123
			C2363.803,2667.572,2433.607,2699.883,2500.184,2693.667z M2474.371,2667.841c-19.279-1.017-38.572-5.229-56.727-11.476
			c-45.792-15.728-87.398-44.046-121.428-78.229c-18.526-18.616-35.227-39.514-47.812-62.632
			c-9.781-17.979-16.888-37.49-22.297-57.203c-13.874-50.431-13.546-102.514-3.348-152.974
			c70.57-41.173,153.272-64.026,232.646-41.59c13.691,3.869,27.088,8.974,39.833,15.294c21.783,10.808,41.307,25.568,58.807,42.393
			c11.018,10.598,21.208,22.032,30.594,34.096c46.527,59.862,78.385,145.005,42.542,217.688
			c-5.728,11.604-13.013,22.432-21.351,32.342c-10.808,12.838-23.378,24.135-36.973,33.945
			c-11.664,8.396-23.88,15.646-37.446,20.548C2513.037,2666.665,2493.649,2668.866,2474.371,2667.841z"/>
	</g>
</g>
<g id="Layer_2">
	<g>
		<path fill="#637CC6" d="M2126.674,365.879c-6.146,11.771-11.131,24.055-14.349,36.963
			c-18.695,75.134,19.911,151.666,67.727,207.626c8.974,10.511,18.396,20.549,28.362,30.121
			c12.76,12.264,26.306,23.656,40.483,34.264c18.347,13.718,37.821,26.077,58.324,36.326c1.077,0.536,2.257,0.909,3.342,1.435
			c-0.363,13.125-0.224,26.177,1.435,39.194c14.803,116.349,106.492,214.381,214.165,254.322
			c24.907,9.246,50.626,14.973,76.96,18.17c14.056,1.708,26.813-8.25,28.522-22.312c1.708-14.049-8.257-26.809-22.313-28.522
			c-22.36-2.724-44.174-7.594-65.331-15.454c-93.982-34.912-173.864-122.843-180.867-225.324c17.987,4.733,36.399,7.43,54.821,6.523
			c12.407-0.597,24.697-3.158,36.485-7.002c57.152-18.614,113.227-73.748,104.053-138.322c-1.438-10.112-4.571-20.068-8.925-29.313
			c-5.407-11.465-12.63-22.352-21.189-31.704c-6.534-7.152-13.993-13.45-22.472-18.171c-6.026-3.367-12.57-5.85-19.27-7.498
			c-46.726-11.413-90.711,23.23-119.043,56.573c-6.613,7.792-12.795,15.898-18.485,24.386c-7.421,11.057-14.104,22.74-19.599,34.894
			c-4.767,10.537-8.382,21.545-11.311,32.833c-53.249-30.13-101.378-75.728-131.304-129.081
			c-23.684-42.212-35.805-91.021-12.269-135.767c6.934-13.245,1.934-29.548-11.318-36.49c-3.313-1.734-6.845-2.737-10.354-3.028
			C2142.451,350.657,2131.884,355.933,2126.674,365.879z M2501.776,587.204c8.814,18.676,3.61,38.734-8.127,54.817
			c-19.598,26.846-54.46,45.465-87.963,43.495c-13.231-0.77-26.229-3.579-38.885-7.65c1.047-4.742,1.657-9.535,3.026-14.176
			c10.04-34,33.792-67.465,61.517-89.388c5.318-4.213,10.981-8.104,17.059-11.158c4.606-2.326,9.541-4.239,14.662-5.1
			C2481.935,554.863,2494.62,572.047,2501.776,587.204z"/>
	</g>
	<g>
		<path fill="#637CC6" d="M2312.168,460.843c-14.457,11.334-28.02,23.785-40.649,37.125c-15.808,16.744-30.09,35.1-41.743,54.978
			c-11.534,19.67-20.116,40.965-26.625,62.794c-14.472,48.57-16.262,98.857-9.402,148.182
			c-15.181-10.418-29.832-21.357-43.338-32.979c-15.897-13.688-30.908-28.385-44.938-43.985
			c-24.677-27.422-46.969-57.781-62.31-91.465c-9.445-20.72-16.211-42.862-15.781-65.812c0.13-7.478-5.901-13.726-13.388-13.863
			c-7.475-0.132-13.576,5.912-13.701,13.387c-0.463,27.021,7.188,53.018,18.328,77.441c14.527,31.894,34.756,60.988,57.363,87.65
			c14.139,16.681,29.397,32.443,45.579,47.167c23.79,21.66,50.534,41.692,79.03,59.124c20.182,85.685,67.225,166.246,129.712,226.27
			c37.167,35.694,80.37,65.055,129.231,82.063c6.694,2.331,13.93-1.118,16.262-7.799c2.313-6.696-1.132-14.084-7.813-16.416
			c-45.37-15.79-85.501-43.196-119.991-76.334c-16.713-16.048-32.091-33.455-46.046-51.952
			c-30.973-41.017-55.072-88.409-70.112-138.162c69.302,35.426,147.236,52.832,223.404,33.785
			c17.929-4.472,35.398-10.898,51.949-19.113c21.354-10.619,40.684-24.506,58.334-40.483c9.676-8.769,18.818-18.195,27.406-28.048
			c59.369-68.138,100.178-168.91,60.234-256.546c-7.002-15.369-16.206-29.654-27.093-42.551
			c-17.012-20.16-38.238-37.81-61.191-50.835c-20.698-11.744-42.503-18.166-64.704-20.24
			C2433.607,388.007,2363.803,420.318,2312.168,460.843z M2531.42,427.856c13.564,4.895,25.781,12.149,37.445,20.554
			c13.597,9.806,26.166,21.109,36.974,33.942c8.338,9.898,15.618,20.725,21.35,32.345c35.843,72.677,3.985,157.812-42.54,217.68
			c-9.388,12.06-19.578,23.494-30.594,34.095c-17.507,16.826-37.022,31.585-58.809,42.397
			c-12.743,6.316-26.141,11.421-39.832,15.291c-79.375,22.434-162.077-0.416-232.646-41.588
			c-10.2-50.462-10.523-102.546,3.346-152.973c5.414-19.709,12.517-39.217,22.297-57.203c12.584-23.118,29.283-44.016,47.812-62.632
			c34.029-34.184,75.631-62.502,121.429-78.23c18.152-6.243,37.446-10.466,56.727-11.475
			C2493.649,419.023,2513.037,421.227,2531.42,427.856z"/>
	</g>
</g>
<g id="Layer_3">
	<g>
		<g>
			<path fill="#637CC6" d="M880.933,399.976c113.495,0,226.945-1.132,340.39,2.473c45.062,1.434,90.153,2.799,135.169,5.314
				c43.945,2.453,87.329-3.523,131.251-5.085c63.457-2.248,126.585,4.597,190.104,1.357c44.216-2.254,87.831,4.33,132.092,3.11
				c35.256-0.968,70.53-3.543,105.616-7.102c18.033-1.833,37.133-0.067,55.23-0.067c57.73,0,115.456,0,173.188,0
				c32.886,0,32.886-50.998,0-50.998c-63.269,0-126.537,0-189.802,0c-65.513,0-130.647,10.496-196.231,6.793
				c-20.624-1.168-40.729-4.029-61.467-3.519c-22.192,0.545-44.305,2.253-66.511,2.468c-36.327,0.346-72.51-3.202-108.82-3.509
				c-30.879-0.258-61.697,1.622-92.458,4.054c-19.339,1.529-38.948,3.825-58.359,2.381c-17.946-1.335-35.942-2.03-53.914-2.784
				c-46.229-1.942-92.491-3.376-138.74-4.741c-98.839-2.924-197.856-1.143-296.741-1.143
				C848.047,348.978,848.047,399.976,880.933,399.976L880.933,399.976z"/>
		</g>
	</g>
	<g>
		<g>
			<path fill="#637CC6" d="M1026.125,536.859c126.352,0,252.902-2.04,378.98,8.364c19.894,1.644,39.538-1.178,59.339-3.09
				c34.566-3.334,68.958-3.718,103.59-1.036c27.858,2.158,55.5,1.444,83.338-0.336c20.863-1.337,40.353,1.314,61.043,2.968
				c40.484,3.228,82.511-1.539,122.681-6.865c8.178-1.086,17.242,0,25.464,0c19.06,0,38.124,0,57.179,0c31.788,0,63.573,0,95.356,0
				c13.151,0,13.151-20.4,0-20.4c-58.946,0-117.887,0-176.835,0c-10.249,0-20.888,2.363-31.075,3.382
				c-25.938,2.603-52.044,4.442-78.131,4.106c-21.525-0.277-42.481-4.891-64.065-4.198c-24.318,0.787-48.338,2.933-72.717,2.174
				c-36.489-1.138-72.169-4.254-108.722-1.654c-22.627,1.611-45.489,5.952-68.214,5.217c-41.825-1.344-83.713-5.038-125.563-6.731
				c-57.241-2.314-114.239-2.296-171.541-2.296c-30.033,0-60.066,0-90.103,0C1012.972,516.459,1012.972,536.859,1026.125,536.859
				L1026.125,536.859z"/>
		</g>
	</g>
	<g>
		<g>
			<path fill="#637CC6" d="M448.955,2080.061c0-124.526-0.146-248.479,5.932-372.881c0.846-17.262,2.564-34.533,3.147-51.806
				c0.76-22.63-3.23-45.608-4.928-68.142c-4.783-63.324,3.514-126.38-0.219-189.763c-1.285-21.844,0.448-42.252,2.398-60.739
				c2.711-25.738,1.07-52.111-0.583-77.864c-1.616-25.218-5.748-50.311-5.748-75.573c0-60.57,0-121.135,0-181.707
				c0-32.883-50.998-32.883-50.998,0c0,61.815,0,123.629,0,185.444c0,27.15,4.769,54.379,6.335,81.504
				c0.75,13.019,1.173,26.05,1.203,39.095c0.01,6.054-0.152,12.102-0.423,18.15c-0.123,2.774-0.332,5.548-0.551,8.317
				c-0.142,1.729-0.316,3.459-0.511,5.188c0.414-2.852,0.379-2.565-0.112,0.852c-3.085,21.724-2.881,42.858-1.576,64.701
				c3.857,64.36-4.727,128.284,0.597,192.685c1.728,20.93,5.426,42.385,3.815,63.42c-1.387,18.09-2.373,36.197-3.234,54.305
				c-2.839,59.768-5.543,119.577-5.543,179.414c0,61.8,0,123.604,0,185.398C397.958,2112.95,448.955,2112.95,448.955,2080.061
				L448.955,2080.061z"/>
		</g>
	</g>
	<g>
		<g>
			<path fill="#637CC6" d="M580.74,1994.5c0-59.724,0-119.446,0-179.181c0-28.147,2.201-56.456,3.554-84.563
				c1.921-40.012,7.587-80.277,3.09-120.18c-3.636-32.276-5.528-64.347-3.203-96.818c2.054-28.726,2.433-56.628,0.414-85.345
				c-1.479-21.041,2.375-40.701,3.436-61.575c1.313-25.753-1.188-51.817-3.962-77.398c-0.894-8.252-1.942-16.482-3.055-24.709
				c-0.204-1.494-0.414-2.983-0.627-4.473c0.744,5.135,0.346,1.515,0.346,0.113c0-13.33,0-26.667,0-39.997
				c0-36.759,0-73.519,0-110.278c0-2.739,0-5.478,0-8.218c0-13.149-20.399-13.149-20.399,0c0,28.948,0,57.898,0,86.841
				c0,25.529-3.007,53.057,0.588,78.396c2.749,19.375,4.642,38.898,5.932,58.414c1.641,24.908-0.424,48.188-2.836,72.84
				c-2.025,20.716,1.454,41.723,1.994,62.433c0.929,35.285-4.498,70.234-2.933,105.574c1.093,24.628,5.961,49.063,6.37,73.697
				c0.291,17.6-2.604,35.709-3.61,53.289c-2.233,39.141-3.89,78.31-5.411,117.475c-2.269,58.587-0.085,117.638-0.085,176.271
				c0,2.46,0,4.919,0,7.38C560.34,2007.653,580.74,2007.653,580.74,1994.5L580.74,1994.5z"/>
		</g>
	</g>
	<g>
		<g>
			<path fill="#637CC6" d="M2639.386,2080.061c0-124.526,0.148-248.479-5.927-372.881c-0.842-17.262-2.569-34.533-3.143-51.806
				c-0.767-22.63,3.228-45.608,4.925-68.142c4.781-63.324-3.511-126.38,0.221-189.763c0.549-9.293,0.916-18.584,0.731-27.892
				c-0.096-4.911-0.454-9.812-0.901-14.702c-0.243-2.656-0.593-5.309-0.938-7.966c-0.407-3.187-0.842-6.37-1.304-9.552
				c0.373,2.774,0.377,2.56,0.014-0.632c-2.714-25.738-1.074-52.111,0.573-77.864c1.618-25.217,5.747-50.311,5.747-75.573
				c0-60.569,0-121.134,0-181.707c0-32.882-50.997-32.882-50.997,0c0,61.814,0,123.63,0,185.445c0,27.15-4.771,54.379-6.331,81.504
				c-2.818,48.744,4.807,88.808,1.968,136.297c-3.854,64.358,4.728,128.284-0.592,192.687c-1.734,20.926-5.424,42.381-3.815,63.42
				c1.391,18.086,2.37,36.195,3.231,54.305c2.845,59.768,5.544,119.574,5.544,179.413c0,61.8,0,123.604,0,185.398
				C2588.389,2112.95,2639.386,2112.95,2639.386,2080.061L2639.386,2080.061z"/>
		</g>
	</g>
	<g>
		<g>
			<path fill="#637CC6" d="M2477.004,1994.5c0-59.724,0-119.446,0-179.181c0-28.147-2.204-56.456-3.545-84.563
				c-1.929-40.012-7.592-80.277-3.1-120.18c3.637-32.276,5.528-64.347,3.208-96.818c-2.063-28.726-2.431-56.628-0.413-85.345
				c1.479-21.046-2.376-40.706-3.44-61.575c-1.306-25.753,1.188-51.817,3.964-77.398c6.444-59.372,3.326-119.62,3.326-179.339
				c0-2.739,0-5.479,0-8.217c0-13.151-20.398-13.151-20.398,0c0,28.948,0,57.898,0,86.84c0,18.583,0,37.16,0,55.744
				c0,5.055,0,10.115,0,15.172c0,6.399,0.777-2.53-0.109,3.922c-2.854,20.579-5.029,41.251-6.398,61.977
				c-1.643,24.904,0.422,48.194,2.834,72.841c2.031,20.715-1.45,41.722-1.993,62.433c-0.931,35.285,4.502,70.233,2.924,105.574
				c-1.09,24.626-5.961,49.066-6.364,73.698c-0.289,17.601,2.614,35.708,3.615,53.294c2.236,39.135,3.896,78.304,5.414,117.469
				c2.266,58.588,0.084,117.646,0.084,176.271c0,2.46,0,4.921,0,7.381C2456.605,2007.653,2477.004,2007.653,2477.004,1994.5
				L2477.004,1994.5z"/>
		</g>
	</g>
	<g>
		<g>
			<path fill="#637CC6" d="M880.933,2751.768c113.495,0,226.945,1.125,340.39-2.479c45.062-1.425,90.153-2.799,135.169-5.31
				c43.945-2.459,87.329,3.525,131.251,5.08c63.457,2.252,126.585-4.593,190.104-1.354c44.216,2.26,87.831-4.323,132.092-3.108
				c35.256,0.968,70.53,3.546,105.616,7.104c18.033,1.832,37.133,0.069,55.23,0.069c57.73,0,115.456,0,173.188,0
				c32.886,0,32.886-50.998,0-50.998c-63.269,0-126.537,0-189.802,0c-65.513,0-130.647-10.498-196.231-6.793
				c-20.624,1.176-40.729,4.033-61.467,3.516c-22.192-0.548-44.305-2.251-66.511-2.461c-36.327-0.338-72.51,3.197-108.82,3.508
				c-30.879,0.259-61.697-1.624-92.458-4.055c-19.339-1.534-38.948-3.824-58.359-2.381c-17.946,1.336-35.942,2.021-53.914,2.788
				c-46.229,1.942-92.491,3.367-138.74,4.741c-98.848,2.919-197.866,1.136-296.746,1.136
				C848.047,2700.77,848.047,2751.768,880.933,2751.768L880.933,2751.768z"/>
		</g>
	</g>
	<g>
		<g>
			<path fill="#637CC6" d="M1026.125,2584.282c126.352,0,252.902,2.042,378.98-8.356c19.894-1.644,39.538,1.176,59.339,3.088
				c34.566,3.338,68.958,3.715,103.59,1.035c27.858-2.16,55.5-1.443,83.338,0.34c20.863,1.334,40.353-1.324,61.043-2.969
				c40.484-3.229,82.511,1.534,122.681,6.862c8.178,1.085,17.242,0,25.464,0c19.06,0,38.124,0,57.179,0c31.788,0,63.573,0,95.356,0
				c13.151,0,13.151-20.397,0-20.397c-58.946,0-117.887,0-176.835,0c-10.249,0-20.888-2.362-31.075-3.377
				c-25.938-2.602-52.044-4.443-78.131-4.113c-21.525,0.279-42.486,4.899-64.065,4.202c-24.318-0.787-48.338-2.93-72.717-2.183
				c-36.489,1.146-72.169,4.255-108.722,1.655c-22.627-1.604-45.489-5.947-68.214-5.21c-41.825,1.344-83.713,5.03-125.563,6.723
				c-57.241,2.313-114.239,2.291-171.541,2.291c-30.033,0-60.066,0-90.103,0C1012.972,2563.883,1012.972,2584.282,1026.125,2584.282
				L1026.125,2584.282z"/>
		</g>
	</g>
</g>
</svg>
