<?xml version="1.0" encoding="utf-8"?>
<!-- Generator: Adobe Illustrator 16.0.0, SVG Export Plug-In . SVG Version: 6.00 Build 0)  -->
<!DOCTYPE svg PUBLIC "-//W3C//DTD SVG 1.1//EN" "http://www.w3.org/Graphics/SVG/1.1/DTD/svg11.dtd">
<svg version="1.1" id="Layer_1" xmlns="http://www.w3.org/2000/svg" xmlns:xlink="http://www.w3.org/1999/xlink" x="0px" y="0px"
	 width="86.354px" height="85.032px" viewBox="0 0 86.354 85.032" enable-background="new 0 0 86.354 85.032" xml:space="preserve">
<g>
	<path d="M68.264,37.189c-0.196-0.031-0.398-0.017-0.587,0.043c-0.144,0.045-0.279,0.125-0.411,0.196
		c-0.091,0.048-0.187,0.099-0.277,0.148c-0.09,0.048-0.178,0.095-0.268,0.143c-0.18,0.097-0.346,0.188-0.525,0.287
		c-0.255,0.142-0.511,0.284-0.764,0.43c-2.239,1.288-4.412,2.764-6.136,4.709c-0.818,0.923-1.522,1.94-2.106,3.027
		c-0.943,1.756-1.579,3.66-2.072,5.587c-0.708,2.764-1.155,5.596-1.576,8.414c-0.179,1.199-0.345,2.402-0.444,3.61
		c-0.129,1.57-0.144,3.164,0.206,4.709c0.48,2.124,1.647,3.979,2.87,5.749c0.361,0.523,1.08,0.652,1.604,0.291
		c0.523-0.361,0.652-1.08,0.291-1.604c-1.007-1.459-2.014-2.979-2.459-4.718c-0.415-1.615-0.315-3.314-0.144-4.957
		c0.217-2.074,0.561-4.14,0.917-6.193c0.319-1.848,0.684-3.695,1.193-5.501c0.416-1.476,0.937-2.928,1.667-4.279
		c0.53-0.981,1.179-1.903,1.934-2.727c1.127-1.228,2.471-2.236,3.873-3.128c0.747-0.475,1.512-0.92,2.287-1.347
		c0.165-0.09,0.331-0.178,0.497-0.267c1.607,1.761,3.186,3.605,4.278,5.75c0.671,1.316,1.135,2.727,1.385,4.183
		c0.298,1.736,0.313,3.509,0.206,5.263c-0.123,1.996-0.406,3.979-0.731,5.95c-0.314,1.913-0.627,3.831-1.064,5.721
		c-0.376,1.623-0.854,3.259-1.748,4.68c-0.826,1.315-1.983,2.349-3.204,3.286c-0.533,0.409-0.634,1.172-0.225,1.704
		c0.409,0.533,1.172,0.635,1.705,0.225c0.881-0.677,1.733-1.393,2.483-2.216c0.689-0.756,1.281-1.596,1.757-2.502
		c0.704-1.339,1.154-2.795,1.509-4.26c0.338-1.39,0.593-2.798,0.836-4.207c0.521-3.013,1.024-6.045,1.132-9.106
		c0.1-2.834-0.183-5.682-1.236-8.333c-1.003-2.521-2.635-4.726-4.418-6.748c-0.184-0.209-0.371-0.415-0.559-0.621
		c-0.13-0.144-0.255-0.283-0.387-0.425C69.191,37.763,68.825,37.277,68.264,37.189z"/>
</g>
<path stroke="#000000" stroke-width="2.5" stroke-linejoin="round" stroke-miterlimit="10" d="M66.276,43.95
	c0,0-5.721-2.302-7.702-5.134c-0.618,5.074,6.817,12.006,6.817,12.006L66.276,43.95z"/>
<path fill="none" stroke="#000000" stroke-width="2.5" stroke-linejoin="round" stroke-miterlimit="10" d="M44.461,20.521
	c0-3.322,2.692-6.015,6.015-6.015s6.016,2.693,6.016,6.015s-2.693,6.015-6.016,6.015S44.461,23.844,44.461,20.521z"/>
<g>
	<path d="M50.228,7.028c-0.673,0-1.218,0.545-1.218,1.217c0.009,1.017,0.062,2.03,0.066,3.047c0,0.636,0.515,1.151,1.151,1.151
		c0.636,0,1.155-0.515,1.155-1.151c0.004-1.017,0.053-2.03,0.062-3.047C51.445,7.573,50.9,7.028,50.228,7.028z"/>
</g>
<g>
	<path d="M38.155,19.1c-0.672,0-1.213,0.545-1.213,1.218s0.541,1.213,1.213,1.213c1.017-0.009,2.035-0.058,3.052-0.062
		c0.636,0,1.151-0.515,1.151-1.151s-0.515-1.156-1.151-1.156C40.19,19.157,39.172,19.109,38.155,19.1z"/>
</g>
<g>
	<path d="M62.7,19.1c-1.017,0.009-2.034,0.058-3.051,0.062c-0.637,0-1.151,0.52-1.151,1.156s0.515,1.151,1.151,1.151
		c1.017,0.004,2.034,0.053,3.051,0.062c0.672,0,1.213-0.541,1.213-1.213S63.372,19.1,62.7,19.1z"/>
</g>
<g>
	<path d="M42.558,10.91c-0.309,0.044-0.601,0.208-0.802,0.478c-0.403,0.538-0.294,1.302,0.243,1.705
		c0.237,0.173,0.488,0.33,0.721,0.506c0.251,0.19,0.486,0.402,0.721,0.611c0.473,0.426,1.202,0.387,1.628-0.086
		c0.427-0.473,0.388-1.203-0.086-1.628c-0.267-0.244-0.511-0.512-0.778-0.755c-0.236-0.214-0.492-0.402-0.745-0.597
		C43.192,10.942,42.866,10.866,42.558,10.91z"/>
</g>
<g>
	<path d="M57.481,11.311c-0.312,0-0.621,0.121-0.859,0.358c-0.167,0.195-0.15,0.175-0.167,0.195
		c0.008-0.016,0.033-0.038,0.023-0.047c-0.048-0.048-0.081,0.108-0.124,0.162c-0.042,0.054-0.173,0.214-0.129,0.163
		c0.134-0.156,0.001-0.002-0.139,0.148c-0.449,0.45-0.449,1.178,0,1.628c0.45,0.45,1.184,0.45,1.634,0
		c0.177-0.15,0.158-0.133,0.177-0.148c0.043-0.005,0.089-0.08,0.134-0.115c0.054-0.042,0.214-0.173,0.162-0.129
		c-0.156,0.133-0.001,0,0.148-0.139c0.475-0.475,0.475-1.244,0-1.719C58.103,11.432,57.792,11.311,57.481,11.311z"/>
</g>
<g>
	<path d="M50.228,28.794c-0.637,0-1.151,0.514-1.151,1.151c-0.005,1.017-0.058,2.03-0.066,3.046c0,0.672,0.545,1.218,1.218,1.218
		c0.672,0,1.217-0.545,1.217-1.218c-0.009-1.017-0.058-2.03-0.062-3.046C51.383,29.308,50.864,28.794,50.228,28.794z"/>
</g>
<g>
	<path d="M44.273,26.735c-0.295-0.015-0.595,0.079-0.831,0.292c-0.235,0.209-0.47,0.421-0.721,0.611
		c-0.233,0.177-0.484,0.333-0.721,0.506c-0.538,0.403-0.646,1.167-0.243,1.705c0.403,0.538,1.167,0.646,1.705,0.244
		c0.252-0.195,0.508-0.383,0.745-0.597c0.268-0.242,0.512-0.51,0.778-0.754c0.474-0.426,0.513-1.156,0.086-1.628
		C44.857,26.876,44.567,26.751,44.273,26.735z"/>
</g>
<g>
	<path d="M56.904,26.979c-0.295,0-0.592,0.114-0.817,0.339c-0.449,0.45-0.449,1.179,0,1.629c0.147,0.172,0.134,0.153,0.148,0.172
		c-0.001,0.043,0.083,0.092,0.119,0.138c0.043,0.054,0.169,0.215,0.124,0.163c-0.132-0.156,0.005-0.001,0.144,0.148
		c0.476,0.475,1.244,0.475,1.72,0c0.475-0.476,0.475-1.244,0-1.719c-0.181-0.154-0.163-0.138-0.182-0.153
		c0.01,0.002,0.026,0.021,0.033,0.015c0.049-0.049-0.108-0.087-0.162-0.129c-0.055-0.042-0.215-0.168-0.163-0.124
		c0.156,0.133,0.002,0-0.147-0.139C57.494,27.093,57.198,26.979,56.904,26.979z"/>
</g>
<g>
	<path d="M80.948,76.695c-0.158,0.007-0.321,0.048-0.473,0.12c-1.91,0.922-4.01,0.805-6.036,0.401
		c-0.624-0.126-1.231,0.278-1.356,0.902c-0.126,0.623,0.278,1.23,0.902,1.356c1.884,0.382,3.859,0.609,5.755,0.172
		c0.62-0.144,1.211-0.365,1.785-0.636c0.607-0.289,0.862-1.017,0.573-1.623C81.881,76.932,81.421,76.674,80.948,76.695z"/>
</g>
<g>
	<path d="M57.596,72.302c-3.265-0.083-6.504,0.702-9.594,1.714c-1.146,0.375-2.278,0.785-3.41,1.199
		c-0.331,0.121-0.662,0.241-0.993,0.362c-0.251,0.092-0.497,0.187-0.759,0.234c-0.646,0.118-1.319,0.067-1.968-0.005
		c-0.93-0.103-1.85-0.286-2.774-0.425c-0.728-0.109-1.457-0.189-2.192-0.101c-2.057,0.248-3.786,1.52-5.396,2.727
		c-0.423,0.317-0.848,0.64-1.28,0.945c-0.301,0.214-0.603,0.423-0.931,0.593c-0.919,0.474-1.945,0.723-2.966,0.854
		c-1.601,0.207-3.225,0.117-4.818-0.109c-0.63-0.09-1.214,0.349-1.304,0.979s0.349,1.209,0.979,1.299
		c2.005,0.286,4.061,0.372,6.065,0.024c1.129-0.196,2.245-0.532,3.257-1.08c0.636-0.344,1.221-0.781,1.8-1.212
		c0.719-0.535,1.431-1.075,2.178-1.571c0.772-0.514,1.637-0.981,2.564-1.122c0.567-0.087,1.134-0.006,1.695,0.081
		c0.377,0.058,0.751,0.126,1.127,0.19c1.434,0.246,2.93,0.503,4.379,0.248c0.684-0.119,1.332-0.399,1.982-0.635
		c0.94-0.341,1.882-0.68,2.831-0.998c3.415-1.144,7.037-2.093,10.668-1.7c2.341,0.253,4.567,1.118,6.753,1.948
		c1.975,0.751,3.946,1.53,5.969,2.145c0.822,0.249,1.65,0.463,2.488,0.649c0.656,0.146,1.306-0.271,1.452-0.927
		c0.146-0.656-0.266-1.306-0.922-1.451c-2.95-0.653-5.746-1.793-8.567-2.852c-2.24-0.841-4.52-1.663-6.914-1.914
		C58.528,72.344,58.062,72.314,57.596,72.302z"/>
</g>
<g>
	<path d="M28.208,52.961c-0.307-0.052-0.633,0.011-0.907,0.206c-0.548,0.39-0.677,1.152-0.287,1.699
		c1.12,1.565,2.286,3.118,3.749,4.384c1.318,1.141,2.844,2.005,4.365,2.842c0.557,0.308,1.254,0.104,1.562-0.454
		c0.308-0.557,0.108-1.259-0.449-1.566c-1.271-0.703-2.55-1.42-3.658-2.368c-1.412-1.209-2.519-2.742-3.586-4.25
		C28.801,53.18,28.515,53.013,28.208,52.961z"/>
</g>
<g>
	<path d="M54.281,60.703c-0.149-0.011-0.303,0.006-0.453,0.058c-0.563,0.19-1.142,0.34-1.72,0.478
		c-0.921,0.219-1.855,0.396-2.793,0.525c-2.718,0.372-5.527,0.409-8.224-0.144c-0.571-0.117-1.133-0.267-1.69-0.435
		c-0.644-0.192-1.321,0.173-1.514,0.816c-0.193,0.645,0.172,1.321,0.816,1.514c1.095,0.325,2.209,0.573,3.343,0.721
		c2.646,0.347,5.338,0.194,7.965-0.229c0.968-0.156,1.93-0.351,2.88-0.588c0.563-0.14,1.126-0.291,1.677-0.478
		c0.603-0.204,0.925-0.858,0.721-1.461C55.136,61.029,54.73,60.735,54.281,60.703z"/>
</g>
<g>
	<path d="M27.625,33.746c-0.768-0.023-1.537-0.006-2.296,0.043c-1.874,0.121-3.733,0.447-5.535,0.974
		c-1.276,0.374-2.53,0.848-3.706,1.471c-1.047,0.555-2.012,1.26-2.927,2.01c-1.556,1.276-2.941,2.769-4.016,4.475
		c-1.122,1.781-1.886,3.764-2.302,5.826C6.1,52.23,6.434,56.058,7.23,59.705c0.566,2.594,1.343,5.154,2.455,7.569
		c2.139,4.647,5.459,8.704,9.593,11.719c1.16,0.845,2.384,1.611,3.658,2.272c0.675,0.351,1.369,0.689,2.087,0.946
		c0.6,0.213,1.257-0.103,1.471-0.702c0.213-0.601-0.103-1.258-0.702-1.471c0.007,0.003-0.012-0.003-0.019-0.005
		c-0.017-0.007-0.031-0.013-0.048-0.02c-0.042-0.017-0.087-0.036-0.129-0.053c-0.115-0.046-0.23-0.089-0.344-0.139
		c-0.332-0.144-0.656-0.301-0.979-0.463c-0.981-0.492-1.928-1.057-2.836-1.671c-2.661-1.802-5.009-4.065-6.896-6.667
		c-1.032-1.423-1.929-2.94-2.674-4.531c-0.788-1.683-1.388-3.438-1.872-5.229c-0.505-1.872-0.904-3.845-1.103-5.831
		c1.064,1.694,2.521,3.183,4.494,3.696c0.404,0.105,0.815,0.165,1.232,0.182c0.598,0.024,1.2-0.042,1.781-0.182
		c1.886-0.45,3.588-1.56,4.651-3.194c0.46-0.707,0.788-1.495,1.017-2.307c1.411,0.999,3.083,1.746,4.842,1.695
		c0.422-0.013,0.847-0.07,1.256-0.177c2.089-0.543,3.563-2.251,4.288-4.227c0.044-0.119,0.066-0.246,0.105-0.367
		c1.194,1.223,2.817,2.017,4.556,1.771c0.352-0.05,0.696-0.143,1.026-0.272c0.386-0.15,0.75-0.351,1.084-0.597
		c1.873-1.38,2.489-3.805,2.249-6.026c-0.078-0.726-0.26-1.417-0.463-2.115c-0.069-0.238-0.125-0.479-0.196-0.716
		c-0.219-0.728-0.499-1.439-0.845-2.116c-1.219-2.378-3.208-4.178-5.64-5.282C32.233,34.246,29.928,33.816,27.625,33.746z
		 M26.021,36.109c1.614-0.062,3.231,0.06,4.785,0.411c1.398,0.316,2.763,0.833,3.963,1.624c1.136,0.75,2.101,1.746,2.794,2.918
		c0.356,0.604,0.644,1.245,0.864,1.91c0.109,0.331,0.186,0.668,0.282,1.002c0.078,0.271,0.166,0.542,0.229,0.817
		c0.184,0.796,0.25,1.625,0.12,2.435c-0.084,0.523-0.254,1.04-0.535,1.49c-0.175,0.281-0.39,0.534-0.65,0.74
		c-0.183,0.146-0.388,0.269-0.606,0.354c-1.5,0.582-2.89-0.617-3.672-1.786c-0.142-0.211-0.271-0.43-0.392-0.654
		c-0.063-0.117-0.122-0.238-0.182-0.357c-0.004-0.009-0.019-0.032-0.014-0.024c-0.005-0.011-0.009-0.022-0.015-0.033
		c-0.017-0.036-0.034-0.07-0.052-0.105c-0.042-0.081-0.086-0.163-0.144-0.233c-0.075-0.092-0.183-0.201-0.282-0.258
		c-0.119-0.069-0.236-0.15-0.372-0.173c-0.212-0.033-0.438-0.049-0.645,0.01c-0.202,0.058-0.38,0.188-0.54,0.325
		c-0.101,0.086-0.16,0.213-0.225,0.329c-0.157,0.285-0.108,0.755-0.124,1.074c-0.005,0.097-0.011,0.195-0.019,0.292
		c-0.016,0.188-0.042,0.376-0.072,0.563c-0.218,1.353-0.821,2.774-1.986,3.572c-0.217,0.147-0.451,0.268-0.697,0.357
		c-1.587,0.58-3.297-0.262-4.556-1.198c-0.231-0.172-0.459-0.352-0.678-0.54c-0.116-0.1-0.226-0.203-0.339-0.306
		c-0.005-0.004-0.02-0.014-0.014-0.01c-0.001-0.001,0-0.004,0-0.004c-0.009-0.008-0.016-0.017-0.024-0.024
		c-0.027-0.025-0.053-0.052-0.082-0.076c-0.077-0.067-0.158-0.128-0.248-0.177c-0.254-0.138-0.553-0.198-0.841-0.144
		c-0.102,0.02-0.201,0.053-0.296,0.096c-0.298,0.136-0.522,0.388-0.645,0.688c-0.043,0.106-0.066,0.217-0.081,0.33
		c-0.005,0.036-0.011,0.073-0.015,0.109c-0.001,0.011,0.001,0.022,0,0.033c0,0.002,0,0.003,0,0.005c0,0.009-0.005,0.02-0.005,0.015
		c-0.007,0.067-0.015,0.134-0.024,0.2c-0.033,0.268-0.077,0.535-0.133,0.798c-0.063,0.293-0.141,0.581-0.239,0.864
		c-0.196,0.564-0.473,1.104-0.841,1.576c-0.755,0.97-1.896,1.607-3.094,1.853c-0.357,0.073-0.725,0.104-1.089,0.076
		c-1.785-0.141-3.051-1.662-3.882-3.108c-0.162-0.281-0.313-0.567-0.454-0.859c-0.307-0.64-0.567-1.303-0.788-1.978
		c-0.071-0.216-0.139-0.435-0.201-0.654c-0.02-0.07-0.039-0.14-0.057-0.21c-0.005-0.021-0.009-0.045-0.014-0.066
		c-0.001-0.006-0.007-0.02-0.005-0.015c-0.031-0.132-0.095-0.244-0.162-0.354c0.258-1.554,0.703-3.074,1.433-4.508
		c0.43-0.846,0.941-1.646,1.528-2.393c0.863-1.097,1.877-2.067,2.975-2.927c0.587-0.459,1.191-0.908,1.838-1.28
		c1.382-0.794,2.919-1.328,4.46-1.714C22.802,36.421,24.407,36.172,26.021,36.109z"/>
</g>
<g>
	<path d="M21.909,68.095c-0.295,0.005-0.586,0.124-0.807,0.354c-0.442,0.458-0.43,1.187,0.028,1.628
		c2.484,2.398,5.413,4.3,8.596,5.635c1.973,0.828,4.025,1.421,6.117,1.862c0.658,0.138,1.304-0.282,1.442-0.94
		c0.138-0.658-0.287-1.305-0.945-1.442c-3.592-0.745-7.114-2.002-10.19-4.03c-1.225-0.808-2.363-1.725-3.419-2.741
		C22.502,68.199,22.204,68.089,21.909,68.095z"/>
</g>
<g>
	<path d="M15.534,57.484c-0.633,0.069-1.086,0.638-1.017,1.271c0.085,0.767,0.329,1.525,0.583,2.249
		c0.55,1.568,1.323,3.032,2.23,4.422c0.37,0.562,1.125,0.719,1.686,0.349c0.562-0.369,0.718-1.124,0.349-1.686
		c-0.758-1.141-1.452-2.341-1.972-3.61c-0.181-0.441-0.334-0.895-0.454-1.356c-0.034-0.133-0.069-0.266-0.096-0.4
		c-0.01-0.052-0.02-0.105-0.028-0.158c-0.001-0.01-0.01-0.059-0.01-0.057C16.735,57.874,16.167,57.415,15.534,57.484z"/>
</g>
<g>
	<path d="M53.981,68.616c-3.066,0.49-6.179,0.864-9.288,0.773c-1.298-0.038-2.589-0.173-3.873-0.367
		c-0.629-0.097-1.217,0.335-1.313,0.964s0.335,1.217,0.965,1.313c2.097,0.323,4.214,0.472,6.336,0.439
		c2.535-0.039,5.053-0.327,7.555-0.717c0.664-0.104,1.117-0.73,1.013-1.395C55.271,68.964,54.645,68.51,53.981,68.616z"/>
</g>
<g>
	<path d="M20.887,53.831c-0.148-0.021-0.304-0.016-0.458,0.024c-0.616,0.159-0.986,0.788-0.826,1.403
		c0.181,0.696,0.455,1.375,0.745,2.03c0.491,1.108,1.081,2.173,1.748,3.185c1.962,2.979,4.599,5.486,7.669,7.302
		c1.509,0.893,3.109,1.604,4.761,2.188c0.634,0.223,1.329-0.111,1.552-0.745c0.223-0.635-0.111-1.329-0.745-1.552
		c-1.1-0.386-2.175-0.83-3.214-1.361c-2.853-1.461-5.394-3.515-7.344-6.064c-0.861-1.127-1.605-2.352-2.202-3.64
		c-0.194-0.418-0.373-0.841-0.53-1.274c-0.054-0.149-0.105-0.302-0.153-0.454c-0.015-0.047-0.029-0.095-0.043-0.143
		c-0.004-0.014-0.006-0.021-0.01-0.033c-0.001-0.005-0.006-0.02-0.004-0.015C21.713,54.218,21.332,53.896,20.887,53.831z"/>
</g>
<path fill="none" stroke="#000000" stroke-width="2.5" stroke-linejoin="round" stroke-miterlimit="10" d="M71.597,42.695l-5,32.054
	"/>
<path fill="none" stroke="#000000" stroke-width="2.5" stroke-linejoin="round" stroke-miterlimit="10" d="M62.041,41.587
	l-4.524,31.67"/>
<path d="M18.777,67.144c0-0.631,0.511-1.143,1.143-1.143c0.63,0,1.142,0.512,1.142,1.143s-0.512,1.143-1.142,1.143
	C19.288,68.287,18.777,67.775,18.777,67.144z"/>
<path d="M36.695,69.625c0-0.63,0.511-1.142,1.142-1.142s1.143,0.512,1.143,1.142c0,0.632-0.512,1.143-1.143,1.143
	S36.695,70.257,36.695,69.625z"/>
</svg>
