<?xml version="1.0" encoding="utf-8"?>
<!-- Generator: Adobe Illustrator 16.0.0, SVG Export Plug-In . SVG Version: 6.00 Build 0)  -->
<!DOCTYPE svg PUBLIC "-//W3C//DTD SVG 1.1//EN" "http://www.w3.org/Graphics/SVG/1.1/DTD/svg11.dtd">
<svg version="1.1" id="Layer_1" xmlns="http://www.w3.org/2000/svg" xmlns:xlink="http://www.w3.org/1999/xlink" x="0px" y="0px"
	 width="86.354px" height="85.032px" viewBox="0 0 86.354 85.032" enable-background="new 0 0 86.354 85.032" xml:space="preserve">
<g>
	<g>
		<path fill="#010101" d="M23.292,15.809c-0.202,0.002-0.403,0.001-0.603,0.029c-0.24,0.033-0.474,0.095-0.708,0.153
			c-0.403,0.1-0.803,0.216-1.193,0.357c-1.155,0.42-2.237,1.048-3.125,1.901c-0.385,0.369-0.731,0.775-1.033,1.214
			c-2.088,3.042-1.819,7.128-1.084,10.565c0.132,0.621,0.285,1.237,0.454,1.849c0.626,2.279,1.458,4.501,2.39,6.672
			c1.095,2.559,2.34,5.054,3.664,7.501c1.562,2.885,3.241,5.702,5.004,8.465c1.171,1.836-0.002,0.002,3.638,5.43
			c0.467,0.648,1.371,0.791,2.019,0.324c0.212-0.154,0.349-0.361,0.449-0.586c3.145-3.742,2.573-2.99,3.796-4.533
			c1.984-2.502,3.88-5.078,5.65-7.739c1.512-2.271,2.938-4.605,4.206-7.024c1.087-2.077,2.065-4.219,2.824-6.439
			c1.395-4.078,2.21-8.954-0.006-12.902c-0.281-0.5-0.605-0.98-0.971-1.424c-0.986-1.204-2.246-2.151-3.624-2.865
			c-0.431-0.223-0.884-0.463-1.345-0.613c-0.23-0.075-0.473-0.115-0.711-0.159c-0.286-0.053-0.571-0.097-0.862-0.125
			c-1.892-0.183-3.733,0.249-5.236,1.441c-0.852,0.675-1.538,1.538-2.093,2.468c-1.229,2.059-1.885,4.424-2.485,6.746
			c-0.04-0.161-0.078-0.322-0.118-0.482c-0.149-0.586-0.298-1.172-0.467-1.753c-0.875-3.007-2.117-6.381-5.151-7.807
			c-0.392-0.184-0.806-0.331-1.225-0.437C24.674,15.866,23.982,15.801,23.292,15.809z M40.925,18.612
			c0.521-0.034,1.045,0.015,1.56,0.107c0.114,0.021,0.23,0.026,0.341,0.063c0.15,0.051,0.298,0.132,0.442,0.199
			c0.248,0.114,0.492,0.232,0.732,0.363c0.702,0.384,1.361,0.851,1.939,1.407c0.357,0.343,0.678,0.721,0.96,1.129
			c1.739,2.536,1.526,5.843,0.854,8.698c-0.453,1.939-1.158,3.817-1.968,5.634c-1.065,2.392-2.325,4.69-3.693,6.922
			c-2.022,3.301-4.27,6.463-6.65,9.514c-1.218,1.564-1.1,1.361-3.404,4.113c-2.155-3.213-2.006-2.932-3.108-4.686
			c-1.879-2.989-3.66-6.041-5.283-9.174c-1.234-2.386-2.384-4.823-3.364-7.325c-0.783-2.001-1.471-4.047-1.923-6.15
			c-0.114-0.535-0.212-1.076-0.291-1.617c-0.35-2.441-0.387-5.475,1.453-7.375c0.245-0.253,0.521-0.478,0.812-0.675
			c0.506-0.345,1.066-0.606,1.647-0.8c0.355-0.119,0.733-0.236,1.105-0.295c0.125-0.02,0.276-0.001,0.403,0
			c0.252,0.003,0.505,0.023,0.754,0.063c0.303,0.047,0.606,0.121,0.891,0.232c0.935,0.366,1.636,1.101,2.168,1.935
			c0.663,1.04,1.097,2.216,1.463,3.387c0.124,0.392,0.24,0.789,0.347,1.186c0.133,0.492,0.262,0.981,0.385,1.476
			c0.186,0.737,0.367,1.479,0.545,2.218c0.093,0.379,0.183,0.755,0.278,1.134c0.076,0.307,0.154,0.614,0.234,0.919
			c0.04,0.154,0.077,0.306,0.118,0.459c0.12,0.444,0.218,0.975,0.585,1.288c0.096,0.082,0.192,0.162,0.307,0.216
			c0.154,0.072,0.318,0.135,0.486,0.153c0.186,0.02,0.371,0.003,0.552-0.04c0.149-0.036,0.289-0.113,0.419-0.193
			c0.51-0.31,0.699-1.107,0.862-1.634c0.063-0.206,0.127-0.411,0.187-0.618c0.082-0.284,0.162-0.571,0.238-0.857
			c0.098-0.363,0.19-0.725,0.283-1.089c0.189-0.737,0.374-1.478,0.568-2.212c0.154-0.581,0.312-1.162,0.488-1.736
			c0.127-0.416,0.262-0.828,0.409-1.237c0.677-1.895,1.729-4.216,3.8-4.896C40.204,18.703,40.562,18.635,40.925,18.612z"/>
	</g>
	<g>
		<path fill="#010101" d="M60.958,23.945c-0.291,0.007-0.582,0.025-0.873,0.057c-1.891,0.204-3.602,0.996-4.834,2.468
			c-0.697,0.834-1.193,1.813-1.548,2.837c-0.786,2.261-0.955,4.711-1.073,7.104c-0.07-0.147-0.138-0.296-0.211-0.443
			c-0.263-0.543-0.527-1.088-0.811-1.623c-1.467-2.768-3.372-5.816-6.633-6.599c-0.422-0.101-0.85-0.157-1.281-0.176
			c-0.692-0.03-1.384,0.04-2.06,0.188c-0.196,0.042-0.396,0.086-0.584,0.153c-0.229,0.081-0.447,0.185-0.665,0.289
			c-0.374,0.179-0.737,0.378-1.089,0.596c-1.046,0.645-1.979,1.475-2.678,2.491c-0.302,0.439-0.56,0.91-0.766,1.401
			c-1.429,3.402-0.338,7.343,1.078,10.559c0.256,0.582,0.528,1.158,0.817,1.725c1.075,2.105,2.344,4.11,3.693,6.049
			c1.591,2.283,3.31,4.469,5.101,6.598c2.111,2.508,4.328,4.934,6.617,7.285c1.516,1.561,0,0,4.662,4.578
			c0.588,0.541,1.502,0.498,2.043-0.09c0.18-0.197,0.271-0.434,0.322-0.676c2.309-4.277,1.914-3.441,2.799-5.197
			c1.438-2.854,2.771-5.758,3.965-8.721c1.02-2.531,1.943-5.108,2.695-7.733c0.645-2.254,1.17-4.549,1.463-6.877
			c0.541-4.275,0.355-9.217-2.615-12.635c-0.377-0.434-0.789-0.836-1.236-1.197c-1.211-0.979-2.637-1.656-4.131-2.077
			c-0.467-0.131-0.959-0.27-1.441-0.324C61.444,23.93,61.202,23.94,60.958,23.945z M61.366,26.714
			c0.16,0.019,0.316,0.066,0.473,0.102c0.266,0.062,0.531,0.136,0.793,0.216c0.766,0.234,1.508,0.554,2.184,0.981
			c0.42,0.264,0.814,0.564,1.17,0.908c2.217,2.131,2.678,5.415,2.598,8.346c-0.053,1.991-0.363,3.974-0.787,5.917
			c-0.559,2.558-1.33,5.061-2.219,7.524c-1.311,3.643-2.873,7.195-4.584,10.666c-0.877,1.779-0.803,1.559-2.502,4.721
			c-2.766-2.715-2.559-2.471-3.994-3.967c-2.444-2.545-4.801-5.174-7.025-7.914c-1.691-2.086-3.314-4.239-4.782-6.491
			c-1.173-1.801-2.259-3.666-3.126-5.634c-0.222-0.5-0.427-1.006-0.614-1.521c-0.837-2.319-1.485-5.29-0.067-7.523
			c0.189-0.297,0.409-0.57,0.652-0.822c0.427-0.44,0.924-0.805,1.453-1.112c0.327-0.189,0.674-0.384,1.028-0.516
			c0.118-0.044,0.267-0.062,0.392-0.085c0.247-0.048,0.501-0.078,0.753-0.091c0.307-0.015,0.612,0,0.913,0.051
			c0.99,0.169,1.83,0.743,2.52,1.453c0.859,0.884,1.52,1.952,2.117,3.024c0.198,0.359,0.398,0.723,0.583,1.089
			c0.231,0.454,0.454,0.909,0.676,1.367c0.33,0.685,0.651,1.373,0.977,2.06c0.167,0.353,0.336,0.709,0.505,1.061
			c0.137,0.285,0.273,0.568,0.414,0.851c0.07,0.143,0.143,0.284,0.216,0.426c0.205,0.41,0.407,0.908,0.827,1.14
			c0.111,0.061,0.225,0.124,0.348,0.153c0.165,0.04,0.334,0.067,0.504,0.052c0.184-0.019,0.365-0.075,0.533-0.154
			c0.139-0.064,0.258-0.168,0.369-0.271c0.436-0.407,0.461-1.227,0.516-1.776c0.021-0.215,0.041-0.431,0.057-0.647
			c0.023-0.294,0.041-0.59,0.057-0.885c0.023-0.375,0.045-0.748,0.064-1.124c0.033-0.76,0.064-1.521,0.105-2.281
			c0.035-0.6,0.076-1.2,0.131-1.799c0.041-0.433,0.088-0.863,0.148-1.293c0.279-1.993,0.83-4.479,2.723-5.566
			c0.316-0.181,0.66-0.318,1.012-0.414c0.502-0.139,1.025-0.197,1.549-0.21C61.138,26.723,61.253,26.7,61.366,26.714z"/>
	</g>
</g>
</svg>
