<svg width="59" height="59" viewBox="0 0 59 59" fill="none" xmlns="http://www.w3.org/2000/svg">
<path d="M56.9743 43.4752C56.722 43.4645 56.4686 43.4806 56.2167 43.4928C55.4163 43.5303 54.6152 43.5801 53.8155 43.6312C50.5826 43.8369 47.3518 44.0628 44.1185 44.2616C42.7438 44.3463 41.3706 44.4336 39.9942 44.4794C37.7187 44.5559 35.4369 44.5667 33.1604 44.5559C29.3409 44.5359 25.5221 44.4026 21.7028 44.5089C18.5681 44.5962 15.4512 44.8665 12.3387 45.2441C9.83403 45.5495 7.31079 45.6986 4.8142 46.0723C4.49107 46.1206 4.16901 46.1947 3.84455 46.231C3.54766 46.2659 3.2497 46.2821 2.95401 46.3278C2.47544 46.4031 1.99953 46.5335 1.57225 46.7686C1.30426 46.9167 1.05746 47.098 0.843945 47.3199C0.68238 47.4866 0.531469 47.6842 0.415323 47.8872C-0.350012 49.218 0.0892625 50.9038 0.561037 52.2522C0.654406 52.5182 0.752436 52.7831 0.856594 53.0453C0.975803 53.3463 1.10194 53.6421 1.22701 53.9406C1.68466 55.0294 2.92843 55.5402 4.00704 55.0792C5.08565 54.6168 5.58833 53.3571 5.1308 52.2683C4.88679 51.6888 4.64318 51.1082 4.45244 50.5085C4.44752 50.4924 4.44472 50.4778 4.43992 50.4615C4.45511 50.4601 4.47056 50.4601 4.48574 50.4574C4.75293 50.4185 5.01812 50.3621 5.28478 50.3191C5.72166 50.2491 6.16093 50.19 6.59994 50.1349C7.96691 49.9615 9.34081 49.846 10.7118 49.7102C12.6616 49.5179 14.6036 49.245 16.555 49.0677C18.4722 48.8928 20.3945 48.7786 22.319 48.7275C24.8019 48.6616 27.2854 48.6926 29.7687 48.7141C32.2405 48.7355 34.7133 48.7395 37.1849 48.6939C38.5961 48.667 40.004 48.6348 41.4133 48.5554C44.8676 48.3578 48.3203 48.0943 51.772 47.8578C52.5657 47.8028 53.3586 47.7504 54.1524 47.6979C53.9654 48.1308 53.7774 48.565 53.5865 48.9966C52.9069 50.5331 52.1804 52.0656 51.1977 53.4326C50.6629 54.176 50.0542 54.8496 49.379 55.4653C48.5556 56.2153 48.4897 57.4991 49.2333 58.33C49.9767 59.1621 51.2441 59.2281 52.0674 58.4779C53.0709 57.5624 53.9645 56.5408 54.7309 55.4156C55.7453 53.9262 56.5322 52.2969 57.2613 50.6513C57.6296 49.8194 58.0068 48.9912 58.3393 48.1429C58.4968 47.7424 58.6474 47.3351 58.772 46.921C58.8839 46.5499 58.9787 46.1709 58.9969 45.7823C59.011 45.4744 58.9793 45.1519 58.8678 44.8628C58.819 44.7365 58.77 44.6075 58.6972 44.4931C58.597 44.3358 58.5019 44.161 58.3517 44.0523C58.049 43.8306 57.7057 43.6772 57.3654 43.5227C57.284 43.485 57.1878 43.4918 57.099 43.4809C57.0583 43.4752 57.0151 43.4779 56.9743 43.4752Z" fill="#637CC6"/>
<path d="M29.2317 0.000754396C28.0605 0.0315427 27.1329 1.01166 27.1633 2.19331C27.267 6.07036 27.364 9.94995 27.4755 13.8257C27.6617 20.3051 27.8679 26.7847 28.0581 33.2641C28.1887 37.7178 28.3034 42.1715 28.4201 46.6265C28.4489 47.7463 29.3715 48.6309 30.4802 48.6013C31.5892 48.5717 32.4608 47.6415 32.4322 46.5216C32.32 42.0666 32.2057 37.6104 32.1075 33.154C31.9648 26.6731 31.838 20.1936 31.6912 13.7127C31.6037 9.83568 31.4996 5.96146 31.4042 2.08455C31.3738 0.901414 30.403 -0.0303028 29.2317 0.000754396Z" fill="#637CC6"/>
<path d="M26.2456 41.7357L24.9329 11.9098L24.9339 10.3019C24.9339 10.3019 24.6217 9.5411 24.2888 10.6581C22.3744 17.0879 15.3509 39.0806 7.77524 43.045C15.224 42.1 26.2456 41.7357 26.2456 41.7357Z" fill="#637CC6"/>
<path d="M24.8368 9.37721C24.7101 9.35032 24.5736 9.36242 24.4498 9.39724C24.39 9.41472 24.334 9.44027 24.2792 9.46985C24.1604 9.53317 24.0592 9.62446 23.9755 9.72933C23.7175 10.052 23.6298 10.4955 23.5135 10.8814C23.3498 11.4231 23.1832 11.9622 23.014 12.5027C22.3947 14.4815 21.7417 16.4522 21.0538 18.4096C19.9244 21.6212 18.7002 24.7989 17.333 27.9165C16.1492 30.6144 14.8609 33.2789 13.3377 35.8009C12.7037 36.8508 12.0276 37.8777 11.2818 38.8511C10.6177 39.7168 9.89476 40.545 9.07602 41.2668C8.89834 41.4228 8.71466 41.576 8.52672 41.7199C8.38541 41.8288 8.24156 41.9322 8.09384 42.0317C8.02258 42.0787 7.95013 42.1243 7.8774 42.1701C7.80708 42.213 7.73715 42.2587 7.66522 42.3006C7.54295 42.3705 7.39351 42.4282 7.3032 42.5397C7.25965 42.5935 7.2089 42.646 7.18666 42.7118C7.14443 42.8355 7.09222 42.9671 7.11167 43.0976C7.13484 43.2522 7.21649 43.396 7.30733 43.5224C7.36261 43.5989 7.45438 43.6407 7.53629 43.6864C7.73955 43.7994 8.0981 43.7187 8.3272 43.6903C8.40632 43.6811 8.48943 43.6743 8.56855 43.6649C8.6478 43.6555 8.72652 43.6448 8.80577 43.6353C8.96693 43.6165 9.12743 43.5989 9.2886 43.5816C9.53461 43.5533 9.77915 43.5266 10.0253 43.5009C10.2754 43.4754 10.5241 43.4498 10.7744 43.4256C11.1134 43.392 11.4549 43.3597 11.7941 43.3287C15.3866 42.9994 18.9909 42.7749 22.5939 42.6015C23.5372 42.5572 24.4803 42.5168 25.4239 42.4806C25.6331 42.4724 25.8391 42.4631 26.0483 42.455C26.0611 42.455 26.0498 42.4591 26.2689 42.451C26.6593 42.4376 26.9643 42.1056 26.9514 41.7117C26.9487 41.631 26.9281 41.5598 26.9014 41.4886C26.9057 41.4779 26.8997 41.4886 26.9057 41.4725C26.9318 41.3999 26.8965 41.3192 26.893 41.2413C26.8862 41.0853 26.8792 40.9305 26.8724 40.7747C26.8552 40.3862 26.8395 39.999 26.8223 39.6119C26.7642 38.2906 26.7056 36.9704 26.6474 35.6503C26.4223 30.5231 26.2012 25.3959 25.9774 20.2701C25.8722 17.8624 25.7653 15.4521 25.6612 13.0445C25.6361 12.4651 25.6105 11.8898 25.6113 11.3091C25.6116 11.0415 25.6109 10.7713 25.6113 10.5025C25.6113 10.4338 25.6238 10.3653 25.6153 10.2968C25.5621 9.86915 25.2756 9.47133 24.8368 9.37721ZM24.304 12.9356C24.3101 13.0701 24.3107 13.2044 24.3166 13.3388C24.4002 15.202 24.4837 17.0653 24.5663 18.9298C24.7903 23.9789 25.0137 29.0294 25.2364 34.0787C25.3116 35.7873 25.3898 37.4945 25.4653 39.2032C25.4893 39.7475 25.5121 40.2894 25.5359 40.8337C25.5391 40.905 25.5411 40.9764 25.5443 41.0475C25.2023 41.0611 24.8625 41.0757 24.5203 41.0905C23.3811 41.1376 22.2421 41.1886 21.1036 41.2492C17.7828 41.4253 14.4593 41.6431 11.1485 41.9589C10.8638 41.9872 10.5799 42.0181 10.2954 42.0477C11.5857 40.8432 12.6752 39.4195 13.6456 37.9476C15.2654 35.4915 16.6098 32.8526 17.8407 30.1803C19.5093 26.5574 20.9547 22.8324 22.2773 19.0684C22.9435 17.1728 23.5772 15.2599 24.1792 13.343C24.2219 13.2071 24.2619 13.0713 24.304 12.9356Z" fill="#637CC6"/>
<path d="M35.0905 41.5946C33.6261 35.6716 34.0597 9.33284 33.6842 6.29999C33.5462 5.18704 33.2797 4.11819 33.152 3.0012C33.1228 2.74576 32.8226 2.2081 33.0762 2.23499C33.6685 2.29401 38.6524 8.42009 39.2329 9.13938C44.9378 16.2063 49.8216 22.2852 52.6109 31.0837C53.3867 33.5302 54.0015 36.1987 54.2831 38.7556C54.3116 39.0151 54.664 40.6577 54.5111 40.8272C53.6305 41.8043 37.9408 41.6712 35.0905 41.5946Z" fill="#637CC6"/>
<path d="M33.023 1.54259C32.9447 1.54528 32.8659 1.56545 32.7859 1.59624C32.7144 1.62447 32.6466 1.66211 32.5861 1.71051C32.5259 1.75771 32.4721 1.81538 32.4279 1.87857C32.3889 1.9337 32.3585 1.99837 32.3363 2.06277C32.3146 2.12596 32.306 2.19049 32.2988 2.25637C32.2614 2.59517 32.4507 2.90158 32.4944 3.23084C32.5818 3.8856 32.7018 4.53484 32.8191 5.18408C32.9025 5.64645 32.9905 6.11042 33.0314 6.57951C33.1309 7.72486 33.1277 8.87962 33.1478 10.0275C33.1797 11.8477 33.1956 13.6693 33.2144 15.4894C33.2547 19.3986 33.2986 23.3066 33.3934 27.2144C33.4571 29.8344 33.5402 32.4572 33.693 35.0731C33.7881 36.6998 33.9012 38.3277 34.1176 39.9422C34.1752 40.371 34.2382 40.7999 34.3215 41.2247C34.343 41.3323 34.368 41.4398 34.3923 41.5472C34.3915 41.558 34.3841 41.5662 34.3839 41.5768C34.3737 41.9708 34.6801 42.2973 35.0705 42.3081C35.1641 42.3109 35.0215 42.2328 35.1663 42.3121C35.1964 42.3283 35.236 42.3108 35.2703 42.3121C35.3883 42.3148 35.506 42.3175 35.6239 42.3202C35.9247 42.3256 36.2224 42.3284 36.523 42.3324C37.4148 42.3445 38.307 42.3553 39.199 42.3578C41.2239 42.366 43.2505 42.3525 45.2752 42.3202C47.1551 42.2906 49.0379 42.2423 50.9145 42.1225C51.2653 42.101 51.613 42.0768 51.9633 42.0473C52.2129 42.0257 52.4634 42.0029 52.7123 41.976C52.8795 41.9572 53.0451 41.9357 53.2118 41.9128C53.3607 41.8928 53.513 41.8711 53.6612 41.8456C54.1923 41.7542 54.9508 41.6264 55.1844 41.0606C55.238 40.93 55.2533 40.7835 55.2552 40.6438C55.2649 39.9797 55.0714 39.3317 54.9848 38.6784C54.9118 38.1285 54.8476 37.5788 54.7599 37.0316C54.5744 35.8701 54.3293 34.7234 54.0483 33.5822C52.9861 29.2697 51.2374 25.1414 48.9916 21.3235C46.7451 17.5057 44.0271 14.0025 41.2632 10.557C39.7018 8.61046 38.1285 6.67604 36.5022 4.78451C35.9139 4.10031 35.3178 3.42135 34.7002 2.76417C34.3793 2.42268 34.0533 2.06519 33.6762 1.78554C33.4833 1.64208 33.2581 1.53318 33.023 1.54259ZM33.9971 4.02945C34.5566 4.63836 35.1033 5.26085 35.6408 5.89006C37.7537 8.36483 39.7978 10.9056 41.8044 13.4691C44.486 16.8931 47.0419 20.4352 49.0502 24.311C50.8021 27.6932 52.1231 31.3067 52.9456 35.0317C53.1314 35.8732 53.2924 36.7214 53.42 37.5737C53.4859 38.0135 53.5266 38.4569 53.5906 38.8966C53.6608 39.3792 53.7748 39.8564 53.8279 40.3417C53.692 40.378 53.5556 40.4196 53.4199 40.4425C53.134 40.4922 52.8466 40.5285 52.5584 40.5608C51.6034 40.6657 50.6461 40.7207 49.6867 40.7664C46.1207 40.9359 42.5435 40.948 38.9742 40.9304C38.1091 40.9252 37.2422 40.917 36.3771 40.905C36.1263 40.901 35.8747 40.8968 35.6239 40.8929C35.6215 40.8795 35.6181 40.8674 35.6157 40.8539C35.5557 40.5367 35.5067 40.2181 35.4617 39.8968C35.322 38.9034 35.2345 37.9019 35.1579 36.9017C34.9288 33.9053 34.8298 30.8981 34.75 27.895C34.6018 22.3201 34.5907 16.7466 34.5169 11.1705C34.5037 10.173 34.491 9.17299 34.4629 8.17539C34.4461 7.58262 34.4304 6.98567 34.3755 6.39424C34.3127 5.72214 34.1784 5.05932 34.0591 4.39528C34.0376 4.27294 34.0185 4.15059 33.9971 4.02945Z" fill="#637CC6"/>
<path d="M25.3393 6.87139C25.3737 5.31073 25.6509 2.7834 24.9614 2.56022C23.2471 2.00509 21.9971 5.64537 20.3593 5.41695C18.3402 5.13326 16.8095 2.87751 14.6926 2.87751C13.5964 2.87751 12.7351 3.86422 12.0481 5.09952C11.9735 5.23262 10.5745 7.03125 10.6554 7.15642C10.8654 7.4803 13.4277 5.54454 13.834 5.68033C14.8889 6.03392 16.1818 6.33508 17.1311 7.1618C18.0938 7.99927 18.8161 9.53183 20.0503 9.013C22.0542 8.17136 23.1488 5.59966 25.3393 6.87139Z" fill="#637CC6"/>
<path d="M24.6703 1.82748C23.4197 1.77922 22.5477 2.98494 21.778 3.80641C21.6641 3.92727 21.5518 4.05231 21.4325 4.16793C21.3793 4.21902 21.3211 4.26595 21.266 4.31448C21.0536 4.50392 20.761 4.78894 20.4461 4.74323C19.7292 4.64105 19.0885 4.23516 18.4942 3.84392C17.4202 3.13686 16.3335 2.31808 15.015 2.20125C14.7235 2.1757 14.4275 2.18363 14.141 2.2483C13.8496 2.31284 13.5724 2.43384 13.3168 2.58832C12.4911 3.08846 11.9205 3.92337 11.4523 4.7513C11.4485 4.75816 11.4653 4.72454 11.4607 4.73127C11.1094 5.22603 10.7319 5.70318 10.3912 6.20601C10.2424 6.42516 9.99213 6.7477 9.96656 7.02869C9.96056 7.09444 9.94751 7.16166 9.96243 7.22633C9.98946 7.3433 10.0321 7.45879 10.0915 7.56245C10.1302 7.62967 10.1918 7.68332 10.2537 7.73037C10.7809 8.13089 11.5079 7.68076 11.9892 7.40649C12.1079 7.33927 12.2253 7.2707 12.343 7.20079C12.5223 7.09605 12.7005 6.99105 12.8798 6.88632C13.0922 6.76115 13.308 6.63624 13.5248 6.52062C13.5982 6.48163 13.6734 6.44399 13.7497 6.41158C13.7583 6.40755 13.7667 6.40621 13.7747 6.40231C13.8133 6.41575 13.8525 6.42772 13.8913 6.43982C14.0311 6.48553 14.1715 6.5299 14.3116 6.57426C14.8104 6.73291 15.3132 6.89425 15.785 7.1255C16.1859 7.32179 16.5551 7.56635 16.8711 7.88633C17.4822 8.50196 17.9851 9.29923 18.8021 9.66211C19.5454 9.99284 20.2177 9.77504 20.8872 9.38514C21.3888 9.09353 21.8346 8.72246 22.2773 8.34735C22.4694 8.18467 22.6621 8.02064 22.8599 7.86469C23.0807 7.69138 23.3062 7.5326 23.5549 7.40232C23.8218 7.2625 24.1284 7.20348 24.4247 7.26398C24.5473 7.28939 24.6647 7.32972 24.7786 7.38081C24.8123 7.39694 24.7787 7.38363 24.999 7.49912C25.3416 7.68869 25.7733 7.55962 25.9604 7.21423C26.055 7.03945 26.0675 6.8445 26.0145 6.66717C26.0346 6.6146 26.0205 6.5502 26.0229 6.49091C26.0257 6.41978 26.0281 6.34718 26.0313 6.27714C26.0444 5.97342 26.0567 5.66823 26.0687 5.36438C26.0779 5.13057 26.0864 4.89785 26.0893 4.66404C26.0924 4.43696 26.0932 4.20571 26.0853 3.97836C26.06 3.2498 25.9797 2.1878 25.1614 1.91622C25.0038 1.86392 24.836 1.83421 24.6703 1.82748ZM24.6246 3.1893C24.7327 3.516 24.7498 3.88425 24.7537 4.22171C24.7595 4.73799 24.7353 5.25292 24.7121 5.76772C24.7101 5.8094 24.7096 5.84973 24.708 5.89006C24.3429 5.81612 23.971 5.79326 23.605 5.87783C22.5169 6.12669 21.721 6.99629 20.8749 7.66718C20.5947 7.88902 20.2996 8.10131 19.9801 8.26399C19.8644 8.32181 19.7373 8.38903 19.6054 8.40247C19.3131 8.43326 19.0564 8.16316 18.8689 7.97762C18.4721 7.58517 18.136 7.13356 17.7285 6.75173C16.9264 5.99883 15.9014 5.60087 14.8734 5.27295C14.5968 5.18422 14.3176 5.08204 14.0368 5.00809C13.5593 4.88185 13.0858 5.1533 12.6719 5.38992C12.7455 5.26623 12.8202 5.14254 12.8967 5.02019C13.0758 4.7353 13.2706 4.46103 13.5001 4.21365C13.7906 3.90186 14.1676 3.60339 14.6072 3.57112C15.2926 3.52138 15.9644 3.85615 16.5341 4.19751C17.4784 4.76206 18.3485 5.48 19.3893 5.86438C19.8682 6.04185 20.3999 6.17765 20.9082 6.06202C21.3944 5.95312 21.7958 5.66016 22.1608 5.33211C22.6062 4.93146 22.9846 4.46641 23.3927 4.02945C23.6343 3.76997 23.889 3.50928 24.1917 3.32374C24.3206 3.24455 24.4705 3.18271 24.6246 3.1893Z" fill="#637CC6"/>
</svg>
