<?xml version="1.0" encoding="utf-8"?>
<!-- Generator: Adobe Illustrator 16.0.0, SVG Export Plug-In . SVG Version: 6.00 Build 0)  -->
<!DOCTYPE svg PUBLIC "-//W3C//DTD SVG 1.1//EN" "http://www.w3.org/Graphics/SVG/1.1/DTD/svg11.dtd">
<svg version="1.1" id="Layer_1" xmlns="http://www.w3.org/2000/svg" xmlns:xlink="http://www.w3.org/1999/xlink" x="0px" y="0px"
	 width="158.5px" height="124.032px" viewBox="0 0 158.5 124.032" enable-background="new 0 0 158.5 124.032" xml:space="preserve">
<g>
	<path fill="#4374BA" d="M87.433,19.738c-0.366-0.044-0.751,0.049-1.065,0.295c-5.145,4.053-10.258,8.145-15.404,12.193
		c-0.596,0.467-0.7,1.328-0.234,1.923c0.469,0.596,1.33,0.699,1.926,0.233c5.152-4.041,10.338-8.039,15.494-12.074
		c0.627-0.493,0.742-1.402,0.25-2.031C88.151,19.963,87.801,19.783,87.433,19.738z"/>
</g>
<g>
	<path fill="#4374BA" d="M91.234,19.738c-0.367,0.045-0.717,0.225-0.964,0.539c-0.494,0.629-0.386,1.538,0.243,2.031
		c5.156,4.035,10.344,8.033,15.496,12.074c0.594,0.466,1.455,0.362,1.922-0.233c0.467-0.595,0.363-1.456-0.232-1.923
		c-5.146-4.049-10.254-8.141-15.397-12.193C91.988,19.787,91.604,19.694,91.234,19.738z"/>
</g>
<g>
	<g>
		<path fill="#4374BA" d="M87.032,12.431c0.15-2.783,4.165-2.782,4.315,0C91.498,15.214,87.181,15.2,87.032,12.431
			c-0.086-1.604-2.587-1.612-2.5,0c0.142,2.633,2.025,4.516,4.657,4.657c2.626,0.142,4.527-2.238,4.658-4.657
			c0.142-2.626-2.239-4.527-4.658-4.657c-2.627-0.142-4.527,2.237-4.657,4.657C84.445,14.042,86.946,14.034,87.032,12.431z"/>
	</g>
</g>
<g>
	<path fill="#4374BA" d="M89.096,2.224c-0.799,0.021-1.428,0.683-1.407,1.481c0.056,1.719,0.159,3.438,0.21,5.156
		c0.021,0.756,0.65,1.354,1.408,1.334c0.755-0.02,1.352-0.651,1.332-1.407c-0.039-1.72-0.021-3.438-0.057-5.157
		C90.561,2.832,89.895,2.203,89.096,2.224z"/>
</g>
<g>
	<path fill="#4374BA" d="M73.409,30.462c-0.186,0.032-0.366,0.101-0.534,0.21c-0.934,0.605-1.813,1.297-2.509,2.173
		c-0.411,0.519-0.752,1.095-0.976,1.719c-0.189,0.534-0.29,1.091-0.295,1.657c-0.023,2.74,2.277,4.754,4.477,5.986
		c0.338,0.189,0.683,0.367,1.033,0.531c0.441,0.211,0.89,0.402,1.346,0.58c1.422,0.557,2.898,0.975,4.39,1.3
		c2.413,0.524,4.88,0.797,7.348,0.879c2.981,0.1,5.984-0.073,8.925-0.579c1.994-0.344,3.968-0.838,5.861-1.561
		c0.533-0.205,1.066-0.428,1.584-0.675c0.416-0.198,0.826-0.414,1.225-0.646c2.002-1.165,4.021-2.959,4.221-5.417
		c0.023-0.308,0.018-0.616-0.018-0.921c-0.049-0.439-0.16-0.872-0.322-1.282c-0.23-0.58-0.57-1.117-0.965-1.6
		c-0.604-0.738-1.334-1.34-2.117-1.878c-0.623-0.429-1.479-0.271-1.906,0.352s-0.27,1.478,0.352,1.906
		c0.52,0.357,1.02,0.744,1.438,1.22c0.236,0.271,0.449,0.568,0.6,0.896c0.086,0.186,0.148,0.384,0.182,0.586
		c0.213,1.246-0.803,2.309-1.707,3.006c-0.174,0.133-0.352,0.26-0.533,0.379c-0.25,0.166-0.512,0.32-0.771,0.465
		c-0.345,0.193-0.691,0.371-1.051,0.534c-0.391,0.181-0.788,0.347-1.191,0.499c-0.508,0.193-1.021,0.365-1.543,0.523
		c-3.521,1.061-7.254,1.434-10.921,1.401c-3.677-0.034-7.462-0.488-10.957-1.669c-0.495-0.166-0.985-0.352-1.469-0.555
		c-0.378-0.16-0.751-0.33-1.118-0.518c-0.277-0.142-0.554-0.293-0.822-0.454c-0.246-0.147-0.481-0.304-0.716-0.47
		c-1.006-0.723-2.238-1.893-1.911-3.269c0.051-0.212,0.134-0.415,0.237-0.606c0.19-0.35,0.448-0.66,0.726-0.942
		c0.435-0.437,0.934-0.791,1.447-1.124c0.672-0.434,0.861-1.332,0.428-2.002C74.545,30.595,73.963,30.363,73.409,30.462z"/>
</g>
<g>
	<path fill="#4374BA" d="M68.938,58.099c-0.799,0.015-1.435,0.676-1.418,1.475c0.007,0.39,0.049,0.773,0.141,1.153
		c0.589,2.427,2.81,4.117,4.914,5.219c0.363,0.189,0.727,0.367,1.1,0.532c0.475,0.211,0.957,0.407,1.441,0.585
		c3.733,1.374,7.756,1.946,11.717,2.077c2.687,0.089,5.385-0.04,8.045-0.414c2.057-0.289,4.102-0.725,6.076-1.367
		c0.672-0.22,1.334-0.465,1.986-0.739c0.457-0.192,0.908-0.399,1.352-0.623c2.156-1.091,4.484-2.811,5.082-5.288
		c0.092-0.374,0.135-0.75,0.143-1.135c0.014-0.755-0.588-1.382-1.346-1.396c-0.756-0.013-1.381,0.591-1.395,1.346
		c-0.025,1.431-1.293,2.521-2.389,3.251c-0.207,0.137-0.422,0.268-0.635,0.391c-0.291,0.169-0.59,0.323-0.893,0.473
		c-0.393,0.191-0.791,0.368-1.196,0.531c-0.438,0.178-0.878,0.346-1.327,0.494c-3.263,1.092-6.734,1.551-10.162,1.663
		c-4.166,0.136-8.415-0.243-12.426-1.423c-1.32-0.389-2.621-0.87-3.842-1.512c-0.731-0.383-1.439-0.827-2.064-1.372
		c-0.736-0.643-1.42-1.479-1.436-2.502C70.392,58.718,69.736,58.082,68.938,58.099z"/>
</g>
<g>
	<path fill="#4374BA" d="M70.288,49.798c-0.799,0.015-1.435,0.677-1.418,1.475c0.007,0.372,0.048,0.733,0.134,1.095
		c0.56,2.304,2.652,3.91,4.648,4.955c0.342,0.178,0.691,0.341,1.044,0.499c0.444,0.198,0.894,0.381,1.351,0.55
		c3.506,1.289,7.286,1.83,11.006,1.951c2.522,0.082,5.048-0.039,7.546-0.392c1.932-0.272,3.858-0.683,5.714-1.287
		c0.632-0.207,1.254-0.436,1.866-0.692c0.433-0.183,0.86-0.377,1.278-0.592c2.043-1.04,4.236-2.656,4.805-5.009
		c0.086-0.356,0.123-0.718,0.131-1.084c0.014-0.755-0.59-1.376-1.344-1.389c-0.758-0.015-1.377,0.583-1.391,1.338
		c-0.023,1.308-1.207,2.313-2.209,2.979c-0.189,0.127-0.385,0.252-0.584,0.369c-0.27,0.156-0.547,0.299-0.828,0.436
		c-0.365,0.18-0.738,0.341-1.117,0.494c-0.41,0.166-0.824,0.32-1.243,0.461c-3.048,1.016-6.289,1.448-9.491,1.554
		c-3.895,0.127-7.873-0.23-11.62-1.335c-1.231-0.361-2.437-0.809-3.575-1.406c-0.679-0.356-1.344-0.77-1.922-1.277
		c-0.672-0.584-1.297-1.343-1.312-2.274C71.742,50.417,71.087,49.783,70.288,49.798z"/>
</g>
<g>
	<path fill="#4374BA" d="M71.359,42.025c-0.797,0.015-1.433,0.676-1.418,1.475c0.007,0.355,0.047,0.704,0.131,1.049
		c0.617,2.544,3.155,4.184,5.396,5.18c0.419,0.188,0.847,0.357,1.276,0.518c3.301,1.215,6.857,1.723,10.359,1.838
		c2.373,0.078,4.754-0.037,7.105-0.369c1.818-0.256,3.631-0.645,5.377-1.215c0.523-0.17,1.041-0.357,1.549-0.566
		c0.414-0.168,0.82-0.346,1.221-0.544c2.008-0.993,4.195-2.548,4.754-4.856c0.082-0.342,0.119-0.688,0.125-1.039
		c0.016-0.756-0.588-1.376-1.344-1.391c-0.756-0.013-1.383,0.583-1.396,1.34c-0.014,0.869-0.604,1.582-1.231,2.128
		c-1.228,1.067-2.794,1.73-4.323,2.24c-2.855,0.953-5.89,1.362-8.891,1.458c-3.647,0.118-7.371-0.22-10.883-1.253
		c-1.748-0.516-3.617-1.236-5.031-2.418c-0.649-0.541-1.287-1.264-1.299-2.155C72.82,42.645,72.158,42.01,71.359,42.025z"/>
</g>
<g>
	<path fill="#4374BA" d="M107.32,52.742c-0.533,0.008-1.037,0.331-1.248,0.857c-0.283,0.701,0.053,1.496,0.754,1.781
		c1.361,0.552,2.695,1.182,3.92,1.997c0.766,0.509,1.494,1.088,2.111,1.771c0.398,0.441,0.748,0.928,1,1.469
		c0.143,0.314,0.254,0.646,0.311,0.987c0.367,2.228-1.545,4.053-3.205,5.196c-0.279,0.194-0.564,0.376-0.857,0.553
		c-0.393,0.233-0.795,0.449-1.201,0.656c-0.533,0.27-1.076,0.52-1.623,0.75c-0.697,0.291-1.408,0.551-2.123,0.788
		c-2.277,0.759-4.626,1.289-6.996,1.657c-2.863,0.445-5.76,0.654-8.658,0.669c-2.859,0.014-5.723-0.162-8.555-0.556
		c-2.367-0.329-4.721-0.807-7.008-1.504c-0.847-0.258-1.684-0.548-2.508-0.873c-0.657-0.26-1.307-0.539-1.941-0.852
		c-0.493-0.243-0.979-0.504-1.451-0.787c-0.36-0.217-0.715-0.449-1.056-0.694c-1.572-1.124-3.335-2.887-2.967-5.009
		c0.057-0.332,0.163-0.654,0.306-0.959c0.241-0.518,0.58-0.984,0.958-1.407c0.642-0.716,1.397-1.3,2.191-1.833
		c0.663-0.445,0.837-1.346,0.391-2.009C67.42,54.729,66.52,54.555,65.855,55c-1.094,0.738-2.125,1.566-2.971,2.589
		c-0.616,0.741-1.127,1.577-1.442,2.489c-0.194,0.559-0.317,1.146-0.353,1.737c-0.025,0.448,0.002,0.9,0.074,1.343
		c0.462,2.863,2.783,4.995,5.135,6.451c0.439,0.274,0.892,0.532,1.352,0.771c0.58,0.306,1.172,0.585,1.775,0.847
		c0.748,0.323,1.514,0.613,2.285,0.879c2.865,0.989,5.845,1.628,8.846,2.037c3.881,0.528,7.813,0.67,11.722,0.472
		c2.938-0.15,5.868-0.497,8.749-1.097c2.387-0.494,4.744-1.162,7.002-2.081c0.719-0.294,1.43-0.613,2.121-0.966
		c0.465-0.235,0.926-0.484,1.373-0.753c2.426-1.458,4.887-3.629,5.355-6.57c0.066-0.407,0.092-0.819,0.074-1.231
		c-0.025-0.592-0.141-1.183-0.328-1.743c-0.244-0.729-0.615-1.412-1.066-2.035c-0.648-0.896-1.453-1.67-2.326-2.344
		c-1.627-1.256-3.48-2.183-5.381-2.95C107.678,52.773,107.498,52.739,107.32,52.742z"/>
</g>
<g>
	<path fill="#4374BA" d="M112.158,67.041c-0.791,0.106-1.348,0.836-1.24,1.628c0.877,6.477,1.75,12.96,2.576,19.443
		c0.162,1.289,0.324,2.574,0.475,3.863c0.047,0.405,0.096,0.81,0.137,1.215c0.012,0.107,0.02,0.216,0.029,0.323
		c0.004,0.044,0.004,0.097,0.01,0.142c-0.014,0.661-0.199,1.282-0.527,1.855c-0.742,1.3-1.992,2.28-3.244,3.058
		c-2.305,1.433-4.918,2.351-7.529,3.03c-4.49,1.167-9.162,1.619-13.793,1.594c-4.744-0.025-9.541-0.559-14.105-1.888
		c-2.364-0.69-4.727-1.593-6.785-2.964c-1.019-0.675-2.001-1.492-2.678-2.523c-0.396-0.603-0.682-1.289-0.71-2.015
		c-0.011-0.302,0.046-0.645,0.085-0.965c0.049-0.39,0.104-0.778,0.16-1.169c0.17-1.217,0.355-2.433,0.545-3.647
		c0.985-6.365,2.042-12.718,3.113-19.069c0.127-0.746-0.372-1.458-1.117-1.583c-0.746-0.125-1.451,0.378-1.577,1.124
		c-1.112,6.576-2.215,13.157-3.233,19.75c-0.18,1.16-0.355,2.32-0.518,3.484c-0.121,0.884-0.277,1.771-0.169,2.665
		c0.126,1.053,0.532,2.055,1.111,2.939c0.933,1.427,2.276,2.551,3.7,3.468c2.234,1.436,4.748,2.429,7.289,3.177
		c4.811,1.415,9.868,1.997,14.871,2.035c5.186,0.042,10.432-0.488,15.434-1.9c2.852-0.805,5.699-1.901,8.152-3.591
		c1.377-0.948,2.658-2.117,3.494-3.581c0.529-0.924,0.859-1.961,0.902-3.028c0.018-0.441-0.033-0.879-0.08-1.316
		c-0.049-0.47-0.107-0.938-0.164-1.407c-0.135-1.147-0.281-2.291-0.424-3.438c-0.822-6.492-1.689-12.981-2.566-19.467
		C113.676,67.49,112.951,66.934,112.158,67.041z"/>
</g>
<g>
	<path fill="#4374BA" d="M63.461,85.076c-0.187,0.004-0.371,0.044-0.555,0.126c-2.346,1.036-4.631,2.266-6.617,3.903
		c-1.143,0.944-2.188,2.035-2.99,3.29c-0.566,0.89-1.009,1.859-1.252,2.889c-0.12,0.506-0.191,1.027-0.211,1.549
		c-0.098,2.568,1.096,4.925,2.798,6.781c0.968,1.053,2.092,1.96,3.274,2.761c1.98,1.344,4.148,2.396,6.37,3.269
		c2.95,1.158,6.022,2.002,9.124,2.638c4.246,0.872,8.572,1.346,12.902,1.511c5.135,0.194,10.299-0.038,15.388-0.767
		c4.071-0.582,8.116-1.481,11.999-2.849c2.525-0.888,5-1.982,7.268-3.415c1.43-0.902,2.781-1.946,3.928-3.195
		c2.004-2.188,3.227-4.98,2.633-7.976c-0.172-0.859-0.48-1.682-0.893-2.451c-0.613-1.149-1.449-2.173-2.381-3.075
		c-1.383-1.333-2.98-2.4-4.648-3.336c-0.66-0.37-1.49-0.138-1.861,0.521s-0.139,1.49,0.523,1.86
		c1.391,0.781,2.732,1.667,3.902,2.759c0.705,0.657,1.35,1.391,1.85,2.218c0.32,0.53,0.578,1.103,0.738,1.701
		c0.102,0.387,0.162,0.787,0.174,1.187c0.064,1.907-0.971,3.616-2.256,4.947c-1.199,1.241-2.637,2.236-4.131,3.086
		c-2.307,1.312-4.791,2.297-7.32,3.087c-3.412,1.067-6.93,1.777-10.473,2.248c-4.141,0.548-8.324,0.766-12.5,0.686
		c-4.07-0.078-8.141-0.434-12.152-1.135c-3.147-0.55-6.267-1.304-9.283-2.365c-2.211-0.779-4.379-1.727-6.381-2.95
		c-1.333-0.815-2.615-1.758-3.672-2.911c-1.34-1.461-2.298-3.291-1.98-5.323c0.074-0.479,0.22-0.945,0.414-1.389
		c0.321-0.735,0.775-1.41,1.295-2.021c0.775-0.91,1.691-1.692,2.665-2.382c1.532-1.088,3.21-1.95,4.926-2.707
		c0.729-0.323,1.06-1.175,0.737-1.906C64.57,85.391,64.025,85.067,63.461,85.076z"/>
</g>
<g>
	<g>
		<path fill="#4374BA" d="M86.993,17.304c1.343,0,2.687,0,4.03,0c-0.417-0.417-0.833-0.833-1.25-1.25c0,1.588,0,3.176,0,4.765
			c0.417-0.417,0.833-0.833,1.25-1.25c-1.343,0-2.687,0-4.03,0c0.417,0.417,0.833,0.833,1.25,1.25c0-1.588,0-3.176,0-4.765
			c0-1.612-2.5-1.612-2.5,0c0,1.588,0,3.176,0,4.765c0,0.682,0.568,1.25,1.25,1.25c1.343,0,2.687,0,4.03,0
			c0.682,0,1.25-0.568,1.25-1.25c0-1.588,0-3.176,0-4.765c0-0.682-0.568-1.25-1.25-1.25c-1.343,0-2.687,0-4.03,0
			C85.381,14.804,85.381,17.304,86.993,17.304z"/>
	</g>
</g>
<g>
	<path fill="#4374BA" d="M72.109,38.349c-0.748-0.11-1.443,0.403-1.555,1.151c-0.964,6.463-1.98,12.92-2.95,19.381
		c-0.118,0.79,0.429,1.523,1.218,1.641c0.792,0.117,1.523-0.426,1.643-1.215c0.947-6.466,1.848-12.938,2.801-19.404
		C73.377,39.154,72.857,38.459,72.109,38.349z"/>
</g>
<g>
	<path fill="#4374BA" d="M105.363,39.041c-0.75,0.104-1.273,0.793-1.17,1.543c0.883,6.4,1.711,12.803,2.588,19.205
		c0.109,0.791,0.838,1.348,1.629,1.236c0.789-0.109,1.346-0.842,1.236-1.634c-0.898-6.398-1.848-12.789-2.74-19.188
		C106.801,39.455,106.111,38.938,105.363,39.041z"/>
</g>
<g>
	<g>
		<path fill="#4374BA" d="M78.361,43.318c-0.983,7.565-1.966,15.131-2.949,22.696c-0.208,1.595,2.295,1.575,2.5,0
			c0.983-7.565,1.966-15.131,2.949-22.696C81.069,41.723,78.566,41.743,78.361,43.318L78.361,43.318z"/>
	</g>
</g>
<g>
	<g>
		<path fill="#4374BA" d="M97.223,43.318c0.983,7.565,1.966,15.131,2.949,22.696c0.205,1.575,2.707,1.595,2.5,0
			c-0.983-7.565-1.966-15.131-2.949-22.696C99.518,41.743,97.016,41.723,97.223,43.318L97.223,43.318z"/>
	</g>
</g>
<g>
	<g>
		<path fill="#4374BA" d="M87.25,44.5c-0.251,7.765-0.502,15.531-0.754,23.296c-0.052,1.613,2.448,1.608,2.5,0
			c0.251-7.765,0.502-15.531,0.754-23.296C89.802,42.887,87.302,42.892,87.25,44.5L87.25,44.5z"/>
	</g>
</g>
<g>
	<g>
		<path fill="#4374BA" d="M87.662,104.088c-0.255-4.906-0.51-9.813-0.766-14.719c-0.038-0.735-0.544-1.178-1.25-1.25
			c-1.578-0.162-3.156-0.324-4.734-0.485c-0.725-0.074-1.19,0.628-1.25,1.25c-0.475,4.924-0.949,9.848-1.424,14.771
			c-0.155,1.604,2.347,1.59,2.5,0c0.475-4.924,0.949-9.848,1.424-14.771c-0.417,0.417-0.833,0.833-1.25,1.25
			c1.578,0.162,3.156,0.323,4.734,0.485c-0.417-0.417-0.833-0.833-1.25-1.25c0.255,4.906,0.51,9.813,0.766,14.719
			C85.246,105.691,87.746,105.7,87.662,104.088L87.662,104.088z"/>
	</g>
</g>
<g>
	<g>
		<path fill="#4374BA" d="M75.256,73.792c-0.942-0.198-1.884-0.397-2.826-0.596c-0.872-0.184-1.472,0.376-1.583,1.206
			c-0.212,1.592-0.424,3.184-0.637,4.775c-0.069,0.517,0.43,1.104,0.917,1.206c1.021,0.212,2.043,0.425,3.064,0.638
			c0.841,0.175,1.513-0.365,1.583-1.206c0.133-1.606,0.266-3.211,0.398-4.817c0.133-1.607-2.368-1.595-2.5,0
			c-0.133,1.606-0.266,3.211-0.398,4.817c0.527-0.402,1.055-0.804,1.583-1.206c-1.021-0.212-2.043-0.425-3.064-0.638
			c0.306,0.402,0.612,0.804,0.917,1.206c0.212-1.592,0.424-3.184,0.637-4.775c-0.527,0.402-1.055,0.804-1.583,1.206
			c0.942,0.198,1.884,0.397,2.826,0.596C76.164,76.535,76.833,74.125,75.256,73.792z"/>
	</g>
</g>
<g>
	<g>
		<path fill="#4374BA" d="M105.127,76.204c0.942-0.199,1.885-0.397,2.826-0.596c-0.527-0.402-1.055-0.804-1.582-1.206
			c0.212,1.592,0.425,3.184,0.637,4.775c0.306-0.402,0.611-0.804,0.918-1.206c-1.021,0.213-2.042,0.425-3.063,0.638
			c0.527,0.402,1.055,0.804,1.582,1.206c-0.134-1.606-0.267-3.211-0.4-4.817c-0.133-1.595-2.634-1.607-2.5,0
			c0.134,1.606,0.267,3.211,0.4,4.817c0.07,0.84,0.741,1.38,1.582,1.206c1.021-0.213,2.042-0.425,3.063-0.638
			c0.488-0.102,0.987-0.688,0.918-1.206c-0.212-1.592-0.425-3.184-0.637-4.775c-0.11-0.83-0.711-1.389-1.582-1.206
			c-0.942,0.199-1.885,0.397-2.826,0.596C102.886,74.125,103.555,76.535,105.127,76.204z"/>
	</g>
</g>
<g>
	<g>
		<path fill="#4374BA" d="M88.322,78.483c1.146,0,2.292,0,3.438,0c-0.417-0.417-0.833-0.833-1.25-1.25c0,1.552,0,3.104,0,4.655
			c0.417-0.417,0.833-0.833,1.25-1.25c-1.146,0-2.292,0-3.438,0c0.417,0.417,0.833,0.833,1.25,1.25c0-1.552,0-3.104,0-4.655
			c0-1.612-2.5-1.612-2.5,0c0,1.552,0,3.104,0,4.655c0,0.682,0.568,1.25,1.25,1.25c1.146,0,2.292,0,3.438,0
			c0.682,0,1.25-0.568,1.25-1.25c0-1.552,0-3.104,0-4.655c0-0.682-0.568-1.25-1.25-1.25c-1.146,0-2.292,0-3.438,0
			C86.71,75.983,86.71,78.483,88.322,78.483z"/>
	</g>
</g>
<g>
	<path fill="#4374BA" d="M65.977,75.433c-0.177-0.024-0.363-0.012-0.545,0.039c-3.423,0.952-6.844,1.907-10.264,2.858
		c-1.066,0.298-2.13,0.59-3.195,0.886c-0.302,0.084-0.615,0.154-0.914,0.256c-0.189,0.063-0.39,0.099-0.561,0.203
		c-0.178,0.109-0.311,0.276-0.459,0.42c-0.201,0.194-0.381,0.429-0.568,0.636c-0.613,0.685-1.226,1.365-1.838,2.048
		c-2.029,2.262-4.063,4.522-6.095,6.781c-2.124,2.363-4.245,4.722-6.37,7.086c-0.709,0.788-1.42,1.578-2.129,2.366
		c-0.234,0.261-0.469,0.522-0.702,0.782c-0.009,0.002-0.017,0.004-0.024,0.007c-0.277,0.071-0.555,0.144-0.832,0.22
		c-0.861,0.238-1.721,0.49-2.571,0.761c-1.364,0.436-2.709,0.921-4.028,1.477c-1.074,0.452-2.115,0.918-3.053,1.621
		c-1.131,0.85-2.166,1.834-3.172,2.827c-1.264,1.247-2.48,2.543-3.682,3.851c-3.088,3.366-6.08,6.826-8.982,10.356
		c-0.506,0.617-0.412,1.528,0.205,2.037c0.617,0.506,1.523,0.417,2.032-0.2c1.441-1.758,2.915-3.493,4.401-5.214
		c1.762-2.041,3.551-4.061,5.391-6.032c1.188-1.274,2.401-2.532,3.67-3.727c0.738-0.694,1.498-1.411,2.355-1.958
		c0.305-0.194,0.637-0.345,0.964-0.499c0.49-0.229,0.985-0.443,1.487-0.646c1.445-0.586,2.921-1.08,4.414-1.532
		c0.541-0.163,1.084-0.321,1.628-0.47c0.222-0.063,0.441-0.118,0.665-0.177c0.064-0.016,0.172-0.029,0.232-0.062
		c0.235-0.136,0.477-0.256,0.702-0.41c0.065-0.044,0.106-0.116,0.159-0.175c0.096-0.104,0.184-0.212,0.278-0.317
		c0.329-0.37,0.663-0.739,0.993-1.107c0.988-1.105,1.974-2.212,2.961-3.319c3.152-3.529,6.305-7.064,9.459-10.592
		c1.035-1.158,2.066-2.314,3.104-3.473c0.283-0.316,0.568-0.633,0.852-0.948c0.007-0.009,0.021-0.019,0.033-0.027
		c0.016-0.007,0.033-0.007,0.051-0.013c0.076-0.02,0.152-0.04,0.229-0.062c0.379-0.105,0.758-0.211,1.14-0.317
		c1.063-0.298,2.124-0.594,3.188-0.892c3.193-0.89,6.389-1.781,9.582-2.671c0.729-0.203,1.151-0.963,0.948-1.692
		C66.964,75.873,66.504,75.499,65.977,75.433z"/>
</g>
<g>
	<path fill="#4374BA" d="M114.418,75.382c-0.75-0.095-1.434,0.438-1.527,1.19c-0.092,0.75,0.436,1.433,1.188,1.525
		c2.428,0.303,4.855,0.604,7.283,0.907c0.773,0.099,1.549,0.193,2.32,0.291c0.223,0.027,0.443,0.065,0.666,0.085
		c0.037,0.002,0.076-0.016,0.111-0.005c0.023,0.005,0.029,0.038,0.051,0.051c0.092,0.051,0.188,0.094,0.281,0.142
		c0.182,0.091,0.369,0.18,0.555,0.272c0.555,0.273,1.113,0.552,1.666,0.827c1.389,0.688,2.773,1.38,4.16,2.072
		c0.463,0.229,0.922,0.455,1.385,0.686c0.088,0.044,0.178,0.091,0.266,0.137c0.043,0.055,0.09,0.108,0.131,0.163
		c0.168,0.218,0.332,0.436,0.5,0.654c0.465,0.601,0.93,1.201,1.395,1.805c1.381,1.784,2.764,3.571,4.148,5.355
		c2.668,3.438,5.346,6.866,8.051,10.274c1,1.258,1.998,2.517,3.012,3.762c0.617,0.754,1.23,1.509,1.881,2.235
		c0.531,0.596,1.445,0.646,2.041,0.112c0.594-0.532,0.646-1.447,0.113-2.041c-0.756-0.842-1.465-1.727-2.18-2.604
		c-1.049-1.293-2.084-2.595-3.119-3.898c-2.838-3.573-5.656-7.159-8.471-10.752c-1.266-1.612-2.529-3.229-3.791-4.844
		c-0.398-0.514-0.797-1.026-1.197-1.538c-0.123-0.16-0.25-0.323-0.373-0.483c-0.039-0.049-0.076-0.123-0.125-0.165
		c-0.162-0.131-0.313-0.271-0.482-0.39c-0.086-0.061-0.189-0.097-0.283-0.142c-0.094-0.046-0.186-0.091-0.279-0.137
		c-0.369-0.184-0.74-0.363-1.113-0.545c-1.018-0.501-2.037-1.002-3.057-1.503c-1.018-0.503-2.039-1.008-3.057-1.511
		c-0.279-0.136-0.555-0.277-0.836-0.408c-0.166-0.076-0.322-0.175-0.5-0.228c-0.178-0.052-0.361-0.058-0.543-0.083
		c-0.221-0.032-0.443-0.053-0.664-0.08c-0.773-0.096-1.549-0.194-2.32-0.29C119.273,75.982,116.848,75.681,114.418,75.382z"/>
</g>
</svg>
