<svg width="221" height="220" viewBox="0 0 221 220" fill="none" xmlns="http://www.w3.org/2000/svg">
<g clip-path="url(#clip0_707_1405)">
<path d="M179.628 87.6634C179.061 87.5737 178.476 87.6142 177.929 87.7879C177.512 87.9182 177.121 88.1498 176.739 88.3554C176.476 88.4943 176.198 88.642 175.937 88.7838C175.677 88.9228 175.422 89.0589 175.161 89.1978C174.64 89.4786 174.16 89.7421 173.641 90.0287C172.903 90.4398 172.162 90.8509 171.43 91.2736C164.948 95.0024 158.657 99.2755 153.666 104.906C151.297 107.579 149.259 110.523 147.569 113.67C144.838 118.753 142.997 124.266 141.57 129.844C139.52 137.846 138.226 146.045 137.007 154.204C136.489 157.675 136.009 161.157 135.722 164.655C135.348 169.2 135.305 173.815 136.318 178.287C137.708 184.437 141.086 189.807 144.627 194.931C145.672 196.445 147.754 196.819 149.271 195.774C150.785 194.729 151.158 192.647 150.113 191.13C147.198 186.906 144.283 182.506 142.994 177.471C141.793 172.796 142.082 167.877 142.577 163.12C143.206 157.116 144.202 151.135 145.232 145.191C146.156 139.841 147.212 134.494 148.686 129.265C149.89 124.992 151.399 120.789 153.512 116.877C155.046 114.037 156.925 111.368 159.111 108.983C162.374 105.428 166.265 102.509 170.324 99.9269C172.486 98.5518 174.701 97.2635 176.945 96.0273C177.422 95.7667 177.903 95.512 178.384 95.2543C183.036 100.352 187.607 105.691 190.769 111.901C192.711 115.711 194.054 119.796 194.778 124.011C195.641 129.037 195.684 134.17 195.375 139.248C195.019 145.026 194.199 150.767 193.258 156.473C192.349 162.011 191.443 167.564 190.178 173.036C189.089 177.735 187.706 182.471 185.117 186.585C182.726 190.392 179.377 193.385 175.842 196.098C174.299 197.282 174.006 199.491 175.19 201.031C176.374 202.574 178.583 202.869 180.126 201.682C182.677 199.723 185.143 197.65 187.315 195.267C189.309 193.078 191.023 190.647 192.401 188.024C194.44 184.147 195.742 179.932 196.77 175.691C197.749 171.667 198.487 167.59 199.19 163.511C200.699 154.788 202.155 146.01 202.468 137.149C202.757 128.944 201.938 120.699 198.889 113.024C195.985 105.726 191.261 99.3421 186.099 93.4883C185.566 92.8832 185.025 92.2869 184.481 91.6905C184.104 91.2736 183.742 90.8712 183.36 90.4601C182.312 89.3252 181.253 87.9182 179.628 87.6634Z" fill="#637CC6"/>
<path d="M173.873 107.238C173.873 107.238 157.31 100.574 151.575 92.375C149.786 107.065 171.311 127.133 171.311 127.133L173.873 107.238Z" fill="#637CC6" stroke="#637CC6" stroke-width="6" stroke-miterlimit="10" stroke-linejoin="round"/>
<path d="M110.717 39.4099C110.717 29.7925 118.511 21.9961 128.131 21.9961C137.751 21.9961 145.548 29.7925 145.548 39.4099C145.548 49.0273 137.751 56.8237 128.131 56.8237C118.511 56.8237 110.717 49.0302 110.717 39.4099Z" fill="#637CC6" stroke="#637CC6" stroke-width="6" stroke-miterlimit="10" stroke-linejoin="round"/>
<path d="M127.413 0.345703C125.465 0.345703 123.887 1.92351 123.887 3.86899C123.913 6.81327 124.066 9.74596 124.078 12.6902C124.078 14.5315 125.569 16.0225 127.41 16.0225C129.251 16.0225 130.754 14.5315 130.754 12.6902C130.766 9.74596 130.907 6.81327 130.933 3.86899C130.936 1.92351 129.359 0.345703 127.413 0.345703Z" fill="#637CC6"/>
<path d="M92.461 35.2949C90.5156 35.2949 88.9493 36.8727 88.9493 38.8211C88.9493 40.7695 90.5156 42.3328 92.461 42.3328C95.4053 42.3068 98.3525 42.1649 101.297 42.1533C103.138 42.1533 104.629 40.6624 104.629 38.8211C104.629 36.9798 103.138 35.4744 101.297 35.4744C98.3525 35.4599 95.4053 35.321 92.461 35.2949Z" fill="#637CC6"/>
<path d="M163.52 35.2949C160.576 35.321 157.632 35.4628 154.687 35.4744C152.843 35.4744 151.355 36.9798 151.355 38.8211C151.355 40.6624 152.846 42.1533 154.687 42.1533C157.632 42.1649 160.576 42.3068 163.52 42.3328C165.466 42.3328 167.032 40.7666 167.032 38.8211C167.032 36.8756 165.466 35.2949 163.52 35.2949Z" fill="#637CC6"/>
<path d="M105.208 11.5857C104.313 11.7131 103.468 12.1879 102.886 12.9695C101.719 14.5271 102.035 16.7389 103.59 17.9056C104.276 18.4065 105.002 18.861 105.677 19.3705C106.404 19.9206 107.084 20.5343 107.764 21.1394C109.134 22.3727 111.244 22.2598 112.477 20.8904C113.714 19.5211 113.601 17.4077 112.228 16.1773C111.455 15.4709 110.749 14.695 109.976 13.9915C109.293 13.372 108.552 12.8277 107.819 12.2631C107.043 11.6783 106.1 11.4583 105.208 11.5857Z" fill="#637CC6"/>
<path d="M148.411 12.7461C147.508 12.7461 146.613 13.0964 145.924 13.7825C145.441 14.3471 145.49 14.2892 145.441 14.3471C145.464 14.3007 145.536 14.2371 145.507 14.211C145.368 14.072 145.273 14.5237 145.148 14.68C145.027 14.8363 144.647 15.2995 144.775 15.1519C145.163 14.7003 144.778 15.1461 144.372 15.5804C143.072 16.8831 143.072 18.9907 144.372 20.2935C145.675 21.5963 147.8 21.5963 149.103 20.2935C149.615 19.8593 149.56 19.9085 149.615 19.865C149.74 19.8506 149.873 19.6334 150.003 19.5321C150.16 19.4105 150.623 19.0313 150.472 19.1587C150.021 19.5437 150.469 19.1587 150.901 18.7562C152.276 17.3811 152.276 15.1548 150.901 13.7796C150.212 13.0964 149.311 12.7461 148.411 12.7461Z" fill="#637CC6"/>
<path d="M127.413 63.3613C125.569 63.3613 124.081 64.8494 124.081 66.6935C124.066 69.6378 123.913 72.5705 123.89 75.5119C123.89 77.4574 125.468 79.0381 127.416 79.0381C129.361 79.0381 130.939 77.4603 130.939 75.5119C130.913 72.5676 130.771 69.6349 130.76 66.6935C130.757 64.8494 129.254 63.3613 127.413 63.3613Z" fill="#637CC6"/>
<path d="M110.173 57.399C109.319 57.3556 108.45 57.6277 107.767 58.2444C107.087 58.8494 106.407 59.4632 105.68 60.0132C105.005 60.5257 104.279 60.9773 103.593 61.4781C102.035 62.6448 101.722 64.8567 102.889 66.4142C104.056 67.9718 106.268 68.2844 107.825 67.1206C108.555 66.5561 109.296 66.0118 109.982 65.3923C110.758 64.6917 111.464 63.9158 112.234 63.2094C113.607 61.9761 113.719 59.8627 112.483 58.4962C111.864 57.8072 111.024 57.4453 110.173 57.399Z" fill="#637CC6"/>
<path d="M146.741 58.1055C145.887 58.1055 145.027 58.4355 144.375 59.0869C143.075 60.3897 143.075 62.5002 144.375 63.8029C144.801 64.3009 144.763 64.2459 144.804 64.3009C144.801 64.4254 145.044 64.5672 145.148 64.7004C145.273 64.8567 145.638 65.3229 145.507 65.1723C145.125 64.7207 145.522 65.1694 145.924 65.6008C147.302 66.9759 149.526 66.9759 150.904 65.6008C152.279 64.2227 152.279 61.9993 150.904 60.6242C150.38 60.1783 150.432 60.2246 150.377 60.1812C150.406 60.187 150.452 60.242 150.472 60.2247C150.614 60.0828 150.16 59.9728 150.003 59.8512C149.844 59.7296 149.381 59.3648 149.531 59.4922C149.983 59.8772 149.537 59.4922 149.106 59.0898C148.449 58.4355 147.592 58.1055 146.741 58.1055Z" fill="#637CC6"/>
<path d="M216.349 202.037C215.892 202.057 215.42 202.176 214.98 202.384C209.45 205.053 203.371 204.715 197.505 203.545C195.699 203.18 193.942 204.35 193.58 206.156C193.215 207.96 194.385 209.717 196.191 210.082C201.645 211.188 207.363 211.845 212.852 210.58C214.647 210.163 216.358 209.523 218.02 208.739C219.777 207.902 220.515 205.794 219.679 204.04C219.05 202.723 217.719 201.976 216.349 202.037Z" fill="#637CC6"/>
<path d="M148.744 189.318C139.292 189.078 129.914 191.351 120.969 194.28C117.651 195.366 114.374 196.553 111.097 197.752C110.138 198.102 109.18 198.449 108.222 198.8C107.495 199.066 106.783 199.341 106.024 199.477C104.154 199.819 102.206 199.671 100.327 199.463C97.6345 199.164 94.971 198.635 92.296 198.232C90.1884 197.917 88.0779 197.685 85.95 197.94C79.9949 198.658 74.9893 202.34 70.3283 205.835C69.1037 206.752 67.8733 207.687 66.6226 208.57C65.7512 209.19 64.8769 209.795 63.9273 210.287C61.2667 211.659 58.2964 212.38 55.3406 212.76C50.7056 213.359 46.004 213.098 41.3922 212.444C39.5683 212.183 37.8776 213.454 37.617 215.278C37.3564 217.102 38.6274 218.778 40.4513 219.039C46.2559 219.867 52.2081 220.116 58.0098 219.108C61.2783 218.541 64.5092 217.568 67.439 215.982C69.2803 214.986 70.9739 213.721 72.6501 212.473C74.7317 210.924 76.793 209.361 78.9556 207.925C81.1906 206.437 83.6948 205.085 86.3785 204.677C88.02 204.425 89.6615 204.659 91.2856 204.911C92.3771 205.079 93.4598 205.276 94.5484 205.461C98.6999 206.173 103.031 206.917 107.226 206.179C109.206 205.835 111.082 205.024 112.964 204.341C115.685 203.353 118.412 202.372 121.16 201.451C131.046 198.139 141.532 195.392 152.044 196.53C158.822 197.262 165.266 199.766 171.595 202.169C177.312 204.344 183.019 206.599 188.875 208.379C191.255 209.1 193.652 209.72 196.078 210.258C197.977 210.681 199.859 209.474 200.282 207.574C200.704 205.675 199.512 203.794 197.612 203.374C189.072 201.483 180.977 198.183 172.811 195.117C166.326 192.682 159.725 190.303 152.794 189.576C151.442 189.44 150.093 189.353 148.744 189.318Z" fill="#637CC6"/>
<path d="M63.6638 133.326C62.7751 133.175 61.8313 133.358 61.038 133.922C59.4515 135.051 59.0781 137.257 60.2071 138.841C63.4496 143.372 66.8253 147.868 71.0607 151.533C74.8764 154.836 79.2943 157.338 83.6977 159.761C85.3102 160.652 87.3281 160.062 88.2197 158.446C89.1114 156.834 88.5324 154.801 86.9199 153.913C83.2402 151.877 79.5375 149.802 76.3297 147.057C72.2419 143.557 69.0371 139.119 65.9481 134.753C65.3806 133.96 64.5526 133.476 63.6638 133.326Z" fill="#637CC6"/>
<path d="M139.147 155.74C138.715 155.708 138.27 155.757 137.835 155.908C136.205 156.458 134.529 156.892 132.856 157.291C130.189 157.925 127.485 158.438 124.77 158.811C116.901 159.888 108.769 159.995 100.961 158.394C99.3079 158.056 97.6809 157.621 96.0683 157.135C94.2039 156.579 92.2439 157.636 91.6852 159.497C91.1264 161.365 92.1831 163.322 94.0475 163.881C97.2176 164.822 100.443 165.539 103.726 165.968C111.386 166.973 119.18 166.53 126.785 165.305C129.587 164.853 132.372 164.289 135.123 163.603C136.753 163.197 138.382 162.76 139.978 162.219C141.723 161.628 142.656 159.735 142.065 157.989C141.622 156.683 140.447 155.832 139.147 155.74Z" fill="#637CC6"/>
<path d="M61.9761 77.6973C59.7527 77.6307 57.5264 77.6799 55.329 77.8218C49.9037 78.1721 44.5218 79.1158 39.3049 80.6415C35.6108 81.7243 31.9804 83.0966 28.5758 84.9002C25.5446 86.5069 22.7509 88.5479 20.1019 90.7192C15.5972 94.4133 11.5876 98.7357 8.47538 103.675C5.22712 108.831 3.01529 114.572 1.81095 120.541C-0.340084 131.21 0.626867 142.292 2.93133 152.85C4.56994 160.36 6.8194 167.771 10.0387 174.763C16.2312 188.216 25.8428 199.961 37.811 208.69C41.1693 211.136 44.7128 213.354 48.4011 215.268C50.3553 216.284 52.3645 217.262 54.4431 218.006C56.1802 218.623 58.0822 217.708 58.7018 215.974C59.3184 214.234 58.4036 212.332 56.6694 211.715C56.6897 211.724 56.6347 211.707 56.6144 211.701C56.5652 211.681 56.5247 211.663 56.4755 211.643C56.3539 211.594 56.2236 211.539 56.102 211.49C55.7691 211.356 55.4361 211.232 55.1061 211.087C54.145 210.67 53.207 210.216 52.2718 209.747C49.4318 208.322 46.6902 206.687 44.0615 204.909C36.3577 199.692 29.5601 193.141 24.0971 185.608C21.1094 181.488 18.5125 177.096 16.3557 172.49C14.0744 167.618 12.3374 162.537 10.9362 157.352C9.47417 151.932 8.31904 146.22 7.74293 140.471C10.8233 145.375 15.0414 149.686 20.7533 151.171C21.9229 151.475 23.1128 151.649 24.32 151.698C26.0513 151.767 27.7941 151.576 29.4761 151.171C34.9362 149.868 39.8636 146.655 42.9411 141.924C44.2728 139.877 45.2224 137.596 45.8853 135.245C49.9703 138.137 54.8108 140.3 59.9032 140.152C61.1249 140.115 62.3553 139.95 63.5394 139.64C69.5872 138.068 73.8545 133.123 75.9534 127.403C76.0808 127.058 76.1445 126.69 76.2574 126.34C79.7141 129.881 84.4128 132.179 89.4473 131.467C90.4664 131.322 91.4623 131.053 92.4176 130.68C93.5351 130.246 94.5889 129.664 95.5559 128.951C100.978 124.956 102.762 117.936 102.067 111.506C101.841 109.404 101.314 107.403 100.726 105.383C100.527 104.694 100.365 103.996 100.159 103.31C99.525 101.202 98.7144 99.1439 97.7127 97.1839C94.1836 90.2995 88.4254 85.0884 81.3846 81.8922C75.3165 79.1448 68.6434 77.8999 61.9761 77.6973ZM57.3324 84.5383C62.005 84.3588 66.6863 84.712 71.1853 85.7282C75.2326 86.643 79.1843 88.1397 82.6584 90.4297C85.9472 92.601 88.7409 95.4845 90.7472 98.8775C91.7778 100.626 92.6116 102.482 93.2485 104.407C93.5641 105.365 93.787 106.341 94.0649 107.308C94.2907 108.092 94.5455 108.877 94.7279 109.673C95.2606 111.978 95.4517 114.378 95.0753 116.723C94.8321 118.237 94.34 119.734 93.5264 121.036C93.0198 121.85 92.3974 122.582 91.6447 123.179C91.1149 123.601 90.5214 123.957 89.8903 124.204C85.5477 125.888 81.5235 122.417 79.2596 119.033C78.8485 118.422 78.475 117.788 78.1247 117.14C77.9423 116.801 77.7715 116.451 77.5978 116.106C77.5863 116.08 77.5428 116.013 77.5573 116.037C77.5428 116.005 77.5312 115.973 77.5139 115.941C77.4647 115.837 77.4154 115.738 77.3633 115.637C77.2417 115.403 77.1144 115.165 76.9464 114.962C76.7293 114.696 76.4166 114.381 76.13 114.216C75.7855 114.016 75.4468 113.781 75.0531 113.715C74.4393 113.619 73.785 113.573 73.1858 113.744C72.601 113.912 72.0856 114.288 71.6224 114.685C71.33 114.934 71.1592 115.301 70.971 115.637C70.5165 116.462 70.6584 117.823 70.6121 118.746C70.5976 119.027 70.5802 119.311 70.557 119.592C70.5107 120.136 70.4355 120.68 70.3486 121.222C69.7175 125.139 67.9718 129.252 64.599 131.563C63.9708 131.988 63.2933 132.339 62.5812 132.596C57.9867 134.275 53.0361 131.838 49.3913 129.128C48.7225 128.63 48.0624 128.109 47.4284 127.565C47.0926 127.275 46.7741 126.977 46.447 126.679C46.4325 126.667 46.3891 126.638 46.4065 126.65V126.638C46.3804 126.615 46.3601 126.589 46.337 126.569C46.2588 126.496 46.1835 126.418 46.0996 126.349C45.8767 126.155 45.6422 125.978 45.3816 125.836C44.6463 125.437 43.7806 125.263 42.9469 125.419C42.6516 125.477 42.365 125.573 42.0899 125.697C41.2272 126.091 40.5787 126.821 40.2226 127.689C40.0981 127.996 40.0315 128.317 39.9881 128.645C39.9736 128.749 39.9563 128.856 39.9447 128.96C39.9418 128.992 39.9476 129.024 39.9447 129.056C39.9447 129.061 39.9447 129.064 39.9447 129.07C39.9447 129.096 39.9302 129.128 39.9302 129.114C39.9099 129.307 39.8868 129.501 39.8607 129.693C39.7652 130.468 39.6378 131.241 39.4757 132.003C39.2933 132.851 39.0675 133.685 38.7838 134.504C38.2163 136.137 37.4144 137.7 36.349 139.067C34.1632 141.875 30.86 143.719 27.3917 144.431C26.3582 144.643 25.2928 144.732 24.239 144.651C19.0713 144.243 15.4061 139.84 13.0004 135.653C12.5314 134.84 12.0942 134.012 11.686 133.167C10.7972 131.314 10.0445 129.394 9.40469 127.44C9.19914 126.815 9.00228 126.181 8.82278 125.547C8.76488 125.344 8.70988 125.142 8.65776 124.939C8.64329 124.878 8.63171 124.809 8.61723 124.748C8.61434 124.73 8.59697 124.69 8.60276 124.704C8.51301 124.322 8.32773 123.998 8.13376 123.68C8.88068 119.181 10.169 114.78 12.2824 110.629C13.5273 108.179 15.0066 105.863 16.706 103.701C19.2045 100.525 22.1401 97.7166 25.3188 95.2268C27.0182 93.898 28.7669 92.5981 30.64 91.5212C34.6409 89.2225 39.0906 87.6765 43.5519 86.559C48.0132 85.4415 52.6598 84.7207 57.3324 84.5383Z" fill="#637CC6"/>
<path d="M45.4279 177.139C44.5738 177.154 43.7314 177.498 43.0916 178.164C41.812 179.49 41.8467 181.601 43.1726 182.877C50.364 189.82 58.8436 195.326 68.0586 199.191C73.7705 201.588 79.7112 203.305 85.7677 204.582C87.6726 204.981 89.5428 203.765 89.9423 201.86C90.3419 199.955 89.1115 198.082 87.2065 197.686C76.8074 195.529 66.611 191.89 57.7058 186.018C54.1594 183.679 50.8648 181.025 47.8076 178.083C47.1447 177.44 46.2819 177.122 45.4279 177.139Z" fill="#637CC6"/>
<path d="M26.9718 146.42C25.1392 146.62 23.8278 148.267 24.0275 150.1C24.2736 152.32 24.98 154.515 25.7154 156.611C27.3076 161.15 29.5455 165.389 32.1713 169.413C33.2425 171.04 35.4283 171.494 37.0524 170.423C38.6794 169.355 39.1311 167.169 38.0628 165.542C35.8683 162.239 33.8592 158.765 32.3537 155.091C31.8297 153.814 31.3868 152.5 31.0394 151.165C30.9409 150.78 30.8396 150.395 30.7615 150.007C30.7325 149.857 30.7036 149.703 30.6804 149.55C30.6775 149.521 30.6514 149.379 30.6514 149.385C30.4488 147.549 28.8044 146.221 26.9718 146.42Z" fill="#637CC6"/>
<path d="M138.278 178.648C129.402 180.067 120.39 181.149 111.389 180.886C107.631 180.776 103.894 180.385 100.176 179.823C98.3554 179.543 96.6531 180.793 96.3751 182.614C96.0972 184.435 97.345 186.138 99.1689 186.415C105.24 187.351 111.369 187.782 117.512 187.686C124.851 187.573 132.141 186.74 139.384 185.611C141.306 185.31 142.618 183.497 142.317 181.572C142.013 179.655 140.201 178.341 138.278 178.648Z" fill="#637CC6"/>
<path d="M42.4691 135.844C42.0406 135.783 41.589 135.798 41.1431 135.913C39.3598 136.374 38.2886 138.195 38.7518 139.975C39.2758 141.99 40.0691 143.956 40.9086 145.852C42.3301 149.06 44.0382 152.143 45.9692 155.073C51.6493 163.697 59.2836 170.955 68.1714 176.213C72.5401 178.798 77.1722 180.856 81.9548 182.547C83.7903 183.193 85.8023 182.226 86.4479 180.39C87.0935 178.552 86.1266 176.543 84.2911 175.897C81.1065 174.78 77.9944 173.494 74.9864 171.957C66.7268 167.727 59.3704 161.781 53.7251 154.401C51.2324 151.138 49.0785 147.592 47.3501 143.863C46.7885 142.653 46.2703 141.428 45.8158 140.175C45.6594 139.744 45.5118 139.301 45.3728 138.861C45.3294 138.724 45.2889 138.585 45.2483 138.447C45.2367 138.406 45.231 138.386 45.2194 138.351C45.2165 138.337 45.202 138.293 45.2078 138.308C44.8604 136.964 43.7574 136.032 42.4691 135.844Z" fill="#637CC6"/>
<path d="M189.278 103.605L174.802 196.404" stroke="#637CC6" stroke-width="6" stroke-miterlimit="10" stroke-linejoin="round"/>
<path d="M161.612 100.396L148.515 192.083" stroke="#637CC6" stroke-width="6" stroke-miterlimit="10" stroke-linejoin="round"/>
<path d="M36.3606 174.385C36.3606 172.558 37.84 171.076 39.6696 171.076C41.4935 171.076 42.9758 172.558 42.9758 174.385C42.9758 176.212 41.4935 177.694 39.6696 177.694C37.84 177.694 36.3606 176.212 36.3606 174.385Z" fill="#637CC6"/>
<path d="M88.2343 181.568C88.2343 179.744 89.7136 178.262 91.5404 178.262C93.3672 178.262 94.8495 179.744 94.8495 181.568C94.8495 183.398 93.3672 184.877 91.5404 184.877C89.7136 184.877 88.2343 183.398 88.2343 181.568Z" fill="#637CC6"/>
</g>
<defs>
<clipPath id="clip0_707_1405">
<rect width="220" height="220" fill="white" transform="translate(0.5)"/>
</clipPath>
</defs>
</svg>
