<svg width="770" height="24" viewBox="0 0 770 24" fill="none" xmlns="http://www.w3.org/2000/svg">
<path d="M374.088 0.998319C371.727 1.01586 369.374 1.05654 367.016 1.1178C341.408 1.80133 316.407 5.75149 291.439 9.19506C270.466 12.0901 249.141 14.6595 227.608 14.3595C210.397 14.118 193.409 11.8992 176.635 9.55323C166.292 8.10738 155.977 6.57458 145.57 5.32929C139.442 4.59467 133.279 3.97723 127.095 3.47646C106.164 1.78633 85.0135 1.43783 63.9732 2.38089C44.0454 3.27311 24.3111 5.30361 4.74236 7.8608C1.54512 8.27997 -0.525942 10.298 0.11703 12.372C0.760393 14.4485 3.88204 15.7929 7.07928 15.3761C26.1476 12.8855 45.3749 10.9055 64.7928 10.0387C85.0746 9.13152 105.452 9.47214 125.626 11.1089C135.484 11.9119 145.248 13.0631 154.966 14.39C178.866 17.6559 202.796 21.7301 227.35 22.086C253.823 22.4698 279.828 18.7972 305.558 15.2083C311.804 14.3364 318.044 13.4444 324.315 12.6511C326.476 12.3768 328.647 12.1376 330.812 11.8811C332.496 11.6778 334.179 11.4693 335.865 11.2761C346.311 10.0868 356.891 9.25303 367.493 8.9813C379.146 8.68135 390.856 8.93807 402.484 9.47417C416.105 10.102 429.695 11.1742 443.105 12.8572C453.379 14.1458 463.48 15.9302 473.683 17.4246C482.548 18.7233 491.498 19.8316 500.562 20.3143C509.994 20.8173 519.442 20.5225 528.815 19.7195C539.124 18.8374 549.292 17.4116 559.6 16.5194C565.579 16.0011 571.585 15.7062 577.622 15.6935C585.293 15.6732 592.97 15.9605 600.609 16.3748C609.372 16.8527 618.107 17.5009 626.83 18.2022C650.294 20.088 673.719 22.3727 697.344 23.2218C709.607 23.6641 721.955 23.7146 734.183 22.8888C745.126 22.1493 755.971 20.6547 766.155 17.8994C769.334 17.0405 770.846 14.6742 769.518 12.6104C768.195 10.5466 764.538 9.56542 761.359 10.4269C751.731 13.0321 741.426 14.3285 731.074 14.9538C718.733 15.6986 706.282 15.5154 693.93 14.9869C670.567 13.9828 647.397 11.6801 624.163 9.87046C615.346 9.18439 606.521 8.55653 597.661 8.13965C590.366 7.79395 583.052 7.58551 575.735 7.65415C567.45 7.7332 559.244 8.35826 551.069 9.21209C541.359 10.2235 531.711 11.5403 521.912 12.173C515.146 12.6104 508.349 12.6968 501.568 12.3407C482.465 11.3369 464.158 7.37936 445.419 5.0489C431.379 3.30284 417.158 2.20473 402.903 1.56161C395.671 1.2365 388.42 1.04305 381.173 0.997295C378.813 0.985602 376.448 0.983322 374.088 0.998319Z" fill="#637CC6"/>
</svg>
