<svg width="209" height="207" viewBox="0 0 209 207" fill="none" xmlns="http://www.w3.org/2000/svg">
<g clip-path="url(#clip0_991_1746)">
<path d="M64.9302 163.783C45.7345 157.915 26.5381 152.046 7.34242 146.177C7.98947 147.397 8.63653 148.617 9.28358 149.837C18.1241 120.921 26.9644 92.0057 35.8049 63.0897C34.5862 63.7393 33.3676 64.3889 32.149 65.0385C68.6732 76.205 105.198 87.3718 141.722 98.5384C156.318 103.001 170.913 107.463 185.509 111.925C184.861 110.705 184.214 109.485 183.567 108.265C174.727 137.181 165.887 166.097 157.046 195.013C158.265 194.363 159.483 193.713 160.702 193.064C147.1 188.905 133.499 184.747 119.897 180.589C116.287 179.485 114.573 185.094 118.182 186.197C131.784 190.356 145.386 194.514 158.987 198.672C160.513 199.139 162.176 198.252 162.643 196.724C171.484 167.808 180.324 138.892 189.164 109.976C189.632 108.448 188.749 106.783 187.223 106.317C150.699 95.15 114.174 83.9832 77.6499 72.8166C63.0543 68.3543 48.4594 63.8922 33.8637 59.4298C32.3383 58.9635 30.6751 59.85 30.2078 61.3785C21.3673 90.2946 12.527 119.21 3.68652 148.126C3.21919 149.654 4.10229 151.319 5.62768 151.786C24.8234 157.654 44.0198 163.523 63.2155 169.392C66.8245 170.495 68.5392 164.887 64.9302 163.783Z" fill="#637CC6"/>
<path d="M122.257 80.5926C130.114 82.9946 137.97 85.3967 145.827 87.7988C145.251 87.3234 144.675 86.848 144.1 86.3728C146.429 90.7647 148.759 95.1566 151.088 99.5485C152.86 102.889 158.03 100.133 156.258 96.792C154.462 93.4071 152.667 90.0214 150.872 86.636C149.479 84.0106 148.696 82.5431 145.796 81.6564C138.522 79.4323 131.247 77.2083 123.972 74.9842C120.362 73.8803 118.647 79.489 122.257 80.5926Z" fill="#637CC6"/>
<path d="M96.6932 83.8726C101.46 81.3319 106.225 78.7911 110.992 76.2507C110.249 76.3227 109.505 76.3947 108.762 76.4667C110.275 76.9294 111.789 77.3921 113.302 77.8546C116.911 78.958 118.625 73.3493 115.016 72.2459C113.31 71.7244 110.767 70.3745 108.947 70.809C107.536 71.1455 106.125 72.2049 104.869 72.8742C101.229 74.8146 97.5889 76.755 93.9478 78.6952C90.6112 80.475 93.3563 85.6506 96.6932 83.8726Z" fill="#637CC6"/>
<path d="M177.437 99.8476C176.827 101.842 176.217 103.836 175.608 105.83C176.826 105.181 178.045 104.531 179.263 103.881C172.464 101.803 165.664 99.7236 158.865 97.6449C159.512 98.8649 160.159 100.085 160.806 101.305C161.746 98.2305 162.686 95.1562 163.626 92.0819C162.407 92.7315 161.188 93.3811 159.97 94.0307C165.691 95.78 171.412 97.529 177.134 99.2783C180.744 100.382 182.459 94.7733 178.849 93.6697C173.127 91.9204 167.406 90.1713 161.685 88.422C160.159 87.9556 158.496 88.8422 158.029 90.3707C157.089 93.445 156.149 96.5193 155.209 99.5936C154.742 101.122 155.625 102.787 157.15 103.254C163.949 105.332 170.749 107.411 177.549 109.49C179.074 109.956 180.737 109.07 181.205 107.541C181.814 105.547 182.424 103.553 183.034 101.559C184.139 97.9423 178.542 96.2311 177.437 99.8476Z" fill="#637CC6"/>
<path d="M65.8289 69.2017C59.0296 67.1229 52.2295 65.044 45.4302 62.9652C46.0773 64.1852 46.7243 65.4052 47.3714 66.6251C48.3113 63.5508 49.2512 60.4765 50.1911 57.4022C48.9725 58.0518 47.7538 58.7014 46.5352 59.351C53.3345 61.4297 60.1346 63.5087 66.9339 65.5875C66.2868 64.3675 65.6398 63.1475 64.9927 61.9276C64.0528 65.0018 63.1129 68.0761 62.173 71.1504C61.0674 74.7669 66.6644 76.4781 67.7701 72.8616C68.71 69.7873 69.6499 66.713 70.5898 63.6387C71.0571 62.1102 70.174 60.4452 68.6486 59.9788C61.8493 57.9001 55.0493 55.8211 48.2499 53.7423C46.7246 53.276 45.0614 54.1625 44.594 55.691C43.6541 58.7653 42.7142 61.8396 41.7743 64.9139C41.307 66.4425 42.1901 68.1075 43.7155 68.5739C50.5148 70.6526 57.3149 72.7316 64.1142 74.8104C67.7239 75.914 69.4386 70.3053 65.8289 69.2017Z" fill="#637CC6"/>
<path d="M89.7098 76.5036C85.3568 75.1727 81.003 73.8416 76.6493 72.5106C77.2963 73.7305 77.9434 74.9505 78.5904 76.1705C79.3271 73.761 80.0637 71.3515 80.8006 68.9413C79.582 69.5909 78.3633 70.2405 77.1447 70.89C81.4977 72.2209 85.8515 73.552 90.2053 74.8831C89.5582 73.6631 88.9112 72.4431 88.2641 71.2231C87.5275 73.6326 86.7908 76.0421 86.0539 78.4523C84.9483 82.0688 90.5453 83.78 91.651 80.1635C92.3876 77.754 93.1243 75.3445 93.8612 72.9343C94.3285 71.4058 93.4454 69.7408 91.92 69.2744C87.567 67.9435 83.2132 66.6125 78.8594 65.2814C77.3341 64.815 75.6709 65.7016 75.2035 67.2301C74.4669 69.6396 73.7302 72.0491 72.9934 74.4593C72.526 75.9878 73.4091 77.6529 74.9345 78.1192C79.2875 79.4501 83.6413 80.7812 87.9951 82.1122C91.6048 83.2158 93.3196 77.6072 89.7098 76.5036Z" fill="#637CC6"/>
<path d="M140.467 111.09C153.286 126.663 153.679 148.729 141.767 164.948C130.894 179.754 111.072 185.184 93.9208 179.719C76.5475 174.183 64.8666 157.304 64.5566 139.269C64.2408 120.833 76.4976 104.074 93.7414 98.0782C107.33 93.3538 122.221 96.1802 133.699 104.607C136.751 106.848 139.863 101.873 136.841 99.6539C121.71 88.5451 101.829 86.9881 85.1065 95.4317C69.4733 103.326 59.6386 119.693 58.7397 137.006C57.8517 154.11 66.8507 170.523 80.9064 179.909C95.4651 189.631 114.561 190.092 130.016 182.288C142.814 175.826 151.916 163.487 155.19 149.637C158.737 134.632 154.458 118.88 144.771 107.111C142.364 104.186 138.079 108.19 140.467 111.09Z" fill="#637CC6"/>
<path d="M141.456 149.224C135.752 166.99 117.499 177.606 99.2793 173.403C81.2219 169.238 69.4907 150.866 72.6335 132.712C75.8231 114.286 93.0782 101.933 111.361 103.537C130.008 105.174 143.59 122.244 142.979 140.524C142.88 143.492 142.282 146.383 141.456 149.224C140.401 152.853 145.996 154.569 147.053 150.935C151.922 134.177 146.165 116.687 132.565 105.902C118.908 95.0721 99.0537 95.0073 84.7103 104.442C70.1221 114.038 63.461 132.244 67.5208 149.072C71.6209 166.065 86.563 178.077 103.6 180.049C123.01 182.296 141.199 169.172 147.054 150.936C148.21 147.332 142.611 145.626 141.456 149.224Z" fill="#637CC6"/>
<path d="M65.515 159.396L8.61897 142.001L25.7664 85.9141L78.1847 101.94L69.6735 114.125L64.8211 125.312L61.7555 138.689L65.515 159.396Z" fill="#637CC6"/>
<path d="M129.515 178.964L161.978 188.888L179.126 132.802L151.967 124.499L152.502 139.142L149.851 153.153L144.73 165.898L129.515 178.964Z" fill="#637CC6"/>
<path d="M70.8577 87.2307C69.8163 90.0818 65.6491 88.8077 66.3801 85.8617C67.1112 82.9125 71.5843 84.2988 70.8577 87.2307C69.9513 90.8868 75.5434 92.6169 76.4548 88.9418C77.5727 84.4337 75.3728 80.2858 71.0195 78.6941C66.676 77.1053 62.2482 80.1402 60.783 84.1505C59.1919 88.5033 62.2166 92.9353 66.2183 94.3983C70.5618 95.9871 74.9896 92.9521 76.4548 88.9418C77.7543 85.3855 72.151 83.692 70.8577 87.2307Z" fill="#637CC6"/>
<path d="M138.406 50.8486C138.516 45.9758 138.625 41.1029 138.735 36.2301C138.848 31.1973 131.044 30.967 130.931 36.0177C130.821 40.8904 130.712 45.7634 130.602 50.6362C130.489 55.669 138.291 55.899 138.406 50.8486Z" fill="#637CC6"/>
<path d="M153.414 57.6104C157.001 51.9551 160.589 46.3011 164.176 40.6458C166.882 36.3811 160.286 32.2056 157.588 36.458C154.001 42.1125 150.412 47.7673 146.825 53.4225C144.12 57.6874 150.716 61.8627 153.414 57.6104Z" fill="#637CC6"/>
<path d="M165.164 71.7981C171.152 69.268 177.138 66.7366 183.126 64.2061C187.77 62.2432 184.07 55.3593 179.466 57.3052C173.478 59.8354 167.491 62.3668 161.504 64.8972C156.86 66.8602 160.56 73.744 165.164 71.7981Z" fill="#637CC6"/>
<path d="M115.984 111.316C100.803 106.675 84.7256 115.244 80.0745 130.457C75.4237 145.67 83.9602 161.764 99.1417 166.406C114.322 171.047 130.4 162.477 135.05 147.265C139.701 132.052 131.165 115.957 115.984 111.316ZM92.7952 122.062C97.7261 116.717 105.916 113.817 112.971 116.528C117.642 118.323 115.386 125.813 110.685 124.006C110.214 123.825 109.718 123.693 109.226 123.59C108.791 123.499 109.388 123.548 108.4 123.467C107.773 123.416 107.142 123.374 106.512 123.4C103.062 123.546 100.375 125.323 98.0848 127.805C94.6681 131.51 89.3938 125.748 92.7952 122.062ZM120.3 157.394C110.228 164.645 97.1367 162.744 88.9122 153.729C85.5224 150.014 91.2514 144.695 94.6529 148.423C100.663 155.011 110.817 156.295 117.435 149.666C119.604 147.494 121.209 144.814 122.168 141.898C122.527 140.807 122.849 139.704 123.07 138.577C123.087 138.49 123.101 138.421 123.114 138.362C123.116 138.34 123.118 138.324 123.12 138.299C123.699 133.321 131.506 133.507 130.924 138.511C130.077 145.792 126.282 153.087 120.3 157.394Z" fill="#637CC6"/>
</g>
<defs>
<clipPath id="clip0_991_1746">
<rect width="167" height="165" fill="white" transform="translate(48.7692) rotate(17)"/>
</clipPath>
</defs>
</svg>
