<?xml version="1.0" encoding="utf-8"?>
<!-- Generator: Adobe Illustrator 16.0.0, SVG Export Plug-In . SVG Version: 6.00 Build 0)  -->
<!DOCTYPE svg PUBLIC "-//W3C//DTD SVG 1.1//EN" "http://www.w3.org/Graphics/SVG/1.1/DTD/svg11.dtd">
<svg version="1.1" id="Layer_1" xmlns="http://www.w3.org/2000/svg" xmlns:xlink="http://www.w3.org/1999/xlink" x="0px" y="0px"
	 width="451px" height="320px" viewBox="0 0 451 320" enable-background="new 0 0 451 320" xml:space="preserve">
<path fill="#637CC6" d="M126.746,77h-5.637v-0.773c0.18-0.016,0.359-0.031,0.539-0.047c0.188-0.016,0.352-0.047,0.492-0.094
	c0.219-0.07,0.379-0.191,0.48-0.363c0.109-0.18,0.164-0.41,0.164-0.691v-5.965c0-0.813-0.188-1.438-0.563-1.875
	c-0.367-0.445-0.828-0.668-1.383-0.668c-0.383,0-0.742,0.059-1.078,0.176s-0.645,0.281-0.926,0.492
	c-0.227,0.172-0.418,0.359-0.574,0.563c-0.148,0.195-0.262,0.359-0.34,0.492v6.668c0,0.273,0.047,0.5,0.141,0.68
	c0.094,0.172,0.254,0.305,0.48,0.398c0.18,0.07,0.34,0.125,0.48,0.164c0.148,0.031,0.34,0.055,0.574,0.07V77h-5.52v-0.773
	c0.18-0.016,0.352-0.031,0.516-0.047c0.172-0.016,0.328-0.047,0.469-0.094c0.219-0.07,0.379-0.191,0.48-0.363
	c0.109-0.18,0.164-0.41,0.164-0.691v-5.965c0-0.813-0.188-1.438-0.563-1.875c-0.367-0.445-0.828-0.668-1.383-0.668
	c-0.383,0-0.742,0.063-1.078,0.188c-0.336,0.117-0.645,0.281-0.926,0.492c-0.227,0.172-0.418,0.367-0.574,0.586
	c-0.156,0.211-0.273,0.371-0.352,0.48v6.621c0,0.266,0.055,0.488,0.164,0.668s0.273,0.316,0.492,0.41
	c0.164,0.078,0.332,0.137,0.504,0.176s0.363,0.066,0.574,0.082V77h-5.613v-0.773c0.18-0.016,0.363-0.031,0.551-0.047
	c0.195-0.016,0.363-0.047,0.504-0.094c0.219-0.07,0.379-0.191,0.48-0.363c0.109-0.18,0.164-0.41,0.164-0.691v-7.184
	c0-0.25-0.059-0.473-0.176-0.668c-0.109-0.203-0.266-0.375-0.469-0.516c-0.148-0.094-0.332-0.168-0.551-0.223
	c-0.219-0.063-0.445-0.102-0.68-0.117v-0.762l3.867-0.258l0.164,0.164v1.652h0.082c0.195-0.195,0.434-0.426,0.715-0.691
	s0.543-0.48,0.785-0.645c0.273-0.188,0.613-0.344,1.02-0.469c0.414-0.125,0.859-0.188,1.336-0.188c0.75,0,1.395,0.203,1.934,0.609
	c0.539,0.398,0.926,0.883,1.16,1.453c0.281-0.273,0.527-0.512,0.738-0.715c0.219-0.211,0.504-0.434,0.855-0.668
	c0.297-0.203,0.645-0.367,1.043-0.492c0.406-0.125,0.855-0.188,1.348-0.188c0.977,0,1.75,0.32,2.32,0.961S125,67.715,125,69.043
	v5.871c0,0.273,0.047,0.5,0.141,0.68c0.094,0.172,0.254,0.305,0.48,0.398c0.18,0.07,0.355,0.125,0.527,0.164
	c0.18,0.031,0.379,0.055,0.598,0.07V77z M139.56,74.281c-0.484,0.922-1.133,1.656-1.945,2.203s-1.746,0.82-2.801,0.82
	c-0.93,0-1.746-0.164-2.449-0.492c-0.695-0.328-1.27-0.773-1.723-1.336s-0.793-1.219-1.02-1.969
	c-0.219-0.75-0.328-1.543-0.328-2.379c0-0.75,0.117-1.484,0.352-2.203c0.242-0.727,0.594-1.379,1.055-1.957
	c0.445-0.555,0.996-1,1.652-1.336c0.664-0.344,1.406-0.516,2.227-0.516c0.844,0,1.566,0.133,2.168,0.398s1.09,0.629,1.465,1.09
	c0.359,0.438,0.625,0.953,0.797,1.547c0.18,0.594,0.27,1.238,0.27,1.934v0.773h-7.652c0,0.758,0.07,1.445,0.211,2.063
	c0.148,0.617,0.379,1.16,0.691,1.629c0.305,0.453,0.703,0.813,1.195,1.078c0.492,0.258,1.078,0.387,1.758,0.387
	c0.695,0,1.293-0.16,1.793-0.48c0.508-0.328,0.996-0.914,1.465-1.758L139.56,74.281z M136.97,69.875
	c0-0.438-0.039-0.906-0.117-1.406c-0.07-0.5-0.188-0.918-0.352-1.254c-0.18-0.359-0.426-0.652-0.738-0.879s-0.715-0.34-1.207-0.34
	c-0.82,0-1.504,0.344-2.051,1.031c-0.539,0.68-0.832,1.629-0.879,2.848H136.97z M152.361,74.281
	c-0.484,0.922-1.133,1.656-1.945,2.203c-0.813,0.547-1.747,0.82-2.801,0.82c-0.93,0-1.746-0.164-2.449-0.492
	c-0.695-0.328-1.27-0.773-1.723-1.336s-0.793-1.219-1.02-1.969c-0.219-0.75-0.328-1.543-0.328-2.379c0-0.75,0.117-1.484,0.352-2.203
	c0.242-0.727,0.594-1.379,1.055-1.957c0.445-0.555,0.996-1,1.652-1.336c0.664-0.344,1.406-0.516,2.227-0.516
	c0.844,0,1.566,0.133,2.168,0.398s1.09,0.629,1.465,1.09c0.36,0.438,0.625,0.953,0.797,1.547c0.18,0.594,0.27,1.238,0.27,1.934
	v0.773h-7.653c0,0.758,0.07,1.445,0.211,2.063c0.148,0.617,0.379,1.16,0.691,1.629c0.305,0.453,0.703,0.813,1.195,1.078
	c0.492,0.258,1.078,0.387,1.758,0.387c0.695,0,1.293-0.16,1.793-0.48c0.508-0.328,0.996-0.914,1.465-1.758L152.361,74.281z
	 M149.771,69.875c0-0.438-0.039-0.906-0.117-1.406c-0.07-0.5-0.188-0.918-0.352-1.254c-0.18-0.359-0.426-0.652-0.738-0.879
	s-0.715-0.34-1.207-0.34c-0.82,0-1.504,0.344-2.051,1.031c-0.539,0.68-0.832,1.629-0.879,2.848H149.771z M162.034,76.496
	c-0.508,0.211-0.989,0.387-1.442,0.527c-0.453,0.148-1.008,0.223-1.664,0.223c-0.969,0-1.652-0.242-2.051-0.727
	c-0.39-0.492-0.586-1.184-0.586-2.074v-7.828h-2.086v-1.125h2.133v-3.598h2.133v3.598h3.317v1.125h-3.293v6.457
	c0,0.484,0.015,0.891,0.046,1.219c0.039,0.32,0.125,0.602,0.258,0.844c0.125,0.227,0.313,0.398,0.563,0.516s0.586,0.176,1.008,0.176
	c0.195,0,0.48-0.016,0.855-0.047c0.383-0.039,0.652-0.086,0.809-0.141V76.496z"/>
<path fill="#637CC6" d="M106.492,106h-7.898v-0.832c0.234-0.016,0.598-0.047,1.09-0.094c0.5-0.054,0.844-0.109,1.031-0.164
	c0.242-0.078,0.426-0.203,0.551-0.375c0.133-0.18,0.199-0.445,0.199-0.797v-8.226h-2.918v-0.984h0.645
	c0.844,0,1.598-0.156,2.262-0.469c0.672-0.313,1.152-0.648,1.441-1.008h0.973c-0.023,0.508-0.047,1.102-0.07,1.781
	s-0.035,1.289-0.035,1.828v6.949c0,0.274,0.059,0.52,0.176,0.739c0.125,0.211,0.301,0.367,0.527,0.468
	c0.203,0.086,0.535,0.164,0.996,0.235c0.461,0.07,0.805,0.109,1.031,0.117V106z M114.23,110.277c-0.734,0-1.406-0.093-2.016-0.281
	c-0.609-0.18-1.133-0.426-1.57-0.738c-0.438-0.313-0.777-0.672-1.02-1.078c-0.234-0.407-0.352-0.825-0.352-1.254
	c0-0.383,0.094-0.727,0.281-1.031c0.188-0.313,0.488-0.469,0.902-0.469c0.469,0,0.824,0.117,1.066,0.351
	c0.25,0.227,0.375,0.489,0.375,0.785c0,0.25-0.043,0.567-0.129,0.95c-0.078,0.383-0.141,0.656-0.188,0.82
	c0.055,0.07,0.152,0.164,0.293,0.281c0.148,0.117,0.328,0.223,0.539,0.317c0.25,0.117,0.512,0.211,0.785,0.281
	c0.273,0.07,0.66,0.105,1.16,0.105c0.469,0,0.918-0.078,1.348-0.234c0.438-0.156,0.82-0.406,1.148-0.75
	c0.344-0.359,0.609-0.781,0.797-1.266c0.195-0.476,0.293-1.105,0.293-1.886c0-0.422-0.047-0.84-0.141-1.254
	c-0.086-0.414-0.25-0.774-0.492-1.078c-0.242-0.305-0.574-0.539-0.996-0.703c-0.414-0.172-0.941-0.258-1.582-0.258h-1.535v-1.348
	h1.02c1.078,0,1.855-0.297,2.332-0.891s0.715-1.488,0.715-2.684c0-0.977-0.23-1.711-0.691-2.203c-0.461-0.5-1.113-0.75-1.957-0.75
	c-0.406,0-0.742,0.051-1.008,0.152c-0.258,0.094-0.469,0.188-0.633,0.281c-0.195,0.109-0.355,0.23-0.48,0.363
	s-0.219,0.23-0.281,0.293c0.055,0.25,0.121,0.559,0.199,0.926c0.078,0.359,0.117,0.703,0.117,1.031c0,0.289-0.125,0.551-0.375,0.785
	c-0.242,0.227-0.602,0.34-1.078,0.34c-0.414,0-0.719-0.148-0.914-0.445c-0.188-0.297-0.281-0.641-0.281-1.031
	c0-0.406,0.113-0.82,0.34-1.242s0.563-0.816,1.008-1.184s0.988-0.664,1.629-0.891s1.379-0.34,2.215-0.34
	c0.961,0,1.754,0.145,2.379,0.434c0.633,0.281,1.129,0.625,1.488,1.031c0.352,0.398,0.594,0.816,0.727,1.254
	s0.199,0.813,0.199,1.125c0,0.391-0.055,0.785-0.164,1.184c-0.109,0.391-0.289,0.754-0.539,1.09
	c-0.273,0.367-0.637,0.703-1.09,1.008c-0.445,0.297-1.008,0.539-1.688,0.726v0.188c0.438,0.039,0.902,0.137,1.395,0.293
	c0.5,0.156,0.949,0.387,1.348,0.691c0.414,0.321,0.754,0.735,1.02,1.242c0.266,0.5,0.398,1.137,0.398,1.911
	c0,1.5-0.602,2.714-1.805,3.644C117.539,109.809,116.035,110.277,114.23,110.277z M128.321,96.004c0,0.438-0.16,0.813-0.48,1.125
	c-0.313,0.313-0.688,0.469-1.125,0.469s-0.816-0.156-1.137-0.469c-0.313-0.313-0.469-0.688-0.469-1.125s0.156-0.813,0.469-1.125
	c0.313-0.32,0.691-0.48,1.137-0.48s0.824,0.16,1.137,0.48C128.165,95.191,128.321,95.566,128.321,96.004z M128.321,104.652
	c0,0.438-0.16,0.813-0.48,1.125c-0.313,0.305-0.688,0.457-1.125,0.457s-0.816-0.152-1.137-0.457
	c-0.313-0.312-0.469-0.687-0.469-1.125c0-0.437,0.156-0.812,0.469-1.125c0.32-0.32,0.699-0.48,1.137-0.48s0.813,0.16,1.125,0.48
	C128.161,103.84,128.321,104.215,128.321,104.652z M143.701,95.055c0.5,0.602,0.871,1.309,1.113,2.121
	c0.25,0.805,0.375,1.648,0.375,2.531c0,1.063-0.152,2.016-0.457,2.859c-0.305,0.836-0.723,1.532-1.254,2.086
	c-0.547,0.571-1.195,1-1.945,1.289s-1.586,0.434-2.508,0.434c-1.008,0-1.906-0.168-2.695-0.504s-1.43-0.797-1.922-1.383
	c-0.516-0.609-0.902-1.32-1.16-2.133c-0.25-0.82-0.375-1.703-0.375-2.648c0-0.93,0.121-1.785,0.363-2.566
	c0.25-0.781,0.637-1.488,1.16-2.121c0.5-0.609,1.145-1.09,1.934-1.441s1.691-0.527,2.707-0.527c1.07,0,1.988,0.18,2.754,0.539
	S143.193,94.438,143.701,95.055z M142.599,99.707c0-1.859-0.32-3.301-0.961-4.324c-0.633-1.023-1.496-1.535-2.59-1.535
	c-1.109,0-1.984,0.512-2.625,1.535s-0.961,2.465-0.961,4.324c0,1.766,0.305,3.188,0.914,4.266c0.617,1.07,1.5,1.605,2.648,1.605
	s2.031-0.535,2.648-1.605C142.291,102.895,142.599,101.473,142.599,99.707z M159.643,95.055c0.5,0.602,0.871,1.309,1.113,2.121
	c0.25,0.805,0.375,1.648,0.375,2.531c0,1.063-0.152,2.016-0.457,2.859c-0.304,0.836-0.722,1.532-1.254,2.086
	c-0.547,0.571-1.195,1-1.945,1.289s-1.586,0.434-2.508,0.434c-1.008,0-1.906-0.168-2.695-0.504s-1.43-0.797-1.922-1.383
	c-0.516-0.609-0.902-1.32-1.16-2.133c-0.25-0.82-0.375-1.703-0.375-2.648c0-0.93,0.121-1.785,0.363-2.566
	c0.25-0.781,0.637-1.488,1.16-2.121c0.5-0.609,1.145-1.09,1.934-1.441s1.691-0.527,2.707-0.527c1.07,0,1.988,0.18,2.754,0.539
	C158.498,93.949,159.135,94.438,159.643,95.055z M158.541,99.707c0-1.859-0.32-3.301-0.961-4.324
	c-0.632-1.023-1.496-1.535-2.589-1.535c-1.11,0-1.985,0.512-2.625,1.535c-0.641,1.023-0.961,2.465-0.961,4.324
	c0,1.766,0.304,3.188,0.914,4.266c0.617,1.07,1.5,1.605,2.648,1.605c1.149,0,2.031-0.535,2.649-1.605
	C158.233,102.895,158.541,101.473,158.541,99.707z"/>
<path fill="#637CC6" d="M98.471,241.934c0,0.398-0.098,0.754-0.293,1.066c-0.195,0.305-0.496,0.457-0.902,0.457
	c-0.438,0-0.773-0.113-1.008-0.34c-0.227-0.227-0.34-0.477-0.34-0.75c0-0.172,0.012-0.328,0.035-0.469
	c0.031-0.141,0.059-0.281,0.082-0.422c-0.367,0-0.797,0.148-1.289,0.445s-0.91,0.719-1.254,1.266v6.727
	c0,0.273,0.051,0.496,0.152,0.668c0.109,0.172,0.277,0.301,0.504,0.387c0.195,0.078,0.445,0.137,0.75,0.176
	c0.313,0.039,0.582,0.066,0.809,0.082V252h-6.094v-0.773c0.18-0.016,0.363-0.031,0.551-0.047c0.195-0.016,0.363-0.047,0.504-0.094
	c0.219-0.07,0.379-0.191,0.48-0.363c0.109-0.18,0.164-0.41,0.164-0.691v-7.137c0-0.242-0.059-0.48-0.176-0.715
	c-0.109-0.234-0.266-0.422-0.469-0.563c-0.148-0.094-0.324-0.16-0.527-0.199c-0.203-0.047-0.422-0.078-0.656-0.094v-0.762
	l3.844-0.258l0.164,0.164v1.629h0.059c0.484-0.633,1.023-1.113,1.617-1.441s1.137-0.492,1.629-0.492s0.891,0.16,1.195,0.48
	C98.315,240.965,98.471,241.395,98.471,241.934z M110.933,249.281c-0.484,0.922-1.133,1.656-1.945,2.203s-1.746,0.82-2.801,0.82
	c-0.93,0-1.746-0.164-2.449-0.492c-0.695-0.328-1.27-0.773-1.723-1.336s-0.793-1.219-1.02-1.969
	c-0.219-0.75-0.328-1.543-0.328-2.379c0-0.75,0.117-1.484,0.352-2.203c0.242-0.727,0.594-1.379,1.055-1.957
	c0.445-0.555,0.996-1,1.652-1.336c0.664-0.344,1.406-0.516,2.227-0.516c0.844,0,1.566,0.133,2.168,0.398s1.09,0.629,1.465,1.09
	c0.359,0.438,0.625,0.953,0.797,1.547c0.18,0.594,0.27,1.238,0.27,1.934v0.773H103c0,0.758,0.07,1.445,0.211,2.063
	c0.148,0.617,0.379,1.16,0.691,1.629c0.305,0.453,0.703,0.813,1.195,1.078c0.492,0.258,1.078,0.387,1.758,0.387
	c0.695,0,1.293-0.16,1.793-0.48c0.508-0.328,0.996-0.914,1.465-1.758L110.933,249.281z M108.343,244.875
	c0-0.438-0.039-0.906-0.117-1.406c-0.07-0.5-0.188-0.918-0.352-1.254c-0.18-0.359-0.426-0.652-0.738-0.879s-0.715-0.34-1.207-0.34
	c-0.82,0-1.504,0.344-2.051,1.031c-0.539,0.68-0.832,1.629-0.879,2.848H108.343z M120.605,251.496
	c-0.508,0.211-0.988,0.387-1.441,0.527c-0.453,0.148-1.008,0.223-1.664,0.223c-0.969,0-1.652-0.242-2.051-0.727
	c-0.391-0.492-0.586-1.184-0.586-2.074v-7.828h-2.086v-1.125h2.133v-3.598h2.133v3.598h3.316v1.125h-3.293v6.457
	c0,0.484,0.016,0.891,0.047,1.219c0.039,0.32,0.125,0.602,0.258,0.844c0.125,0.227,0.313,0.398,0.563,0.516s0.586,0.176,1.008,0.176
	c0.195,0,0.48-0.016,0.855-0.047c0.383-0.039,0.652-0.086,0.809-0.141V251.496z M135.353,251.789l-3.762,0.258l-0.176-0.164v-1.465
	h-0.07c-0.188,0.195-0.398,0.406-0.633,0.633c-0.234,0.219-0.504,0.418-0.809,0.598c-0.352,0.211-0.691,0.371-1.02,0.48
	s-0.793,0.164-1.395,0.164c-1.023,0-1.805-0.332-2.344-0.996c-0.531-0.672-0.797-1.645-0.797-2.918v-5.531
	c0-0.281-0.055-0.516-0.164-0.703c-0.102-0.195-0.254-0.363-0.457-0.504c-0.141-0.094-0.316-0.16-0.527-0.199
	c-0.211-0.047-0.434-0.078-0.668-0.094v-0.762l3.855-0.281l0.176,0.164v8.027c0,0.836,0.188,1.465,0.563,1.887
	s0.824,0.633,1.348,0.633c0.43,0,0.813-0.066,1.148-0.199s0.617-0.289,0.844-0.469c0.211-0.164,0.395-0.336,0.551-0.516
	c0.164-0.188,0.289-0.359,0.375-0.516v-6.551c0-0.258-0.055-0.484-0.164-0.68c-0.109-0.203-0.262-0.375-0.457-0.516
	c-0.141-0.094-0.352-0.148-0.633-0.164c-0.273-0.023-0.582-0.043-0.926-0.059v-0.762l4.195-0.281l0.176,0.164v9.176
	c0,0.266,0.055,0.492,0.164,0.68s0.262,0.348,0.457,0.48c0.141,0.086,0.309,0.145,0.504,0.176c0.195,0.023,0.41,0.039,0.645,0.047
	V251.789z M146.818,241.934c0,0.398-0.098,0.754-0.293,1.066c-0.195,0.305-0.496,0.457-0.902,0.457c-0.438,0-0.773-0.113-1.008-0.34
	c-0.227-0.227-0.34-0.477-0.34-0.75c0-0.172,0.012-0.328,0.035-0.469c0.031-0.141,0.059-0.281,0.082-0.422
	c-0.367,0-0.797,0.148-1.289,0.445s-0.91,0.719-1.254,1.266v6.727c0,0.273,0.051,0.496,0.152,0.668
	c0.109,0.172,0.277,0.301,0.504,0.387c0.195,0.078,0.445,0.137,0.75,0.176c0.313,0.039,0.582,0.066,0.809,0.082V252h-6.094v-0.773
	c0.18-0.016,0.363-0.031,0.551-0.047c0.195-0.016,0.363-0.047,0.504-0.094c0.219-0.07,0.379-0.191,0.48-0.363
	c0.109-0.18,0.164-0.41,0.164-0.691v-7.137c0-0.242-0.059-0.48-0.176-0.715c-0.109-0.234-0.266-0.422-0.469-0.563
	c-0.148-0.094-0.324-0.16-0.527-0.199c-0.203-0.047-0.422-0.078-0.656-0.094v-0.762l3.844-0.258l0.164,0.164v1.629h0.059
	c0.484-0.633,1.023-1.113,1.617-1.441s1.137-0.492,1.629-0.492s0.891,0.16,1.195,0.48
	C146.662,240.965,146.818,241.395,146.818,241.934z M161.776,252h-5.66v-0.773c0.179-0.016,0.375-0.031,0.586-0.047
	c0.218-0.016,0.398-0.047,0.539-0.094c0.218-0.07,0.379-0.191,0.48-0.363c0.109-0.18,0.164-0.41,0.164-0.691v-5.941
	c0-0.82-0.195-1.453-0.586-1.898c-0.383-0.445-0.851-0.668-1.406-0.668c-0.414,0-0.793,0.066-1.137,0.199
	c-0.344,0.125-0.648,0.281-0.914,0.469c-0.258,0.18-0.465,0.375-0.621,0.586c-0.148,0.203-0.258,0.367-0.328,0.492v6.645
	c0,0.266,0.055,0.484,0.164,0.656s0.273,0.305,0.492,0.398c0.164,0.078,0.34,0.137,0.528,0.176c0.195,0.039,0.394,0.066,0.597,0.082
	V252h-5.66v-0.773c0.18-0.016,0.363-0.031,0.551-0.047c0.195-0.016,0.363-0.047,0.504-0.094c0.219-0.07,0.379-0.191,0.48-0.363
	c0.11-0.18,0.164-0.41,0.164-0.691v-7.137c0-0.266-0.058-0.508-0.175-0.727c-0.11-0.227-0.266-0.41-0.469-0.551
	c-0.149-0.094-0.324-0.16-0.528-0.199c-0.203-0.047-0.421-0.078-0.656-0.094v-0.762l3.844-0.258l0.164,0.164v1.629h0.059
	c0.187-0.188,0.421-0.41,0.703-0.668c0.281-0.266,0.547-0.48,0.797-0.645c0.289-0.188,0.632-0.344,1.031-0.469
	c0.398-0.125,0.847-0.188,1.347-0.188c1.11,0,1.93,0.348,2.461,1.043c0.539,0.688,0.809,1.605,0.809,2.754v6.012
	c0,0.273,0.047,0.496,0.141,0.668c0.093,0.164,0.254,0.293,0.48,0.387c0.188,0.078,0.348,0.133,0.481,0.164
	c0.14,0.031,0.332,0.055,0.574,0.07V252z"/>
<path fill="#637CC6" d="M106.14,281h-7.898v-0.832c0.234-0.016,0.598-0.047,1.09-0.094c0.5-0.055,0.844-0.109,1.031-0.164
	c0.242-0.078,0.426-0.203,0.551-0.375c0.133-0.18,0.199-0.445,0.199-0.797v-8.227h-2.918v-0.984h0.645
	c0.844,0,1.598-0.156,2.262-0.469c0.672-0.313,1.152-0.648,1.441-1.008h0.973c-0.023,0.508-0.047,1.102-0.07,1.781
	s-0.035,1.289-0.035,1.828v6.949c0,0.273,0.059,0.52,0.176,0.738c0.125,0.211,0.301,0.367,0.527,0.469
	c0.203,0.086,0.535,0.164,0.996,0.234s0.805,0.109,1.031,0.117V281z M120.77,275.598c0,0.813-0.148,1.574-0.445,2.285
	c-0.289,0.711-0.68,1.316-1.172,1.816c-0.57,0.57-1.203,0.992-1.898,1.266c-0.688,0.273-1.406,0.41-2.156,0.41
	c-0.867,0-1.652-0.16-2.355-0.48s-1.301-0.773-1.793-1.359c-0.5-0.594-0.887-1.32-1.16-2.18s-0.41-1.824-0.41-2.895
	c0-2.789,0.828-5.141,2.484-7.055c1.664-1.914,3.891-3.063,6.68-3.445l0.211,1.055l-1.055,0.188
	c-1.695,0.547-3.008,1.398-3.938,2.555c-0.922,1.156-1.52,2.559-1.793,4.207c0.672-0.586,1.336-1,1.992-1.242
	s1.348-0.363,2.074-0.363c1.305,0,2.418,0.5,3.34,1.5C120.305,272.859,120.77,274.105,120.77,275.598z M118.227,275.914
	c0-1.266-0.293-2.281-0.879-3.047c-0.578-0.766-1.355-1.148-2.332-1.148c-0.586,0-1.133,0.109-1.641,0.328
	c-0.5,0.219-0.984,0.586-1.453,1.102c-0.008,0.094-0.02,0.313-0.035,0.656c-0.016,0.336-0.023,0.602-0.023,0.797
	c0,1.828,0.297,3.262,0.891,4.301c0.602,1.031,1.391,1.547,2.367,1.547c0.93,0,1.68-0.402,2.25-1.207
	C117.941,278.43,118.227,277.32,118.227,275.914z M128.321,271.004c0,0.438-0.16,0.813-0.48,1.125
	c-0.313,0.313-0.688,0.469-1.125,0.469s-0.816-0.156-1.137-0.469c-0.313-0.313-0.469-0.688-0.469-1.125s0.156-0.813,0.469-1.125
	c0.313-0.32,0.691-0.48,1.137-0.48s0.824,0.16,1.137,0.48C128.165,270.191,128.321,270.566,128.321,271.004z M128.321,279.652
	c0,0.438-0.16,0.813-0.48,1.125c-0.313,0.305-0.688,0.457-1.125,0.457s-0.816-0.152-1.137-0.457
	c-0.313-0.313-0.469-0.688-0.469-1.125s0.156-0.813,0.469-1.125c0.32-0.32,0.699-0.48,1.137-0.48s0.813,0.16,1.125,0.48
	C128.161,278.84,128.321,279.215,128.321,279.652z M143.701,270.055c0.5,0.602,0.871,1.309,1.113,2.121
	c0.25,0.805,0.375,1.648,0.375,2.531c0,1.063-0.152,2.016-0.457,2.859c-0.305,0.836-0.723,1.531-1.254,2.086
	c-0.547,0.57-1.195,1-1.945,1.289s-1.586,0.434-2.508,0.434c-1.008,0-1.906-0.168-2.695-0.504s-1.43-0.797-1.922-1.383
	c-0.516-0.609-0.902-1.32-1.16-2.133c-0.25-0.82-0.375-1.703-0.375-2.648c0-0.93,0.121-1.785,0.363-2.566
	c0.25-0.781,0.637-1.488,1.16-2.121c0.5-0.609,1.145-1.09,1.934-1.441s1.691-0.527,2.707-0.527c1.07,0,1.988,0.18,2.754,0.539
	S143.193,269.438,143.701,270.055z M142.599,274.707c0-1.859-0.32-3.301-0.961-4.324c-0.633-1.023-1.496-1.535-2.59-1.535
	c-1.109,0-1.984,0.512-2.625,1.535s-0.961,2.465-0.961,4.324c0,1.766,0.305,3.188,0.914,4.266c0.617,1.07,1.5,1.605,2.648,1.605
	s2.031-0.535,2.648-1.605C142.291,277.895,142.599,276.473,142.599,274.707z M159.643,270.055c0.5,0.602,0.871,1.309,1.113,2.121
	c0.25,0.805,0.375,1.648,0.375,2.531c0,1.063-0.152,2.016-0.457,2.859c-0.304,0.836-0.722,1.531-1.254,2.086
	c-0.547,0.57-1.195,1-1.945,1.289s-1.586,0.434-2.508,0.434c-1.008,0-1.906-0.168-2.695-0.504s-1.43-0.797-1.922-1.383
	c-0.516-0.609-0.902-1.32-1.16-2.133c-0.25-0.82-0.375-1.703-0.375-2.648c0-0.93,0.121-1.785,0.363-2.566
	c0.25-0.781,0.637-1.488,1.16-2.121c0.5-0.609,1.145-1.09,1.934-1.441s1.691-0.527,2.707-0.527c1.07,0,1.988,0.18,2.754,0.539
	C158.498,268.949,159.135,269.438,159.643,270.055z M158.541,274.707c0-1.859-0.32-3.301-0.961-4.324
	c-0.632-1.023-1.496-1.535-2.589-1.535c-1.11,0-1.985,0.512-2.625,1.535c-0.641,1.023-0.961,2.465-0.961,4.324
	c0,1.766,0.304,3.188,0.914,4.266c0.617,1.07,1.5,1.605,2.648,1.605c1.149,0,2.031-0.535,2.649-1.605
	C158.233,277.895,158.541,276.473,158.541,274.707z"/>
<path fill="#637CC6" d="M354.3,103.917c-0.508-0.061-1.042,0.068-1.478,0.409c-7.144,5.618-14.241,11.291-21.387,16.902
	c-0.826,0.647-0.972,1.841-0.324,2.666c0.651,0.826,1.847,0.969,2.674,0.323c7.152-5.602,14.353-11.144,21.511-16.738
	c0.87-0.683,1.03-1.943,0.347-2.815C355.297,104.229,354.811,103.979,354.3,103.917z"/>
<path fill="#637CC6" d="M359.577,103.917c-0.509,0.062-0.995,0.312-1.338,0.747c-0.687,0.872-0.536,2.132,0.337,2.815
	c7.158,5.594,14.361,11.136,21.513,16.738c0.825,0.646,2.021,0.501,2.669-0.323c0.648-0.825,0.504-2.019-0.322-2.666
	c-7.145-5.613-14.235-11.285-21.376-16.902C360.624,103.985,360.091,103.856,359.577,103.917z"/>
<path fill="#637CC6" d="M353.743,93.79c0.209-3.858,5.783-3.856,5.991,0C359.944,97.648,353.95,97.628,353.743,93.79
	c-0.119-2.223-3.591-2.234-3.47,0c0.196,3.65,2.811,6.26,6.465,6.456c3.646,0.197,6.285-3.103,6.467-6.456
	c0.197-3.64-3.109-6.275-6.467-6.456c-3.647-0.197-6.285,3.101-6.465,6.456C350.152,96.023,353.624,96.012,353.743,93.79z"/>
<path fill="#637CC6" d="M356.608,79.64c-1.109,0.029-1.982,0.946-1.953,2.053c0.078,2.383,0.221,4.766,0.292,7.147
	c0.028,1.048,0.901,1.877,1.954,1.849c1.048-0.028,1.877-0.903,1.85-1.951c-0.055-2.384-0.03-4.766-0.08-7.148
	C358.642,80.482,357.718,79.61,356.608,79.64z"/>
<path fill="#637CC6" d="M334.829,118.783c-0.258,0.044-0.508,0.14-0.741,0.291c-1.297,0.839-2.517,1.798-3.482,3.012
	c-0.571,0.72-1.045,1.518-1.355,2.383c-0.263,0.74-0.403,1.513-0.41,2.297c-0.032,3.798,3.161,6.59,6.216,8.298
	c0.47,0.262,0.948,0.509,1.435,0.736c0.611,0.293,1.234,0.557,1.868,0.804c1.975,0.772,4.023,1.352,6.095,1.802
	c3.35,0.727,6.774,1.104,10.201,1.219c4.139,0.138,8.308-0.102,12.391-0.803c2.768-0.478,5.509-1.162,8.137-2.164
	c0.74-0.284,1.48-0.593,2.199-0.936c0.577-0.274,1.147-0.573,1.701-0.895c2.779-1.615,5.582-4.102,5.86-7.509
	c0.031-0.427,0.024-0.854-0.025-1.277c-0.068-0.608-0.222-1.209-0.447-1.777c-0.319-0.804-0.792-1.548-1.34-2.218
	c-0.839-1.023-1.852-1.857-2.938-2.603c-0.865-0.595-2.054-0.376-2.646,0.488c-0.593,0.863-0.375,2.049,0.488,2.642
	c0.722,0.495,1.417,1.031,1.997,1.691c0.327,0.376,0.623,0.787,0.833,1.242c0.119,0.258,0.205,0.532,0.253,0.812
	c0.295,1.728-1.115,3.201-2.37,4.167c-0.242,0.185-0.489,0.361-0.74,0.526c-0.347,0.23-0.711,0.443-1.071,0.645
	c-0.479,0.268-0.959,0.515-1.459,0.741c-0.543,0.25-1.094,0.481-1.652,0.691c-0.706,0.268-1.418,0.506-2.143,0.725
	c-4.889,1.471-10.07,1.988-15.162,1.942c-5.104-0.047-10.359-0.676-15.212-2.313c-0.687-0.23-1.366-0.488-2.039-0.77
	c-0.524-0.221-1.043-0.457-1.552-0.718c-0.385-0.196-0.77-0.406-1.142-0.629c-0.341-0.204-0.667-0.421-0.994-0.651
	c-1.396-1.003-3.107-2.625-2.653-4.532c0.071-0.294,0.187-0.575,0.329-0.84c0.264-0.485,0.622-0.915,1.008-1.306
	c0.604-0.606,1.297-1.096,2.01-1.558c0.933-0.602,1.194-1.846,0.594-2.775C336.406,118.967,335.598,118.646,334.829,118.783z"/>
<path fill="#637CC6" d="M328.623,157.094c-1.109,0.021-1.992,0.938-1.968,2.045c0.009,0.54,0.067,1.071,0.195,1.597
	c0.817,3.365,3.901,5.707,6.822,7.236c0.504,0.262,1.009,0.508,1.527,0.736c0.659,0.293,1.328,0.564,2,0.811
	c5.183,1.905,10.768,2.698,16.267,2.879c3.731,0.125,7.477-0.055,11.169-0.573c2.856-0.4,5.695-1.005,8.437-1.896
	c0.932-0.304,1.852-0.644,2.757-1.023c0.634-0.266,1.26-0.553,1.877-0.864c2.993-1.512,6.225-3.896,7.055-7.33
	c0.128-0.518,0.188-1.039,0.199-1.573c0.019-1.047-0.817-1.916-1.869-1.935c-1.05-0.018-1.917,0.819-1.937,1.866
	c-0.034,1.983-1.795,3.495-3.316,4.506c-0.288,0.189-0.586,0.372-0.882,0.542c-0.404,0.233-0.819,0.448-1.24,0.655
	c-0.545,0.266-1.098,0.511-1.66,0.736c-0.607,0.247-1.219,0.48-1.842,0.686c-4.531,1.513-9.349,2.149-14.107,2.305
	c-5.784,0.188-11.684-0.337-17.253-1.973c-1.831-0.539-3.638-1.207-5.332-2.096c-1.016-0.531-1.998-1.146-2.866-1.901
	c-1.022-0.892-1.972-2.051-1.994-3.469C330.642,157.952,329.731,157.071,328.623,157.094z"/>
<path fill="#637CC6" d="M330.496,145.588c-1.109,0.021-1.992,0.939-1.968,2.045c0.01,0.516,0.065,1.016,0.186,1.518
	c0.777,3.194,3.683,5.42,6.453,6.868c0.475,0.247,0.959,0.473,1.449,0.692c0.617,0.275,1.241,0.528,1.876,0.763
	c4.867,1.786,10.115,2.536,15.279,2.704c3.502,0.114,7.009-0.054,10.477-0.543c2.682-0.377,5.355-0.947,7.932-1.784
	c0.878-0.287,1.741-0.605,2.592-0.96c0.601-0.253,1.193-0.522,1.773-0.82c2.837-1.442,5.881-3.682,6.671-6.944
	c0.12-0.493,0.171-0.995,0.183-1.502c0.019-1.047-0.819-1.908-1.866-1.926c-1.052-0.021-1.912,0.808-1.932,1.855
	c-0.031,1.813-1.676,3.206-3.066,4.129c-0.262,0.176-0.534,0.35-0.812,0.512c-0.374,0.216-0.759,0.414-1.148,0.604
	c-0.507,0.25-1.025,0.473-1.551,0.685c-0.569,0.23-1.145,0.444-1.727,0.639c-4.23,1.409-8.73,2.007-13.176,2.154
	c-5.407,0.176-10.93-0.319-16.132-1.85c-1.709-0.501-3.383-1.122-4.963-1.949c-0.943-0.494-1.866-1.068-2.669-1.77
	c-0.934-0.81-1.801-1.862-1.821-3.153C332.515,146.446,331.606,145.567,330.496,145.588z"/>
<path fill="#637CC6" d="M331.985,134.811c-1.107,0.021-1.99,0.937-1.97,2.045c0.011,0.492,0.065,0.975,0.183,1.454
	c0.855,3.526,4.38,5.8,7.491,7.18c0.582,0.261,1.176,0.495,1.771,0.718c4.582,1.685,9.52,2.389,14.381,2.548
	c3.295,0.108,6.601-0.051,9.864-0.511c2.524-0.355,5.041-0.894,7.465-1.685c0.727-0.235,1.445-0.494,2.151-0.784
	c0.574-0.233,1.138-0.48,1.694-0.754c2.787-1.377,5.824-3.532,6.601-6.732c0.114-0.474,0.165-0.953,0.173-1.44
	c0.022-1.048-0.816-1.907-1.866-1.928c-1.049-0.018-1.92,0.808-1.938,1.857c-0.02,1.205-0.838,2.193-1.709,2.95
	c-1.705,1.479-3.879,2.398-6.001,3.105c-3.964,1.321-8.179,1.888-12.345,2.021c-5.063,0.164-10.232-0.305-15.108-1.737
	c-2.427-0.715-5.021-1.713-6.984-3.351c-0.901-0.75-1.787-1.753-1.804-2.988C334.013,135.67,333.094,134.79,331.985,134.811z"/>
<path fill="#637CC6" d="M381.909,149.668c-0.74,0.011-1.44,0.459-1.733,1.188c-0.393,0.972,0.073,2.074,1.047,2.469
	c1.89,0.765,3.741,1.639,5.442,2.768c1.063,0.706,2.074,1.508,2.931,2.455c0.553,0.612,1.038,1.287,1.389,2.037
	c0.197,0.435,0.353,0.896,0.432,1.368c0.509,3.088-2.145,5.617-4.45,7.203c-0.387,0.268-0.783,0.521-1.189,0.766
	c-0.545,0.323-1.104,0.622-1.667,0.909c-0.74,0.375-1.494,0.721-2.253,1.04c-0.969,0.402-1.955,0.764-2.948,1.092
	c-3.161,1.053-6.422,1.787-9.712,2.297c-3.976,0.617-7.997,0.907-12.021,0.928c-3.969,0.02-7.945-0.225-11.877-0.771
	c-3.286-0.456-6.554-1.119-9.729-2.085c-1.176-0.357-2.337-0.759-3.481-1.21c-0.913-0.36-1.814-0.747-2.695-1.181
	c-0.685-0.338-1.358-0.699-2.015-1.092c-0.499-0.301-0.992-0.621-1.466-0.961c-2.182-1.559-4.63-4.003-4.119-6.945
	c0.079-0.459,0.227-0.905,0.425-1.328c0.335-0.718,0.806-1.364,1.33-1.95c0.892-0.993,1.94-1.802,3.042-2.541
	c0.92-0.617,1.162-1.866,0.543-2.785c-0.618-0.916-1.868-1.158-2.791-0.541c-1.519,1.023-2.95,2.171-4.124,3.589
	c-0.855,1.027-1.564,2.187-2.002,3.45c-0.27,0.774-0.439,1.589-0.49,2.408c-0.034,0.621,0.002,1.248,0.103,1.862
	c0.642,3.969,3.864,6.924,7.129,8.941c0.61,0.381,1.239,0.738,1.877,1.069c0.805,0.424,1.627,0.812,2.465,1.174
	c1.038,0.448,2.102,0.851,3.172,1.219c3.978,1.371,8.114,2.257,12.281,2.823c5.388,0.732,10.847,0.93,16.274,0.655
	c4.077-0.208,8.146-0.689,12.146-1.521c3.314-0.685,6.586-1.61,9.721-2.885c0.998-0.407,1.985-0.849,2.944-1.339
	c0.646-0.325,1.286-0.671,1.907-1.044c3.368-2.021,6.784-5.03,7.434-9.107c0.092-0.563,0.128-1.135,0.104-1.706
	c-0.035-0.82-0.196-1.64-0.456-2.416c-0.338-1.011-0.854-1.958-1.48-2.821c-0.898-1.242-2.017-2.315-3.229-3.25
	c-2.259-1.741-4.831-3.026-7.47-4.089C382.406,149.711,382.156,149.664,381.909,149.668z"/>
<path fill="#637CC6" d="M386.502,169.489c-1.098,0.146-1.871,1.159-1.721,2.257c1.217,8.979,2.429,17.965,3.576,26.952
	c0.225,1.786,0.449,3.567,0.658,5.354c0.066,0.562,0.135,1.122,0.19,1.684c0.017,0.148,0.028,0.3,0.041,0.449
	c0.005,0.061,0.005,0.133,0.014,0.195c-0.02,0.917-0.276,1.778-0.731,2.572c-1.03,1.802-2.767,3.16-4.504,4.238
	c-3.2,1.986-6.827,3.26-10.452,4.201c-6.234,1.617-12.721,2.243-19.149,2.209c-6.586-0.035-13.246-0.774-19.582-2.617
	c-3.282-0.957-6.563-2.209-9.42-4.108c-1.415-0.937-2.778-2.067-3.718-3.498c-0.55-0.835-0.947-1.786-0.986-2.793
	c-0.015-0.418,0.064-0.894,0.118-1.337c0.068-0.541,0.146-1.079,0.223-1.621c0.236-1.688,0.492-3.373,0.757-5.055
	c1.367-8.824,2.835-17.631,4.321-26.434c0.176-1.035-0.517-2.021-1.551-2.195c-1.035-0.174-2.014,0.524-2.188,1.559
	c-1.545,9.115-3.075,18.238-4.489,27.377c-0.249,1.607-0.492,3.216-0.719,4.83c-0.168,1.225-0.385,2.455-0.234,3.693
	c0.175,1.461,0.738,2.85,1.542,4.074c1.295,1.979,3.16,3.537,5.137,4.809c3.102,1.99,6.592,3.367,10.119,4.404
	c6.679,1.961,13.7,2.768,20.646,2.819c7.199,0.06,14.482-0.676,21.427-2.633c3.959-1.116,7.912-2.636,11.316-4.978
	c1.912-1.314,3.691-2.936,4.852-4.965c0.734-1.281,1.193-2.719,1.252-4.197c0.025-0.611-0.045-1.219-0.111-1.824
	c-0.067-0.651-0.147-1.301-0.227-1.95c-0.188-1.59-0.391-3.176-0.589-4.767c-1.142-8.998-2.346-17.993-3.563-26.984
	C388.61,170.111,387.603,169.341,386.502,169.489z"/>
<path fill="#637CC6" d="M318.897,194.49c-0.261,0.006-0.516,0.061-0.771,0.175c-3.257,1.437-6.429,3.142-9.186,5.411
	c-1.588,1.308-3.038,2.82-4.151,4.56c-0.786,1.234-1.4,2.577-1.738,4.005c-0.167,0.701-0.265,1.424-0.293,2.147
	c-0.136,3.56,1.521,6.827,3.884,9.399c1.345,1.461,2.905,2.718,4.546,3.828c2.748,1.862,5.759,3.321,8.844,4.531
	c4.096,1.605,8.36,2.775,12.667,3.657c5.895,1.208,11.9,1.864,17.912,2.094c7.129,0.269,14.298-0.052,21.362-1.063
	c5.652-0.807,11.269-2.053,16.659-3.948c3.505-1.231,6.941-2.748,10.09-4.734c1.985-1.251,3.861-2.698,5.453-4.429
	c2.782-3.033,4.48-6.903,3.656-11.057c-0.239-1.19-0.667-2.332-1.24-3.397c-0.851-1.593-2.012-3.012-3.306-4.263
	c-1.92-1.848-4.137-3.327-6.453-4.624c-0.916-0.513-2.068-0.191-2.583,0.722c-0.515,0.914-0.193,2.066,0.726,2.578
	c1.932,1.083,3.793,2.311,5.417,3.825c0.979,0.911,1.874,1.928,2.568,3.075c0.445,0.733,0.803,1.528,1.025,2.357
	c0.142,0.536,0.225,1.09,0.241,1.645c0.089,2.644-1.348,5.013-3.132,6.858c-1.665,1.72-3.661,3.099-5.735,4.277
	c-3.202,1.819-6.651,3.185-10.162,4.28c-4.737,1.479-9.621,2.463-14.54,3.115c-5.749,0.76-11.557,1.063-17.354,0.951
	c-5.649-0.107-11.302-0.602-16.87-1.574c-4.368-0.762-8.7-1.807-12.888-3.277c-3.07-1.08-6.079-2.395-8.859-4.09
	c-1.85-1.129-3.63-2.437-5.098-4.035c-1.86-2.025-3.189-4.563-2.749-7.379c0.104-0.663,0.306-1.31,0.575-1.926
	c0.446-1.019,1.076-1.953,1.798-2.801c1.076-1.262,2.348-2.346,3.7-3.302c2.127-1.508,4.456-2.703,6.839-3.753
	c1.012-0.447,1.471-1.629,1.023-2.643C320.438,194.927,319.68,194.479,318.897,194.49z"/>
<path fill="#637CC6" d="M353.689,100.544c1.863,0,3.729,0,5.594,0c-0.579-0.578-1.156-1.155-1.735-1.733c0,2.201,0,4.402,0,6.605
	c0.579-0.578,1.156-1.155,1.735-1.733c-1.864,0-3.73,0-5.594,0c0.577,0.578,1.155,1.155,1.734,1.733c0-2.201,0-4.402,0-6.605
	c0-2.235-3.471-2.235-3.471,0c0,2.201,0,4.402,0,6.605c0,0.946,0.789,1.733,1.736,1.733c1.863,0,3.729,0,5.594,0
	c0.947,0,1.735-0.787,1.735-1.733c0-2.201,0-4.402,0-6.605c0-0.946-0.788-1.733-1.735-1.733c-1.864,0-3.73,0-5.594,0
	C351.451,97.078,351.451,100.544,353.689,100.544z"/>
<path fill="#637CC6" d="M333.025,129.718c-1.039-0.153-2.004,0.558-2.159,1.595c-1.339,8.959-2.749,17.91-4.097,26.866
	c-0.163,1.096,0.597,2.112,1.691,2.275c1.1,0.162,2.115-0.59,2.281-1.684c1.314-8.963,2.565-17.935,3.889-26.898
	C334.785,130.834,334.063,129.87,333.025,129.718z"/>
<path fill="#637CC6" d="M379.193,130.674c-1.041,0.145-1.768,1.1-1.624,2.139c1.226,8.872,2.375,17.748,3.593,26.622
	c0.15,1.097,1.163,1.87,2.261,1.713c1.096-0.15,1.869-1.167,1.716-2.265c-1.246-8.869-2.564-17.729-3.804-26.599
	C381.189,131.248,380.232,130.532,379.193,130.674z"/>
<path fill="#637CC6" d="M341.705,136.605c-1.365,10.487-2.73,20.975-4.094,31.461c-0.289,2.211,3.186,2.184,3.471,0
	c1.364-10.486,2.729-20.975,4.094-31.461C345.464,134.394,341.99,134.422,341.705,136.605z"/>
<path fill="#637CC6" d="M367.892,136.605c1.365,10.487,2.729,20.975,4.095,31.461c0.285,2.184,3.758,2.211,3.471,0
	c-1.365-10.486-2.73-20.975-4.094-31.461C371.078,134.422,367.604,134.394,367.892,136.605z"/>
<path fill="#637CC6" d="M354.046,138.243c-0.349,10.764-0.697,21.529-1.047,32.293c-0.072,2.235,3.399,2.229,3.471,0
	c0.349-10.764,0.697-21.529,1.047-32.293C357.589,136.007,354.118,136.014,354.046,138.243z"/>
<path fill="#637CC6" d="M352.495,220.845c-0.354-6.8-0.708-13.602-1.063-20.403c-0.053-1.019-0.755-1.633-1.734-1.732
	c-2.191-0.225-4.382-0.449-6.573-0.672c-1.006-0.104-1.652,0.87-1.735,1.732c-0.66,6.825-1.317,13.651-1.977,20.476
	c-0.215,2.224,3.258,2.204,3.471,0c0.659-6.826,1.317-13.651,1.978-20.476c-0.579,0.578-1.157,1.154-1.736,1.732
	c2.191,0.225,4.382,0.448,6.573,0.673c-0.579-0.577-1.157-1.155-1.736-1.733c0.354,6.802,0.708,13.604,1.064,20.403
	C349.141,223.066,352.612,223.08,352.495,220.845z"/>
<path fill="#637CC6" stroke="#637CC6" stroke-width="0.7075" d="M343.293,200.732l-2.477,19.457l9.905,1.416l-1.415-20.873H343.293z
	"/>
<path fill="#637CC6" d="M335.272,178.846c-1.309-0.275-2.615-0.551-3.924-0.826c-1.211-0.256-2.044,0.521-2.197,1.672
	c-0.294,2.207-0.589,4.414-0.885,6.619c-0.096,0.717,0.598,1.53,1.273,1.672c1.417,0.293,2.836,0.588,4.254,0.884
	c1.167,0.243,2.1-0.507,2.197-1.671c0.185-2.228,0.37-4.451,0.553-6.678c0.184-2.228-3.288-2.211-3.471,0
	c-0.186,2.227-0.369,4.45-0.552,6.678c0.73-0.559,1.464-1.115,2.196-1.672c-1.417-0.295-2.836-0.59-4.254-0.885
	c0.425,0.557,0.851,1.114,1.274,1.672c0.294-2.207,0.588-4.414,0.884-6.619c-0.732,0.557-1.465,1.115-2.198,1.672
	c1.309,0.273,2.616,0.55,3.924,0.826C336.533,182.648,337.462,179.307,335.272,178.846z"/>
<path fill="#637CC6" d="M376.743,182.193c1.307-0.276,2.617-0.551,3.923-0.827c-0.732-0.558-1.465-1.114-2.196-1.671
	c0.294,2.205,0.59,4.412,0.884,6.619c0.426-0.559,0.849-1.115,1.274-1.672c-1.417,0.295-2.834,0.588-4.252,0.883
	c0.732,0.559,1.465,1.115,2.196,1.673c-0.187-2.226-0.37-4.451-0.556-6.677c-0.185-2.211-3.656-2.229-3.471,0
	c0.187,2.226,0.371,4.451,0.556,6.677c0.098,1.165,1.028,1.913,2.196,1.672c1.417-0.295,2.835-0.589,4.252-0.884
	c0.678-0.143,1.371-0.954,1.275-1.672c-0.295-2.207-0.59-4.414-0.885-6.619c-0.152-1.151-0.987-1.926-2.196-1.672
	c-1.309,0.275-2.617,0.55-3.923,0.826C373.631,179.311,374.56,182.65,376.743,182.193z"/>
<path fill="#637CC6" d="M353.411,185.348c1.591,0,3.182,0,4.772,0c-0.578-0.578-1.155-1.154-1.734-1.731c0,2.151,0,4.302,0,6.452
	c0.579-0.578,1.156-1.154,1.734-1.732c-1.591,0-3.182,0-4.772,0c0.579,0.578,1.157,1.154,1.736,1.732c0-2.151,0-4.303,0-6.452
	c0-2.235-3.472-2.235-3.472,0c0,2.151,0,4.302,0,6.452c0,0.945,0.788,1.732,1.735,1.732c1.591,0,3.182,0,4.772,0
	c0.947,0,1.736-0.787,1.736-1.732c0-2.151,0-4.303,0-6.452c0-0.946-0.789-1.733-1.736-1.733c-1.591,0-3.182,0-4.772,0
	C351.173,181.883,351.173,185.348,353.411,185.348z"/>
<path fill="#637CC6" d="M322.389,181.124c-0.245-0.033-0.504-0.017-0.756,0.054c-4.753,1.32-9.502,2.643-14.25,3.963
	c-1.48,0.412-2.957,0.817-4.436,1.228c-0.42,0.116-0.854,0.213-1.27,0.354c-0.262,0.088-0.541,0.137-0.777,0.281
	c-0.248,0.151-0.433,0.383-0.639,0.582c-0.279,0.27-0.529,0.596-0.787,0.882c-0.852,0.95-1.703,1.892-2.553,2.839
	c-2.816,3.137-5.641,6.269-8.462,9.4c-2.948,3.275-5.894,6.546-8.843,9.823c-0.985,1.092-1.973,2.187-2.956,3.278
	c-0.325,0.362-0.651,0.725-0.976,1.084c-0.012,0.004-0.022,0.006-0.033,0.01c-0.383,0.099-0.77,0.201-1.154,0.306
	c-1.195,0.33-2.389,0.679-3.568,1.056c-1.895,0.604-3.762,1.276-5.593,2.047c-1.491,0.627-2.937,1.272-4.239,2.246
	c-1.57,1.18-3.007,2.543-4.404,3.92c-1.754,1.729-3.442,3.524-5.11,5.338c-4.287,4.666-8.44,9.463-12.47,14.355
	c-0.703,0.855-0.572,2.118,0.283,2.824c0.857,0.701,2.115,0.578,2.821-0.278c2.001-2.437,4.048-4.842,6.11-7.227
	c2.447-2.829,4.93-5.63,7.484-8.362c1.649-1.766,3.334-3.51,5.096-5.166c1.023-0.962,2.08-1.956,3.269-2.714
	c0.425-0.269,0.886-0.479,1.339-0.692c0.68-0.318,1.367-0.613,2.064-0.896c2.006-0.812,4.055-1.497,6.128-2.123
	c0.751-0.226,1.505-0.445,2.26-0.652c0.31-0.087,0.613-0.163,0.925-0.245c0.088-0.021,0.237-0.039,0.321-0.086
	c0.326-0.188,0.662-0.354,0.974-0.568c0.09-0.061,0.147-0.16,0.222-0.242c0.133-0.145,0.255-0.294,0.386-0.439
	c0.457-0.513,0.92-1.025,1.379-1.535c1.371-1.531,2.74-3.065,4.11-4.601c4.376-4.892,8.754-9.792,13.132-14.683
	c1.438-1.605,2.869-3.207,4.311-4.814c0.393-0.438,0.787-0.877,1.182-1.314c0.01-0.012,0.029-0.025,0.046-0.037
	c0.022-0.01,0.046-0.01,0.071-0.018c0.105-0.027,0.211-0.056,0.317-0.086c0.526-0.146,1.052-0.293,1.583-0.439
	c1.476-0.414,2.948-0.823,4.426-1.236c4.433-1.234,8.87-2.469,13.303-3.703c1.012-0.281,1.598-1.335,1.316-2.345
	C323.759,181.734,323.121,181.215,322.389,181.124z"/>
<path fill="#637CC6" d="M389.64,181.052c-1.041-0.131-1.99,0.607-2.12,1.65c-0.127,1.04,0.606,1.985,1.65,2.114
	c3.37,0.42,6.74,0.836,10.111,1.257c1.072,0.137,2.149,0.268,3.221,0.403c0.309,0.037,0.615,0.09,0.924,0.117
	c0.052,0.004,0.106-0.021,0.154-0.007c0.032,0.007,0.041,0.054,0.071,0.071c0.128,0.07,0.261,0.13,0.39,0.197
	c0.253,0.125,0.512,0.248,0.771,0.377c0.77,0.377,1.545,0.765,2.313,1.146c1.928,0.954,3.849,1.913,5.775,2.873
	c0.643,0.317,1.279,0.63,1.923,0.951c0.122,0.062,0.247,0.126,0.369,0.188c0.06,0.077,0.125,0.15,0.182,0.227
	c0.233,0.303,0.461,0.605,0.694,0.906c0.646,0.834,1.291,1.666,1.937,2.502c1.917,2.474,3.837,4.951,5.759,7.424
	c3.704,4.766,7.421,9.518,11.178,14.242c1.388,1.744,2.773,3.488,4.181,5.215c0.856,1.045,1.708,2.092,2.612,3.098
	c0.736,0.826,2.006,0.896,2.833,0.155c0.824-0.737,0.896-2.005,0.156-2.829c-1.049-1.167-2.033-2.395-3.025-3.609
	c-1.457-1.793-2.895-3.598-4.33-5.404c-3.94-4.952-7.854-9.924-11.761-14.903c-1.758-2.235-3.512-4.476-5.264-6.715
	c-0.552-0.714-1.105-1.423-1.662-2.132c-0.17-0.223-0.347-0.448-0.518-0.67c-0.054-0.068-0.105-0.17-0.173-0.229
	c-0.226-0.182-0.436-0.376-0.669-0.541c-0.12-0.085-0.264-0.135-0.394-0.197c-0.131-0.063-0.258-0.125-0.387-0.189
	c-0.513-0.256-1.028-0.504-1.546-0.756c-1.413-0.694-2.828-1.389-4.244-2.084c-1.413-0.696-2.83-1.396-4.244-2.094
	c-0.387-0.188-0.77-0.384-1.16-0.565c-0.23-0.105-0.446-0.242-0.694-0.316c-0.247-0.071-0.501-0.08-0.753-0.114
	c-0.308-0.045-0.615-0.074-0.923-0.111c-1.072-0.133-2.15-0.27-3.221-0.402C396.381,181.884,393.014,181.467,389.64,181.052z"/>
<circle fill="#637CC6" cx="204.5" cy="83.5" r="6.5"/>
<circle fill="#637CC6" cx="204.5" cy="259.5" r="6.5"/>
<path fill="none" stroke="#637CC6" stroke-width="3" stroke-linecap="round" d="M205,307V29"/>
</svg>
