<svg width="530" height="66" viewBox="0 0 530 66" fill="none" xmlns="http://www.w3.org/2000/svg">
<path d="M4.8125 20.0703C6.04948 20.0703 6.8112 20.8971 7.09766 22.5508V23.1562C6.96745 24.6016 6.43359 26.0729 5.49609 27.5703C5.32682 28.0651 5.27474 28.3125 5.33984 28.3125C5.32682 28.0781 5.59375 27.9609 6.14062 27.9609C7.52083 27.9609 9.10938 27.2122 10.9062 25.7148C11.401 25.3372 11.8763 25.1484 12.332 25.1484C13.2174 25.2135 13.6602 25.6107 13.6602 26.3398C13.6602 26.6393 13.1589 27.388 12.1562 28.5859C11.0885 30.2786 10.2878 33.0846 9.75391 37.0039V37.2383C10.0404 38.7096 10.6328 39.4453 11.5312 39.4453H11.9219C13.4453 39.4453 15.0664 38.638 16.7852 37.0234C18.6862 34.5104 20.2422 31.8086 21.4531 28.918C21.8177 27.707 22.3385 27.1016 23.0156 27.1016H23.3281C23.7448 27.1016 24.0378 27.4792 24.207 28.2344V28.4492C23.4128 30.793 22.1107 33.4102 20.3008 36.3008C18.3867 39.0612 16.3945 40.793 14.3242 41.4961C13.4128 41.7174 12.5078 41.8281 11.6094 41.8281C9.60417 41.8281 8.22396 40.7995 7.46875 38.7422C7.35156 38.1562 7.29297 37.6419 7.29297 37.1992V36.5742C7.29297 34.9466 7.70964 32.8372 8.54297 30.2461V29.9727L8.5625 30.0312H8.52344C7.29948 30.2396 6.40104 30.3438 5.82812 30.3438C3.10677 30.3438 1.30339 29.0417 0.417969 26.4375L0.339844 25.6562C0.339844 23.9245 1.29688 22.2188 3.21094 20.5391C3.92708 20.2266 4.46094 20.0703 4.8125 20.0703ZM2.87891 25.793C2.87891 26.1966 2.95052 26.3984 3.09375 26.3984C3.51042 26.3984 3.97917 25.5 4.5 23.7031C4.59115 23.3646 4.63672 23.0586 4.63672 22.7852C4.59766 22.5638 4.57812 22.4531 4.57812 22.4531C4.09635 22.4531 3.57552 23.2734 3.01562 24.9141C2.92448 25.2786 2.87891 25.5716 2.87891 25.793ZM33.1992 20.6758H33.5508C35.4648 20.9362 36.4219 21.6589 36.4219 22.8438C36.1354 24.5104 34.625 26.2292 31.8906 28C31.2526 28.3255 29.2344 29.0091 25.8359 30.0508C25.7578 30.1029 25.7188 30.1615 25.7188 30.2266V30.3047C26.2656 32.1146 27.1185 33.3516 28.2773 34.0156C29.4492 34.6536 30.8294 34.9727 32.418 34.9727H33.1211C38.2773 34.9727 43.043 32.7721 47.418 28.3711C48.069 27.1992 48.694 26.6133 49.293 26.6133H49.3711C49.931 26.6133 50.3607 26.9974 50.6602 27.7656C50.2956 29.2109 48.0755 31.4245 44 34.4062C39.8464 36.2682 36.6367 37.1992 34.3711 37.1992C34.1237 37.1992 33.4271 37.2513 32.2812 37.3555C31.1484 37.3555 29.3971 36.9193 27.0273 36.0469C25.6081 34.9141 24.5013 33.6836 23.707 32.3555C23.4206 32.3555 23.1667 31.5026 22.9453 29.7969C22.9453 28.8464 23.6875 27.2448 25.1719 24.9922C27.4115 22.8828 29.2018 21.6849 30.543 21.3984C31.5065 20.9167 32.3919 20.6758 33.1992 20.6758ZM26.5 27.4336C26.5 27.4076 26.4154 27.3945 26.2461 27.3945H26.3242C27.0794 27.3945 28.4792 26.9193 30.5234 25.9688C32.5026 24.4844 33.4922 23.5078 33.4922 23.0391C33.4922 22.9479 33.4206 22.9023 33.2773 22.9023H33.1016C30.5365 23.5404 28.6094 24.6536 27.3203 26.2422C26.7734 26.8802 26.5 27.2773 26.5 27.4336ZM59.9648 21.6719C61.4232 21.6719 62.6276 22.5182 63.5781 24.2109V24.5039C63.5781 25.0638 63.2591 25.4349 62.6211 25.6172C62.1523 25.6172 61.4297 25.0964 60.4531 24.0547C60.1016 23.8984 59.8607 23.8203 59.7305 23.8203H58.9492C57.7253 23.8203 56.0781 24.7578 54.0078 26.6328C52.888 28.2865 52.3281 29.8685 52.3281 31.3789C52.3281 33.2018 53.7669 34.7969 56.6445 36.1641C57.4128 36.4505 58.526 36.6458 59.9844 36.75C62.7188 36.75 65.5964 35.9948 68.6172 34.4844C71.0651 32.7266 73.3047 30.4414 75.3359 27.6289C75.3359 27.3294 75.694 27.1146 76.4102 26.9844H76.7617C77.5039 26.9844 77.875 27.3555 77.875 28.0977C77.875 28.8529 75.9023 31.1315 71.957 34.9336C70.3294 36.5742 67.8099 37.7591 64.3984 38.4883C64.2422 38.5404 63.5651 38.6445 62.3672 38.8008V38.957L62.8164 38.7422H62.4258C61.1758 38.9505 60.3294 39.0547 59.8867 39.0547C57.4258 39.0547 55.1927 38.3711 53.1875 37.0039C50.8177 35.207 49.6328 33.3581 49.6328 31.457C49.6328 30.3893 49.9323 29.0742 50.5312 27.5117C51.5078 25.4023 53.4935 23.651 56.4883 22.2578C57.4779 21.8672 58.6367 21.6719 59.9648 21.6719ZM86.3789 20.6758H86.7305C88.6445 20.9362 89.6016 21.6589 89.6016 22.8438C89.3151 24.5104 87.8047 26.2292 85.0703 28C84.4323 28.3255 82.4141 29.0091 79.0156 30.0508C78.9375 30.1029 78.8984 30.1615 78.8984 30.2266V30.3047C79.4453 32.1146 80.2982 33.3516 81.457 34.0156C82.6289 34.6536 84.0091 34.9727 85.5977 34.9727H86.3008C91.457 34.9727 96.2227 32.7721 100.598 28.3711C101.249 27.1992 101.874 26.6133 102.473 26.6133H102.551C103.111 26.6133 103.54 26.9974 103.84 27.7656C103.475 29.2109 101.255 31.4245 97.1797 34.4062C93.026 36.2682 89.8164 37.1992 87.5508 37.1992C87.3034 37.1992 86.6068 37.2513 85.4609 37.3555C84.3281 37.3555 82.5768 36.9193 80.207 36.0469C78.7878 34.9141 77.681 33.6836 76.8867 32.3555C76.6003 32.3555 76.3464 31.5026 76.125 29.7969C76.125 28.8464 76.8672 27.2448 78.3516 24.9922C80.5911 22.8828 82.3815 21.6849 83.7227 21.3984C84.6862 20.9167 85.5716 20.6758 86.3789 20.6758ZM79.6797 27.4336C79.6797 27.4076 79.5951 27.3945 79.4258 27.3945H79.5039C80.2591 27.3945 81.6589 26.9193 83.7031 25.9688C85.6823 24.4844 86.6719 23.5078 86.6719 23.0391C86.6719 22.9479 86.6003 22.9023 86.457 22.9023H86.2812C83.7161 23.5404 81.7891 24.6536 80.5 26.2422C79.9531 26.8802 79.6797 27.2773 79.6797 27.4336ZM109.922 25.793C112.37 25.793 114.499 26.6328 116.309 28.3125L116.68 28.3711C116.758 28.3711 117.741 28.013 119.629 27.2969C121.243 26.9714 123.477 26.7305 126.328 26.5742C127.747 26.7044 128.457 27.2057 128.457 28.0781C128.457 28.6901 128.073 29.0612 127.305 29.1914C126.589 29.1914 125.684 29.1654 124.59 29.1133C122.012 29.1133 119.583 29.7383 117.305 30.9883C117.227 30.9883 117.142 31.9974 117.051 34.0156C116.035 38.2474 114.245 40.3633 111.68 40.3633C109.505 40.0768 108.418 39.0286 108.418 37.2188C108.418 35.7995 109.193 34.1719 110.742 32.3359C112.578 30.8255 113.496 30.0703 113.496 30.0703V29.7969C113.496 29.5625 113.06 29.1849 112.188 28.6641C111.523 28.3385 110.872 28.1758 110.234 28.1758H110.156C108.19 28.1758 106.836 29.0026 106.094 30.6562C106.003 31.0859 105.957 31.3398 105.957 31.418C106.322 35.2721 106.504 39.6797 106.504 44.6406C106.504 49.7318 105.742 54.7318 104.219 59.6406C103.177 62.5443 102.083 64.224 100.938 64.6797C99.9089 65.3438 98.9453 65.6758 98.0469 65.6758C97.487 65.6758 96.9076 65.2135 96.3086 64.2891C95.7878 63.4818 95.5273 62.0104 95.5273 59.875C95.5273 56.1641 96.7839 50.3307 99.2969 42.375C100.703 37.974 101.51 35.194 101.719 34.0352C102.591 31.8086 103.027 30.0052 103.027 28.625C103.027 28.1302 103.639 27.7331 104.863 27.4336C104.967 27.4336 105.618 27.082 106.816 26.3789C107.832 25.9883 108.867 25.793 109.922 25.793ZM111.426 36.9844V37.375C111.426 37.7266 111.569 37.9023 111.855 37.9023C112.493 37.6159 113.008 37.1081 113.398 36.3789C114.036 35.0638 114.355 33.9635 114.355 33.0781C114.355 33.0391 114.355 33.013 114.355 33C113.561 33.2344 112.767 33.944 111.973 35.1289C111.608 35.7669 111.426 36.3854 111.426 36.9844ZM98.2227 59.9336C98.3268 62.069 98.5352 63.1367 98.8477 63.1367C99.5508 62.9544 100.059 62.5898 100.371 62.043C101.191 60.7279 102.077 57.7852 103.027 53.2148L103.574 49.8359C103.574 50.1354 103.522 50.2852 103.418 50.2852C103.73 48.1888 103.887 46.099 103.887 44.0156V43.4688C103.887 39.6927 103.77 37.4076 103.535 36.6133C103.587 36.6133 103.138 38.4232 102.188 42.043C100.729 46.3398 99.6875 50.207 99.0625 53.6445C98.5026 55.9883 98.2227 58.0846 98.2227 59.9336ZM141.102 0.226562C141.818 0.226562 142.378 0.864583 142.781 2.14062H142.82L142.605 1.69141C142.605 3.5013 141.837 6.52865 140.301 10.7734C140.275 10.8125 140.262 10.8451 140.262 10.8711C140.262 10.8451 140.366 10.8385 140.574 10.8516C142.267 10.8516 146.635 9.8099 153.68 7.72656H154.246C155.184 7.80469 155.652 8.22786 155.652 8.99609C155.652 9.82943 154.018 10.5586 150.75 11.1836C145.398 12.707 141.922 13.4688 140.32 13.4688C139.383 13.4688 138.706 14.2695 138.289 15.8711C136.987 18.9049 135.249 22.2773 133.074 25.9883C131.824 27.7201 131.199 28.8268 131.199 29.3086V29.582L131.375 30.5C131.935 32.1927 133.204 34.1784 135.184 36.457C136.434 37.4076 137.729 37.8828 139.07 37.8828H139.305C141.401 37.8828 143.419 37.1276 145.359 35.6172C147.026 34.6016 148.432 33.1237 149.578 31.1836C150.568 29.1784 151.284 27.9349 151.727 27.4531C152.013 27.2708 152.273 27.1797 152.508 27.1797H152.625C153.445 27.349 153.855 27.7982 153.855 28.5273C153.465 29.8164 152.286 31.8997 150.32 34.7773C148.667 36.5091 147.26 37.694 146.102 38.332C143.849 39.569 141.792 40.1875 139.93 40.1875H138.68C135.685 40.1875 133.315 38.8268 131.57 36.1055C129.904 34.3477 128.732 31.7565 128.055 28.332C127.99 28.1237 127.957 27.8177 127.957 27.4141H127.742L127.957 27.8633V25.8711C127.957 25.6628 127.964 25.5521 127.977 25.5391C127.964 25.526 127.957 25.4479 127.957 25.3047C128.009 24.1589 127.964 23.5859 127.82 23.5859L128.035 24.0352C128.035 22.4727 128.875 19.5169 130.555 15.168C130.594 15.0378 130.613 14.8555 130.613 14.6211V14.4648C130.613 14.569 130.503 14.6016 130.281 14.5625C129.357 14.6146 128.751 14.6667 128.465 14.7188C127.866 14.6667 127.339 14.6406 126.883 14.6406H124.871C123.699 14.3672 123.113 13.9961 123.113 13.5273V13.3711C123.113 13.0586 123.53 12.7135 124.363 12.3359C124.467 12.3359 124.839 12.362 125.477 12.4141C128.25 12.2578 129.734 12.1797 129.93 12.1797H130.945C131.609 12.1797 132.326 11.2227 133.094 9.30859C134.057 7.8112 134.689 6.69792 134.988 5.96875C135.353 5.66927 135.659 5.22005 135.906 4.62109C137.951 1.69141 139.5 0.226562 140.555 0.226562H141.102ZM135.105 11.6328V11.6523C135.079 11.5872 135.151 11.5547 135.32 11.5547C136.544 11.5547 137.254 11.2943 137.449 10.7734C138.165 9.0026 138.927 6.63932 139.734 3.68359C139.747 3.7487 139.734 3.78125 139.695 3.78125H139.852C137.273 6.98438 135.691 9.60156 135.105 11.6328ZM130.945 24.5625L130.73 24.1133V24.3867C130.73 24.7643 130.73 24.9531 130.73 24.9531C130.717 24.875 130.639 24.8359 130.496 24.8359C130.77 24.6927 131.479 23.6315 132.625 21.6523C133.667 19.7253 134.819 17.3229 136.082 14.4453V14.2305C136.082 14.1393 136.062 14.0938 136.023 14.0938H135.652C134.35 14.1849 133.699 14.4193 133.699 14.7969C131.72 19.4714 130.73 22.3815 130.73 23.5273C130.73 24.2174 130.802 24.5625 130.945 24.5625ZM160.172 17.6484C160.836 17.6484 161.233 18.1107 161.363 19.0352C161.363 20.0768 160.758 20.832 159.547 21.3008C159.365 21.431 158.941 21.5286 158.277 21.5938C157.132 21.3594 156.559 20.806 156.559 19.9336C156.559 18.8919 157.49 18.1628 159.352 17.7461C159.586 17.681 159.859 17.6484 160.172 17.6484ZM154.996 26.8672H155.133C155.953 27.0365 156.363 27.4596 156.363 28.1367V28.6836C155.699 30.6888 155.068 31.9648 154.469 32.5117C153.648 33.9831 153.238 35.3112 153.238 36.4961C153.238 37.056 153.674 37.3359 154.547 37.3359C156.943 37.3359 160.296 35.3958 164.605 31.5156C164.736 31.1901 165.139 30.8451 165.816 30.4805C166.806 29.543 167.874 28.4167 169.02 27.1016H169.82C170.589 27.2057 170.973 27.6029 170.973 28.293V28.4492C170.973 28.8789 170.335 29.7383 169.059 31.0273C168.421 31.8477 167.568 32.6289 166.5 33.3711C161.708 37.7591 157.672 39.9531 154.391 39.9531C151.878 39.9531 150.621 38.7747 150.621 36.418C150.621 35.4023 150.973 33.9049 151.676 31.9258C153.264 28.6576 154.085 27.0234 154.137 27.0234C154.137 26.9453 154.423 26.8932 154.996 26.8672ZM174.555 26.418C176.651 26.418 178.025 27.1927 178.676 28.7422C178.91 29.3281 179.027 29.9141 179.027 30.5C179.027 31.2292 178.923 32.0299 178.715 32.9023C178.715 33.0586 178.839 33.1367 179.086 33.1367H180.258C184.333 33.1367 188.826 31.2617 193.734 27.5117C194.398 27.0951 194.958 26.8867 195.414 26.8867H195.688C196.195 27.1471 196.449 27.5247 196.449 28.0195C196.384 28.6706 195.245 29.7122 193.031 31.1445C188.552 34.1133 183.786 35.5977 178.734 35.5977C178.383 35.5456 178.109 35.5195 177.914 35.5195C177.654 35.5195 177.211 36.0013 176.586 36.9648C174.919 38.9701 173.07 39.9727 171.039 39.9727H170.336C168.565 39.9727 167.341 38.9635 166.664 36.9453C166.599 36.5677 166.566 36.1641 166.566 35.7344V35.3438C166.566 32.0625 168.272 29.2826 171.684 27.0039C172.816 26.6133 173.773 26.418 174.555 26.418ZM173.48 30.4219C173.48 31.0469 174.021 31.6589 175.102 32.2578C175.492 32.4792 175.779 32.5898 175.961 32.5898H176.039C176.078 32.5898 176.202 31.9323 176.41 30.6172C176.41 29.4583 175.954 28.8789 175.043 28.8789C174.001 28.9831 173.48 29.4974 173.48 30.4219ZM168.949 35.3828C168.949 36.5156 169.379 37.2643 170.238 37.6289C170.382 37.707 170.596 37.7461 170.883 37.7461C172.185 37.7461 173.493 36.8281 174.809 34.9922L174.848 34.7578C174.848 34.7188 174.255 34.4062 173.07 33.8203C171.964 33.1302 171.202 32.082 170.785 30.6758L170.922 30.7539H170.824C170.447 30.9232 169.874 32.0169 169.105 34.0352C169.105 34.0742 169.053 34.5234 168.949 35.3828ZM227.961 26.8086H228.41C228.957 27.1341 229.23 27.5312 229.23 28V28.1367C228.605 30.5586 226.945 33.306 224.25 36.3789C222.154 38.4362 220.487 39.5755 219.25 39.7969C217.375 40.4349 215.878 40.7539 214.758 40.7539C211.49 40.7539 209.276 39.1849 208.117 36.0469C206.971 32.5182 206.294 30.5846 206.086 30.2461C205.839 29.9857 205.572 29.8424 205.285 29.8164H204.914C203.755 29.8164 202.551 30.6432 201.301 32.2969C200.546 33.1562 198.566 35.8646 195.363 40.4219C194.882 40.9036 194.471 41.1445 194.133 41.1445H193.977C193.286 41.1445 192.857 40.6888 192.688 39.7773C193.807 34.9076 194.927 30.9036 196.047 27.7656C196.49 27.1797 196.952 26.8867 197.434 26.8867C197.967 27.1081 198.306 27.3945 198.449 27.7461V28.3906C198.02 29.6276 197.525 31.4701 196.965 33.918V34.4453C196.939 34.25 196.828 34.1523 196.633 34.1523H196.535C196.848 33.8919 197.87 32.6224 199.602 30.3438C201.229 28.4036 202.948 27.4336 204.758 27.4336H205.07C207.128 27.4336 208.508 28.6445 209.211 31.0664C210.435 35.1029 211.346 37.1862 211.945 37.3164C212.674 38.0195 213.664 38.3711 214.914 38.3711H214.992C217.453 38.3711 219.882 37.1471 222.277 34.6992C224.582 31.9779 225.904 29.8424 226.242 28.293C226.776 27.3034 227.349 26.8086 227.961 26.8086ZM249.559 21.3789L250.613 21.418C252.15 21.431 253.224 22.1081 253.836 23.4492C253.992 23.8008 254.337 25.2721 254.871 27.8633C255.848 30.1419 257.566 31.2812 260.027 31.2812C262.384 31.2812 264.988 29.9141 267.84 27.1797C268.387 27.0495 268.79 26.9844 269.051 26.9844C269.663 27.2708 269.969 27.6419 269.969 28.0977C269.969 28.7617 269.337 29.543 268.074 30.4414C266.395 31.9128 264.233 32.987 261.59 33.6641C261.017 33.7161 260.574 33.7422 260.262 33.7422H259.949C256.46 33.7422 253.94 32.1602 252.391 28.9961L252.234 28.8984C252.273 28.8984 251.857 29.6862 250.984 31.2617C249.018 33.9049 246.876 35.2266 244.559 35.2266H244.48C242.71 35.2266 241.362 34.237 240.438 32.2578C240.255 31.6979 240.164 31.1966 240.164 30.7539C240.242 28.4753 241.362 26.1901 243.523 23.8984C245.255 22.2578 247.267 21.418 249.559 21.3789ZM242.703 30.3633C242.703 31.6784 243.27 32.5052 244.402 32.8438H244.793C246.642 32.8438 248.523 30.8581 250.438 26.8867C250.984 25.5586 251.258 24.6602 251.258 24.1914V23.7227C251.258 23.7747 250.854 23.7812 250.047 23.7422C247.312 23.6901 245.171 25.0508 243.621 27.8242C243.009 28.7096 242.703 29.556 242.703 30.3633ZM301.656 26.8086H302.105C302.652 27.1341 302.926 27.5312 302.926 28V28.1367C302.301 30.5586 300.641 33.306 297.945 36.3789C295.849 38.4362 294.182 39.5755 292.945 39.7969C291.07 40.4349 289.573 40.7539 288.453 40.7539C285.185 40.7539 282.971 39.1849 281.812 36.0469C280.667 32.5182 279.99 30.5846 279.781 30.2461C279.534 29.9857 279.267 29.8424 278.98 29.8164H278.609C277.451 29.8164 276.246 30.6432 274.996 32.2969C274.241 33.1562 272.262 35.8646 269.059 40.4219C268.577 40.9036 268.167 41.1445 267.828 41.1445H267.672C266.982 41.1445 266.552 40.6888 266.383 39.7773C267.503 34.9076 268.622 30.9036 269.742 27.7656C270.185 27.1797 270.647 26.8867 271.129 26.8867C271.663 27.1081 272.001 27.3945 272.145 27.7461V28.3906C271.715 29.6276 271.22 31.4701 270.66 33.918V34.4453C270.634 34.25 270.523 34.1523 270.328 34.1523H270.23C270.543 33.8919 271.565 32.6224 273.297 30.3438C274.924 28.4036 276.643 27.4336 278.453 27.4336H278.766C280.823 27.4336 282.203 28.6445 282.906 31.0664C284.13 35.1029 285.042 37.1862 285.641 37.3164C286.37 38.0195 287.359 38.3711 288.609 38.3711H288.688C291.148 38.3711 293.577 37.1471 295.973 34.6992C298.277 31.9779 299.599 29.8424 299.938 28.293C300.471 27.3034 301.044 26.8086 301.656 26.8086ZM323.93 2.31641C325.505 2.31641 326.293 3.1237 326.293 4.73828C326.345 4.73828 326.371 4.95964 326.371 5.40234C326.163 8.08464 325.98 9.99219 325.824 11.125C325.824 10.8255 325.85 10.6758 325.902 10.6758C325.902 13.2669 324.379 18.9635 321.332 27.7656C320.16 30.0182 319.574 31.3333 319.574 31.7109V31.8477C320.408 34.0352 322.458 35.1549 325.727 35.207H326.43C331.586 35.207 336.352 33.0065 340.727 28.6055C341.378 27.4336 342.003 26.8477 342.602 26.8477H342.68C343.24 26.8477 343.669 27.2318 343.969 28C343.604 29.4453 341.384 31.6589 337.309 34.6406C333.155 36.5026 329.945 37.4336 327.68 37.4336C327.432 37.4336 326.736 37.4857 325.59 37.5898C324.548 37.5898 322.862 37.1862 320.531 36.3789C319.919 36.0664 319.092 35.3503 318.051 34.2305C318.259 34.3216 318.174 34.5885 317.797 35.0312C315.987 37.5182 313.526 39.1458 310.414 39.9141C309.672 40.2396 308.786 40.3763 307.758 40.3242C304.047 40.4023 301.547 38.6185 300.258 34.9727C300.193 34.7122 300.16 34.4583 300.16 34.2109V33.3516C300.212 30.9948 301.508 28.5143 304.047 25.9102C305.714 24.5299 308.012 23.6706 310.941 23.332L312.934 23.4297C313.78 23.651 315.017 23.9831 316.645 24.4258C315.382 25.5065 314.861 25.474 315.082 24.3281C315.082 24.276 315.056 23.9831 315.004 23.4492C315.095 19.582 315.915 15.6302 317.465 11.5938L319.906 6.49609C320.818 4.67318 321.794 3.34505 322.836 2.51172C323.305 2.38151 323.669 2.31641 323.93 2.31641ZM317.855 20.6562C317.855 20.3568 317.882 20.207 317.934 20.207C317.934 20.6888 317.855 21.9453 317.699 23.9766C317.973 26.8281 318.122 28.2539 318.148 28.2539C318.253 28.2539 318.415 27.9089 318.637 27.2188C319.717 25.1484 321.267 20.0833 323.285 12.0234L323.676 5.34375C323.624 5.17448 323.656 5.08984 323.773 5.08984C323.318 5.22005 322.113 7.46615 320.16 11.8281C318.975 14.8359 318.207 17.7786 317.855 20.6562ZM302.777 33.3516C302.777 35.5651 303.956 37.1016 306.312 37.9609C306.859 38.0521 307.257 38.0977 307.504 38.0977C310.577 37.9023 313.344 36.2812 315.805 33.2344C316.208 32.4531 316.41 31.9453 316.41 31.7109C315.954 30.3307 315.564 28.599 315.238 26.5156C315.238 26.5026 314.743 26.4375 313.754 26.3203C313.246 25.9688 312.628 25.793 311.898 25.793C307.823 25.793 304.854 27.8177 302.992 31.8672C302.849 32.5573 302.777 33.0521 302.777 33.3516ZM376.797 2.31641C378.372 2.31641 379.16 3.1237 379.16 4.73828C379.212 4.73828 379.238 4.95964 379.238 5.40234C379.03 8.08464 378.848 9.99219 378.691 11.125C378.691 10.8255 378.717 10.6758 378.77 10.6758C378.77 13.2669 377.246 18.9635 374.199 27.7656C373.027 30.0182 372.441 31.3333 372.441 31.7109V31.8477C373.275 34.0352 375.326 35.1549 378.594 35.207H379.297C384.453 35.207 389.219 33.0065 393.594 28.6055C394.245 27.4336 394.87 26.8477 395.469 26.8477H395.547C396.107 26.8477 396.536 27.2318 396.836 28C396.471 29.4453 394.251 31.6589 390.176 34.6406C386.022 36.5026 382.812 37.4336 380.547 37.4336C380.299 37.4336 379.603 37.4857 378.457 37.5898C377.415 37.5898 375.729 37.1862 373.398 36.3789C372.786 36.0664 371.96 35.3503 370.918 34.2305C371.126 34.3216 371.042 34.5885 370.664 35.0312C368.854 37.5182 366.393 39.1458 363.281 39.9141C362.539 40.2396 361.654 40.3763 360.625 40.3242C356.914 40.4023 354.414 38.6185 353.125 34.9727C353.06 34.7122 353.027 34.4583 353.027 34.2109V33.3516C353.079 30.9948 354.375 28.5143 356.914 25.9102C358.581 24.5299 360.879 23.6706 363.809 23.332L365.801 23.4297C366.647 23.651 367.884 23.9831 369.512 24.4258C368.249 25.5065 367.728 25.474 367.949 24.3281C367.949 24.276 367.923 23.9831 367.871 23.4492C367.962 19.582 368.783 15.6302 370.332 11.5938L372.773 6.49609C373.685 4.67318 374.661 3.34505 375.703 2.51172C376.172 2.38151 376.536 2.31641 376.797 2.31641ZM370.723 20.6562C370.723 20.3568 370.749 20.207 370.801 20.207C370.801 20.6888 370.723 21.9453 370.566 23.9766C370.84 26.8281 370.99 28.2539 371.016 28.2539C371.12 28.2539 371.283 27.9089 371.504 27.2188C372.585 25.1484 374.134 20.0833 376.152 12.0234L376.543 5.34375C376.491 5.17448 376.523 5.08984 376.641 5.08984C376.185 5.22005 374.98 7.46615 373.027 11.8281C371.842 14.8359 371.074 17.7786 370.723 20.6562ZM355.645 33.3516C355.645 35.5651 356.823 37.1016 359.18 37.9609C359.727 38.0521 360.124 38.0977 360.371 38.0977C363.444 37.9023 366.211 36.2812 368.672 33.2344C369.076 32.4531 369.277 31.9453 369.277 31.7109C368.822 30.3307 368.431 28.599 368.105 26.5156C368.105 26.5026 367.611 26.4375 366.621 26.3203C366.113 25.9688 365.495 25.793 364.766 25.793C360.69 25.793 357.721 27.8177 355.859 31.8672C355.716 32.5573 355.645 33.0521 355.645 33.3516ZM403.172 17.6484C403.836 17.6484 404.233 18.1107 404.363 19.0352C404.363 20.0768 403.758 20.832 402.547 21.3008C402.365 21.431 401.941 21.5286 401.277 21.5938C400.132 21.3594 399.559 20.806 399.559 19.9336C399.559 18.8919 400.49 18.1628 402.352 17.7461C402.586 17.681 402.859 17.6484 403.172 17.6484ZM397.996 26.8672H398.133C398.953 27.0365 399.363 27.4596 399.363 28.1367V28.6836C398.699 30.6888 398.068 31.9648 397.469 32.5117C396.648 33.9831 396.238 35.3112 396.238 36.4961C396.238 37.056 396.674 37.3359 397.547 37.3359C399.943 37.3359 403.296 35.3958 407.605 31.5156C407.736 31.1901 408.139 30.8451 408.816 30.4805C409.806 29.543 410.874 28.4167 412.02 27.1016H412.82C413.589 27.2057 413.973 27.6029 413.973 28.293V28.4492C413.973 28.8789 413.335 29.7383 412.059 31.0273C411.421 31.8477 410.568 32.6289 409.5 33.3711C404.708 37.7591 400.672 39.9531 397.391 39.9531C394.878 39.9531 393.621 38.7747 393.621 36.418C393.621 35.4023 393.973 33.9049 394.676 31.9258C396.264 28.6576 397.085 27.0234 397.137 27.0234C397.137 26.9453 397.423 26.8932 397.996 26.8672ZM445.172 26.8086H445.621C446.168 27.1341 446.441 27.5312 446.441 28V28.1367C445.816 30.5586 444.156 33.306 441.461 36.3789C439.365 38.4362 437.698 39.5755 436.461 39.7969C434.586 40.4349 433.089 40.7539 431.969 40.7539C428.701 40.7539 426.487 39.1849 425.328 36.0469C424.182 32.5182 423.505 30.5846 423.297 30.2461C423.049 29.9857 422.783 29.8424 422.496 29.8164H422.125C420.966 29.8164 419.762 30.6432 418.512 32.2969C417.757 33.1562 415.777 35.8646 412.574 40.4219C412.092 40.9036 411.682 41.1445 411.344 41.1445H411.188C410.497 41.1445 410.068 40.6888 409.898 39.7773C411.018 34.9076 412.138 30.9036 413.258 27.7656C413.701 27.1797 414.163 26.8867 414.645 26.8867C415.178 27.1081 415.517 27.3945 415.66 27.7461V28.3906C415.23 29.6276 414.736 31.4701 414.176 33.918V34.4453C414.15 34.25 414.039 34.1523 413.844 34.1523H413.746C414.059 33.8919 415.081 32.6224 416.812 30.3438C418.44 28.4036 420.159 27.4336 421.969 27.4336H422.281C424.339 27.4336 425.719 28.6445 426.422 31.0664C427.646 35.1029 428.557 37.1862 429.156 37.3164C429.885 38.0195 430.875 38.3711 432.125 38.3711H432.203C434.664 38.3711 437.092 37.1471 439.488 34.6992C441.793 31.9779 443.115 29.8424 443.453 28.293C443.987 27.3034 444.56 26.8086 445.172 26.8086ZM477.953 26.8086H478.402C478.949 27.1341 479.223 27.5312 479.223 28V28.1367C478.598 30.5586 476.938 33.306 474.242 36.3789C472.146 38.4362 470.479 39.5755 469.242 39.7969C467.367 40.4349 465.87 40.7539 464.75 40.7539C461.482 40.7539 459.268 39.1849 458.109 36.0469C456.964 32.5182 456.286 30.5846 456.078 30.2461C455.831 29.9857 455.564 29.8424 455.277 29.8164H454.906C453.747 29.8164 452.543 30.6432 451.293 32.2969C450.538 33.1562 448.559 35.8646 445.355 40.4219C444.874 40.9036 444.464 41.1445 444.125 41.1445H443.969C443.279 41.1445 442.849 40.6888 442.68 39.7773C443.799 34.9076 444.919 30.9036 446.039 27.7656C446.482 27.1797 446.944 26.8867 447.426 26.8867C447.96 27.1081 448.298 27.3945 448.441 27.7461V28.3906C448.012 29.6276 447.517 31.4701 446.957 33.918V34.4453C446.931 34.25 446.82 34.1523 446.625 34.1523H446.527C446.84 33.8919 447.862 32.6224 449.594 30.3438C451.221 28.4036 452.94 27.4336 454.75 27.4336H455.062C457.12 27.4336 458.5 28.6445 459.203 31.0664C460.427 35.1029 461.339 37.1862 461.938 37.3164C462.667 38.0195 463.656 38.3711 464.906 38.3711H464.984C467.445 38.3711 469.874 37.1471 472.27 34.6992C474.574 31.9779 475.896 29.8424 476.234 28.293C476.768 27.3034 477.341 26.8086 477.953 26.8086ZM488.176 20.6758H488.527C490.441 20.9362 491.398 21.6589 491.398 22.8438C491.112 24.5104 489.602 26.2292 486.867 28C486.229 28.3255 484.211 29.0091 480.812 30.0508C480.734 30.1029 480.695 30.1615 480.695 30.2266V30.3047C481.242 32.1146 482.095 33.3516 483.254 34.0156C484.426 34.6536 485.806 34.9727 487.395 34.9727H488.098C493.254 34.9727 498.02 32.7721 502.395 28.3711C503.046 27.1992 503.671 26.6133 504.27 26.6133H504.348C504.908 26.6133 505.337 26.9974 505.637 27.7656C505.272 29.2109 503.052 31.4245 498.977 34.4062C494.823 36.2682 491.613 37.1992 489.348 37.1992C489.1 37.1992 488.404 37.2513 487.258 37.3555C486.125 37.3555 484.374 36.9193 482.004 36.0469C480.585 34.9141 479.478 33.6836 478.684 32.3555C478.397 32.3555 478.143 31.5026 477.922 29.7969C477.922 28.8464 478.664 27.2448 480.148 24.9922C482.388 22.8828 484.178 21.6849 485.52 21.3984C486.483 20.9167 487.368 20.6758 488.176 20.6758ZM481.477 27.4336C481.477 27.4076 481.392 27.3945 481.223 27.3945H481.301C482.056 27.3945 483.456 26.9193 485.5 25.9688C487.479 24.4844 488.469 23.5078 488.469 23.0391C488.469 22.9479 488.397 22.9023 488.254 22.9023H488.078C485.513 23.5404 483.586 24.6536 482.297 26.2422C481.75 26.8802 481.477 27.2773 481.477 27.4336ZM515.762 21.9062C516.53 22.0365 516.914 22.4661 516.914 23.1953C516.68 23.7161 515.983 24.8294 514.824 26.5352C513.092 30.4935 512.227 33.4557 512.227 35.4219C512.357 37.6615 513.027 39.0612 514.238 39.6211C514.447 39.7383 514.629 39.7969 514.785 39.7969H515.098C516.4 39.7969 518.112 38.9505 520.234 37.2578C521.784 35.7214 523.626 33.2669 525.762 29.8945C526.556 28.1107 527.37 27.2188 528.203 27.2188C529.01 27.4401 529.414 27.8633 529.414 28.4883V28.7227C529.193 29.4518 527.865 31.6003 525.43 35.168C524.193 37.2122 522.135 39.2109 519.258 41.1641C518.255 41.724 516.855 42.1146 515.059 42.3359H514.941C512.962 42.3359 511.335 41.099 510.059 38.625C509.759 37.974 509.609 36.9909 509.609 35.6758C509.609 33.2018 510.247 30.5651 511.523 27.7656L512.031 26.1445V25.7539C512.031 25.9753 512.142 26.0859 512.363 26.0859H512.207C511.621 26.0859 510.508 26.4375 508.867 27.1406C508.177 27.401 507.344 27.9544 506.367 28.8008C505.365 28.6836 504.766 28.2279 504.57 27.4336L505.293 26.2617C505.566 25.9492 506.309 25.5456 507.52 25.0508C509.238 24.5169 511.751 23.4688 515.059 21.9062H515.762Z" fill="#637CC6"/>
</svg>
