<svg width="326" height="251" viewBox="0 0 326 251" fill="none" xmlns="http://www.w3.org/2000/svg">
<path d="M85.8175 0.00111889C84.1179 0.012376 82.4113 0.151963 80.732 0.408625C79.1137 0.654029 77.4771 0.95797 75.9551 1.57013C74.0169 2.34687 72.2633 3.54462 70.692 4.91101C68.7427 6.60835 67.0454 8.58464 65.5077 10.658C63.6415 13.1791 62.0074 15.8716 60.5282 18.6361C58.0364 23.2916 55.9585 28.174 54.2749 33.1762C53.0301 36.8636 51.9382 40.6971 51.4048 44.558C51.247 45.6857 51.1659 46.8202 51.1004 47.9572C51.0151 49.4474 50.9725 50.9376 50.9813 52.4301C50.9971 55.0212 51.1589 57.6214 51.5507 60.1831C51.7333 61.3763 51.9627 62.5806 52.3119 63.7423C52.1048 63.9697 51.8726 64.1721 51.6928 64.4175C50.943 65.4397 50.4027 66.6352 50.0605 67.8505C48.4532 73.5346 51.177 80.0336 56.0105 83.2867C56.9919 83.9463 58.0501 84.4459 59.1708 84.8199C60.4228 85.2341 61.7732 84.5542 62.1873 83.3004C62.6013 82.0466 61.9216 80.689 60.668 80.2749C60.1615 80.1106 59.6774 79.917 59.2111 79.6558C56.7623 78.2824 55.0469 75.6645 54.4771 72.9452C54.1061 71.1646 54.2409 69.2579 55.1032 67.6323C55.8414 66.2434 57.3116 65.2575 58.8466 64.9671C59.6051 64.8228 60.4697 64.8725 61.0751 65.4037C61.262 65.5658 61.3991 65.7594 61.5346 65.9665C62.2233 67.0087 63.6282 67.2969 64.6704 66.6057C64.9878 66.3963 65.2107 66.1149 65.3818 65.8044L66.8946 66.9929C66.7099 68.1297 66.5476 69.2732 66.4377 70.4191C66.2914 71.9116 66.2279 73.4086 66.2126 74.908C66.1989 76.2271 67.2613 77.3076 68.5827 77.3213C69.9018 77.3326 70.9822 76.2699 70.996 74.9485C71.0074 73.5889 71.0637 72.2315 71.1921 70.8762C71.5293 67.3577 72.2655 63.8842 73.2807 60.5007C74.7103 55.7417 76.6754 51.154 79.0574 46.7959C80.5541 44.0586 82.2222 41.409 84.0524 38.8831C84.7255 37.951 85.3944 37.0056 86.1842 36.1661C87.4471 34.822 89.0433 33.755 90.903 33.5006C91.5266 33.4151 92.1588 33.4198 92.7825 33.4871C93.636 33.5792 94.471 33.7911 95.2793 34.0768C95.5607 34.1758 95.8352 34.2864 96.1098 34.401C96.7132 34.6507 97.3344 34.921 97.868 35.3013C98.2665 35.5827 98.5276 35.8504 98.613 36.3347C98.7413 37.0077 99.1693 37.53 99.7184 37.8474C99.8332 37.9758 99.9255 38.1176 100.07 38.2212C101.094 38.9391 102.503 38.694 103.221 37.6718C103.429 37.3614 103.917 37.17 104.25 37.0392C105.09 36.7082 105.972 36.5508 106.872 36.5664C108.736 36.6047 110.76 36.8546 112.262 38.0591C113.02 38.6667 113.615 39.457 114.162 40.2537C114.801 41.1858 115.4 42.147 115.92 43.1511C116.417 44.1167 116.849 45.1141 117.221 46.1338C118.666 50.1091 119.256 54.7015 118.142 58.8392C118.072 58.8279 117.973 58.8032 117.903 58.7897C116.766 58.596 115.668 59.2915 115.357 60.4015C115.35 60.426 115.35 60.4463 115.343 60.4712C115.264 60.442 115.181 60.424 115.103 60.3947C114.416 60.1268 113.747 59.8273 113.049 59.5932C112.653 59.4579 112.243 59.3951 111.838 59.3028C112.028 58.2491 111.483 57.1822 110.447 56.7996C110.433 56.7949 109.72 56.5407 109.44 56.4417C108.641 56.1512 107.741 55.8293 106.753 55.4848C103.932 54.4964 100.992 53.5085 98.0861 52.5854C96.7308 52.1554 95.4162 51.7479 94.1396 51.3676C89.8448 50.0911 86.1998 49.1727 83.3772 48.6889C82.24 48.493 81.1415 49.1817 80.829 50.2917C78.9108 57.1351 78.7284 60.6874 79.7754 64.6292C79.9372 65.2416 80.5586 67.3169 80.6464 67.6256C80.831 68.2783 80.9794 68.8839 81.1192 69.5053C81.2635 70.1537 81.6886 70.7028 82.2783 71.009C88.8562 74.4264 91.5262 75.2635 99.5426 76.468C100.105 76.5536 100.677 76.423 101.145 76.1035C102.615 75.0994 102.976 74.8407 103.581 74.3792C105.152 73.1769 106.246 72.0086 107.288 70.3135C108.177 68.8639 109.139 66.6352 110.228 63.8144C111.606 64.0373 112.93 64.4853 114.258 64.9041C113.434 69.0079 113.513 71.7587 114.301 74.7324C114.463 75.3425 115.086 77.4249 115.174 77.7356C115.359 78.3882 115.505 78.9849 115.644 79.6063C115.789 80.2569 116.214 80.806 116.806 81.1122C123.384 84.5272 126.051 85.3647 134.068 86.5712C134.631 86.6543 135.202 86.5262 135.673 86.2043C136.454 85.6707 136.609 85.5446 136.967 85.2902C135.614 89.0091 134.034 92.6379 132.098 96.0954C129.415 100.893 126.025 105.42 121.687 108.844C119.956 110.21 118.069 111.383 116.075 112.326C114.546 113.047 112.955 113.636 111.324 114.084C102.723 116.446 93.4012 114.811 85.6777 110.516C82.7738 108.902 80.0091 106.935 77.7198 104.517C72.7064 99.2179 70.2753 92.2779 68.202 85.432C67.8194 84.1667 66.4821 83.4508 65.2193 83.8335C63.9565 84.2163 63.2405 85.5536 63.623 86.8164C64.7039 90.3775 65.8652 93.9253 67.4074 97.32C68.8884 100.58 70.7616 103.664 73.0711 106.401C73.0553 106.439 73.0328 106.469 73.0218 106.507C72.567 107.943 72.1212 109.382 71.6349 110.807L71.2206 109.665C71.1824 109.679 63.9114 112.369 61.8629 113.141C61.7077 113.2 60.0935 113.816 59.4856 114.048C56.9149 115.032 54.8191 117.094 53.0765 119.881C52.5929 120.655 52.1714 121.459 51.7754 122.272C51.7621 122.395 51.7824 122.515 51.7486 122.639C49.5987 130.31 47.4488 137.982 45.3035 145.656C44.5967 148.184 43.8941 150.712 43.1876 153.24C42.9827 153.972 42.7798 154.701 42.575 155.435C42.629 155.46 42.681 155.487 42.7373 155.512C43.9396 156.07 45.1483 156.622 46.3528 157.18C49.0023 158.404 51.652 159.634 54.3015 160.858C54.702 161.043 55.1032 161.228 55.5037 161.414C55.9022 161.597 56.3503 161.775 56.6787 162.067C57.0953 162.438 57.3767 162.929 57.4667 163.483C57.4893 163.618 57.4962 163.758 57.4962 163.897C57.4915 164.363 57.3296 164.82 57.0727 165.205C56.8771 165.502 56.5912 165.766 56.341 166.022C56.1542 166.214 55.965 166.407 55.7782 166.599C54.0966 168.321 52.4173 170.041 50.7359 171.763C50.1753 172.337 49.6149 172.911 49.0543 173.485C48.9708 173.57 48.89 173.654 48.8067 173.739C48.8584 173.969 48.9055 174.199 48.9553 174.428C49.252 175.793 49.5449 177.152 49.8421 178.516C50.6909 182.427 51.5394 186.339 52.3882 190.249C54.3397 199.247 56.278 208.249 58.2207 217.249C66.3402 222.632 74.8905 227.46 83.8407 231.65L113.768 185.276L100.655 173C99.3719 171.798 99.903 169.655 101.596 169.187L116.003 165.211L118.184 131.163L116.244 126.528C116.077 125.734 115.627 125.054 114.956 124.41C114.42 123.897 113.72 123.392 112.867 122.863C112.03 122.343 111.046 121.805 109.941 121.258C108.809 120.7 107.606 120.16 106.402 119.649C108.3 119.473 110.19 119.192 112.05 118.706C113.941 118.21 115.796 117.548 117.572 116.736C119.89 115.676 122.088 114.35 124.107 112.796C128.855 109.145 132.614 104.316 135.597 99.1569C140.499 90.6722 143.442 81.1838 145.598 71.6707C145.668 71.4791 145.725 71.3485 145.797 71.1504C145.887 71.1414 145.979 71.1369 146.071 71.1211C146.339 71.0786 146.607 71.0176 146.873 70.9613C146.954 70.9433 147.042 70.9343 147.118 70.905C147.406 70.7879 147.688 70.6463 147.969 70.5177C148.109 70.4525 148.239 70.3153 148.356 70.2208C148.622 70.0137 148.888 69.7975 149.144 69.5814C149.694 69.1198 150.22 68.645 150.742 68.1542C153.023 65.9953 155.088 63.5483 156.652 60.8153C157.604 59.1474 158.441 57.2945 158.84 55.406C159.18 53.7942 159.207 52.1149 159.135 50.4761C159.038 48.3017 158.741 46.1403 158.334 44.0042C157.278 38.4841 155.481 33.0816 153.106 27.9919C150.713 22.8638 147.679 17.9924 143.841 13.8165C141.869 11.6711 139.683 9.7126 137.276 8.06254C130.573 3.46335 122.601 1.20563 114.513 1.02776C110.84 0.946713 107.15 1.27542 103.546 1.98439C102.42 2.20503 101.301 2.46619 100.198 2.77239C99.9843 2.83092 99.7749 2.89846 99.5635 2.9615C99.5478 2.95475 99.5318 2.94124 99.5138 2.93449C98.8744 2.61704 98.2192 2.32683 97.553 2.06769C95.4123 1.23917 93.1659 0.67429 90.8965 0.345809C89.2144 0.099954 87.5171 -0.0126148 85.8175 0.00111889ZM226.732 15.462C223.911 15.399 221.095 15.7793 218.382 16.7564C217.29 17.1502 216.232 17.6365 215.222 18.2058C213.527 19.165 211.996 20.3602 210.607 21.7246C209.715 22.6002 209.704 24.0318 210.58 24.9257C211.456 25.8172 212.889 25.8285 213.781 24.9527C214.886 23.8652 216.102 22.9109 217.453 22.1454C223.04 18.9848 229.735 19.7051 235.574 21.7311C240.466 23.4285 245.02 26.0489 249.18 29.1104C253.379 32.1989 257.284 35.7984 260.506 39.9091C261.168 40.7509 261.798 41.6219 262.383 42.518C263.274 43.8824 264.094 45.2983 264.951 46.6827C268.952 53.1503 273.06 59.55 276.883 66.1279C279.01 69.786 281.07 73.4979 282.877 77.3272C286.259 84.4948 288.717 92.0496 291.6 99.4221C294.27 106.252 297.221 112.974 300.099 119.718C303.039 126.611 305.931 133.527 308.504 140.568C309.668 143.758 310.728 146.981 311.788 150.207C312.552 152.531 313.351 154.843 314.159 157.15C317.149 165.691 320.262 174.254 322.18 183.101C323.486 181.604 324.741 180.064 326 178.529C324.028 170.74 321.318 163.151 318.661 155.574C317.865 153.296 317.067 151.016 316.313 148.722C315.235 145.449 314.154 142.175 312.97 138.936C310.366 131.818 307.423 124.828 304.438 117.861C301.568 111.164 298.628 104.494 295.96 97.7133C293.023 90.2462 290.513 82.6015 287.069 75.3416C285.927 72.9353 284.673 70.5806 283.39 68.2438C280.941 63.7889 278.305 59.4419 275.624 55.1244C273.645 51.9391 271.635 48.774 269.652 45.593C268.596 43.9024 267.569 42.1918 266.507 40.5055C264.596 37.4778 262.248 34.7245 259.724 32.1919C257.804 30.2629 255.76 28.462 253.619 26.7826C251.978 25.4948 250.283 24.2727 248.532 23.1448C247.082 22.2107 245.59 21.3349 244.065 20.5266C242.877 19.8964 241.67 19.3066 240.434 18.7685C236.155 16.9025 231.434 15.5676 226.732 15.462ZM198.606 21.9903C197.942 22.0015 197.278 22.0285 196.616 22.0823C195.502 22.1724 194.388 22.3165 193.289 22.5191C187.227 23.6311 180.962 26.6207 177.763 32.1293C177.176 33.1399 176.723 34.2071 176.37 35.3213C175.991 36.5123 176.656 37.7864 177.846 38.1647C179.039 38.5429 180.311 37.8855 180.69 36.6947C180.942 35.8977 181.259 35.1302 181.68 34.4075C183.875 30.6461 188.143 28.548 192.233 27.5483C192.96 27.3705 193.697 27.2243 194.435 27.1048C195.275 26.9697 196.125 26.8774 196.974 26.8166C198.106 26.7378 199.239 26.7178 200.373 26.7741C201.956 26.8551 203.518 27.0938 205.051 27.499C206.328 27.8367 207.633 27.0735 207.971 25.797C208.306 24.5206 207.546 23.2125 206.267 22.8773C204.412 22.391 202.521 22.1096 200.606 22.0195C199.941 21.988 199.272 21.9812 198.606 21.9903ZM218.317 32.5073C217.592 32.5005 216.879 32.5118 216.178 32.5433C211.676 32.748 207.96 33.7544 204.979 35.3211C203.775 35.9558 202.766 36.6472 201.94 37.3472C201.332 37.1761 200.704 37.0005 199.97 36.8406C197.316 36.2642 194.441 35.9335 191.445 35.9628C187.549 35.9988 183.744 36.645 180.14 38.0451C175.345 39.9046 171.111 43.0133 167.619 47.5065C161.237 55.4663 157.766 62.2807 156.553 68.5885C156.035 71.2785 155.927 73.8494 156.159 76.4901C156.334 78.4824 156.629 80.1392 157.255 82.989C157.833 85.6227 157.964 86.2486 158.135 87.4013C158.158 87.5475 158.18 87.694 158.198 87.8359C159.261 95.9151 157.642 102.693 152.142 114.843C149.515 120.644 149.709 127.712 152.142 135.159C154.146 141.302 157.628 147.389 161.266 151.446C164.076 154.577 166.055 159.748 166.464 165.248C166.908 171.177 165.521 176.821 162.376 181.006C162.419 180.949 160.238 183.828 159.522 184.797C159.179 185.26 158.914 185.674 158.592 186.12C157.968 175.074 156.741 167.116 154.765 162.87C151.708 156.295 145.619 150.073 137.388 144.226C133.239 141.28 128.807 138.617 124.374 136.278C123.672 135.906 123.087 135.629 122.434 135.301L120.392 167.098C120.331 168.055 119.672 168.867 118.747 169.124L106.67 172.458L118.22 183.277C119.015 184.022 119.161 185.226 118.572 186.14L87.9921 233.513C109.461 242.974 133.004 248.893 157.818 250.41C157.89 248.994 157.966 247.668 158.036 246.219C158.61 246.986 159.146 247.756 159.768 248.526C159.835 248.609 159.913 248.69 159.993 248.765L162.005 250.629C164.871 250.746 167.748 250.818 170.643 250.818C171.268 250.818 171.892 250.802 172.516 250.797C171.802 245.51 171.208 240.208 170.665 234.9C170.634 234.585 170.534 234.292 170.391 234.033C170.785 234.024 171.179 234.006 171.573 233.999C174.278 233.939 176.984 233.887 179.69 233.999C179.274 239.598 180.237 245.325 182.497 250.467C184.197 250.372 185.89 250.259 187.576 250.122C186.912 248.864 186.338 247.558 185.861 246.212C184.503 242.396 183.938 238.349 184.222 234.315C188.616 234.747 192.981 235.506 197.285 236.496C203.178 237.851 208.964 239.652 214.668 241.653C216.829 242.41 218.973 243.2 221.131 243.967C221.475 244.089 221.822 244.204 222.167 244.325C224.272 243.785 226.365 243.213 228.44 242.61C228.276 241.692 227.579 240.922 226.613 240.703C225.174 240.381 223.776 239.845 222.392 239.353C220.339 238.621 218.293 237.876 216.235 237.158C210.573 235.181 204.835 233.414 198.987 232.077C192.909 230.688 186.719 229.749 180.485 229.454C178.934 229.38 177.39 229.364 175.843 229.376C174.297 229.389 172.75 229.43 171.199 229.468C168.93 229.524 166.663 229.596 164.396 229.666C164.187 225.852 164.011 222.039 163.793 218.226C163.696 216.562 163.574 214.894 163.439 213.233C163.374 212.416 163.316 211.603 163.214 210.79C163.012 209.135 162.629 207.485 162.651 205.811C162.658 205.336 162.681 204.816 162.892 204.381C163.606 204.084 164.407 203.947 165.164 203.805C166.212 203.609 167.264 203.451 168.322 203.312C171.845 202.846 175.393 202.548 178.938 202.285C182.891 201.992 186.851 201.772 190.813 201.623C192.265 201.569 193.714 201.52 195.166 201.504C195.972 201.495 196.789 201.475 197.593 201.54C198.575 201.617 199.56 201.767 200.533 201.92C202.796 202.274 205.029 202.771 207.217 203.447C209.925 204.28 212.552 205.387 215.069 206.688C218.603 208.516 221.93 210.704 225.255 212.879C228.488 214.995 231.732 217.095 235.068 219.042C236.169 219.684 237.276 220.321 238.402 220.92C241.808 222.732 245.302 224.362 248.701 226.183C250.117 226.939 251.524 227.725 252.888 228.574C254.075 229.312 255.245 230.091 256.271 231.043C256.638 231.386 257.095 231.538 257.559 231.592C258.275 231.255 258.978 230.895 259.691 230.55C260.245 229.65 260.153 228.47 259.344 227.723C258.223 226.685 256.981 225.807 255.695 224.985C254.97 224.524 254.216 224.114 253.471 223.684C254.23 223.239 254.997 222.806 255.792 222.426C261.024 219.929 266.834 218.887 272.592 218.648C275.323 218.534 278.06 218.608 280.786 218.795C282.86 217.464 284.879 216.071 286.894 214.666C286.079 214.569 285.268 214.45 284.453 214.371C281.921 214.121 279.377 213.986 276.833 213.948C268.592 213.826 260.092 215.051 252.712 218.9C251.393 219.587 250.146 220.382 248.926 221.224C245.286 219.351 241.598 217.57 238.051 215.524C234.877 213.693 231.795 211.71 228.729 209.7C228.601 209.614 228.472 209.531 228.344 209.445C229.244 208.59 230.147 207.735 231.052 206.879C237.859 200.434 245.173 193.749 254.266 190.797C255.544 190.383 256.85 190.043 258.171 189.791C260.008 189.44 261.876 189.242 263.75 189.221C265.589 189.201 267.428 189.318 269.249 189.559C272.416 189.978 275.523 190.746 278.614 191.542C280.181 191.948 281.75 192.344 283.312 192.767C285.268 193.296 287.2 193.915 289.187 194.322C290.272 194.543 291.382 194.734 292.492 194.707C293.55 194.685 294.608 194.505 295.666 194.518C295.815 194.57 295.979 194.568 296.137 194.588C296.263 194.849 296.391 195.108 296.497 195.376C296.675 195.84 296.844 196.313 297.004 196.783C297.461 198.14 297.868 199.509 298.262 200.885C298.667 202.298 299.043 203.719 299.424 205.141C305.087 200.475 310.488 195.527 315.559 190.284C315.526 190.264 315.503 190.232 315.47 190.214C314.029 189.44 312.629 188.578 311.312 187.61L306.83 183.306C306.253 182.56 305.715 181.784 305.261 180.962C302.145 175.328 302.375 168.529 302.553 162.291C302.643 159.16 302.755 156.022 302.665 152.886C302.517 147.594 301.801 142.214 299.845 137.263C298.688 134.33 296.948 131.674 294.885 129.299C292.77 126.863 290.34 124.722 287.878 122.644C285.611 120.729 283.297 118.862 281.147 116.812C279.922 115.645 278.724 114.425 277.692 113.084C273.439 107.559 272.514 100.432 271.848 93.7037C271.728 92.513 271.622 91.3197 271.51 90.1289C271.462 89.6404 271.237 89.2284 270.938 88.8841C271.514 82.833 268.93 73.0632 264.171 63.6512C257.298 50.0573 247.314 39.6276 235.673 35.7581C229.167 33.5947 223.4 32.5616 218.317 32.5073ZM103.996 55.8696C104.878 55.8403 105.734 56.3289 106.128 57.1797C106.652 58.3142 106.157 59.6583 105.022 60.1826C99.1803 62.8954 93.3793 65.6914 87.5418 68.4129C86.3423 68.969 84.9241 68.4512 84.3678 67.2536C83.8142 66.0539 84.3388 64.6265 85.5361 64.0728C91.3888 61.3851 97.2734 58.7714 103.124 56.0747C103.408 55.9439 103.703 55.8808 103.996 55.8696ZM104.058 64.1359C104.939 64.0886 105.806 64.5614 106.22 65.4032C106.769 66.5242 106.307 67.884 105.184 68.4354C101.639 70.1803 98.1314 72.0057 94.5901 73.7593C93.4036 74.3402 91.9769 73.8471 91.3958 72.6631C90.8149 71.4766 91.3013 70.0497 92.4878 69.4688C96.0443 67.7467 99.6396 66.0989 103.194 64.3678C103.475 64.2302 103.766 64.1514 104.058 64.1359ZM133.217 67.1253C134.757 68.1067 136.254 69.1691 137.889 69.9752C132.13 72.6519 126.41 75.4094 120.654 78.0926C119.456 78.649 118.036 78.1244 117.482 76.9266C116.926 75.7269 117.444 74.3062 118.641 73.7524C123.49 71.5239 128.362 69.3403 133.217 67.1253ZM197.517 67.8795C197.739 68.3343 197.775 68.3859 198.043 68.9352C199.493 71.8931 200.211 73.2978 201.033 74.7385C204.432 80.6883 208.023 83.4526 216.059 86.021C216.61 86.1966 217.117 86.1516 217.558 85.9784C213.213 88.432 210.255 92.1647 209.756 96.1873C209.477 96.1648 209.202 96.113 208.918 96.1175C208.525 96.1197 208.128 96.149 207.73 96.2006C206.604 96.3449 205.512 96.6531 204.416 96.946C201.774 92.3333 195.623 89.103 188.456 89.103C188.131 89.103 187.816 89.1255 187.499 89.139C191.216 86.9283 193.678 84.4723 195.159 81.5481C195.986 79.9183 196.503 78.1714 196.827 76.1454C197.066 74.6304 197.174 73.3158 197.318 70.5873C197.381 69.4283 197.454 68.7709 197.517 67.8795ZM136.729 73.9147C137.609 73.8649 138.476 74.3402 138.888 75.182C139.437 76.303 138.976 77.6559 137.855 78.2052C134.309 79.9523 130.802 81.7845 127.259 83.5384C126.074 84.1192 124.647 83.6262 124.067 82.4421C123.486 81.2557 123.97 79.8217 125.156 79.2409C128.713 77.519 132.31 75.8709 135.862 74.1398C136.144 74.0025 136.435 73.9304 136.729 73.9147ZM214.202 74.1961C215.953 76.4743 217.567 78.5949 218.326 79.5493C219.697 81.2737 220.921 82.7301 222.088 84.0449C220.57 84.4905 219.175 85.1051 217.875 85.8098C219.064 85.0918 219.521 83.2975 218.213 82.1742C218.22 82.181 218.225 82.1767 218.213 82.1675C218.184 82.1407 218.144 82.1067 218.101 82.0617C217.95 81.9086 217.781 81.7149 217.585 81.4763C217.002 80.7583 216.406 79.8465 215.84 78.7278C215.172 77.3949 214.639 75.8619 214.202 74.1961ZM184.235 75.0897L184.516 76.5103C184.512 76.6792 184.532 76.8391 184.523 77.0102C184.33 80.6435 183.334 84.2363 181.378 87.703C180.881 88.5831 181.058 89.5062 181.567 90.1656C179.681 90.7733 177.979 91.6288 176.511 92.6688C178.103 89.9608 179.751 86.5231 181.434 82.4329C182.407 80.0761 183.332 77.593 184.235 75.0897ZM112.368 76.5889C112.057 76.5957 111.746 76.6632 111.444 76.7983C110.244 77.3454 109.711 78.7636 110.256 79.9656C110.476 80.3549 110.452 80.3191 110.474 80.3596C110.456 80.3438 110.443 80.2943 110.425 80.3033C110.312 80.3528 110.555 80.5127 110.623 80.6183C110.688 80.7243 110.88 81.044 110.818 80.9357C110.638 80.6093 110.821 80.9335 110.987 81.2667C111.505 82.4036 112.847 82.9077 113.986 82.3922C115.123 81.8746 115.627 80.5327 115.111 79.3937C114.972 79.0022 114.983 79.0425 114.97 79C114.994 78.9257 114.888 78.7904 114.857 78.6915C114.821 78.5722 114.711 78.2142 114.751 78.3335C114.875 78.6848 114.751 78.3313 114.612 77.9868C114.202 77.0865 113.297 76.5642 112.368 76.5889ZM233.015 80.1414C233.575 80.8121 234.215 81.5754 234.399 81.7937C235.558 83.1691 236.43 84.1688 237.193 85.0016C236.393 84.6123 235.552 84.2836 234.66 84.0089C234.061 82.865 233.521 81.5461 233.015 80.1414ZM87.9291 83.1444C87.3192 83.2097 86.7383 83.5023 86.3241 84.0179C85.4955 85.0446 85.6552 86.5503 86.682 87.3788C88.6023 88.9231 90.5878 90.3842 92.6699 91.6988C98.28 95.2421 104.682 97.7973 111.354 98.2C113.241 98.3126 115.121 98.2295 116.996 98.0021C118.236 97.8535 119.123 96.7233 118.972 95.483C118.824 94.2427 117.696 93.3581 116.453 93.5067C114.853 93.6981 113.245 93.7769 111.636 93.6688C103.447 93.124 95.9297 88.7164 89.6874 83.6579C89.1741 83.2434 88.5367 83.0791 87.9291 83.1444ZM226.887 88.815C228.182 89.9022 229.471 90.8138 230.77 91.5298C226.369 95.1766 221.998 98.864 217.594 102.504C216.572 103.342 215.069 103.193 214.231 102.173C213.392 101.153 213.542 99.643 214.562 98.803C218.657 95.4558 222.781 92.1489 226.887 88.815ZM242.602 89.6163C244.189 90.6384 246.094 91.6716 250.107 93.7247C250.202 94.1975 250.306 94.5825 250.396 95.0753C251.593 101.563 252.199 108.123 251.888 114.203C251.821 115.522 251.699 116.788 251.544 118.024C251.494 118.172 251.449 118.325 251.395 118.474C250.968 119.656 250.436 120.797 249.833 121.9C248.027 125.198 245.569 128.129 242.758 130.616C238.69 134.211 233.888 136.89 228.841 138.853C227.618 139.328 226.385 139.765 225.135 140.161C224.606 140.328 224.075 140.483 223.544 140.641C223.452 140.668 223.364 140.704 223.269 140.724C222.92 140.803 222.542 140.834 222.186 140.886C221.398 141.001 220.615 141.098 219.823 141.181C217.052 141.478 214.255 141.589 211.473 141.449C207.579 141.253 203.7 140.562 200.026 139.24C197.975 138.5 195.992 137.572 194.117 136.454C192.778 135.654 191.49 134.756 190.27 133.782C182.927 127.906 178.298 119.374 175.419 110.496C178.598 113.197 183.251 114.915 188.456 114.915C198.036 114.913 205.802 109.132 205.802 102.004C205.802 101.838 205.776 101.678 205.766 101.512C206.142 101.408 206.521 101.309 206.892 101.196C207.662 100.962 208.465 100.708 209.279 100.69C209.637 100.681 209.981 100.749 210.319 100.845C212.563 106.791 220.457 110.318 229.059 108.864C238.507 107.268 245.204 100.28 244.016 93.2544C243.793 91.9395 243.3 90.724 242.602 89.6163ZM194.246 92.7883C194.822 92.8446 195.376 93.1145 195.772 93.5988C196.564 94.5645 196.427 95.9916 195.461 96.7839C190.488 100.883 185.578 105.055 180.61 109.159C179.591 109.998 178.08 109.85 177.243 108.828C176.403 107.808 176.551 106.304 177.571 105.466C182.562 101.387 187.607 97.3738 192.591 93.2879C193.075 92.8919 193.669 92.732 194.246 92.7883ZM233.618 94.4697C234.196 94.5169 234.755 94.7894 235.16 95.2642C235.968 96.2186 235.853 97.6437 234.899 98.4518C232.186 100.764 229.53 103.146 226.824 105.466C225.816 106.32 224.307 106.198 223.454 105.192C222.599 104.183 222.72 102.675 223.729 101.822C226.459 99.5277 229.242 97.2968 231.965 94.9983C232.443 94.5935 233.042 94.4224 233.618 94.4697ZM255.04 95.5951C255.222 95.6132 255.4 95.6402 255.589 95.6449C255.688 95.6472 255.931 95.7192 256.271 95.8496C256.555 96.086 256.881 96.2796 257.27 96.3561C257.399 96.3809 257.527 96.4237 257.655 96.4552C257.734 96.4887 257.876 96.554 257.889 96.5588C258.729 96.948 259.377 97.2024 260.012 97.4118C260.555 97.7563 261.05 98.1638 261.419 98.7264C262.259 100.003 262.354 101.624 262.067 103.087C261.514 105.921 259.4 108.897 256.453 109.532C256.368 104.969 255.843 100.271 255.04 95.5951ZM196.63 101.126C197.208 101.174 197.766 101.444 198.169 101.921C198.98 102.873 198.862 104.298 197.911 105.106C195.196 107.42 192.541 109.8 189.834 112.121C188.827 112.974 187.319 112.852 186.463 111.846C185.61 110.84 185.739 109.329 186.745 108.476C189.476 106.184 192.258 103.958 194.984 101.66C195.461 101.255 196.053 101.077 196.63 101.126ZM209.742 108.857C208.867 108.744 207.971 109.152 207.498 109.962C207.113 110.379 207.334 110.133 207.111 110.383C207.014 110.491 207.313 110.169 207.428 110.081C207.46 110.054 207.379 110.151 207.358 110.187C207.309 110.266 207.257 110.342 207.203 110.419C207.192 110.433 207.154 110.493 207.14 110.509C207.131 110.518 207.118 110.541 207.111 110.532C207.097 110.502 207.201 110.394 207.217 110.363C207.221 110.351 207.196 110.363 207.19 110.369C207.136 110.408 206.994 110.541 207.035 110.489C207.176 110.304 207.035 110.489 206.724 110.797C205.826 111.765 205.877 113.276 206.846 114.174C207.811 115.074 209.328 115.022 210.229 114.055C210.818 113.149 210.571 113.465 210.818 113.147C210.956 112.974 210.58 113.526 210.504 113.733C210.47 113.821 210.621 113.582 210.679 113.508C210.733 113.433 210.787 113.363 210.841 113.289C210.983 113.089 211.089 112.893 211.186 112.67C211.217 112.594 211.253 112.517 211.291 112.445C211.307 112.413 211.365 112.323 211.347 112.353C210.971 112.918 211.341 112.357 211.404 112.247C212.032 111.169 211.674 109.775 210.593 109.145C210.323 108.987 210.035 108.895 209.742 108.857ZM76.6871 110.066C78.7467 111.828 81.0091 113.359 83.3776 114.667C88.6227 117.564 94.5023 119.336 100.463 119.739C100.336 120.581 100.169 121.416 99.9863 122.244C99.84 122.908 99.6891 123.572 99.536 124.234L99.2683 123.967L84.4311 138.684L74.3103 117.094C74.7425 116.108 75.1498 115.113 75.4923 114.091C75.9351 112.762 76.3043 111.412 76.6871 110.066ZM261.131 110.671C262.883 110.671 264.305 112.087 264.305 113.836C264.305 115.588 262.883 117.01 261.131 117.01C259.38 117.01 257.966 115.588 257.966 113.836C257.966 112.087 259.38 110.671 261.131 110.671ZM226.662 119.36C226.05 119.378 225.453 119.637 225.001 120.119C223.416 121.821 221.29 122.931 219.141 123.75C216.976 124.574 214.691 125.11 212.387 125.373C210.688 125.569 208.972 125.621 207.266 125.472C205.292 125.299 203.309 124.882 201.555 123.932C200.454 123.336 199.083 123.741 198.487 124.839C197.893 125.938 198.303 127.318 199.401 127.914C201.889 129.263 204.7 129.871 207.505 130.067C212.178 130.391 217.061 129.68 221.421 127.955C224.044 126.918 226.545 125.45 228.49 123.383C229.393 122.42 229.341 120.909 228.377 120.006C227.896 119.556 227.272 119.34 226.662 119.36ZM70.6855 119.964L79.9444 139.711L73.353 145.699C72.4639 137.12 71.5768 128.543 70.6855 119.964ZM46.1772 125.767C41.9365 126.893 37.693 128.05 33.7334 129.187C32.3285 129.59 30.9847 129.979 29.7016 130.362C23.1351 132.32 18.5519 133.898 16.35 135.053C13.0564 136.782 9.06555 141.78 4.59469 149.01C2.98965 151.608 1.38237 154.436 0 157.017C13.3516 179.022 31.2771 198.195 52.5373 213.379C51.1301 206.819 49.7185 200.257 48.3163 193.695C47.2829 188.873 46.2495 184.049 45.2211 179.225C44.9282 177.861 44.6402 176.497 44.3473 175.132C44.2887 174.858 44.2302 174.587 44.1719 174.315C44.0548 173.766 43.915 173.232 44.0096 172.663C44.1471 171.846 44.6332 171.353 45.1713 170.806C45.4527 170.52 45.7342 170.234 46.0156 169.946C47.6091 168.325 49.2054 166.706 50.7989 165.086C50.9748 164.908 51.1504 164.73 51.3258 164.552C50.4682 164.151 49.6104 163.748 48.7506 163.348C46.1865 162.152 43.6226 160.955 41.0562 159.759C40.7342 159.611 40.419 159.46 40.0993 159.309C39.6648 159.109 39.0276 158.874 38.6134 158.577C38.2221 158.296 37.9181 157.9 37.7493 157.445C37.4541 156.648 37.6793 156.005 37.8886 155.257C37.992 154.897 38.0913 154.534 38.1926 154.174C38.8002 152.008 39.4129 149.847 40.0205 147.682C42.0758 140.377 44.1269 133.072 46.1772 125.767ZM97.9308 131.643C97.8815 131.818 97.8274 131.994 97.7777 132.169C97.3591 133.626 96.9426 135.083 96.5241 136.539C95.3781 140.544 94.2322 144.544 93.0842 148.546L88.4359 141.061L97.9308 131.643ZM237.017 140.303C237.526 142.171 238.037 144.04 238.593 145.895C239.347 148.414 240.144 150.921 241.063 153.386C241.479 154.507 241.918 155.622 242.447 156.693C242.73 157.267 243.034 157.866 243.446 158.361C243.721 158.69 244.047 158.971 244.403 159.212C245.58 160.009 247.021 160.394 248.392 160.709C250.416 161.175 252.482 161.461 254.54 161.715C259.51 162.332 264.512 162.71 269.474 163.397C271.149 163.629 272.819 163.89 274.469 164.262C275.552 164.507 276.646 164.788 277.664 165.241C278.431 165.581 279.136 166.071 279.802 166.578C280.849 167.372 281.81 168.268 282.722 169.214C284.138 170.684 285.428 172.269 286.612 173.928C288.208 176.163 289.622 178.531 290.804 181.012C292.172 183.878 293.223 186.917 293.753 190.053C293.66 190.059 293.568 190.066 293.478 190.073C293.023 190.111 292.568 190.165 292.113 190.143C291.769 190.127 291.42 190.071 291.078 190.017C290.416 189.913 289.761 189.769 289.108 189.609C287.447 189.197 285.815 188.666 284.163 188.223C282.704 187.831 281.243 187.453 279.782 187.07C275.099 185.838 270.363 184.724 265.508 184.551C262.932 184.459 260.343 184.623 257.804 185.064C255.949 185.386 254.117 185.859 252.331 186.458C244.306 189.15 237.555 194.442 231.367 200.07C228.956 202.263 226.603 204.525 224.235 206.767C222.439 205.617 220.626 204.496 218.76 203.46C215.807 201.819 212.725 200.403 209.517 199.332C206.915 198.461 204.24 197.814 201.532 197.369C200.301 197.164 199.051 196.966 197.804 196.882C196.915 196.822 196.015 196.826 195.123 196.833C194.047 196.842 192.971 196.864 191.895 196.896C189.011 196.979 186.13 197.11 183.249 197.276C180.437 197.438 177.628 197.643 174.823 197.882C174.836 197.589 174.845 197.298 174.87 197.008C175.023 195.351 175.352 193.717 175.842 192.128C176.831 188.911 178.523 185.932 180.851 183.495C181.999 182.292 183.307 181.252 184.655 180.287C186.94 178.652 189.363 177.216 191.803 175.834C196.136 173.383 200.605 171.183 205.001 168.849C207.002 167.786 209.028 166.715 210.888 165.416C211.847 164.745 212.878 163.959 213.38 162.87C213.713 162.147 213.756 161.332 213.751 160.547C213.746 159.356 213.609 158.167 213.449 156.987C213.152 154.795 212.736 152.613 212.295 150.446C212.002 149 211.673 147.564 211.347 146.126C213.237 146.227 215.14 146.238 217.037 146.139C218.699 146.054 220.354 145.896 222.003 145.683C222.578 145.608 223.154 145.529 223.728 145.437C223.917 145.406 224.111 145.387 224.297 145.345C224.633 145.271 224.957 145.16 225.288 145.064C225.713 144.94 226.139 144.809 226.562 144.676C227.908 144.253 229.241 143.785 230.558 143.278C232.769 142.424 234.926 141.424 237.017 140.303ZM81.484 144.395C81.3376 154.66 80.6626 164.914 79.3183 175.096C78.8232 178.833 78.2268 182.554 77.5514 186.259C77.3508 184.31 77.1482 182.358 76.946 180.406C75.9374 170.627 74.9197 160.851 73.907 151.072L74.0126 151.185L81.484 144.395ZM86.0001 145.676L91.3823 154.492C88.4602 164.678 85.5318 174.864 82.6031 185.051L82.5399 185.253C83.4449 179.886 84.1676 174.481 84.699 169.061C85.4618 161.288 85.8695 153.485 86.0001 145.676ZM158.966 217.656C158.99 218.075 159.027 218.491 159.049 218.908C159.279 222.949 159.454 226.99 159.684 231.03C159.524 231.352 159.416 231.701 159.43 232.086C159.474 233.333 160.524 234.31 161.773 234.265C163.324 234.211 164.878 234.182 166.428 234.139C166.244 234.508 166.117 234.913 166.163 235.357C166.64 240.136 167.088 244.926 167.633 249.701L163.18 245.577C161.325 243.274 159.749 240.994 158.36 238.727C158.655 231.561 158.853 224.531 158.966 217.656Z" fill="#637CC6"/>
</svg>
