<?xml version="1.0" encoding="utf-8"?>
<!-- Generator: Adobe Illustrator 16.0.0, SVG Export Plug-In . SVG Version: 6.00 Build 0)  -->
<!DOCTYPE svg PUBLIC "-//W3C//DTD SVG 1.1//EN" "http://www.w3.org/Graphics/SVG/1.1/DTD/svg11.dtd">
<svg version="1.1" id="Layer_1" xmlns="http://www.w3.org/2000/svg" xmlns:xlink="http://www.w3.org/1999/xlink" x="0px" y="0px"
	 width="257.834px" height="50.806px" viewBox="0 0 257.834 50.806" enable-background="new 0 0 257.834 50.806"
	 xml:space="preserve">
<g>
	<g>
		<path fill="#4474BA" d="M5.167,16.221c22.255,0,44.501-0.222,66.746,0.485c8.836,0.281,17.677,0.549,26.504,1.042
			c8.618,0.481,17.125-0.691,25.737-0.997c12.443-0.441,24.822,0.901,37.275,0.266c8.67-0.442,17.225,0.849,25.902,0.61
			c6.914-0.19,13.83-0.695,20.711-1.393c3.535-0.359,7.281-0.013,10.83-0.013c11.32,0,22.639,0,33.959,0c6.449,0,6.449-10,0-10
			c-12.406,0-24.811,0-37.217,0c-12.846,0-25.619,2.058-38.479,1.332c-4.043-0.229-7.986-0.79-12.053-0.69
			c-4.35,0.107-8.688,0.442-13.041,0.484c-7.123,0.068-14.219-0.628-21.338-0.688c-6.055-0.051-12.097,0.318-18.129,0.795
			c-3.792,0.3-7.636,0.75-11.443,0.467c-3.519-0.262-7.048-0.398-10.573-0.546c-9.065-0.381-18.136-0.662-27.205-0.93
			C43.972,5.872,24.556,6.221,5.167,6.221C-1.282,6.221-1.282,16.221,5.167,16.221L5.167,16.221z"/>
	</g>
</g>
<g>
	<g>
		<path fill="#4474BA" d="M33.636,43.061c24.776,0,49.591-0.4,74.313,1.64c3.902,0.322,7.753-0.231,11.636-0.606
			c6.777-0.654,13.521-0.729,20.312-0.202c5.463,0.423,10.881,0.283,16.34-0.066c4.092-0.262,7.912,0.258,11.971,0.582
			c7.939,0.634,16.18-0.302,24.055-1.347c1.604-0.213,3.381,0,4.994,0c3.736,0,7.475,0,11.211,0c6.234,0,12.467,0,18.699,0
			c2.578,0,2.578-4,0-4c-11.559,0-23.117,0-34.676,0c-2.008,0-4.096,0.463-6.092,0.663c-5.088,0.51-10.207,0.871-15.322,0.806
			c-4.219-0.054-8.33-0.959-12.563-0.823c-4.768,0.154-9.477,0.574-14.258,0.426c-7.156-0.224-14.15-0.835-21.318-0.324
			c-4.437,0.315-8.919,1.167-13.376,1.023c-8.201-0.265-16.415-0.988-24.62-1.32c-11.224-0.454-22.402-0.45-33.637-0.45
			c-5.89,0-11.779,0-17.668,0C31.057,39.061,31.057,43.061,33.636,43.061L33.636,43.061z"/>
	</g>
</g>
</svg>
