<?xml version="1.0" encoding="utf-8"?>
<!-- Generator: Adobe Illustrator 16.0.0, SVG Export Plug-In . SVG Version: 6.00 Build 0)  -->
<!DOCTYPE svg PUBLIC "-//W3C//DTD SVG 1.1//EN" "http://www.w3.org/Graphics/SVG/1.1/DTD/svg11.dtd">
<svg version="1.1" id="Layer_1" xmlns="http://www.w3.org/2000/svg" xmlns:xlink="http://www.w3.org/1999/xlink" x="0px" y="0px"
	 width="51.612px" height="221.75px" viewBox="0 0 51.612 221.75" enable-background="new 0 0 51.612 221.75" xml:space="preserve">
<g>
	<g>
		<path fill="#4474BA" d="M16.488,216.711c0-24.418-0.029-48.722,1.163-73.116c0.166-3.385,0.503-6.773,0.617-10.158
			c0.149-4.438-0.633-8.944-0.966-13.361c-0.938-12.418,0.689-24.783-0.043-37.211c-0.252-4.284,0.088-8.285,0.47-11.91
			c0.532-5.047,0.21-10.217-0.114-15.268c-0.317-4.945-1.127-9.865-1.127-14.819c0-11.876,0-23.753,0-35.63c0-6.449-10-6.449-10,0
			c0,12.121,0,24.242,0,36.363c0,5.324,0.935,10.663,1.242,15.983c0.147,2.552,0.23,5.108,0.236,7.665
			c0.002,1.187-0.03,2.373-0.083,3.559c-0.024,0.544-0.065,1.088-0.108,1.631c-0.028,0.34-0.062,0.679-0.1,1.017
			c0.081-0.559,0.074-0.502-0.022,0.167c-0.605,4.26-0.565,8.404-0.309,12.687c0.756,12.62-0.927,25.156,0.117,37.785
			c0.339,4.103,1.064,8.31,0.748,12.435c-0.272,3.546-0.465,7.096-0.634,10.648c-0.557,11.719-1.087,23.447-1.087,35.181
			c0,12.118,0,24.236,0,36.354C6.488,223.159,16.488,223.159,16.488,216.711L16.488,216.711z"/>
	</g>
</g>
<g>
	<g>
		<path fill="#4474BA" d="M42.329,199.934c0-11.711,0-23.422,0-35.134c0-5.519,0.432-11.07,0.696-16.581
			c0.377-7.847,1.488-15.742,0.607-23.566c-0.714-6.331-1.085-12.619-0.629-18.986c0.404-5.633,0.477-11.105,0.081-16.735
			c-0.29-4.126,0.466-7.981,0.675-12.074c0.257-5.049-0.233-10.161-0.777-15.177c-0.176-1.618-0.382-3.232-0.6-4.845
			c-0.039-0.292-0.08-0.585-0.122-0.877c0.146,1.007,0.068,0.297,0.068,0.023c0-2.615,0-5.229,0-7.843c0-7.208,0-14.416,0-21.624
			c0-0.538,0-1.075,0-1.612c0-2.58-4-2.58-4,0c0,5.676,0,11.353,0,17.029c0,5.005-0.591,10.403,0.115,15.373
			c0.539,3.798,0.909,7.626,1.162,11.454c0.322,4.883-0.083,9.448-0.557,14.283c-0.397,4.062,0.285,8.18,0.392,12.243
			c0.182,6.919-0.882,13.772-0.575,20.702c0.215,4.829,1.17,9.62,1.249,14.45c0.057,3.451-0.512,7.003-0.708,10.451
			c-0.439,7.673-0.764,15.354-1.062,23.033c-0.444,11.488-0.017,23.068-0.017,34.565c0,0.482,0,0.965,0,1.447
			C38.329,202.513,42.329,202.513,42.329,199.934L42.329,199.934z"/>
	</g>
</g>
</svg>
