<?xml version="1.0" encoding="utf-8"?>
<!-- Generator: Adobe Illustrator 16.0.0, SVG Export Plug-In . SVG Version: 6.00 Build 0)  -->
<!DOCTYPE svg PUBLIC "-//W3C//DTD SVG 1.1//EN" "http://www.w3.org/Graphics/SVG/1.1/DTD/svg11.dtd">
<svg version="1.1" xmlns="http://www.w3.org/2000/svg" xmlns:xlink="http://www.w3.org/1999/xlink" x="0px" y="0px"
	 width="457.635px" height="474.923px" viewBox="0 0 457.635 474.923" enable-background="new 0 0 457.635 474.923"
	 xml:space="preserve">
<g id="Layer_1">
	<g>
		<path fill="#4374BA" d="M108.195,3.268c-0.688,0.057-1.381,0.254-2.03,0.594c-2.599,1.361-3.579,4.558-2.22,7.155
			c4.615,8.774,2.238,18.345-2.405,26.622c-5.868,10.462-15.306,19.402-25.747,25.31c-0.574-2.212-1.283-4.371-2.218-6.437
			c-1.077-2.383-2.387-4.674-3.843-6.842c-1.116-1.663-2.328-3.254-3.625-4.782c-5.554-6.538-14.179-13.331-23.341-11.092
			c-1.315,0.322-2.598,0.809-3.78,1.469c-1.662,0.927-3.124,2.162-4.406,3.563c-1.68,1.835-3.096,3.97-4.155,6.217
			c-0.855,1.814-1.468,3.765-1.75,5.749c-1.799,12.662,9.196,23.472,20.403,27.123c2.313,0.754,4.723,1.256,7.155,1.373
			c3.613,0.178,7.222-0.352,10.749-1.279c-1.373,20.095-17.037,37.337-35.465,44.183c-4.148,1.541-8.425,2.496-12.81,3.03
			c-2.756,0.336-4.71,2.838-4.375,5.593c0.335,2.757,2.837,4.71,5.593,4.375c5.164-0.628,10.207-1.75,15.091-3.563
			c21.113-7.832,39.091-27.055,41.995-49.869c0.325-2.553,0.353-5.111,0.281-7.685c0.213-0.104,0.444-0.176,0.655-0.282
			c4.021-2.01,7.839-4.432,11.437-7.123c2.78-2.08,5.437-4.313,7.938-6.718c1.953-1.878,3.802-3.846,5.562-5.906
			c9.376-10.973,16.946-25.98,13.28-40.713c-0.631-2.532-1.607-4.941-2.813-7.249C112.33,4.133,110.258,3.098,108.195,3.268z
			 M47.391,43.763c1.004,0.169,1.97,0.544,2.875,1c1.19,0.6,2.301,1.362,3.344,2.188c5.436,4.299,10.093,10.862,12.062,17.529
			c0.268,0.91,0.388,1.851,0.593,2.781c-2.482,0.797-5.03,1.348-7.624,1.5c-6.57,0.385-13.406-3.267-17.248-8.53
			c-2.302-3.154-3.323-7.087-1.594-10.749C41.202,46.511,43.69,43.14,47.391,43.763z"/>
	</g>
	<g>
		<path fill="#4374BA" d="M40.111,11.642c-4.352,0.407-8.628,1.666-12.686,3.969c-4.501,2.554-8.663,6.014-11.999,9.968
			c-2.135,2.528-3.939,5.329-5.313,8.343c-7.832,17.184,0.17,36.944,11.812,50.305c1.682,1.932,3.475,3.781,5.374,5.5
			c3.461,3.133,7.251,5.855,11.437,7.938c3.244,1.611,6.671,2.871,10.187,3.748c14.935,3.735,30.218,0.322,43.806-6.625
			c-2.949,9.756-7.674,19.049-13.748,27.092c-2.736,3.627-5.752,7.039-9.029,10.187c-6.763,6.498-14.632,11.872-23.528,14.968
			c-1.312,0.457-1.988,1.906-1.532,3.219c0.457,1.311,1.876,1.986,3.188,1.529c9.581-3.335,18.053-9.092,25.341-16.091
			c12.253-11.771,21.477-27.567,25.434-44.369c5.588-3.418,10.832-7.346,15.498-11.593c3.172-2.887,6.164-5.979,8.937-9.249
			c4.433-5.228,8.399-10.932,11.248-17.186c2.185-4.79,3.685-9.887,3.594-15.185c-0.024-1.466-1.221-2.651-2.687-2.625
			c-1.467,0.026-2.65,1.252-2.625,2.718c0.084,4.5-1.242,8.841-3.094,12.905c-3.008,6.605-7.379,12.558-12.218,17.935
			c-2.751,3.058-5.694,5.941-8.812,8.625c-2.648,2.279-5.521,4.424-8.498,6.467c1.346-9.672,0.994-19.532-1.844-29.057
			c-1.275-4.278-2.959-8.455-5.22-12.312c-2.284-3.898-5.086-7.497-8.186-10.78c-2.476-2.617-5.136-5.057-7.97-7.28
			C66.854,16.758,53.166,10.423,40.111,11.642z M45.173,16.705c3.78,0.199,7.564,1.027,11.123,2.25
			c8.979,3.084,17.138,8.638,23.81,15.341c3.633,3.65,6.908,7.747,9.375,12.28c1.918,3.527,3.312,7.352,4.373,11.217
			c2.72,9.888,2.656,20.102,0.656,29.997c-13.838,8.073-30.055,12.555-45.619,8.155c-2.685-0.759-5.312-1.76-7.811-2.999
			c-4.271-2.119-8.1-5.014-11.531-8.313c-2.16-2.078-4.159-4.32-5.999-6.686c-9.123-11.739-15.37-28.433-8.342-42.684
			c1.123-2.277,2.552-4.4,4.186-6.342c2.119-2.517,4.585-4.733,7.25-6.656c2.288-1.649,4.682-3.07,7.343-4.03
			C37.591,16.936,41.393,16.505,45.173,16.705z"/>
	</g>
</g>
<g id="Layer_4">
	<g>
		<path fill="#4374BA" d="M113.352,468.09c1.205-2.308,2.182-4.717,2.813-7.248c3.666-14.733-3.904-29.74-13.28-40.713
			c-1.76-2.061-3.608-4.029-5.562-5.906c-2.502-2.405-5.158-4.639-7.938-6.719c-3.598-2.69-7.416-5.113-11.437-7.123
			c-0.211-0.105-0.442-0.178-0.655-0.281c0.071-2.574,0.044-5.133-0.281-7.686c-2.903-22.814-20.882-42.037-41.995-49.869
			c-4.884-1.813-9.927-2.936-15.091-3.563c-2.756-0.335-5.258,1.618-5.593,4.375c-0.335,2.755,1.619,5.257,4.375,5.593
			c4.385,0.534,8.662,1.489,12.81,3.03c18.428,6.846,34.092,24.088,35.465,44.183c-3.527-0.928-7.136-1.457-10.749-1.279
			c-2.432,0.117-4.842,0.619-7.155,1.373c-11.207,3.65-22.202,14.461-20.403,27.123c0.282,1.983,0.895,3.935,1.75,5.748
			c1.059,2.248,2.475,4.383,4.155,6.217c1.282,1.402,2.744,2.637,4.406,3.563c1.182,0.66,2.465,1.147,3.78,1.47
			c9.162,2.238,17.787-4.555,23.341-11.093c1.297-1.528,2.509-3.118,3.625-4.782c1.456-2.168,2.766-4.459,3.843-6.842
			c0.935-2.066,1.644-4.225,2.218-6.438c10.441,5.908,19.879,14.849,25.747,25.311c4.644,8.277,7.021,17.848,2.405,26.622
			c-1.359,2.597-0.379,5.794,2.22,7.155c0.649,0.34,1.342,0.537,2.03,0.594C110.258,471.075,112.33,470.04,113.352,468.09z
			 M39.799,424.691c-1.729-3.662-0.708-7.595,1.594-10.749c3.842-5.264,10.678-8.915,17.248-8.529
			c2.594,0.151,5.142,0.702,7.624,1.5c-0.205,0.93-0.325,1.87-0.593,2.78c-1.969,6.667-6.626,13.229-12.062,17.528
			c-1.043,0.826-2.154,1.589-3.344,2.188c-0.905,0.456-1.871,0.831-2.875,1C43.69,431.033,41.202,427.663,39.799,424.691z"/>
	</g>
	<g>
		<path fill="#4374BA" d="M76.979,449.469c2.834-2.223,5.494-4.664,7.97-7.28c3.1-3.283,5.901-6.882,8.186-10.78
			c2.261-3.857,3.944-8.033,5.22-12.313c2.838-9.524,3.189-19.385,1.844-29.057c2.977,2.043,5.85,4.188,8.498,6.467
			c3.117,2.684,6.061,5.566,8.812,8.625c4.839,5.377,9.21,11.33,12.218,17.935c1.852,4.063,3.178,8.405,3.094,12.905
			c-0.025,1.466,1.158,2.691,2.625,2.718c1.466,0.026,2.662-1.159,2.687-2.625c0.091-5.298-1.409-10.396-3.594-15.185
			c-2.849-6.254-6.815-11.959-11.248-17.187c-2.772-3.271-5.765-6.362-8.937-9.249c-4.666-4.247-9.91-8.175-15.498-11.593
			c-3.957-16.802-13.181-32.599-25.434-44.369c-7.288-6.999-15.76-12.756-25.341-16.091c-1.312-0.457-2.731,0.219-3.188,1.529
			c-0.456,1.313,0.22,2.762,1.532,3.219c8.896,3.096,16.765,8.47,23.528,14.968c3.277,3.147,6.293,6.56,9.029,10.187
			c6.074,8.043,10.799,17.336,13.748,27.092c-13.588-6.947-28.871-10.36-43.806-6.625c-3.516,0.877-6.943,2.137-10.187,3.748
			c-4.186,2.082-7.976,4.805-11.437,7.938c-1.899,1.719-3.692,3.568-5.374,5.5c-11.642,13.361-19.644,33.121-11.812,50.305
			c1.374,3.014,3.178,5.815,5.313,8.344c3.336,3.953,7.498,7.414,11.999,9.968c4.058,2.303,8.334,3.562,12.686,3.969
			C53.166,463.75,66.854,457.415,76.979,449.469z M33.987,455.937c-2.661-0.96-5.055-2.382-7.343-4.03
			c-2.665-1.923-5.131-4.139-7.25-6.656c-1.634-1.941-3.063-4.064-4.186-6.342c-7.028-14.251-0.781-30.945,8.342-42.684
			c1.84-2.365,3.839-4.607,5.999-6.686c3.431-3.299,7.26-6.193,11.531-8.313c2.499-1.239,5.126-2.24,7.811-2.999
			c15.564-4.399,31.781,0.082,45.619,8.155c2,9.895,2.063,20.108-0.656,29.996c-1.062,3.865-2.455,7.69-4.373,11.217
			c-2.467,4.533-5.742,8.631-9.375,12.281c-6.672,6.703-14.831,12.256-23.81,15.34c-3.559,1.224-7.343,2.052-11.123,2.25
			C41.393,457.668,37.591,457.237,33.987,455.937z"/>
	</g>
</g>
<g id="Layer_5">
	<g>
		<path fill="#4374BA" d="M356.43,470.905c0.688-0.057,1.381-0.254,2.03-0.594c2.599-1.361,3.579-4.559,2.22-7.155
			c-4.615-8.774-2.238-18.345,2.405-26.622c5.868-10.462,15.306-19.402,25.747-25.311c0.574,2.213,1.283,4.371,2.218,6.438
			c1.077,2.383,2.388,4.674,3.843,6.842c1.116,1.664,2.328,3.254,3.625,4.782c5.555,6.538,14.18,13.331,23.342,11.093
			c1.314-0.322,2.598-0.81,3.779-1.47c1.662-0.927,3.125-2.161,4.406-3.563c1.68-1.834,3.096-3.969,4.155-6.217
			c0.854-1.813,1.468-3.765,1.75-5.748c1.799-12.662-9.196-23.473-20.403-27.123c-2.313-0.754-4.723-1.256-7.154-1.373
			c-3.613-0.178-7.223,0.352-10.75,1.279c1.373-20.095,17.037-37.337,35.465-44.183c4.148-1.541,8.426-2.496,12.811-3.03
			c2.756-0.336,4.71-2.838,4.375-5.593c-0.335-2.757-2.837-4.71-5.593-4.375c-5.164,0.628-10.207,1.75-15.091,3.563
			c-21.113,7.832-39.092,27.055-41.995,49.869c-0.325,2.553-0.353,5.111-0.281,7.686c-0.213,0.104-0.444,0.176-0.655,0.281
			c-4.021,2.01-7.839,4.433-11.437,7.123c-2.78,2.08-5.437,4.313-7.938,6.719c-1.953,1.877-3.802,3.846-5.562,5.906
			c-9.376,10.973-16.946,25.979-13.28,40.713c0.631,2.531,1.607,4.94,2.813,7.248C352.295,470.04,354.367,471.075,356.43,470.905z
			 M417.234,430.41c-1.004-0.169-1.971-0.544-2.875-1c-1.19-0.6-2.301-1.362-3.344-2.188c-5.437-4.299-10.094-10.861-12.063-17.528
			c-0.268-0.91-0.389-1.851-0.594-2.78c2.482-0.798,5.031-1.349,7.625-1.5c6.57-0.386,13.406,3.266,17.248,8.529
			c2.302,3.154,3.322,7.087,1.594,10.749C423.423,427.663,420.936,431.033,417.234,430.41z"/>
	</g>
	<g>
		<path fill="#4374BA" d="M424.514,462.531c4.353-0.407,8.629-1.666,12.687-3.969c4.501-2.554,8.663-6.015,11.999-9.968
			c2.135-2.528,3.939-5.33,5.313-8.344c7.832-17.184-0.17-36.943-11.812-50.305c-1.683-1.932-3.476-3.781-5.374-5.5
			c-3.461-3.133-7.251-5.855-11.438-7.938c-3.244-1.611-6.671-2.871-10.187-3.748c-14.935-3.735-30.218-0.322-43.806,6.625
			c2.949-9.756,7.674-19.049,13.748-27.092c2.736-3.627,5.752-7.039,9.029-10.187c6.764-6.498,14.633-11.872,23.528-14.968
			c1.312-0.457,1.987-1.906,1.532-3.219c-0.457-1.311-1.877-1.986-3.188-1.529c-9.581,3.335-18.053,9.092-25.341,16.091
			c-12.253,11.771-21.477,27.567-25.434,44.369c-5.588,3.418-10.832,7.346-15.498,11.593c-3.172,2.887-6.164,5.979-8.937,9.249
			c-4.433,5.228-8.399,10.933-11.248,17.187c-2.185,4.789-3.685,9.887-3.594,15.185c0.024,1.466,1.221,2.651,2.687,2.625
			c1.467-0.026,2.65-1.252,2.625-2.718c-0.084-4.5,1.242-8.842,3.094-12.905c3.008-6.604,7.379-12.558,12.218-17.935
			c2.751-3.059,5.694-5.941,8.812-8.625c2.648-2.279,5.521-4.424,8.498-6.467c-1.346,9.672-0.994,19.532,1.844,29.057
			c1.275,4.279,2.959,8.455,5.22,12.313c2.284,3.898,5.086,7.497,8.186,10.78c2.476,2.616,5.136,5.058,7.97,7.28
			C397.771,457.415,411.459,463.75,424.514,462.531z M419.452,457.467c-3.78-0.198-7.563-1.026-11.123-2.25
			c-8.979-3.084-17.138-8.637-23.81-15.34c-3.633-3.65-6.908-7.748-9.375-12.281c-1.918-3.526-3.312-7.352-4.373-11.217
			c-2.72-9.888-2.656-20.102-0.656-29.996c13.838-8.073,30.055-12.555,45.619-8.155c2.685,0.759,5.312,1.76,7.811,2.999
			c4.271,2.119,8.1,5.014,11.531,8.313c2.16,2.078,4.158,4.32,5.999,6.686c9.123,11.738,15.37,28.433,8.342,42.684
			c-1.123,2.277-2.552,4.4-4.187,6.342c-2.119,2.518-4.584,4.733-7.25,6.656c-2.287,1.648-4.682,3.07-7.342,4.03
			C427.034,457.237,423.232,457.668,419.452,457.467z"/>
	</g>
</g>
<g id="Layer_2">
	<g>
		<path fill="#4374BA" d="M351.273,6.083c-1.205,2.308-2.182,4.717-2.813,7.248c-3.666,14.733,3.904,29.74,13.28,40.713
			c1.76,2.061,3.608,4.029,5.562,5.906c2.502,2.405,5.158,4.639,7.938,6.719c3.598,2.69,7.416,5.113,11.437,7.123
			c0.211,0.105,0.442,0.178,0.655,0.281c-0.071,2.574-0.044,5.133,0.281,7.686c2.903,22.814,20.882,42.037,41.995,49.869
			c4.884,1.813,9.927,2.936,15.091,3.563c2.756,0.335,5.258-1.618,5.593-4.375c0.335-2.755-1.619-5.257-4.375-5.593
			c-4.385-0.534-8.662-1.489-12.811-3.03c-18.428-6.846-34.092-24.088-35.465-44.183c3.527,0.928,7.137,1.457,10.75,1.279
			c2.432-0.117,4.842-0.619,7.154-1.373c11.207-3.65,22.202-14.461,20.403-27.123c-0.282-1.983-0.896-3.935-1.75-5.748
			c-1.06-2.248-2.476-4.383-4.155-6.217c-1.281-1.402-2.744-2.637-4.406-3.563c-1.182-0.66-2.465-1.147-3.779-1.47
			c-9.162-2.238-17.787,4.555-23.342,11.093c-1.297,1.528-2.509,3.118-3.625,4.782c-1.455,2.168-2.766,4.459-3.843,6.842
			c-0.935,2.066-1.644,4.225-2.218,6.438c-10.441-5.908-19.879-14.849-25.747-25.311c-4.644-8.277-7.021-17.848-2.405-26.622
			c1.359-2.597,0.379-5.794-2.22-7.155c-0.649-0.34-1.342-0.537-2.03-0.594C354.367,3.098,352.295,4.133,351.273,6.083z
			 M424.826,49.482c1.729,3.662,0.708,7.595-1.594,10.749c-3.842,5.264-10.678,8.915-17.248,8.529
			c-2.594-0.151-5.143-0.702-7.625-1.5c0.205-0.93,0.326-1.87,0.594-2.78c1.969-6.667,6.626-13.229,12.063-17.528
			c1.043-0.826,2.153-1.589,3.344-2.188c0.904-0.456,1.871-0.831,2.875-1C420.936,43.14,423.423,46.51,424.826,49.482z"/>
	</g>
	<g>
		<path fill="#4374BA" d="M387.646,24.704c-2.834,2.223-5.494,4.664-7.97,7.28c-3.1,3.283-5.901,6.882-8.186,10.78
			c-2.261,3.857-3.944,8.033-5.22,12.313c-2.838,9.524-3.189,19.385-1.844,29.057c-2.977-2.043-5.85-4.188-8.498-6.467
			c-3.117-2.684-6.061-5.566-8.812-8.625c-4.839-5.377-9.21-11.33-12.218-17.935c-1.852-4.063-3.178-8.405-3.094-12.905
			c0.025-1.466-1.158-2.691-2.625-2.718c-1.466-0.026-2.662,1.159-2.687,2.625c-0.091,5.298,1.409,10.396,3.594,15.185
			c2.849,6.254,6.815,11.959,11.248,17.187c2.772,3.271,5.765,6.362,8.937,9.249c4.666,4.247,9.91,8.175,15.498,11.593
			c3.957,16.802,13.181,32.599,25.434,44.369c7.288,6.999,15.76,12.756,25.341,16.091c1.312,0.457,2.731-0.219,3.188-1.529
			c0.455-1.313-0.221-2.762-1.532-3.219c-8.896-3.096-16.765-8.47-23.528-14.968c-3.277-3.147-6.293-6.56-9.029-10.187
			c-6.074-8.043-10.799-17.336-13.748-27.092c13.588,6.947,28.871,10.36,43.806,6.625c3.516-0.877,6.942-2.137,10.187-3.748
			c4.187-2.082,7.977-4.805,11.438-7.938c1.898-1.719,3.691-3.568,5.374-5.5c11.642-13.361,19.644-33.121,11.812-50.305
			c-1.373-3.014-3.178-5.815-5.313-8.344c-3.336-3.953-7.498-7.414-11.999-9.968c-4.058-2.303-8.334-3.562-12.687-3.969
			C411.459,10.422,397.771,16.758,387.646,24.704z M430.639,18.236c2.66,0.96,5.055,2.382,7.342,4.03
			c2.666,1.923,5.131,4.139,7.25,6.656c1.635,1.941,3.063,4.064,4.187,6.342c7.028,14.251,0.781,30.945-8.342,42.684
			c-1.841,2.365-3.839,4.607-5.999,6.686c-3.432,3.299-7.26,6.193-11.531,8.313c-2.499,1.239-5.126,2.24-7.811,2.999
			c-15.564,4.399-31.781-0.082-45.619-8.155c-2-9.895-2.063-20.108,0.656-29.996c1.062-3.865,2.455-7.69,4.373-11.217
			c2.467-4.533,5.742-8.631,9.375-12.281c6.672-6.703,14.83-12.256,23.81-15.34c3.56-1.224,7.343-2.052,11.123-2.25
			C423.232,16.504,427.034,16.936,430.639,18.236z"/>
	</g>
</g>
<g id="Layer_3">
	<g>
		<g>
			<path fill="#4374BA" d="M107,12.769c22.255,0,44.501-0.222,66.746,0.485c8.836,0.281,17.678,0.549,26.505,1.042
				c8.617,0.481,17.124-0.691,25.737-0.997c12.443-0.441,24.822,0.901,37.276,0.266c8.67-0.442,17.224,0.849,25.902,0.61
				c6.913-0.19,13.83-0.695,20.71-1.393c3.536-0.359,7.281-0.013,10.83-0.013c11.32,0,22.64,0,33.96,0c6.448,0,6.448-10,0-10
				c-12.406,0-24.812,0-37.218,0c-12.845,0-25.618,2.058-38.478,1.332c-4.044-0.229-7.987-0.79-12.053-0.69
				c-4.351,0.107-8.688,0.442-13.042,0.484c-7.123,0.068-14.218-0.628-21.338-0.688c-6.055-0.051-12.098,0.318-18.13,0.795
				c-3.792,0.3-7.637,0.75-11.443,0.467c-3.519-0.262-7.048-0.398-10.572-0.546c-9.065-0.381-18.136-0.662-27.205-0.93
				C145.806,2.42,126.39,2.769,107,2.769C100.552,2.769,100.552,12.769,107,12.769L107,12.769z"/>
		</g>
	</g>
	<g>
		<g>
			<path fill="#4374BA" d="M135.47,39.61c24.776,0,49.591-0.4,74.313,1.64c3.901,0.322,7.753-0.231,11.636-0.606
				c6.778-0.654,13.521-0.729,20.313-0.203c5.463,0.423,10.882,0.283,16.341-0.066c4.091-0.262,7.912,0.258,11.97,0.582
				c7.939,0.633,16.179-0.302,24.055-1.346c1.604-0.213,3.381,0,4.994,0c3.737,0,7.475,0,11.212,0c6.233,0,12.466,0,18.698,0
				c2.579,0,2.579-4,0-4c-11.559,0-23.116,0-34.675,0c-2.009,0-4.096,0.463-6.093,0.663c-5.087,0.51-10.206,0.871-15.321,0.805
				c-4.22-0.054-8.33-0.959-12.563-0.823c-4.768,0.154-9.478,0.575-14.258,0.426c-7.156-0.223-14.151-0.834-21.319-0.324
				c-4.437,0.316-8.92,1.167-13.376,1.023c-8.201-0.264-16.415-0.988-24.621-1.32c-11.224-0.454-22.401-0.45-33.637-0.45
				c-5.889,0-11.778,0-17.668,0C132.891,35.61,132.891,39.61,135.47,39.61L135.47,39.61z"/>
		</g>
	</g>
	<g>
		<g>
			<path fill="#4374BA" d="M22.295,342.211c0-24.418-0.029-48.723,1.163-73.117c0.166-3.385,0.503-6.772,0.617-10.158
				c0.149-4.438-0.633-8.944-0.966-13.361c-0.938-12.418,0.689-24.782-0.043-37.211c-0.252-4.283,0.088-8.285,0.47-11.91
				c0.532-5.047,0.21-10.218-0.114-15.268c-0.317-4.945-1.127-9.865-1.127-14.819c0-11.877,0-23.753,0-35.63c0-6.448-10-6.448-10,0
				c0,12.121,0,24.242,0,36.363c0,5.324,0.935,10.663,1.242,15.982c0.147,2.553,0.23,5.108,0.236,7.666
				c0.002,1.187-0.03,2.373-0.083,3.559c-0.024,0.544-0.065,1.088-0.108,1.631c-0.028,0.339-0.062,0.678-0.1,1.017
				c0.081-0.559,0.074-0.503-0.022,0.167c-0.605,4.26-0.565,8.404-0.309,12.687c0.756,12.62-0.927,25.155,0.117,37.784
				c0.339,4.103,1.064,8.31,0.748,12.435c-0.272,3.547-0.465,7.097-0.634,10.649c-0.557,11.719-1.087,23.446-1.087,35.18
				c0,12.118,0,24.237,0,36.355C12.295,348.66,22.295,348.66,22.295,342.211L22.295,342.211z"/>
		</g>
	</g>
	<g>
		<g>
			<path fill="#4374BA" d="M48.136,325.434c0-11.711,0-23.422,0-35.134c0-5.52,0.432-11.071,0.697-16.582
				c0.377-7.847,1.488-15.742,0.606-23.566c-0.713-6.33-1.084-12.618-0.628-18.985c0.403-5.633,0.477-11.104,0.081-16.735
				c-0.29-4.126,0.466-7.981,0.674-12.074c0.257-5.05-0.233-10.161-0.777-15.177c-0.175-1.618-0.381-3.232-0.599-4.845
				c-0.04-0.293-0.081-0.585-0.123-0.877c0.146,1.007,0.068,0.297,0.068,0.022c0-2.614,0-5.229,0-7.843c0-7.208,0-14.416,0-21.624
				c0-0.537,0-1.074,0-1.611c0-2.579-4-2.579-4,0c0,5.676,0,11.353,0,17.028c0,5.006-0.59,10.404,0.115,15.373
				c0.539,3.799,0.91,7.627,1.163,11.454c0.322,4.884-0.083,9.449-0.556,14.283c-0.397,4.062,0.285,8.181,0.391,12.242
				c0.182,6.919-0.882,13.772-0.575,20.702c0.214,4.829,1.169,9.621,1.249,14.451c0.057,3.451-0.511,7.002-0.708,10.45
				c-0.438,7.674-0.763,15.354-1.061,23.034c-0.445,11.488-0.017,23.068-0.017,34.565c0,0.482,0,0.965,0,1.447
				C44.136,328.013,48.136,328.013,48.136,325.434L48.136,325.434z"/>
		</g>
	</g>
	<g>
		<g>
			<path fill="#4374BA" d="M451.81,342.211c0-24.418,0.029-48.723-1.163-73.117c-0.165-3.385-0.503-6.772-0.616-10.158
				c-0.15-4.438,0.633-8.944,0.966-13.361c0.938-12.418-0.688-24.782,0.043-37.211c0.107-1.822,0.18-3.644,0.144-5.469
				c-0.019-0.963-0.089-1.924-0.177-2.883c-0.048-0.521-0.116-1.041-0.184-1.562c-0.08-0.625-0.165-1.249-0.256-1.873
				c0.074,0.544,0.075,0.502,0.003-0.124c-0.532-5.047-0.211-10.218,0.113-15.268c0.317-4.945,1.127-9.865,1.127-14.819
				c0-11.877,0-23.753,0-35.63c0-6.448-10-6.448-10,0c0,12.121,0,24.242,0,36.363c0,5.324-0.936,10.663-1.242,15.982
				c-0.552,9.558,0.943,17.414,0.386,26.726c-0.756,12.62,0.927,25.155-0.116,37.784c-0.34,4.103-1.064,8.31-0.748,12.435
				c0.272,3.547,0.465,7.097,0.634,10.649c0.557,11.719,1.087,23.446,1.087,35.18c0,12.118,0,24.237,0,36.355
				C441.81,348.66,451.81,348.66,451.81,342.211L451.81,342.211z"/>
		</g>
	</g>
	<g>
		<g>
			<path fill="#4374BA" d="M419.969,325.434c0-11.711,0-23.422,0-35.134c0-5.52-0.433-11.071-0.696-16.582
				c-0.377-7.847-1.488-15.742-0.607-23.566c0.713-6.33,1.084-12.618,0.629-18.985c-0.404-5.633-0.477-11.104-0.081-16.735
				c0.29-4.127-0.466-7.982-0.675-12.074c-0.256-5.05,0.233-10.161,0.777-15.177c1.264-11.642,0.653-23.456,0.653-35.166
				c0-0.537,0-1.074,0-1.611c0-2.579-4-2.579-4,0c0,5.676,0,11.353,0,17.028c0,3.644,0,7.287,0,10.931c0,0.991,0,1.983,0,2.975
				c0,1.255,0.152-0.496-0.022,0.769c-0.559,4.035-0.986,8.089-1.255,12.153c-0.322,4.883,0.083,9.45,0.556,14.283
				c0.398,4.062-0.284,8.181-0.391,12.242c-0.182,6.919,0.883,13.772,0.574,20.702c-0.214,4.829-1.169,9.621-1.248,14.451
				c-0.057,3.451,0.512,7.002,0.709,10.45c0.438,7.674,0.763,15.354,1.061,23.034c0.444,11.488,0.017,23.068,0.017,34.565
				c0,0.482,0,0.965,0,1.447C415.969,328.013,419.969,328.013,419.969,325.434L419.969,325.434z"/>
		</g>
	</g>
	<g>
		<g>
			<path fill="#4374BA" d="M107,473.924c22.255,0,44.501,0.221,66.746-0.486c8.836-0.279,17.678-0.549,26.505-1.041
				c8.617-0.482,17.124,0.691,25.737,0.996c12.443,0.441,24.822-0.9,37.276-0.266c8.67,0.443,17.224-0.848,25.902-0.609
				c6.913,0.189,13.83,0.695,20.71,1.393c3.536,0.359,7.281,0.014,10.83,0.014c11.32,0,22.64,0,33.96,0c6.448,0,6.448-10,0-10
				c-12.406,0-24.812,0-37.218,0c-12.845,0-25.618-2.059-38.478-1.332c-4.044,0.229-7.987,0.79-12.053,0.689
				c-4.351-0.107-8.688-0.441-13.042-0.483c-7.123-0.067-14.218,0.628-21.338,0.688c-6.055,0.051-12.098-0.318-18.13-0.795
				c-3.792-0.301-7.637-0.75-11.443-0.467c-3.519,0.262-7.048,0.397-10.572,0.546c-9.065,0.381-18.136,0.662-27.205,0.931
				c-19.383,0.571-38.799,0.223-58.188,0.223C100.552,463.924,100.552,473.924,107,473.924L107,473.924z"/>
		</g>
	</g>
	<g>
		<g>
			<path fill="#4374BA" d="M135.47,441.083c24.776,0,49.591,0.4,74.313-1.639c3.901-0.322,7.753,0.23,11.636,0.605
				c6.778,0.654,13.521,0.729,20.313,0.203c5.463-0.423,10.882-0.283,16.341,0.066c4.091,0.262,7.912-0.258,11.97-0.582
				c7.939-0.633,16.179,0.302,24.055,1.346c1.604,0.213,3.381,0,4.994,0c3.737,0,7.475,0,11.212,0c6.233,0,12.466,0,18.698,0
				c2.579,0,2.579-4,0-4c-11.559,0-23.116,0-34.675,0c-2.009,0-4.096-0.463-6.093-0.662c-5.087-0.51-10.206-0.871-15.321-0.806
				c-4.22,0.054-8.331,0.96-12.563,0.823c-4.768-0.154-9.478-0.574-14.258-0.426c-7.156,0.223-14.151,0.834-21.319,0.324
				c-4.437-0.316-8.92-1.167-13.376-1.023c-8.201,0.264-16.415,0.988-24.621,1.32c-11.224,0.453-22.401,0.449-33.637,0.449
				c-5.889,0-11.778,0-17.668,0C132.891,437.083,132.891,441.083,135.47,441.083L135.47,441.083z"/>
		</g>
	</g>
</g>
</svg>
