<?xml version="1.0" encoding="utf-8"?>
<!-- Generator: Adobe Illustrator 16.0.0, SVG Export Plug-In . SVG Version: 6.00 Build 0)  -->
<!DOCTYPE svg PUBLIC "-//W3C//DTD SVG 1.1//EN" "http://www.w3.org/Graphics/SVG/1.1/DTD/svg11.dtd">
<svg version="1.1" id="Layer_1" xmlns="http://www.w3.org/2000/svg" xmlns:xlink="http://www.w3.org/1999/xlink" x="0px" y="0px"
	 width="86.354px" height="85.032px" viewBox="0 0 86.354 85.032" enable-background="new 0 0 86.354 85.032" xml:space="preserve">
<g>
	<g>
		<path fill="#010101" d="M42.242,11.136c-0.756,0.053-1.318,0.71-1.266,1.464c0.319,4.609,0.482,9.226,0.572,13.844
			c0.143,7.319,0.104,14.635,0.324,21.952c0.118,4,0.336,8,0.668,11.988c0.067,0.797,0.77,1.389,1.566,1.322
			c0.796-0.066,1.385-0.77,1.316-1.566c-1.343-15.877-0.605-31.841-1.719-47.732C43.652,11.653,42.995,11.083,42.242,11.136z"/>
	</g>
	<g>
		<path fill="#010101" d="M42.91,10.875c-0.53-0.056-1.064,0.201-1.338,0.698c-0.365,0.662-0.124,1.496,0.539,1.861
			c0.619,0.337,0.945,1.195,1.18,1.816c0.568,1.512,0.79,3.138,1.186,4.698c0.277,1.096,0.579,2.185,0.862,3.279
			c0.683,2.636,1.333,5.29,1.781,7.977c0.187,1.124,0.354,2.264,0.382,3.404c0.01,0.491,0.02,1.028-0.131,1.503
			c-0.154,0.48-0.53,0.886-0.868,1.243c-0.361,0.38-0.748,0.736-1.118,1.106c-0.564,0.566-0.562,1.484,0.006,2.048
			c0.566,0.564,1.477,0.56,2.042-0.006c1.04-1.047,2.215-2.055,2.683-3.506c0.255-0.787,0.282-1.639,0.262-2.457
			c-0.029-1.142-0.178-2.284-0.363-3.41c-0.457-2.782-1.15-5.521-1.877-8.244c-0.347-1.298-0.733-2.588-1.057-3.892
			c-0.452-1.832-0.738-3.729-1.532-5.458c-0.465-1.019-1.12-1.942-2.115-2.497C43.268,10.948,43.088,10.894,42.91,10.875z"/>
	</g>
	<g>
		<path fill="#010101" d="M46.389,41.207c-0.75,0.092-1.283,0.776-1.191,1.526c0.283,2.328,0.484,4.672,0.623,7.013
			c0.123,2.061,0.201,4.125,0.165,6.19c-0.017,0.959-0.051,1.926-0.182,2.877c-0.038,0.279-0.087,0.561-0.157,0.834
			c-0.027,0.102-0.055,0.201-0.092,0.301c-0.01,0.029-0.02,0.047-0.029,0.068c-0.008,0.002-0.016,0.008-0.045,0.016
			c-0.112,0.029-0.131,0.035-0.243,0.051c-0.224,0.033-0.446,0.043-0.67,0.063c-0.795,0.076-1.38,0.783-1.306,1.578
			c0.076,0.795,0.783,1.381,1.578,1.305c0.693-0.066,1.395-0.129,2.026-0.453c0.44-0.229,0.817-0.563,1.082-0.982
			c0.237-0.375,0.38-0.805,0.488-1.23c0.19-0.744,0.272-1.518,0.329-2.281c0.027-0.342,0.045-0.68,0.058-1.021
			c0.087-2.498-0.053-5.004-0.232-7.495c-0.175-2.391-0.382-4.786-0.675-7.166C47.822,41.647,47.139,41.114,46.389,41.207z"/>
	</g>
	<g>
		<path fill="#010101" d="M52.687,12.055c-0.753-0.064-1.412,0.495-1.476,1.248c-0.26,3.051-0.369,6.129-0.147,9.186
			c0.144,1.971,0.407,3.984,1.106,5.844c0.203,0.537,0.43,1.095,0.771,1.56c0.299,0.406,0.688,0.733,1.107,1.01
			c0.366,0.242,0.759,0.441,1.15,0.635c0.262,0.129,0.536,0.253,0.771,0.426c0.01,0.028,0.016,0.056,0.023,0.085
			c0.031,0.121,0.059,0.24,0.078,0.363c0.059,0.331,0.094,0.669,0.121,1.004c0.09,1.112,0.1,2.227,0.096,3.342
			c-0.006,1.63-0.059,3.262-0.107,4.891c-0.031,0.98-0.062,1.964-0.068,2.945c-0.004,0.711,0.021,1.421,0,2.133
			c-0.059,1.953-0.219,3.898-0.289,5.849c-0.078,2.123-0.107,4.281,0.243,6.383c0.214,1.279,0.583,2.561,1.345,3.625
			c0.465,0.65,1.371,0.795,2.02,0.33c0.65-0.467,0.795-1.365,0.33-2.014c-0.617-0.854-0.811-2.023-0.937-3.041
			c-0.243-1.973-0.185-3.979-0.097-5.959c0.076-1.697,0.205-3.394,0.249-5.093c0.021-0.734-0.013-1.468-0.011-2.201
			c0.004-0.85,0.029-1.694,0.051-2.542c0.042-1.642,0.084-3.288,0.086-4.931c0.002-1.217-0.014-2.434-0.102-3.648
			c-0.035-0.475-0.084-0.948-0.16-1.418c-0.127-0.799-0.348-1.596-0.97-2.156c-0.511-0.459-1.163-0.714-1.771-1.021
			c-0.315-0.16-0.633-0.333-0.884-0.584c-0.085-0.084-0.138-0.206-0.188-0.307c-0.069-0.139-0.127-0.271-0.188-0.414
			c-0.314-0.761-0.514-1.565-0.67-2.372c-0.184-0.965-0.294-1.942-0.369-2.922c-0.217-2.913-0.108-5.848,0.137-8.754
			C54.005,12.783,53.44,12.119,52.687,12.055z"/>
	</g>
	<g>
		<path fill="#010101" d="M61.26,11.04c-0.795,0.083-1.371,0.794-1.289,1.588c0.156,1.49,0.447,2.958,0.737,4.426
			c0.329,1.656,0.665,3.31,0.902,4.981c0.239,1.687,0.416,3.434,0.177,5.129c-0.061,0.433-0.151,0.861-0.289,1.276
			c-0.025,0.075-0.053,0.153-0.08,0.227c-0.006,0.015-0.01,0.018-0.017,0.029c-0.005,0.005-0.023,0.018-0.019,0.017
			c-0.413,0.269-0.918,0.377-1.348,0.619c-0.531,0.296-0.978,0.744-1.176,1.328c-0.082,0.238-0.105,0.494-0.113,0.743
			c-0.02,0.62,0.043,1.245,0.103,1.861c0.077,0.802,0.177,1.6,0.278,2.4c0.301,2.404,0.65,4.803,0.969,7.206
			c0.115,0.854,0.229,1.707,0.324,2.564c0.068,0.612,0.127,1.227,0.131,1.844c0.016,3.146,0.119,6.304-0.199,9.441
			c-0.081,0.805-0.182,1.619-0.396,2.4c-0.064,0.229-0.172,0.639-0.353,0.822c-0.522,0.547-0.501,1.412,0.046,1.934
			c0.546,0.523,1.412,0.502,1.935-0.045c0.521-0.551,0.81-1.26,1.01-1.98c0.227-0.818,0.353-1.664,0.448-2.508
			c0.357-3.131,0.3-6.307,0.272-9.452c-0.004-0.448,0.003-0.897-0.023-1.345c-0.08-1.35-0.265-2.698-0.437-4.04
			c-0.244-1.909-0.504-3.816-0.75-5.725c-0.154-1.208-0.305-2.418-0.418-3.631c-0.037-0.394-0.073-0.79-0.092-1.186
			c-0.004-0.075-0.004-0.146-0.006-0.222c0.046-0.018,0.094-0.034,0.137-0.051c0.194-0.076,0.389-0.146,0.579-0.232
			c0.509-0.232,0.98-0.541,1.333-0.982c0.416-0.523,0.617-1.182,0.777-1.821c0.212-0.84,0.307-1.706,0.341-2.57
			c0.051-1.357-0.062-2.718-0.239-4.063c-0.244-1.857-0.613-3.695-0.975-5.532c-0.273-1.382-0.549-2.763-0.692-4.165
			C62.766,11.533,62.053,10.957,61.26,11.04z"/>
	</g>
	<g>
		<path fill="#010101" d="M55.336,12.236c-0.748,0.114-1.26,0.813-1.146,1.561c0.189,1.26,0.331,2.524,0.42,3.796
			c0.113,1.602,0.169,3.208,0.256,4.811c0.053,0.986,0.127,1.972,0.203,2.956c0.066,0.796,0.76,1.386,1.555,1.322
			c0.797-0.064,1.393-0.759,1.329-1.555c-0.327-3.917-0.46-7.854-1.057-11.745C56.783,12.635,56.084,12.123,55.336,12.236z"/>
	</g>
	<g>
		<path fill="#010101" d="M58.383,11.981c-0.746,0.115-1.262,0.813-1.146,1.56c0.641,4.192,1.297,8.401,1.316,12.653
			c0.006,0.798,0.659,1.44,1.458,1.435s1.442-0.654,1.437-1.453c-0.012-1.106-0.051-2.216-0.143-3.319
			c-0.273-3.266-0.857-6.5-1.361-9.736C59.828,12.375,59.131,11.866,58.383,11.981z"/>
	</g>
	<g>
		<path fill="#010101" d="M37.912,15.686c-3.213,0.631-6.305,1.755-9.146,3.388c-7.379,4.238-12.66,11.558-14.292,19.915
			c-0.592,3.028-0.699,6.151-0.336,9.213c0.383,3.216,1.299,6.367,2.707,9.283c1.577,3.27,3.768,6.24,6.418,8.721
			c2.771,2.596,6.04,4.654,9.588,6.014c3.529,1.354,7.312,2.006,11.092,1.941c3.598-0.064,7.188-0.789,10.524-2.141
			c2.785-1.127,5.394-2.688,7.711-4.602c3.402-2.811,6.16-6.381,8.011-10.387c2.815-6.096,3.453-13.152,1.775-19.654
			c-0.906-3.517-2.457-6.811-4.55-9.776c-0.437-0.618-1.289-0.771-1.907-0.334c-0.617,0.436-0.764,1.294-0.328,1.912
			c1.967,2.786,3.414,5.896,4.216,9.214c1.268,5.245,0.911,10.85-1.027,15.887c-1.749,4.541-4.767,8.572-8.618,11.545
			c-2.102,1.621-4.447,2.93-6.933,3.859c-3.069,1.146-6.337,1.713-9.612,1.684c-3.332-0.029-6.657-0.688-9.747-1.939
			c-3.247-1.316-6.222-3.275-8.715-5.736c-2.388-2.357-4.33-5.162-5.685-8.232c-1.186-2.688-1.916-5.568-2.162-8.494
			c-0.251-2.995-0.002-6.037,0.75-8.947c1.786-6.917,6.367-12.889,12.56-16.442c2.569-1.474,5.36-2.478,8.261-3.047
			c0.785-0.154,1.295-0.918,1.143-1.702C39.455,16.043,38.695,15.532,37.912,15.686z"/>
	</g>
	<g>
		<path fill="#010101" d="M40.381,23.459c-2.365,0.325-4.66,1.008-6.798,2.077c-4.657,2.328-8.386,6.359-10.333,11.189
			c-0.814,2.026-1.317,4.177-1.486,6.354c-0.172,2.246,0.008,4.518,0.533,6.707c0.6,2.486,1.652,4.861,3.087,6.978
			c1.542,2.275,3.519,4.25,5.8,5.787c2.316,1.561,4.934,2.664,7.67,3.223c2.963,0.605,6.059,0.574,9.012-0.086
			c2.272-0.506,4.455-1.393,6.445-2.604c0.85-0.518,1.65-1.098,2.427-1.719c0.394-0.314,0.462-0.889,0.147-1.283
			c-0.314-0.393-0.889-0.461-1.282-0.146c-0.718,0.572-1.456,1.111-2.24,1.588c-1.821,1.107-3.821,1.92-5.901,2.383
			c-2.701,0.602-5.527,0.619-8.238,0.063c-2.604-0.533-5.086-1.605-7.263-3.131c-2.058-1.441-3.833-3.279-5.204-5.385
			c-1.214-1.867-2.102-3.938-2.619-6.105c-0.454-1.899-0.617-3.866-0.494-5.814c0.416-6.621,4.238-12.647,10.031-15.87
			c2.16-1.203,4.52-1.958,6.967-2.292c0.527-0.072,0.9-0.562,0.83-1.089C41.397,23.754,40.907,23.387,40.381,23.459z"/>
	</g>
</g>
</svg>
