<?xml version="1.0" encoding="utf-8"?>
<!-- Generator: Adobe Illustrator 16.0.0, SVG Export Plug-In . SVG Version: 6.00 Build 0)  -->
<!DOCTYPE svg PUBLIC "-//W3C//DTD SVG 1.1//EN" "http://www.w3.org/Graphics/SVG/1.1/DTD/svg11.dtd">
<svg version="1.1" id="Layer_1" xmlns="http://www.w3.org/2000/svg" xmlns:xlink="http://www.w3.org/1999/xlink" x="0px" y="0px"
	 width="86.354px" height="85.032px" viewBox="0 0 86.354 85.032" enable-background="new 0 0 86.354 85.032" xml:space="preserve">
<g>
	<g>
		<path fill="#4374BA" d="M44.858,25.024c0.531-0.982,1.133-1.919,1.805-2.811c0.691-0.994-0.442-2.005-1.412-1.836
			c-15.958,2.78-24.311,19.736-17.156,34.17c7.632,15.396,29.055,15.78,39.229,3.137c0.591-0.733,0.33-2.273-0.884-2.134
			C49.503,57.495,37.147,40.49,44.858,25.024c0.717-1.438-1.439-2.705-2.159-1.262C34.246,40.719,47.454,60.23,66.44,58.05
			c-0.295-0.711-0.589-1.423-0.884-2.134c-9.655,11.998-27.625,10.779-35.303-2.632c-7.355-12.847,2.052-28.125,15.662-30.496
			c-0.471-0.612-0.941-1.225-1.412-1.836c-0.672,0.892-1.273,1.829-1.805,2.811C41.878,25.154,44.039,26.411,44.858,25.024
			L44.858,25.024z"/>
	</g>
</g>
<g>
	<g>
		<path fill="#4374BA" d="M34.773,44.553c0.057,0.003,0.035,0.108,0.051,0.162c0.044,0.146,0.08,0.295,0.102,0.443
			c0.064,0.406,0.044,1.186-0.544,1.164c-0.46-0.018-0.837-0.43-1.066-0.789c-0.053-0.082-0.108-0.181-0.154-0.268
			c-0.023-0.049-0.114-0.118-0.066-0.146c-0.08-0.182-0.002,0-0.08-0.182c-0.198-0.463-0.733-0.68-1.196-0.482
			c-0.465,0.197-0.682,0.734-0.483,1.197c0.429,1.008,1.113,1.959,2.173,2.36c0.302,0.114,0.625,0.178,0.948,0.176
			c1.465-0.011,2.388-1.251,2.416-2.638c0.015-0.648-0.148-1.271-0.374-1.872c-0.142-0.374-0.486-0.61-0.862-0.625
			c-0.125-0.005-0.256,0.015-0.381,0.062c-0.497,0.189-0.744,0.75-0.556,1.25"/>
	</g>
</g>
<g>
	<g>
		<path fill="#4374BA" d="M41.757,43.003c0.057,0.003,0.035,0.109,0.052,0.163c0.043,0.146,0.085,0.289,0.106,0.438
			c0.063,0.407,0.038,1.186-0.55,1.163c-0.459-0.018-0.837-0.424-1.065-0.783c-0.053-0.083-0.104-0.18-0.149-0.268
			c-0.023-0.049-0.12-0.118-0.072-0.147c-0.08-0.182-0.004,0-0.08-0.182c-0.198-0.463-0.733-0.679-1.196-0.483
			c-0.465,0.198-0.681,0.733-0.483,1.198c0.429,1.008,1.118,1.959,2.179,2.36c0.302,0.114,0.619,0.173,0.942,0.171
			c1.465-0.012,2.394-1.248,2.421-2.633c0.016-0.648-0.148-1.271-0.373-1.874c-0.143-0.373-0.493-0.609-0.868-0.624
			c-0.126-0.005-0.257,0.015-0.382,0.063c-0.497,0.188-0.744,0.744-0.556,1.242"/>
	</g>
</g>
<g>
	<polygon fill="#4374BA" points="14.092,31.761 13.138,29.832 11.011,29.522 12.55,28.021 12.187,25.9 14.092,26.901 15.997,25.9 
		15.631,28.021 17.173,29.522 15.043,29.832 	"/>
	<g>
		<path fill="#4374BA" d="M15.172,31.13c-0.335-0.678-0.608-1.64-1.15-2.182c-0.593-0.593-1.903-0.518-2.678-0.631
			c0.184,0.697,0.368,1.393,0.551,2.089c0.565-0.551,1.642-1.257,1.861-2.053c0.218-0.795-0.228-1.995-0.363-2.786
			c-0.612,0.471-1.225,0.941-1.836,1.412c0.705,0.37,1.71,1.171,2.536,1.171s1.831-0.801,2.535-1.171
			c-0.612-0.471-1.224-0.941-1.836-1.412c-0.136,0.791-0.583,1.991-0.365,2.786c0.219,0.797,1.298,1.502,1.864,2.053
			c0.184-0.696,0.368-1.393,0.551-2.089c-0.732,0.106-1.777,0.054-2.428,0.435c-0.717,0.42-1.052,1.673-1.4,2.378
			c-0.71,1.44,1.446,2.708,2.159,1.262c0.317-0.643,0.634-1.286,0.951-1.929c-0.249,0.191-0.498,0.383-0.747,0.575
			c0.71-0.103,1.42-0.206,2.13-0.309c0.956-0.139,1.165-1.492,0.551-2.089c-0.514-0.501-1.028-1.001-1.542-1.502
			c0.107,0.405,0.214,0.811,0.322,1.216c0.122-0.707,0.243-1.414,0.365-2.121c0.185-1.075-0.808-1.953-1.836-1.412
			c-0.635,0.334-1.27,0.667-1.904,1.001c0.42,0,0.841,0,1.262,0c-0.635-0.333-1.27-0.667-1.905-1.001
			c-1.029-0.541-2.021,0.337-1.836,1.412c0.121,0.707,0.242,1.414,0.363,2.121c0.107-0.406,0.214-0.811,0.322-1.216
			c-0.513,0.5-1.026,1.001-1.539,1.502c-0.612,0.598-0.405,1.95,0.551,2.089c0.709,0.103,1.418,0.206,2.127,0.309
			c-0.249-0.192-0.498-0.383-0.747-0.575c0.318,0.643,0.636,1.286,0.954,1.929C13.728,33.837,15.884,32.57,15.172,31.13z"/>
	</g>
</g>
<g>
	<g>
		<path fill="#4374BA" d="M62.293,36.101c-1.037-0.704-2.279-1.959-3.496-2.294c-1.189-0.327-3.179,0.982-4.264,1.405
			c0.513,0.513,1.024,1.025,1.537,1.538c0.336-1.159,1.408-3.164,1.074-4.376c-0.344-1.249-1.965-2.557-2.771-3.539
			c-0.295,0.711-0.589,1.422-0.884,2.134c1.229-0.04,3.397,0.345,4.492-0.297c1.103-0.646,1.863-2.654,2.534-3.7
			c-0.762-0.1-1.522-0.199-2.284-0.298c0.428,1.185,0.723,3.273,1.634,4.185c0.889,0.889,3.115,0.993,4.288,1.3
			c-0.185-0.697-0.368-1.393-0.552-2.089c-0.96,0.746-2.624,1.565-3.244,2.624c-0.628,1.072-0.016,3.304,0.054,4.487
			c0.094,1.602,2.594,1.611,2.5,0c-0.074-1.267-0.147-2.534-0.222-3.8c0.04,0.673-0.637,1.036-0.009,0.548
			c0.388-0.302,0.776-0.604,1.164-0.906c0.508-0.395,1.017-0.79,1.524-1.186c0.763-0.593,0.277-1.872-0.552-2.089
			c-1.245-0.326-2.49-0.652-3.736-0.978c0.291,0.291,0.582,0.582,0.873,0.873c-0.438-1.211-0.875-2.422-1.313-3.633
			c-0.368-1.019-1.675-1.249-2.284-0.298c-0.695,1.084-1.391,2.168-2.086,3.252c0.359-0.207,0.72-0.413,1.079-0.619
			c-1.287,0.042-2.574,0.084-3.861,0.126c-1.157,0.038-1.564,1.303-0.884,2.134c0.816,0.996,1.633,1.992,2.449,2.988
			c-0.107-0.405-0.215-0.811-0.321-1.216c-0.358,1.237-0.717,2.474-1.074,3.711c-0.245,0.847,0.63,1.892,1.537,1.538
			c1.183-0.462,2.365-0.923,3.548-1.385c-0.585,0.228-1.215-0.353-0.533,0.109c0.406,0.276,0.813,0.552,1.221,0.828
			c0.533,0.361,1.065,0.723,1.599,1.083C62.37,39.167,63.619,37,62.293,36.101z"/>
	</g>
</g>
<g>
	<polygon fill="#4374BA" points="67.424,50.453 66.928,47.833 64.486,46.754 66.826,45.472 67.098,42.816 69.041,44.647 
		71.648,44.083 70.51,46.497 71.852,48.803 69.203,48.464 	"/>
	<g>
		<path fill="#4374BA" d="M68.629,50.121c-0.167-0.885-0.161-2.132-0.622-2.919c-0.484-0.827-2.066-1.163-2.89-1.526
			c0,0.72,0,1.438,0,2.158c0.803-0.439,2.304-0.903,2.788-1.73c0.488-0.834,0.347-2.35,0.442-3.287
			c-0.711,0.295-1.423,0.589-2.134,0.884c0.675,0.636,1.568,1.897,2.495,2.152c0.93,0.256,2.361-0.366,3.271-0.563
			c-0.471-0.612-0.94-1.224-1.411-1.836c-0.401,0.85-1.31,2.077-1.31,3.044c0,0.962,1.05,2.142,1.513,2.938
			c0.359-0.627,0.72-1.254,1.079-1.881c-0.877-0.112-2.114-0.532-2.98-0.294c-0.924,0.254-1.726,1.633-2.331,2.311
			c-1.071,1.198,0.69,2.971,1.768,1.768c0.593-0.664,1.187-1.326,1.779-1.99c-0.295,0.122-0.589,0.244-0.884,0.366
			c0.883,0.113,1.766,0.226,2.648,0.338c0.978,0.125,1.509-1.141,1.079-1.88c-0.447-0.769-0.895-1.538-1.342-2.307
			c0,0.421,0,0.841,0,1.262c0.38-0.805,0.76-1.608,1.139-2.413c0.473-1-0.29-2.079-1.411-1.836
			c-0.869,0.188-1.738,0.375-2.607,0.563c0.405,0.106,0.811,0.214,1.216,0.321c-0.647-0.61-1.296-1.221-1.943-1.831
			c-0.847-0.798-2.025-0.18-2.134,0.884c-0.091,0.886-0.181,1.771-0.271,2.656c0.206-0.359,0.413-0.72,0.619-1.079
			c-0.78,0.427-1.56,0.854-2.34,1.282c-0.761,0.417-0.87,1.774,0,2.158c0.813,0.359,1.628,0.719,2.441,1.078
			c-0.191-0.249-0.383-0.498-0.574-0.747c0.165,0.874,0.33,1.748,0.496,2.621C66.518,52.369,68.928,51.697,68.629,50.121z"/>
	</g>
</g>
<g>
	<g>
		<path fill="#4374BA" d="M17.82,62.333c-0.747-0.512-1.617-1.39-2.5-1.633c-0.931-0.257-2.313,0.635-3.156,0.96
			c0.513,0.513,1.025,1.024,1.538,1.537c0.259-0.88,1.009-2.296,0.754-3.225c-0.257-0.933-1.409-1.891-2.005-2.624
			c-0.294,0.711-0.589,1.423-0.884,2.134c0.925-0.025,2.47,0.241,3.3-0.245c0.831-0.486,1.392-1.906,1.898-2.688
			c-0.762-0.1-1.523-0.199-2.285-0.299c0.315,0.883,0.536,2.382,1.218,3.063c0.679,0.679,2.242,0.773,3.129,1.011
			c-0.099-0.762-0.199-1.522-0.298-2.284c-0.755,0.581-2.071,1.238-2.562,2.076c-0.485,0.828-0.076,2.389-0.027,3.296
			c0.086,1.604,2.587,1.611,2.5,0c-0.048-0.889-0.096-1.776-0.144-2.665c-0.207,0.359-0.413,0.72-0.619,1.079
			c0.705-0.542,1.409-1.085,2.113-1.628c0.807-0.621,0.85-1.978-0.298-2.284c-0.859-0.23-1.719-0.46-2.578-0.689
			c0.291,0.291,0.582,0.582,0.873,0.873c-0.299-0.838-0.598-1.675-0.896-2.512c-0.366-1.025-1.674-1.243-2.285-0.299
			c-0.483,0.747-0.966,1.493-1.449,2.24c0.36-0.206,0.72-0.413,1.08-0.619c-0.89,0.024-1.779,0.05-2.669,0.074
			c-1.163,0.032-1.557,1.306-0.884,2.134c0.561,0.69,1.123,1.382,1.684,2.072c-0.107-0.405-0.214-0.811-0.322-1.216
			c-0.251,0.854-0.502,1.707-0.754,2.561c-0.25,0.851,0.633,1.886,1.538,1.537c0.83-0.319,1.661-0.64,2.491-0.96
			c-0.321-0.042-0.643-0.084-0.963-0.126c0.734,0.503,1.468,1.005,2.202,1.507C17.893,65.404,19.141,63.237,17.82,62.333z"/>
	</g>
</g>
<g>
	<g>
		<path fill="#4374BA" d="M45.809,48.568c-0.35-0.067-0.721,0.078-0.932,0.393c-0.756,1.131-2.11,1.639-3.391,1.906
			c-1.553,0.322-3.176,0.33-4.744,0.131c-0.976-0.126-1.95-0.328-2.849-0.74c-0.483-0.219-1.056-0.007-1.276,0.479
			c-0.22,0.484-0.008,1.057,0.478,1.275c1.262,0.572,2.646,0.836,4.022,0.948c1.789,0.147,3.639,0.048,5.373-0.438
			c1.153-0.321,2.295-0.827,3.172-1.661c0.281-0.27,0.516-0.563,0.73-0.887c0.28-0.417,0.17-0.983-0.25-1.266
			C46.039,48.641,45.924,48.592,45.809,48.568z"/>
	</g>
</g>
</svg>
