<svg width="297" height="279" viewBox="0 0 297 279" fill="none" xmlns="http://www.w3.org/2000/svg">
<path d="M71.0801 140.138C87.3363 140.138 103.59 140.138 119.846 140.138C118.796 139.087 117.746 138.037 116.696 136.987C116.696 146.411 116.696 155.836 116.696 165.258C117.746 164.208 118.796 163.158 119.846 162.108C103.59 162.108 87.3363 162.108 71.0801 162.108C72.1304 163.158 73.1807 164.208 74.231 165.258C74.231 155.834 74.231 146.409 74.231 136.987C74.231 132.923 67.9292 132.923 67.9292 136.987C67.9292 146.411 67.9292 155.836 67.9292 165.258C67.9292 166.976 69.3623 168.409 71.0801 168.409C87.3363 168.409 103.59 168.409 119.846 168.409C121.564 168.409 122.997 166.976 122.997 165.258C122.997 155.834 122.997 146.409 122.997 136.987C122.997 135.269 121.564 133.836 119.846 133.836C103.59 133.836 87.3363 133.836 71.0801 133.836C67.0166 133.834 67.0166 140.138 71.0801 140.138Z" fill="#637CC6"/>
<path d="M38.7208 169.294C43.0831 169.294 47.4476 169.294 51.8098 169.294C50.7595 168.244 49.7092 167.193 48.659 166.143C48.659 197.932 48.659 229.719 48.659 261.507C49.7092 260.457 50.7595 259.407 51.8098 258.357C47.4476 258.357 43.0831 258.357 38.7208 258.357C39.7711 259.405 40.8214 260.455 41.8717 261.507C41.8717 229.719 41.8717 197.932 41.8717 166.143C41.8717 162.08 35.5699 162.08 35.5699 166.143C35.5699 197.932 35.5699 229.719 35.5699 261.507C35.5699 263.225 37.003 264.658 38.7208 264.658C43.0831 264.658 47.4476 264.658 51.8098 264.658C53.5277 264.658 54.9607 263.228 54.9607 261.507C54.9607 229.719 54.9607 197.932 54.9607 166.143C54.9607 164.425 53.5277 162.992 51.8098 162.992C47.4476 162.992 43.0831 162.992 38.7208 162.992C34.6574 162.992 34.6574 169.294 38.7208 169.294Z" fill="#637CC6"/>
<path d="M134.508 169.294C138.87 169.294 143.232 169.294 147.594 169.294C146.544 168.244 145.494 167.193 144.443 166.143C144.443 197.932 144.443 229.719 144.443 261.507C145.491 260.457 146.542 259.407 147.594 258.357C143.232 258.357 138.87 258.357 134.508 258.357C135.558 259.405 136.608 260.455 137.659 261.507C137.659 229.719 137.659 197.932 137.659 166.143C137.659 162.08 131.359 162.08 131.359 166.143C131.359 197.932 131.359 229.719 131.359 261.507C131.359 263.225 132.79 264.658 134.51 264.658C138.872 264.658 143.234 264.658 147.597 264.658C149.315 264.658 150.748 263.228 150.748 261.507C150.748 229.719 150.748 197.932 150.748 166.143C150.748 164.425 149.317 162.992 147.597 162.992C143.234 162.992 138.872 162.992 134.51 162.992C130.444 162.992 130.444 169.294 134.508 169.294Z" fill="#637CC6"/>
<path d="M149.035 162.576C143.664 162.576 138.289 162.586 132.918 162.59C107.807 162.6 82.6956 162.614 57.5842 162.618C51.4248 162.618 45.2701 162.618 39.1107 162.618C37.8456 162.618 36.5853 162.618 35.3226 162.618C34.0156 162.618 32.7039 162.604 31.4038 162.737C28.4724 163.034 25.6015 163.876 22.9688 165.2C16.0999 168.652 11.1495 175.311 9.85879 182.891C9.51103 184.938 9.51336 186.985 9.51336 189.046C9.51336 191.098 9.51336 193.159 9.51336 195.21C9.51336 196.975 10.9394 198.401 12.7063 198.401C14.4708 198.401 15.9108 196.975 15.9108 195.21C15.9108 193.159 15.9108 191.098 15.9108 189.046C15.9108 187.345 15.8735 185.655 16.1606 183.963C17.0825 178.569 20.5158 173.798 25.3261 171.184C27.2237 170.155 29.3009 169.462 31.4435 169.174C32.7295 169.002 34.0272 169.011 35.3226 169.011C36.5876 169.011 37.848 169.011 39.1107 169.011C45.5852 169.011 52.062 169.011 58.5365 169.011C83.9653 169.02 109.385 169.025 134.811 169.044C139.867 169.044 144.92 169.053 149.973 169.058C151.238 169.058 152.512 169.058 153.775 169.058C155.675 169.058 157.528 169.111 159.39 169.555C165.071 170.923 169.835 175.117 171.931 180.564C172.643 182.42 173.047 184.406 173.107 186.39C173.166 188.274 173.11 190.159 173.107 192.048C173.107 195.406 173.112 198.776 173.107 202.135C173.103 211.935 173.089 221.729 173.082 231.534C173.079 233.772 173.084 236.02 173.082 238.263C173.079 240.118 173.142 241.974 172.83 243.811C172.176 247.636 170.255 251.167 167.429 253.821C164.742 256.342 161.281 258.006 157.628 258.494C156.347 258.671 155.066 258.657 153.777 258.657C152.356 258.653 150.934 258.657 149.513 258.657C144.775 258.653 140.03 258.643 135.29 258.639C108.442 258.625 81.6009 258.615 54.7507 258.611C49.6976 258.611 44.6422 258.601 39.5891 258.601C38.1677 258.601 36.7463 258.601 35.3249 258.601C34.0389 258.601 32.7505 258.611 31.4715 258.443C27.8305 257.95 24.3879 256.295 21.7108 253.784C18.7513 250.999 16.7861 247.237 16.2423 243.213C16.0602 241.864 16.0835 240.506 16.0835 239.147C16.0835 237.511 16.0835 235.871 16.0835 234.237C16.0835 224.777 16.0812 215.327 16.0835 205.869C16.0835 204.005 14.5711 202.492 12.7063 202.492C10.8414 202.492 9.32898 204.005 9.32898 205.869C9.32898 215.147 9.34065 224.418 9.34065 233.695C9.34065 235.509 9.34065 237.329 9.34065 239.147C9.34065 240.807 9.34298 242.466 9.56705 244.112C10.0689 247.832 11.4412 251.401 13.5395 254.51C17.2645 260.025 23.1835 263.869 29.7467 264.985C31.908 265.353 34.0786 265.33 36.2632 265.325C38.3171 265.325 40.3687 265.33 42.4203 265.325C63.9 265.325 85.3796 265.325 106.857 265.311C118.702 265.307 130.556 265.307 142.401 265.297C145.716 265.297 149.03 265.288 152.344 265.288C153.85 265.288 155.36 265.337 156.863 265.234C158.496 265.12 160.13 264.852 161.708 264.413C169.396 262.289 175.717 256.368 178.328 248.826C179.131 246.511 179.584 244.072 179.663 241.624C179.726 239.663 179.677 237.698 179.677 235.742C179.677 232.661 179.666 229.578 179.663 226.497C179.659 216.697 179.659 206.892 179.649 197.084C179.649 194.568 179.64 192.048 179.638 189.527C179.635 187.298 179.67 185.083 179.295 182.875C178.177 176.347 174.349 170.449 168.859 166.747C165.767 164.663 162.198 163.295 158.501 162.805C156.772 162.567 155.038 162.572 153.299 162.576C151.877 162.576 150.458 162.572 149.035 162.576Z" fill="#637CC6"/>
<path d="M69.5342 177.752C80.2799 185.672 91.0232 193.593 101.769 201.512C101.391 200.075 101.015 198.639 100.639 197.199C97.0706 202.04 93.5019 206.881 89.9333 211.724C91.371 211.348 92.8064 210.972 94.2441 210.594C83.4985 202.675 72.7551 194.758 62.0094 186.839C62.3875 188.276 62.7633 189.712 63.1391 191.152C66.7078 186.309 70.2764 181.466 73.8451 176.623C76.2608 173.346 70.7876 170.209 68.4046 173.444C64.8359 178.287 61.2672 183.13 57.6986 187.971C56.6016 189.46 57.5655 191.35 58.8282 192.284C69.5739 200.203 80.3172 208.12 91.0629 216.039C92.5497 217.136 94.4425 216.172 95.3738 214.91C98.9425 210.069 102.511 205.228 106.08 200.385C107.177 198.896 106.213 197.006 104.95 196.072C94.2045 188.153 83.4611 180.233 72.7154 172.314C69.4362 169.896 66.2993 175.369 69.5342 177.752Z" fill="#637CC6"/>
<path d="M102.308 235.766C102.894 224.873 118.618 224.871 119.206 235.766C119.792 246.663 102.892 246.603 102.308 235.766C102.091 231.726 95.7869 231.705 96.0063 235.766C96.4545 244.108 102.418 250.066 110.757 250.512C119.08 250.96 125.092 243.433 125.506 235.766C125.954 227.445 118.424 221.426 110.757 221.015C102.434 220.567 96.4194 228.101 96.0063 235.766C95.7893 239.827 102.091 239.806 102.308 235.766Z" fill="#637CC6"/>
<path d="M249.956 84.6973C233.452 84.7066 216.946 84.7159 200.443 84.7253C197.105 84.7253 193.77 84.7393 190.432 84.7393C187.769 84.7393 185.132 84.7113 182.502 85.1641C174.347 86.5598 166.973 91.3375 162.345 98.1924C159.74 102.048 158.027 106.515 157.406 111.13C157.08 113.545 157.129 115.97 157.129 118.4C157.129 121.276 157.143 124.144 157.143 127.019C157.143 139.828 157.14 152.64 157.143 165.453C157.143 167.213 158.569 168.644 160.333 168.644C162.098 168.644 163.524 167.213 163.524 165.453C163.524 152.378 163.538 139.31 163.538 126.24C163.538 123.364 163.538 120.482 163.538 117.606C163.538 115.45 163.517 113.317 163.881 111.183C164.453 107.825 165.748 104.606 167.653 101.784C171.312 96.3742 177.131 92.5978 183.57 91.5055C185.844 91.1227 188.136 91.1601 190.43 91.1601C193.21 91.1647 195.992 91.1601 198.772 91.1601C215.46 91.1694 232.152 91.1928 248.843 91.2021C251.436 91.2021 254.031 91.2021 256.627 91.2021C258.466 91.2021 260.296 91.1788 262.121 91.4308C267.295 92.1334 272.169 94.5724 275.856 98.2647C279.539 101.952 281.967 106.826 282.662 111.996C282.954 114.187 282.875 116.414 282.875 118.619C282.87 121.131 282.861 123.638 282.861 126.156C282.854 137.046 282.858 147.932 282.849 158.822C282.84 169.991 282.826 181.168 282.816 192.341C282.812 199.88 282.809 207.416 282.805 214.955C282.805 216.911 282.805 218.853 282.805 220.808C282.805 221.912 282.83 223.028 282.753 224.132C282.662 225.467 282.452 226.79 282.144 228.093C279.999 237.051 272.705 244.111 263.685 245.957C260.966 246.513 258.223 246.431 255.462 246.431C252.075 246.431 248.703 246.431 245.318 246.431C231.779 246.431 218.24 246.436 204.705 246.431C202.84 246.431 201.327 247.932 201.327 249.794C201.327 251.657 202.84 253.172 204.705 253.172C218.807 253.167 232.899 253.172 247.001 253.172C250.101 253.172 253.207 253.172 256.309 253.172C258.55 253.172 260.783 253.195 263.008 252.894C268.301 252.173 273.38 250.039 277.602 246.772C283.645 242.094 287.802 235.202 289.081 227.666C289.613 224.562 289.522 221.434 289.522 218.302C289.517 214.112 289.508 209.923 289.503 205.733C289.492 180.881 289.487 156.031 289.466 131.179C289.461 127.272 289.457 123.355 289.452 119.45C289.447 116.318 289.545 113.195 289.013 110.096C287.951 103.892 284.929 98.0874 280.471 93.6388C275.775 88.9475 269.576 85.8479 262.994 84.9633C260.879 84.6809 258.755 84.6996 256.624 84.6996C254.405 84.6973 252.18 84.6973 249.956 84.6973Z" fill="#637CC6"/>
<path d="M175.693 243.59C174.379 243.523 173.086 244.223 172.475 245.488C171.658 247.166 172.36 249.19 174.036 250.002C177.012 251.437 180.167 252.422 183.451 252.824C185.456 253.069 187.461 253.038 189.478 253.02C191.303 253.01 193.13 253.001 194.96 252.996C196.725 252.996 198.151 251.556 198.151 249.792C198.151 248.023 196.725 246.601 194.96 246.601C193.133 246.597 191.305 246.587 189.478 246.573C187.919 246.564 186.362 246.545 184.814 246.331C182.093 245.966 179.453 245.131 176.989 243.924C176.568 243.719 176.132 243.618 175.693 243.59Z" fill="#637CC6"/>
<path d="M199.657 15.6065C215.913 15.6065 232.167 15.6065 248.424 15.6065C247.373 14.5562 246.323 13.5059 245.273 12.4556C245.273 37.5529 245.273 62.6503 245.273 87.75C246.321 86.6997 247.371 85.6494 248.424 84.5992C232.167 84.5992 215.913 84.5992 199.657 84.5992C200.708 85.6494 201.758 86.6997 202.808 87.75C202.808 62.6527 202.808 37.5553 202.808 12.4556C202.808 8.39209 196.509 8.39209 196.509 12.4556C196.509 37.5529 196.509 62.6503 196.509 87.75C196.509 89.4679 197.939 90.9009 199.66 90.9009C215.916 90.9009 232.17 90.9009 248.426 90.9009C250.144 90.9009 251.577 89.4679 251.577 87.75C251.577 62.6527 251.577 37.5553 251.577 12.4556C251.577 10.7378 250.146 9.30469 248.426 9.30469C232.17 9.30469 215.916 9.30469 199.66 9.30469C195.594 9.30469 195.594 15.6065 199.657 15.6065Z" fill="#637CC6"/>
<path d="M254.963 254.19C254.963 250.684 257.803 247.844 261.309 247.844C264.812 247.844 267.652 250.684 267.652 254.19V263.071C267.652 266.576 264.812 269.417 261.309 269.417C257.803 269.417 254.963 266.576 254.963 263.071V254.19Z" fill="#637CC6"/>
<path d="M179.689 254.19C179.689 250.684 182.527 247.844 186.033 247.844C189.534 247.844 192.374 250.684 192.374 254.19V263.071C192.374 266.576 189.534 269.417 186.033 269.417C182.527 269.417 179.689 266.576 179.689 263.071V254.19Z" fill="#637CC6"/>
<path d="M193.198 103.147C191.434 103.156 190.01 104.601 190.022 106.36C190.255 150.242 190.355 194.123 190.577 238.007C190.587 239.867 192.115 241.365 193.98 241.354C195.843 241.344 197.341 239.832 197.332 237.967C197.059 194.086 196.678 150.204 196.417 106.325C196.407 104.556 194.963 103.135 193.198 103.147Z" fill="#637CC6"/>
<path d="M250.617 176.188C248.855 176.197 247.431 177.642 247.442 179.411C247.538 198.935 247.501 218.472 247.59 238.006C247.599 239.866 249.125 241.364 250.99 241.353C252.855 241.343 254.351 239.831 254.342 237.966C254.209 218.433 253.964 198.9 253.84 179.366C253.824 177.607 252.384 176.178 250.617 176.188Z" fill="#637CC6"/>
<path d="M250.208 103.147C248.444 103.156 247.018 104.601 247.029 106.36C247.036 109.929 246.915 113.491 246.91 117.064C246.922 118.929 248.434 120.437 250.299 120.427C252.164 120.413 253.677 118.882 253.663 117.022C253.613 113.453 253.457 109.892 253.424 106.323C253.417 104.556 251.973 103.135 250.208 103.147Z" fill="#637CC6"/>
<path d="M232.521 130.233C244.327 130.233 256.132 130.233 267.937 130.233C266.887 129.183 265.837 128.133 264.786 127.083C264.786 141.322 264.786 155.562 264.786 169.802C265.834 168.751 266.885 167.701 267.937 166.651C256.132 166.651 244.327 166.651 232.521 166.651C233.572 167.701 234.622 168.751 235.672 169.802C235.672 155.562 235.672 141.322 235.672 127.083C235.672 123.019 229.373 123.019 229.373 127.083C229.373 141.322 229.373 155.562 229.373 169.802C229.373 171.519 230.803 172.952 232.524 172.952C244.329 172.952 256.134 172.952 267.939 172.952C269.657 172.952 271.09 171.519 271.09 169.802C271.09 155.562 271.09 141.322 271.09 127.083C271.09 125.365 269.66 123.932 267.939 123.932C256.134 123.932 244.329 123.932 232.524 123.932C228.458 123.932 228.458 130.233 232.521 130.233Z" fill="#637CC6"/>
<circle cx="111" cy="236" r="10" fill="#637CC6"/>
<rect x="235" y="128" width="33" height="41" fill="#637CC6"/>
</svg>
