<?xml version="1.0" encoding="utf-8"?>
<!-- Generator: Adobe Illustrator 16.0.0, SVG Export Plug-In . SVG Version: 6.00 Build 0)  -->
<!DOCTYPE svg PUBLIC "-//W3C//DTD SVG 1.1//EN" "http://www.w3.org/Graphics/SVG/1.1/DTD/svg11.dtd">
<svg version="1.1" id="Layer_1" xmlns="http://www.w3.org/2000/svg" xmlns:xlink="http://www.w3.org/1999/xlink" x="0px" y="0px"
	 width="115.427px" height="85.032px" viewBox="0 0 115.427 85.032" enable-background="new 0 0 115.427 85.032"
	 xml:space="preserve">
<g>
	<path d="M4.497,60.495c-0.641,0.016-1.146,0.553-1.13,1.191c0.011,0.42,0.06,0.83,0.169,1.234c0.431,1.596,1.601,2.877,2.877,3.865
		c1.298,1.01,2.767,1.785,4.267,2.447c2.061,0.908,4.217,1.602,6.394,2.172c3.296,0.862,6.66,1.448,10.04,1.86
		c3.691,0.451,7.408,0.686,11.125,0.748c3.848,0.064,7.703-0.055,11.538-0.379c4.194-0.352,8.368-0.953,12.469-1.912
		c0.59-0.137,0.957-0.729,0.818-1.319c-0.139-0.592-0.724-0.959-1.315-0.82c-3.995,0.932-8.065,1.516-12.152,1.854
		c-3.562,0.294-7.139,0.409-10.71,0.354c-3.841-0.057-7.682-0.304-11.494-0.782c-2.979-0.373-5.947-0.891-8.861-1.613
		c-2.009-0.498-3.997-1.092-5.92-1.861c-1.479-0.592-2.94-1.283-4.252-2.195c-1.235-0.857-2.633-2.088-2.669-3.711
		C5.673,60.987,5.136,60.479,4.497,60.495z"/>
</g>
<g>
	<path d="M8.226,55.407c-0.148,0.025-0.293,0.08-0.429,0.164c-1.865,1.186-3.759,2.791-4.257,5.051
		c-0.075,0.336-0.104,0.676-0.109,1.02c-0.009,0.607,0.472,1.107,1.08,1.115c0.606,0.01,1.106-0.477,1.115-1.084
		c0.013-0.832,0.411-1.555,0.947-2.172c0.692-0.795,1.577-1.412,2.464-1.967c0.542-0.342,0.702-1.055,0.36-1.598
		C9.139,55.528,8.672,55.334,8.226,55.407z"/>
</g>
<g>
	<path d="M43.578,32.062c-1.245,0.023-2.487,0.172-3.697,0.424c-1.298,0.27-2.573,0.672-3.771,1.243
		c-0.957,0.456-1.871,1.033-2.627,1.785c-1.099,1.091-1.788,2.525-1.462,4.093c0.085,0.404,0.232,0.793,0.424,1.157
		c0.246,0.467,0.57,0.892,0.951,1.256c0.91,0.868,2.106,1.364,3.315,1.645c1.389,0.322,2.829,0.391,4.248,0.369
		c0.555-0.01,1.109-0.047,1.663-0.061c0.667-0.016,1.339,0.082,2.003,0.113c0.182,0.01-0.003,0.002,0.77,0.012
		c0.155-0.004,0.303-0.035,0.437-0.092c0.005-0.002,0.011-0.004,0.015-0.006c0.106-0.006,0.331-0.018,0.504-0.035
		c0.292-0.029,0.582-0.066,0.871-0.109c1.039-0.158,2.074-0.412,3.051-0.807c1.715-0.692,3.467-1.948,3.834-3.88
		c0.057-0.293,0.08-0.593,0.063-0.892c-0.018-0.355-0.089-0.705-0.2-1.043c-0.167-0.509-0.43-0.982-0.747-1.412
		c-0.534-0.724-1.226-1.342-1.967-1.848c-1.187-0.81-2.57-1.301-3.971-1.585C46.072,32.143,44.823,32.038,43.578,32.062z
		 M43.597,34.315c1.041-0.026,2.082,0.044,3.101,0.232c1.543,0.287,3.031,0.87,4.185,1.963c0.477,0.453,0.946,1.023,1.061,1.69
		c0.196,1.137-0.872,1.992-1.757,2.467c-0.156,0.084-0.316,0.16-0.479,0.233c-0.221,0.098-0.45,0.189-0.679,0.268
		c-0.304,0.105-0.609,0.196-0.919,0.274c-0.344,0.085-0.688,0.151-1.035,0.208c-0.377,0.063-0.761,0.112-1.143,0.146
		c-0.072,0.007-0.256,0.018-0.336,0.023c-0.076-0.015-0.145-0.043-0.224-0.041c-0.871-0.017-0.593-0.002-0.874-0.02
		c-0.602-0.036-1.196-0.109-1.8-0.109c-0.457,0.002-0.917,0.043-1.375,0.056c-1.033,0.028-2.072,0.017-3.101-0.118
		c-1.085-0.143-2.274-0.411-3.127-1.144c-0.213-0.182-0.397-0.394-0.542-0.632c-0.114-0.187-0.2-0.391-0.255-0.602
		c-0.271-1.024,0.549-1.92,1.288-2.503c0.12-0.095,0.234-0.179,0.36-0.265c0.182-0.124,0.369-0.242,0.56-0.35
		c1.234-0.698,2.612-1.139,3.998-1.42C41.518,34.466,42.557,34.342,43.597,34.315z"/>
</g>
<g>
	<path d="M33.352,35.659c-0.786,0.111-1.571,0.201-2.359,0.278c-3.385,0.325-6.892,0.5-9.954,2.139
		c-0.598,0.319-1.167,0.689-1.704,1.102c-0.243,0.188-0.479,0.383-0.72,0.574c-1.188,0.949-2.423,2.12-2.267,3.776
		c0.046,0.498,0.223,0.973,0.469,1.406c0.587,1.037,1.563,1.734,2.708,2.031c1.609,0.42,3.309,0.156,4.937,0.008
		c0.584-0.053,1.174-0.104,1.761-0.086c0.328,0.01,0.657,0.039,0.975,0.129c0.58,0.16,0.992,0.613,1.406,1.023
		c0.284,0.281,0.573,0.572,0.894,0.811c0.192,0.145,0.418,0.287,0.628,0.406c0.666,0.373,1.434,0.639,2.163,0.855
		c1.518,0.451,3.105,0.676,4.686,0.729c0.829,0.027,1.66,0.006,2.486-0.072c0.532-0.051,1.053-0.117,1.544-0.342
		c0.502-0.229,0.919-0.582,1.32-0.957c0.301-0.281,0.624-0.645,1.069-0.643c0.682,0.006,1.375,0.098,2.05,0.188
		c1.155,0.154,2.303,0.375,3.446,0.602c2.684,0.529,5.387,1.059,8.138,0.924c1.099-0.055,2.213-0.184,3.274-0.49
		c0.629-0.186,1.262-0.438,1.774-0.857c0.204-0.166,0.391-0.359,0.538-0.578c0.127-0.189,0.231-0.393,0.3-0.609
		c0.292-0.928-0.083-1.867-0.664-2.592c-0.041-0.051-0.091-0.094-0.133-0.141c1.138-0.121,2.301-0.271,3.379-0.676
		c1.175-0.438,2.422-1.367,2.417-2.753c0-0.176-0.024-0.35-0.066-0.52c-0.054-0.207-0.139-0.407-0.246-0.592
		c-0.399-0.685-1.089-1.158-1.772-1.526c-0.574-0.309-1.183-0.547-1.789-0.787c-0.601-0.237-1.204-0.458-1.817-0.66
		c-2.953-0.982-6.018-1.528-9.12-1.735c-0.639-0.042-1.191,0.444-1.234,1.084c-0.041,0.64,0.44,1.19,1.08,1.234
		c2.981,0.197,5.924,0.723,8.756,1.685c0.574,0.194,1.14,0.405,1.703,0.628c0.34,0.135,0.681,0.275,1.01,0.433
		c0.301,0.143,0.6,0.302,0.866,0.501c0.092,0.067,0.179,0.139,0.255,0.224c0.013,0.015,0.024,0.028,0.036,0.045
		c-0.006,0.01-0.012,0.023-0.018,0.032c-0.036,0.049-0.077,0.096-0.124,0.137c-0.134,0.118-0.293,0.205-0.454,0.281
		c-0.506,0.24-1.063,0.367-1.611,0.465c-0.952,0.17-1.917,0.226-2.874,0.35c-0.543,0.072-1.162,0.162-1.566,0.568
		c-0.158,0.162-0.281,0.354-0.342,0.57c-0.049,0.176-0.058,0.33-0.037,0.51c0.095,0.82,0.886,1.135,1.436,1.607
		c0.145,0.125,0.279,0.256,0.405,0.4c0.06,0.07,0.121,0.143,0.173,0.219c0.049,0.072,0.091,0.143,0.123,0.223
		c0.012,0.029,0.019,0.131,0.036,0.088c0-0.002,0,0.004,0,0.004c-0.007,0.016-0.021,0.023-0.032,0.037
		c-0.021,0.025-0.106,0.094-0.154,0.127c-0.139,0.092-0.288,0.162-0.441,0.223c-0.174,0.07-0.354,0.123-0.533,0.174
		c-0.322,0.088-0.648,0.15-0.979,0.205c-0.504,0.08-1.016,0.137-1.525,0.168c-3.263,0.197-6.461-0.658-9.647-1.221
		c-0.912-0.16-1.829-0.293-2.752-0.377c-0.414-0.039-0.834-0.082-1.251-0.082c-0.853,0-1.577,0.334-2.218,0.885
		c-0.216,0.184-0.417,0.389-0.628,0.576c-0.173,0.154-0.355,0.303-0.574,0.383c-0.233,0.086-0.499,0.09-0.743,0.113
		c-0.355,0.035-0.711,0.063-1.069,0.074c-1.458,0.045-2.934-0.08-4.358-0.396c-0.696-0.154-1.386-0.361-2.044-0.637
		c-0.325-0.137-0.657-0.285-0.943-0.498c-0.095-0.07-0.182-0.168-0.272-0.246c-0.336-0.289-0.634-0.623-0.966-0.92
		c-0.524-0.469-1.115-0.834-1.798-1.023c-0.9-0.25-1.849-0.23-2.773-0.17c-1.135,0.076-2.263,0.25-3.401,0.266
		c-0.995,0.014-2.194-0.078-2.796-0.988c-0.203-0.307-0.362-0.658-0.223-1.021c0.04-0.104,0.096-0.204,0.159-0.295
		c0.082-0.121,0.174-0.235,0.273-0.342c0.16-0.173,0.336-0.329,0.516-0.482c0.246-0.212,0.501-0.41,0.755-0.614
		c0.347-0.278,0.696-0.553,1.071-0.793c1.715-1.107,3.698-1.595,5.696-1.881c2.188-0.311,4.4-0.414,6.589-0.723
		c0.6-0.086,1.023-0.638,0.938-1.238C34.511,35.991,33.952,35.575,33.352,35.659z"/>
</g>
<g>
	<path d="M64.689,42.608c-0.151-0.002-0.303,0.027-0.45,0.09c-0.591,0.25-0.868,0.929-0.62,1.521
		c0.61,1.447,0.975,3.053,0.885,4.631c-0.025,0.42-0.085,0.842-0.219,1.244c-0.05,0.145-0.108,0.295-0.201,0.418
		c-0.321,0.424-0.787,0.701-1.261,0.924c-0.566,0.27-1.167,0.465-1.768,0.643c-1.981,0.592-3.979,1.154-5.996,1.613
		c-4.531,1.025-9.191,1.234-13.82,1.4c-1.836,0.068-3.674,0.121-5.51,0.129c-2.396,0.008-4.784-0.078-7.159-0.42
		c-0.975-0.141-1.948-0.311-2.918-0.482c-0.659-0.117-1.32-0.215-1.967-0.387c-0.864-0.23-1.715-0.537-2.536-0.893
		c-0.217-0.094-0.43-0.191-0.642-0.295c-0.697-0.342-1.521-0.762-1.776-1.555c-0.208-0.648-0.118-1.387-0.026-2.049
		c0.154-1.119,0.418-2.223,0.673-3.322c0.137-0.592-0.229-1.184-0.819-1.322c-0.591-0.137-1.185,0.232-1.321,0.824
		c-0.284,1.229-0.58,2.463-0.737,3.717c-0.111,0.883-0.151,1.797,0.086,2.662c0.076,0.273,0.179,0.539,0.311,0.789
		c0.646,1.227,1.907,1.908,3.124,2.459c1.071,0.484,2.19,0.895,3.333,1.18c0.581,0.145,1.177,0.236,1.767,0.34
		c0.869,0.156,1.737,0.311,2.608,0.447c1.084,0.168,2.171,0.301,3.266,0.387c1.577,0.125,3.159,0.16,4.74,0.16
		c1.861,0,3.723-0.049,5.583-0.109c4.652-0.152,9.334-0.35,13.898-1.334c1.973-0.428,3.915-0.979,5.854-1.535
		c1.423-0.408,2.935-0.836,4.103-1.789c0.364-0.297,0.687-0.643,0.935-1.043c0.485-0.789,0.652-1.758,0.705-2.668
		c0.112-1.93-0.311-3.893-1.057-5.666C65.568,42.875,65.141,42.608,64.689,42.608z"/>
</g>
<g>
	<path d="M17.915,50.631c-0.141-0.021-0.29-0.016-0.437,0.023c-0.421,0.105-0.858,0.031-1.284,0.117
		c-0.609,0.121-1.11,0.475-1.512,0.938c-0.156,0.18-0.286,0.387-0.369,0.611c-0.12,0.322-0.134,0.66-0.092,0.998
		c-0.105,0.004-0.208,0-0.313,0.012c-0.37,0.047-0.737,0.154-1.052,0.361c-0.229,0.148-0.412,0.344-0.587,0.551
		c-0.313,0.369-0.589,0.791-0.711,1.266c-0.112,0.441-0.063,0.9,0.124,1.311c-0.286,0.125-0.563,0.266-0.816,0.451
		c-0.248,0.182-0.475,0.395-0.66,0.643c-0.137,0.182-0.249,0.385-0.336,0.596c-0.491,1.184-0.08,2.463,0.45,3.553
		c0.283,0.576,0.978,0.814,1.553,0.531c0.576-0.281,0.814-0.977,0.533-1.551c-0.124-0.252-0.239-0.5-0.323-0.766
		c-0.083-0.256-0.178-0.588-0.087-0.857c0.106-0.311,0.554-0.479,0.825-0.586c0.459-0.184,1.057-0.287,1.343-0.738
		c0.051-0.08,0.095-0.168,0.131-0.254c0.184-0.432,0.065-0.998-0.14-1.385c-0.096-0.182-0.229-0.336-0.351-0.498
		c0.015-0.025,0.031-0.049,0.045-0.072c0.074-0.111,0.166-0.207,0.25-0.309c0.253-0.049,0.508-0.049,0.765-0.064
		c0.474-0.025,0.956-0.123,1.324-0.441c0.152-0.129,0.286-0.289,0.364-0.473c0.042-0.098,0.07-0.199,0.092-0.301
		c0.078-0.373-0.052-0.727-0.182-1.066c-0.014-0.037-0.033-0.09-0.049-0.143c0.109-0.117,0.175-0.164,0.377-0.172
		c0.052-0.002,0.106-0.004,0.159-0.004c0.12-0.002,0.219-0.002,0.332-0.01c0.25-0.016,0.493-0.059,0.735-0.117
		c0.588-0.148,0.944-0.746,0.795-1.336C18.702,51.008,18.338,50.696,17.915,50.631z"/>
</g>
<g>
	<path d="M62.823,62.879c-0.143,0.018-0.282,0.063-0.415,0.137c-0.414,0.236-0.819,0.486-1.207,0.766
		c-0.129,0.094-0.255,0.193-0.381,0.291c-0.016,0.012-0.032,0.021-0.047,0.033c-0.008-0.004-0.015-0.004-0.022-0.006
		c-0.189-0.057-0.377-0.121-0.564-0.182c-0.254-0.084-0.506-0.168-0.762-0.25c-0.179-0.059-0.36-0.123-0.546-0.166
		c-0.302-0.068-0.615-0.074-0.92-0.021c-0.553,0.098-1.031,0.389-1.506,0.674c-0.211,0.127-0.553,0.375-0.816,0.342
		c-0.101-0.012-0.189-0.063-0.277-0.109c-0.566-0.299-1.271-0.084-1.57,0.482c-0.3,0.566-0.08,1.273,0.486,1.57
		c0.672,0.352,1.406,0.475,2.146,0.27c0.243-0.068,0.481-0.168,0.705-0.283c0.323-0.164,0.615-0.373,0.93-0.555
		c0.033-0.02,0.07-0.041,0.104-0.059s0.066-0.029,0.1-0.047c0.023-0.01,0.104-0.053,0.124-0.049
		c0.172,0.023,0.377,0.109,0.546,0.158c0.308,0.092,0.616,0.186,0.924,0.279c0.412,0.123,0.831,0.242,1.267,0.186
		c0.527-0.068,0.901-0.418,1.307-0.725c0.34-0.256,0.705-0.479,1.074-0.691c0.527-0.301,0.706-0.971,0.405-1.498
		C63.679,63.032,63.246,62.829,62.823,62.879z"/>
</g>
<g>
	<path d="M16.012,60.782c-0.151-0.004-0.307,0.025-0.456,0.086c-0.594,0.24-0.877,0.918-0.637,1.51
		c0.333,0.822,0.867,1.598,1.803,1.764c0.166,0.029,0.294,0.041,0.464,0.037c0.408-0.012,0.796-0.137,1.184-0.246
		c0.115-0.033,0.233-0.059,0.351-0.078c0.041,0.031,0.079,0.061,0.118,0.092c0.132,0.104,0.261,0.217,0.392,0.322
		c0.354,0.291,0.724,0.576,1.138,0.773c0.466,0.225,0.958,0.277,1.467,0.314c0.924,0.068,1.916,0.029,2.718-0.482
		c0.024,0.041,0.048,0.08,0.073,0.119c0.16,0.26,0.314,0.525,0.505,0.766c0.637,0.801,1.561,1.229,2.591,1.152
		c0.518-0.041,1-0.205,1.48-0.389c0.162-0.061,0.324-0.123,0.491-0.168c0.038-0.01,0.076-0.016,0.114-0.023
		c0.026,0.02,0.052,0.035,0.077,0.055c0.049,0.039,0.099,0.078,0.146,0.113c0.188,0.148,0.372,0.297,0.565,0.438
		c0.245,0.178,0.5,0.344,0.784,0.451c0.435,0.166,0.941,0.199,1.402,0.16c0.812-0.068,1.5-0.438,2.19-0.838
		c0.193-0.111,0.387-0.221,0.591-0.309c0.068-0.029,0.13-0.055,0.197-0.078c0.038,0.016,0.073,0.033,0.109,0.055
		c0.167,0.094,0.328,0.205,0.486,0.314c0.417,0.285,0.839,0.584,1.325,0.736c0.5,0.158,1.068,0.154,1.577,0.041
		c0.59-0.131,1.084-0.438,1.599-0.736c0.192-0.113,0.383-0.201,0.6-0.252c0.127,0.045,0.242,0.125,0.351,0.201
		c0.185,0.131,0.361,0.273,0.546,0.406c0.494,0.35,1.049,0.641,1.666,0.668c0.647,0.029,1.229-0.191,1.755-0.559
		c0.157-0.113,0.309-0.232,0.463-0.348c0.082-0.059,0.165-0.105,0.251-0.154c0.009,0,0.019,0,0.027,0c0.015,0,0.028-0.002,0.041,0
		c0.063,0.004,0.128,0.016,0.19,0.027c0.168,0.031,0.334,0.078,0.497,0.123c0.518,0.145,1.028,0.305,1.558,0.4
		c1.229,0.221,2.414,0.018,3.348-0.865c0.297-0.283,0.541-0.607,0.754-0.957c0.318-0.516,0.154-1.193-0.363-1.51
		c-0.518-0.318-1.191-0.154-1.508,0.363c-0.129,0.211-0.271,0.412-0.465,0.574c-0.488,0.408-1.154,0.297-1.725,0.16
		c-0.965-0.236-2.008-0.734-3.015-0.42c-0.453,0.141-0.827,0.432-1.202,0.711c-0.101,0.076-0.267,0.219-0.382,0.236
		c-0.023,0.002-0.121,0.021-0.12,0.008c0.004-0.014-0.029-0.004-0.045-0.008c-0.023-0.006-0.042-0.014-0.064-0.021
		c-0.037-0.02-0.087-0.049-0.121-0.07c-0.161-0.092-0.313-0.203-0.461-0.314c-0.698-0.521-1.383-0.977-2.295-0.846
		c-0.443,0.063-0.864,0.232-1.256,0.445c-0.252,0.137-0.492,0.297-0.748,0.428c-0.209,0.107-0.424,0.17-0.66,0.154
		c-0.032,0-0.067,0.008-0.094-0.008c-0.081-0.041-0.164-0.072-0.242-0.119c-0.734-0.434-1.4-1.107-2.304-1.139
		c-0.336-0.012-0.65,0.084-0.961,0.201c-0.405,0.152-0.786,0.367-1.16,0.584c-0.322,0.184-0.653,0.391-1.026,0.445
		c-0.169,0.025-0.328,0.004-0.495-0.02c-0.023-0.014-0.056-0.025-0.078-0.041c-0.063-0.037-0.119-0.08-0.178-0.121
		c-0.167-0.123-0.329-0.254-0.492-0.383c-0.402-0.32-0.816-0.621-1.344-0.674c-0.588-0.059-1.164,0.139-1.706,0.34
		c-0.315,0.119-0.717,0.309-1.063,0.223c-0.297-0.072-0.455-0.348-0.604-0.596c-0.095-0.156-0.187-0.316-0.287-0.469
		c-0.332-0.502-0.779-0.963-1.384-1.115c-0.459-0.115-0.93,0.021-1.33,0.246c-0.109,0.063-0.213,0.131-0.318,0.201
		c-0.051,0.033-0.099,0.066-0.151,0.1c-0.015,0.004-0.029,0.01-0.045,0.014c-0.034,0.01-0.076,0.02-0.109,0.027
		c-0.134,0.031-0.272,0.049-0.409,0.055c-0.404,0.02-0.806-0.023-1.207-0.068c-0.112-0.012-0.229-0.104-0.319-0.164
		c-0.16-0.107-0.314-0.227-0.465-0.352c-0.44-0.363-0.906-0.814-1.487-0.928c-0.436-0.086-0.895-0.006-1.317,0.105
		c-0.225,0.057-0.447,0.123-0.673,0.172c-0.007-0.012-0.015-0.027-0.023-0.041c-0.049-0.092-0.092-0.186-0.131-0.281
		C16.888,61.065,16.464,60.788,16.012,60.782z"/>
</g>
<path d="M21.844,58.803c-0.038-0.762,0.546-1.408,1.307-1.445c0.761-0.039,1.408,0.547,1.445,1.307
	c0.038,0.762-0.548,1.408-1.309,1.447C22.528,60.149,21.882,59.563,21.844,58.803z"/>
<path d="M60.5,57.928c-0.038-0.76,0.546-1.406,1.307-1.443c0.761-0.039,1.407,0.545,1.445,1.307c0.038,0.76-0.548,1.408-1.309,1.445
	C61.185,59.274,60.537,58.688,60.5,57.928z"/>
<path d="M26.392,61.729c-0.038-0.76,0.548-1.406,1.307-1.445c0.761-0.037,1.408,0.549,1.446,1.309
	c0.038,0.762-0.548,1.408-1.309,1.447C27.076,63.077,26.429,62.491,26.392,61.729z"/>
<g>
	<path d="M68.469,48.2c-0.823-0.109-1.646,0.193-2.419,0.555c-0.55,0.258-0.785,0.908-0.527,1.457
		c0.256,0.551,0.912,0.789,1.462,0.533c0.273-0.129,0.552-0.254,0.846-0.328c0.115-0.029,0.253-0.061,0.369-0.031
		c0.107,0.027,0.201,0.111,0.282,0.182c0.092,0.078,0.177,0.168,0.26,0.256c0.001,0.07,0.001,0.143,0,0.213
		c-0.006,0.203-0.02,0.404-0.027,0.607C68.708,51.821,68.7,52,68.709,52.178c0.006,0.129,0.005,0.256,0.028,0.383
		c0.027,0.15,0.057,0.301,0.126,0.434c0.104,0.191,0.233,0.371,0.384,0.527c0.071,0.074,0.175,0.111,0.268,0.154
		c0.34,0.158,0.677,0.105,1.021,0.023c0.503-0.119,1.022-0.209,1.54-0.219c0.161-0.002,0.347,0.006,0.519,0.041
		c-0.048,0.17-0.121,0.334-0.201,0.488c-0.293,0.57-0.068,1.271,0.501,1.566c0.57,0.293,1.269,0.068,1.563-0.502
		c0.195-0.379,0.364-0.775,0.446-1.197c0.052-0.268,0.071-0.543,0.036-0.814c-0.026-0.209-0.083-0.416-0.174-0.605
		c-0.587-1.26-2.115-1.363-3.319-1.23c-0.161,0.02-0.317,0.037-0.478,0.064c0.015-0.504,0.036-1.061-0.219-1.512
		c-0.166-0.297-0.443-0.547-0.692-0.775c-0.231-0.213-0.483-0.402-0.765-0.547C69.02,48.319,68.742,48.235,68.469,48.2z"/>
</g>
<g>
	<path d="M77.936,53.088c-0.827,0.02-1.646,0.201-2.437,0.43c-0.969,0.277-1.911,0.637-2.852,0.998
		c-0.468,0.18-0.937,0.361-1.41,0.527c-0.816,0.285-1.64,0.547-2.451,0.846c-1.484,0.551-2.956,1.178-4.307,2.008
		c-0.398,0.246-0.781,0.508-1.147,0.799c-0.052,0.039-0.104,0.078-0.155,0.123c-0.083,0.07-0.177,0.137-0.245,0.223
		c-0.089,0.107-0.153,0.23-0.223,0.35c-0.058,0.096-0.094,0.211-0.133,0.314c-0.073,0.191-0.134,0.387-0.191,0.584
		c-0.253,0.871-0.404,1.785-0.437,2.691c-0.037,0.975,0.053,2.088,0.71,2.869c0.179,0.211,0.401,0.385,0.619,0.555
		c0.268,0.207,0.545,0.402,0.824,0.596c0.812,0.559,1.648,1.084,2.49,1.594c1.208,0.732,2.437,1.439,3.698,2.076
		c0.385,0.195,0.775,0.383,1.175,0.547c0.272,0.111,0.555,0.221,0.847,0.268c0.491,0.083,1.01-0.055,1.484-0.162
		c0.619-0.143,1.231-0.309,1.844-0.479c1.372-0.381,2.736-0.795,4.086-1.254c1.017-0.344,2.036-0.699,3.009-1.158
		c1.497-0.709,3.021-1.371,4.472-2.174c0.451-0.248,0.907-0.506,1.312-0.828c0.21-0.168,0.414-0.365,0.546-0.602
		c0.183-0.326,0.275-0.715,0.36-1.074c0.184-0.779,0.262-1.588,0.228-2.385c-0.025-0.58-0.112-1.162-0.292-1.713
		c-0.053-0.16,0.003-0.002-0.272-0.67c-0.098-0.201-0.258-0.34-0.433-0.451c-0.408-0.387-0.897-0.701-1.367-1.006
		c-0.658-0.43-1.326-0.842-1.999-1.248c-0.459-0.279-0.921-0.553-1.378-0.834c-0.956-0.582-1.919-1.158-2.942-1.615
		C80.012,53.405,78.992,53.067,77.936,53.088z M77.867,55.299c0.248-0.012,0.5,0,0.746,0.049c0.933,0.186,1.812,0.633,2.636,1.088
		c0.59,0.326,1.164,0.68,1.74,1.029c0.545,0.33,1.093,0.652,1.635,0.984c0.602,0.367,1.202,0.744,1.785,1.139
		c0.197,0.133,0.393,0.266,0.583,0.414h0.004c0.001,0,0.004,0.004,0.004,0.004c0.149,0.352,0.114,0.254,0.15,0.369
		c0.047,0.141,0.083,0.283,0.111,0.428c0.104,0.572,0.097,1.162,0.025,1.74c-0.034,0.281-0.09,0.563-0.163,0.838
		c-0.023,0.088-0.045,0.168-0.072,0.254c-0.034,0.025-0.064,0.049-0.101,0.074c-0.12,0.084-0.244,0.16-0.369,0.236
		c-0.4,0.242-0.817,0.463-1.234,0.678c-0.906,0.465-1.83,0.895-2.755,1.32c-0.379,0.176-0.752,0.359-1.134,0.529
		c-0.729,0.322-1.486,0.592-2.239,0.852c-0.829,0.285-1.663,0.551-2.501,0.805c-0.779,0.238-1.562,0.469-2.349,0.68
		c-0.575,0.152-1.154,0.301-1.74,0.4c-0.026-0.01-0.046-0.02-0.072-0.027c-0.074-0.025-0.147-0.053-0.219-0.082
		c-0.216-0.088-0.429-0.182-0.639-0.283c-0.833-0.396-1.642-0.846-2.444-1.303c-1.255-0.711-2.495-1.457-3.692-2.262
		c-0.286-0.191-0.573-0.385-0.847-0.592c-0.082-0.063-0.159-0.125-0.237-0.191c-0.028-0.025-0.061-0.049-0.086-0.072
		c-0.002-0.002-0.003-0.004-0.005-0.006c0.008,0.012-0.021-0.023-0.027-0.035c-0.018-0.031-0.029-0.061-0.041-0.092
		c-0.036-0.102-0.06-0.209-0.077-0.314c-0.062-0.369-0.057-0.748-0.032-1.119c0.03-0.473,0.1-0.945,0.199-1.408
		c0.059-0.26,0.126-0.518,0.21-0.77c0.02-0.055,0.038-0.109,0.06-0.162c0.015-0.014,0.031-0.025,0.046-0.039
		c0.039-0.029,0.077-0.064,0.118-0.094c0.087-0.068,0.166-0.125,0.255-0.188c0.275-0.195,0.561-0.377,0.851-0.547
		c0.892-0.518,1.836-0.945,2.792-1.33c1.063-0.426,2.152-0.781,3.233-1.16c0.971-0.342,1.918-0.738,2.887-1.084
		c0.738-0.264,1.49-0.51,2.263-0.654C77.37,55.348,77.618,55.309,77.867,55.299z"/>
</g>
<g>
	<path d="M64.066,64.891c-1.428-0.033-3.183,0.885-3.27,2.465c-0.028,0.502,0.141,0.984,0.418,1.396
		c-0.471,0.309-0.868,0.689-1.128,1.24c-0.159,0.334-0.266,0.701-0.302,1.07c-0.023,0.248-0.015,0.499,0.041,0.741
		c0.042,0.186,0.113,0.363,0.205,0.529c0.435,0.773,1.238,1.023,2.058,1.105c-0.044,0.119-0.104,0.232-0.131,0.355
		c-0.168,0.74,0.041,1.469,0.542,2.031c0.856,0.963,2.213,1.256,3.45,1.084c0.124-0.018,0.246-0.043,0.37-0.068
		c0.002,0.008,0.003,0.016,0.005,0.021c0.169,0.705,0.428,1.381,0.964,1.887c0.195,0.184,0.42,0.342,0.66,0.459
		c0.861,0.42,1.685,0.176,2.424-0.318c0.052,0.088,0.101,0.18,0.158,0.264c0.401,0.572,1.077,0.934,1.758,1.057
		c1.301,0.236,2.666-0.441,3.211-1.658c0.184-0.408,0.254-0.846,0.245-1.293c-0.014-0.641-0.542-1.15-1.183-1.137
		c-0.642,0.012-1.147,0.541-1.134,1.182c0.003,0.115-0.008,0.227-0.061,0.328c-0.176,0.35-0.648,0.385-0.947,0.184
		c-0.169-0.285-0.335-0.57-0.51-0.852c-0.081-0.131-0.169-0.297-0.291-0.393c-0.115-0.09-0.236-0.18-0.364-0.25
		c-0.121-0.066-0.264-0.088-0.4-0.105c-0.523-0.064-0.988,0.186-1.394,0.488c-0.146,0.107-0.286,0.223-0.438,0.324
		c-0.048,0.031-0.066,0.045-0.108,0.066c-0.257-0.215-0.316-0.582-0.393-0.896c-0.118-0.494-0.251-1.016-0.583-1.416
		c-0.068-0.082-0.125-0.182-0.219-0.238c-0.214-0.125-0.437-0.264-0.683-0.299c-0.215-0.031-0.436,0.047-0.646,0.105
		c-0.089,0.023-0.161,0.092-0.237,0.141c-0.029,0.018-0.055,0.037-0.082,0.061c-0.051,0.016-0.102,0.029-0.154,0.045
		c-0.194,0.051-0.392,0.08-0.594,0.086c-0.29,0.01-0.594-0.023-0.859-0.15c-0.077-0.037-0.151-0.086-0.214-0.143
		c-0.038-0.033-0.064-0.072-0.097-0.109c0.008-0.025,0.014-0.043,0.023-0.072c0.018-0.049,0.038-0.105,0.06-0.154
		c0.067-0.156,0.144-0.307,0.204-0.465c0.174-0.445,0.251-0.938,0.105-1.402c-0.017-0.051-0.029-0.107-0.056-0.154
		c-0.06-0.113-0.122-0.227-0.204-0.322c-0.071-0.086-0.16-0.15-0.25-0.216c-0.434-0.309-1.032-0.227-1.53-0.246
		c-0.147-0.006-0.293-0.012-0.438-0.039c-0.021-0.006-0.042-0.014-0.064-0.02c0.011-0.051,0.021-0.105,0.037-0.154
		c0.068-0.207,0.21-0.342,0.392-0.457c0.263-0.164,0.559-0.283,0.838-0.414c0.266-0.121,0.519-0.232,0.705-0.473
		c0.056-0.072,0.108-0.146,0.146-0.227c0.22-0.465,0.149-1.002-0.177-1.395c-0.233-0.279-0.55-0.398-0.88-0.506
		c-0.008-0.01-0.015-0.018-0.022-0.027c-0.015-0.018-0.028-0.037-0.04-0.059c0.003-0.006,0.004-0.012,0.009-0.014
		c0.253-0.256,0.634-0.389,0.992-0.377c0.606,0.014,1.113-0.465,1.129-1.072C65.152,65.411,64.672,64.909,64.066,64.891z"/>
</g>
<g>
	<path d="M87.588,63.754c-0.606-0.023-1.119,0.445-1.143,1.051c-0.023,0.607,0.45,1.119,1.057,1.143
		c0.314,0.014,0.632-0.006,0.946,0.016c0.23,0.014,0.393,0.076,0.547,0.244c0.115,0.125,0.211,0.273,0.296,0.42
		c0.015,0.025,0.027,0.049,0.041,0.072c0.013,0.023,0.029,0.049,0.042,0.072c0.012,0.023,0.007,0.021,0.004,0.01
		c-0.002-0.008-0.002,0.021-0.004,0.027c-0.005,0.016-0.009,0.021-0.015,0.037c-0.018,0.047-0.038,0.094-0.064,0.137
		c-0.071,0.123-0.163,0.238-0.259,0.346c-0.315,0.352-0.696,0.619-1.052,0.926c-0.095,0.08-0.197,0.174-0.265,0.281
		c-0.054,0.086-0.128,0.168-0.146,0.27c-0.041,0.236-0.045,0.482-0.027,0.723c0.007,0.088,0.062,0.166,0.101,0.246
		c0.056,0.109,0.137,0.213,0.219,0.305c0.256,0.295,0.585,0.518,0.87,0.783c0.033,0.031,0.061,0.07,0.096,0.105
		c-0.064,0.047-0.128,0.092-0.197,0.133c-0.214,0.125-0.441,0.229-0.673,0.318c-0.723,0.276-1.507,0.46-2.282,0.499
		c-0.173,0.012-0.349,0.014-0.522-0.004c-0.044-0.004-0.089-0.014-0.133-0.023c-0.03-0.004-0.045-0.008-0.072-0.018
		c-0.002,0-0.004,0-0.005,0c-0.001-0.002-0.003,0-0.004,0c-0.002,0,0-0.004,0-0.004c-0.554-0.324-1.266-0.139-1.59,0.414
		s-0.139,1.264,0.415,1.59c0.619,0.352,1.341,0.398,2.04,0.359c0.696-0.039,1.395-0.168,2.066-0.355
		c0.617-0.172,1.225-0.398,1.784-0.715c0.629-0.354,1.225-0.846,1.473-1.543c0.297-0.837-0.058-1.614-0.647-2.218
		c-0.065-0.068-0.145-0.123-0.214-0.188c0.465-0.438,0.893-0.908,1.133-1.516c0.159-0.398,0.228-0.832,0.161-1.258
		c-0.062-0.377-0.232-0.711-0.429-1.033c-0.388-0.631-0.922-1.191-1.631-1.451C88.868,63.719,88.245,63.78,87.588,63.754z"/>
</g>
<path stroke="#000000" stroke-width="2.5" stroke-linejoin="round" stroke-miterlimit="10" d="M67.069,57.961l10.327,6.82
	l-1.604,12.485l7.843-3.68l1.674-10.405l-11.146-7.9L67.069,57.961z"/>
<g>
	<path d="M97.32,51.928c-0.607-0.021-1.113,0.455-1.135,1.063c-0.018,0.684-0.761,1.221-1.279,1.551
		c-0.102,0.066-0.208,0.131-0.313,0.193c-0.116,0.064-0.227,0.125-0.347,0.186c-0.858,0.441-1.773,0.762-2.695,1.037
		c-1.176,0.355-2.38,0.617-3.588,0.834c-0.631,0.115-1.049,0.717-0.934,1.348s0.717,1.049,1.348,0.934
		c1.685-0.311,3.357-0.703,4.963-1.307c0.965-0.363,1.912-0.799,2.773-1.367c0.934-0.611,1.83-1.439,2.15-2.545
		c0.074-0.258,0.107-0.518,0.118-0.787C98.401,52.461,97.926,51.95,97.32,51.928z"/>
</g>
<g>
	<path d="M102.151,30.066c-0.606-0.016-1.113,0.464-1.13,1.071c-0.018,0.814-0.785,1.466-1.393,1.903
		c-0.136,0.098-0.274,0.188-0.414,0.278c-0.95,0.601-1.998,1.052-3.051,1.434c-1.279,0.463-2.594,0.825-3.921,1.125
		c-4.342,0.98-8.853,1.339-13.297,1.307c-2.139-0.016-4.279-0.132-6.407-0.36c-2.156-0.231-4.304-0.578-6.411-1.102
		c-1.295-0.323-2.582-0.715-3.814-1.23c-0.819-0.341-1.625-0.735-2.354-1.243c-0.665-0.462-1.509-1.161-1.526-2.044
		c-0.016-0.641-0.548-1.149-1.187-1.135c-0.642,0.016-1.146,0.554-1.131,1.193c0.066,2.388,2.277,3.918,4.217,4.873
		c0.358,0.176,0.724,0.338,1.093,0.491c0.475,0.198,0.957,0.38,1.443,0.548c0.612,0.208,1.23,0.394,1.854,0.564
		c2.033,0.555,4.112,0.934,6.202,1.202c2.402,0.309,4.823,0.466,7.244,0.501c2.99,0.042,5.983-0.102,8.953-0.456
		c2.188-0.261,4.371-0.632,6.51-1.17c0.757-0.189,1.509-0.404,2.25-0.642c0.598-0.192,1.189-0.4,1.772-0.634
		c0.458-0.184,0.912-0.379,1.356-0.596c0.276-0.136,0.548-0.277,0.814-0.429c1.629-0.918,3.334-2.293,3.394-4.322
		C103.233,30.59,102.758,30.083,102.151,30.066z"/>
</g>
<path fill="none" stroke="#000000" stroke-width="2.5" stroke-linejoin="round" stroke-miterlimit="10" d="M97.171,53.399l1.5-9.412
	"/>
<path fill="none" stroke="#000000" stroke-width="2.5" stroke-linejoin="round" stroke-miterlimit="10" d="M49.085,33.81
	c1.789-1.958,3.187-3.133,7.957-2.954"/>
<g>
	<path d="M102.305,30.109c-0.606-0.016-1.113,0.463-1.128,1.07c-0.017,0.606,0.464,1.108,1.069,1.125
		c0.896,0.019,1.806,0.139,2.682,0.318c0.552,0.114,1.104,0.261,1.626,0.475c0.35,0.143,0.702,0.316,0.983,0.573
		c0.124,0.113,0.237,0.252,0.287,0.415c0.052,0.17,0.038,0.369,0.004,0.542c-0.02,0.109-0.06,0.217-0.117,0.313
		c-0.076,0.125-0.181,0.23-0.297,0.319c-0.175,0.134-0.372,0.236-0.573,0.324c-0.61,0.262-1.271,0.399-1.922,0.519
		c-0.771,0.143-1.548,0.246-2.323,0.364c-0.149,0.023-0.305,0.045-0.454,0.069c-0.197,0.03-0.426,0.055-0.61,0.132
		c-0.228,0.093-0.435,0.253-0.56,0.468c-0.05,0.084-0.088,0.172-0.114,0.265c-0.053,0.178-0.058,0.377-0.023,0.56
		c0.092,0.475,0.542,0.771,0.875,1.074c0.17,0.158,0.342,0.315,0.505,0.479c0.21,0.21,0.412,0.43,0.596,0.665
		c0.263,0.332,0.635,0.828,0.388,1.26c-0.097,0.174-0.243,0.317-0.392,0.447c-0.273,0.237-0.584,0.432-0.9,0.604
		c-0.479,0.265-0.977,0.482-1.517,0.579c-1.37,0.244-2.729-0.3-3.844-1.065c-0.251-0.172-0.496-0.358-0.729-0.555
		c-0.146-0.127-0.286-0.257-0.426-0.393c-0.254-0.245-0.474-0.558-0.857-0.651c-0.081-0.021-0.165-0.04-0.251-0.041
		c-0.416-0.006-0.783,0.194-1.011,0.542c-0.163,0.252-0.159,0.574-0.223,0.837c-0.086,0.359-0.225,0.706-0.41,1.024
		c-0.622,1.078-1.699,1.634-2.899,1.818c-0.787,0.119-1.585,0.08-2.374,0.008c-1.313-0.117-2.653-0.35-3.861-0.906
		c-0.353-0.162-0.694-0.357-1.001-0.596c-0.151-0.118-0.307-0.248-0.419-0.405c0-0.002-0.004-0.003-0.005-0.005
		c0-0.001,0.001-0.004,0-0.006c-0.015-0.021-0.029-0.045-0.045-0.066c-0.047-0.064-0.104-0.132-0.163-0.183
		c-0.109-0.095-0.229-0.175-0.364-0.223c-0.097-0.033-0.192-0.06-0.292-0.068c-0.11-0.011-0.225-0.006-0.333,0.013
		c-0.184,0.034-0.36,0.123-0.511,0.236c-0.119,0.093-0.217,0.216-0.291,0.347c-0.023,0.044-0.045,0.091-0.063,0.137
		c-0.008,0.017-0.014,0.038-0.02,0.055c-0.001,0.003-0.001,0.009-0.004,0.015c-0.002,0.001-0.005,0.002-0.005,0.004
		c0,0.001,0,0.003,0,0.004c-0.004,0.011-0.013,0.021-0.019,0.032c-0.016,0.032-0.03,0.059-0.05,0.09
		c-0.05,0.08-0.107,0.156-0.169,0.229c-0.204,0.244-0.456,0.447-0.729,0.609c-1.22,0.738-2.798,0.861-4.193,0.824
		c-1.676-0.043-3.508-0.293-5.019-1.051c-0.477-0.24-0.933-0.539-1.306-0.924c-0.12-0.125-0.233-0.261-0.327-0.405
		c-0.032-0.048-0.062-0.096-0.088-0.146c-0.007-0.016-0.016-0.026-0.021-0.042c-0.204-0.607-0.864-0.938-1.472-0.733
		c-0.608,0.204-0.933,0.864-0.729,1.472c0.143,0.417,0.396,0.8,0.674,1.138c0.601,0.73,1.391,1.289,2.231,1.713
		c1.547,0.775,3.29,1.111,5.004,1.242c1.319,0.102,2.666,0.082,3.966-0.182c1.221-0.25,2.429-0.732,3.355-1.586
		c0.061-0.055,0.112-0.119,0.17-0.176c0.241,0.172,0.498,0.33,0.76,0.473c1.518,0.822,3.254,1.176,4.959,1.338
		c2.066,0.199,4.19,0.119,5.951-1.125c0.27-0.189,0.524-0.404,0.756-0.637c0.46-0.461,0.829-1.006,1.112-1.594
		c0.578,0.443,1.188,0.846,1.847,1.152c0.881,0.41,1.832,0.676,2.806,0.709c1.279,0.047,2.419-0.309,3.524-0.924
		c0.385-0.213,0.76-0.447,1.102-0.723c0.358-0.287,0.687-0.621,0.938-1.006c0.159-0.244,0.286-0.51,0.369-0.788
		c0.32-1.075-0.083-2.107-0.725-2.97c-0.131-0.176-0.281-0.339-0.427-0.505c0.001,0,0.003,0.001,0.004,0
		c1.044-0.162,2.1-0.333,3.097-0.697c0.631-0.23,1.244-0.551,1.729-1.024c0.947-0.921,1.279-2.449,0.716-3.66
		c-0.251-0.538-0.662-0.98-1.138-1.326c-0.771-0.558-1.695-0.886-2.61-1.119C104.827,30.313,103.558,30.14,102.305,30.109z"/>
</g>
<g>
	<path d="M80.953,9.499c-0.625-0.014-1.257,0.039-1.871,0.164c-3.669,0.749-6.494,3.465-8.856,6.207
		c-0.477,0.553-0.941,1.119-1.402,1.685c-0.209,0.257-0.428,0.51-0.629,0.774c-0.513,0.675-0.88,1.439-1.292,2.177
		c-0.275,0.491-0.586,0.981-1.007,1.361c-0.699,0.634-1.557,1.091-2.381,1.54c-0.474,0.256-0.951,0.504-1.427,0.759
		c-0.397,0.214-0.796,0.436-1.188,0.66c-1.961,1.129-4.06,2.599-4.69,4.9c-0.082,0.299-0.137,0.606-0.163,0.915
		c-0.053,0.59,0.003,1.175,0.122,1.753c0.13,0.628,0.748,1.032,1.375,0.902c0.627-0.13,1.032-0.743,0.901-1.371
		c-0.074-0.357-0.118-0.719-0.086-1.083c0.11-1.268,1.072-2.221,2.04-2.942c1.351-1.007,2.885-1.734,4.358-2.541
		c0.941-0.516,1.893-1.06,2.69-1.785c0.502-0.456,0.92-1.016,1.27-1.594c0.427-0.702,0.749-1.466,1.226-2.139
		c0.255-0.36,0.551-0.697,0.829-1.039c0.394-0.482,0.787-0.961,1.193-1.434c1.216-1.417,2.517-2.798,4.048-3.88
		c0.994-0.702,2.097-1.278,3.287-1.557c0.438-0.103,0.883-0.167,1.335-0.178c2.904-0.069,5.369,1.961,7.367,3.843
		c0.379,0.357,0.749,0.723,1.12,1.088c0.438,0.432,0.875,0.865,1.316,1.293c0.619,0.601,1.259,1.184,1.916,1.744
		c1.32,1.125,2.703,2.18,3.953,3.383c0.652,0.629,1.262,1.304,1.813,2.027c0.749,0.985,1.508,1.989,2.053,3.105
		c0.372,0.759,0.64,1.583,0.647,2.436c0.002,0.337-0.042,0.665-0.109,0.992c-0.123,0.595,0.261,1.176,0.855,1.298
		c0.595,0.123,1.176-0.262,1.298-0.856c0.112-0.548,0.168-1.097,0.146-1.657c-0.091-2.309-1.396-4.298-2.729-6.096
		c-0.313-0.424-0.626-0.848-0.966-1.253c-0.462-0.554-0.96-1.078-1.479-1.58c-1.474-1.423-3.121-2.647-4.65-4.007
		c-0.558-0.496-1.094-1.014-1.624-1.539c-0.407-0.402-0.809-0.807-1.217-1.207C87.77,12.239,84.772,9.584,80.953,9.499z"/>
</g>
<path d="M80.106,7.909c-0.455,0.018-0.912,0.06-1.361,0.123c-1.351,0.19-2.683,0.559-3.934,1.097
	c-0.843,0.362-1.654,0.803-2.392,1.348c-0.484,0.357-0.924,0.768-1.344,1.198c-0.4,0.411-0.778,0.846-1.116,1.311
	c-0.355,0.493-0.646,1.021-0.915,1.566c-0.104,0.216-0.211,0.43-0.332,0.638c-0.042,0.074-0.09,0.146-0.137,0.219
	c-0.008,0.012-0.009,0.025-0.018,0.036c-0.229,0.254-0.486,0.491-0.729,0.733c-0.59,0.593-1.182,1.183-1.771,1.776
	c-0.066,0.066-0.135,0.135-0.2,0.201c-0.065,0.065,0.002-0.004-0.392,0.391c-0.011,0.012-0.014,0.026-0.023,0.036
	c-0.001,0.001-0.008,0.004-0.009,0.006c-0.108,0.064-0.23,0.14-0.337,0.208c-0.364,0.234-0.715,0.493-1.052,0.765
	c-1.099,0.889-2.136,2.008-2.604,3.366c-0.111,0.318-0.189,0.648-0.219,0.983c-0.134,1.468,0.618,2.684,1.742,3.556
	c0.394,0.305,0.806,0.561,1.294,0.679c0.487,0.118,0.985,0.102,1.48,0.06c0.239-0.022,0.479-0.044,0.719-0.042
	c0.083,0.001,0.164,0.01,0.237,0.051c0.14,0.077,0.214,0.294,0.269,0.428c0.096,0.232,0.178,0.472,0.291,0.697
	c0.353,0.69,0.859,1.167,1.594,1.406c0.946,0.309,1.982,0.203,2.833-0.317c0.541-0.333,0.978-0.793,1.397-1.262
	c0.187-0.208,0.385-0.408,0.578-0.611c0.067-0.07,0.145-0.13,0.2-0.21c0.04-0.021,0.08-0.045,0.119-0.067
	c0.156-0.093,0.317-0.181,0.47-0.283c0.01-0.001,0.014,0,0.021,0c0.054-0.001,0.106-0.004,0.16-0.004
	c0.106-0.001,0.216-0.003,0.322-0.004c0.107-0.003,0.213,0.001,0.319-0.006c0.001,0,0.003,0.001,0.004,0
	c0.013,0.004,0.024,0.006,0.036,0.01c0.021,0.007,0.04,0.018,0.061,0.026c0.058,0.026,0.114,0.055,0.169,0.092
	c0.16,0.108,0.296,0.25,0.418,0.4c0.358,0.438,0.632,0.936,0.987,1.376c0.62,0.765,1.396,1.285,2.4,1.343
	c0.822,0.046,1.845-0.182,2.454-0.761c0.463-0.44,0.745-1.033,0.989-1.613c0.176-0.424,0.326-0.861,0.531-1.275
	c0.059-0.117,0.123-0.235,0.201-0.341c0.015-0.02,0.032-0.039,0.05-0.06c0.015,0.006,0.03,0.009,0.045,0.015
	c0.018,0.006,0.051,0.025,0.064,0.032c0.088,0.043,0.169,0.094,0.246,0.154c0.214,0.162,0.402,0.358,0.578,0.56
	c0.553,0.631,1.016,1.34,1.489,2.031c0.799,1.166,1.616,2.363,2.69,3.297c0.794,0.688,1.747,1.207,2.805,1.306
	c0.297,0.029,0.598,0.021,0.894-0.013c0.504-0.06,0.995-0.206,1.457-0.414c0.456-0.207,0.879-0.468,1.202-0.856
	c0.319-0.382,0.519-0.85,0.606-1.339c0.077-0.437,0.071-0.884,0.021-1.324c-0.115-1.035-0.47-2.019-0.701-3.028
	c-0.039-0.173-0.065-0.354-0.086-0.533c0.121,0.045,0.24,0.098,0.354,0.146c0.281,0.121,0.558,0.255,0.833,0.387
	c0.252,0.12,0.503,0.239,0.757,0.356c1.237,0.568,2.889,1.244,4.152,0.382c0.118-0.081,0.231-0.177,0.332-0.277
	c0.138-0.138,0.255-0.29,0.355-0.456c0.175-0.291,0.289-0.612,0.364-0.942c0.079-0.347,0.118-0.71,0.101-1.065
	c-0.046-0.905-0.475-1.693-1.062-2.363c-0.44-0.504-0.962-0.931-1.406-1.43c-0.348-0.389-0.654-0.819-0.979-1.225
	c-0.471-0.589-0.947-1.173-1.434-1.749c-0.797-0.942-1.619-1.865-2.469-2.759c-2.242-2.36-4.712-4.588-7.56-6.197
	c-1.769-1.001-3.716-1.76-5.756-1.936C81.013,7.897,80.56,7.892,80.106,7.909z M83.343,15.522c0.659,0,1.193,0.53,1.193,1.188
	c0,0.658-0.534,1.193-1.193,1.193c-0.658,0-1.193-0.535-1.193-1.193C82.15,16.052,82.685,15.522,83.343,15.522z M88.216,18.245
	c0.978,0,1.771,0.792,1.771,1.772c0,0.978-0.793,1.77-1.771,1.77c-0.979,0-1.772-0.792-1.772-1.77
	C86.444,19.038,87.237,18.245,88.216,18.245z"/>
<g>
	<path d="M103.47,10.624c-1.57-0.107-3.068,0.852-4.226,1.84c-1.136,0.972-2.127,2.114-3.077,3.265
		c-0.537,0.651-1.052,1.325-1.616,1.953c-0.428,0.478-0.386,1.212,0.091,1.639c0.477,0.429,1.211,0.386,1.64-0.09
		c0.472-0.526,0.903-1.085,1.348-1.635c0.51-0.63,1.031-1.252,1.575-1.853c0.597-0.66,1.227-1.299,1.926-1.849
		c0.414-0.324,0.858-0.626,1.348-0.824c0.186-0.075,0.381-0.134,0.579-0.16c0.132-0.018,0.264-0.021,0.396,0
		c0.179,0.029,0.403,0.105,0.527,0.246c0.112,0.126,0.132,0.313,0.137,0.474c0.01,0.379-0.086,0.763-0.204,1.121
		c-0.127,0.38-0.299,0.744-0.478,1.102c-0.607,1.205-1.376,2.329-2.232,3.37c-0.906,1.102-1.928,2.125-3.105,2.937
		c-0.5,0.345-0.626,1.03-0.282,1.53c0.345,0.5,1.03,0.622,1.53,0.278c1.104-0.761,2.086-1.674,2.982-2.668
		c0.883-0.979,1.674-2.04,2.367-3.161c0.69-1.116,1.371-2.358,1.599-3.666c0.092-0.529,0.112-1.077-0.009-1.603
		c-0.09-0.39-0.253-0.761-0.497-1.079c-0.24-0.314-0.551-0.563-0.896-0.751c-0.236-0.128-0.484-0.229-0.743-0.3
		C103.922,10.676,103.697,10.639,103.47,10.624z"/>
</g>
<polygon points="20.346,45.999 18.087,45.489 18.087,51.319 20.346,54.161 29.146,56.483 43.058,55.983 55.248,55.282 
	62.608,52.485 65.418,50.852 65.418,47.676 65.418,44.098 60.498,44.098 61.207,46.436 59.773,48.694 57.579,49.643 50.731,48.694 
	45.776,47.53 43.058,47.53 41.753,50.034 37.979,50.29 33.229,49.497 29.891,48.176 27.768,46.073 "/>
</svg>
