<svg width="52" height="52" viewBox="0 0 52 52" fill="none" xmlns="http://www.w3.org/2000/svg">
<path d="M0 12.0347C0 10.1491 0 9.20624 0.585786 8.62045C1.17157 8.03467 2.11438 8.03467 4 8.03467H47.7241C49.6098 8.03467 50.5526 8.03467 51.1384 8.62045C51.7241 9.20624 51.7241 10.149 51.7241 12.0347V19.9657C51.7241 20.4371 51.7241 20.6728 51.5777 20.8193C51.4312 20.9657 51.1955 20.9657 50.7241 20.9657H1C0.528596 20.9657 0.292893 20.9657 0.146447 20.8193C0 20.6728 0 20.4371 0 19.9657V12.0347Z" fill="#637CC6"/>
<path fill-rule="evenodd" clip-rule="evenodd" d="M0 47.9998C0 49.8854 0 50.8282 0.585786 51.414C1.17157 51.9998 2.11438 51.9998 4 51.9998H47.7241C49.6098 51.9998 50.5526 51.9998 51.1384 51.414C51.7241 50.8282 51.7241 49.8854 51.7241 47.9998V25.4136C51.7241 24.9422 51.7241 24.7065 51.5777 24.56C51.4312 24.4136 51.1955 24.4136 50.7241 24.4136H1C0.528596 24.4136 0.292893 24.4136 0.146447 24.56C0 24.7065 0 24.9422 0 25.4136V47.9998ZM12.069 31.4481C12.069 30.9767 12.069 30.741 12.2154 30.5945C12.3619 30.4481 12.5976 30.4481 13.069 30.4481H16.2414C16.7128 30.4481 16.9485 30.4481 17.0949 30.5945C17.2414 30.741 17.2414 30.9767 17.2414 31.4481V34.6205C17.2414 35.0919 17.2414 35.3276 17.0949 35.474C16.9485 35.6205 16.7128 35.6205 16.2414 35.6205H13.069C12.5976 35.6205 12.3619 35.6205 12.2154 35.474C12.069 35.3276 12.069 35.0919 12.069 34.6205V31.4481ZM23.4223 30.5945C23.2759 30.741 23.2759 30.9767 23.2759 31.4481V34.6205C23.2759 35.0919 23.2759 35.3276 23.4223 35.474C23.5688 35.6205 23.8045 35.6205 24.2759 35.6205H27.4483C27.9197 35.6205 28.1554 35.6205 28.3018 35.474C28.4483 35.3276 28.4483 35.0919 28.4483 34.6205V31.4481C28.4483 30.9767 28.4483 30.741 28.3018 30.5945C28.1554 30.4481 27.9197 30.4481 27.4483 30.4481H24.2759C23.8045 30.4481 23.5688 30.4481 23.4223 30.5945ZM34.4828 31.4481C34.4828 30.9767 34.4828 30.741 34.6292 30.5945C34.7757 30.4481 35.0114 30.4481 35.4828 30.4481H38.6552C39.1266 30.4481 39.3623 30.4481 39.5087 30.5945C39.6552 30.741 39.6552 30.9767 39.6552 31.4481V34.6205C39.6552 35.0919 39.6552 35.3276 39.5087 35.474C39.3623 35.6205 39.1266 35.6205 38.6552 35.6205H35.4828C35.0114 35.6205 34.7757 35.6205 34.6292 35.474C34.4828 35.3276 34.4828 35.0919 34.4828 34.6205V31.4481ZM12.2154 40.9393C12.069 41.0858 12.069 41.3215 12.069 41.7929V44.9653C12.069 45.4367 12.069 45.6724 12.2154 45.8189C12.3619 45.9653 12.5976 45.9653 13.069 45.9653H16.2414C16.7128 45.9653 16.9485 45.9653 17.0949 45.8189C17.2414 45.6724 17.2414 45.4367 17.2414 44.9653V41.7929C17.2414 41.3215 17.2414 41.0858 17.0949 40.9393C16.9485 40.7929 16.7128 40.7929 16.2414 40.7929H13.069C12.5976 40.7929 12.3619 40.7929 12.2154 40.9393ZM23.2759 41.7929C23.2759 41.3215 23.2759 41.0858 23.4223 40.9393C23.5688 40.7929 23.8045 40.7929 24.2759 40.7929H27.4483C27.9197 40.7929 28.1554 40.7929 28.3018 40.9393C28.4483 41.0858 28.4483 41.3215 28.4483 41.7929V44.9653C28.4483 45.4367 28.4483 45.6724 28.3018 45.8189C28.1554 45.9653 27.9197 45.9653 27.4483 45.9653H24.2759C23.8045 45.9653 23.5688 45.9653 23.4223 45.8189C23.2759 45.6724 23.2759 45.4367 23.2759 44.9653V41.7929ZM34.6292 40.9393C34.4828 41.0858 34.4828 41.3215 34.4828 41.7929V44.9653C34.4828 45.4367 34.4828 45.6724 34.6292 45.8189C34.7757 45.9653 35.0114 45.9653 35.4828 45.9653H38.6552C39.1266 45.9653 39.3623 45.9653 39.5087 45.8189C39.6552 45.6724 39.6552 45.4367 39.6552 44.9653V41.7929C39.6552 41.3215 39.6552 41.0858 39.5087 40.9393C39.3623 40.7929 39.1266 40.7929 38.6552 40.7929H35.4828C35.0114 40.7929 34.7757 40.7929 34.6292 40.9393Z" fill="#637CC6"/>
<path d="M12.931 2.8623L12.931 10.6209" stroke="#637CC6" stroke-width="5" stroke-linecap="round"/>
<path d="M38.7931 2.8623L38.7931 10.6209" stroke="#637CC6" stroke-width="5" stroke-linecap="round"/>
</svg>
