<svg width="54" height="54" viewBox="0 0 54 54" fill="none" xmlns="http://www.w3.org/2000/svg">
<path d="M33.3557 44.1608L28.9847 42.1434L33.3557 44.1608L36.7678 36.7679L44.1608 33.3557C49.5829 30.8532 49.5829 23.1468 44.1608 20.6443L42.0655 25.1841L44.1608 20.6443L36.7678 17.2321L33.3557 9.83916C30.8531 4.41708 23.1468 4.41706 20.6443 9.83916L25.184 11.9345L20.6443 9.83916L17.2321 17.2321L9.83912 20.6443C4.41705 23.1468 4.41702 30.8532 9.83912 33.3557L17.2321 36.7679L20.6443 44.1608C23.1468 49.5829 30.8531 49.5829 33.3557 44.1608ZM16.7689 18.2356L16.7689 18.2356C16.7689 18.2356 16.7689 18.2356 16.7689 18.2356ZM18.2356 37.231L18.2356 37.231C18.2356 37.231 18.2356 37.231 18.2356 37.231Z" fill="#637CC6" stroke="#FFF7EE" stroke-width="10"/>
</svg>
