<?xml version="1.0" encoding="utf-8"?>
<!-- Generator: Adobe Illustrator 16.0.0, SVG Export Plug-In . SVG Version: 6.00 Build 0)  -->
<!DOCTYPE svg PUBLIC "-//W3C//DTD SVG 1.1//EN" "http://www.w3.org/Graphics/SVG/1.1/DTD/svg11.dtd">
<svg version="1.1" id="Layer_1" xmlns="http://www.w3.org/2000/svg" xmlns:xlink="http://www.w3.org/1999/xlink" x="0px" y="0px"
	 width="86.354px" height="85.032px" viewBox="0 0 86.354 85.032" enable-background="new 0 0 86.354 85.032" xml:space="preserve">
<g>
	<g>
		<path fill="#010101" d="M28.587,24.918c-1.249,0.094-2.435,0.598-3.132,1.748c-0.138,0.227-0.245,0.464-0.328,0.715
			c-0.137,0.403-0.202,0.829-0.206,1.254c-0.005,0.501,0.075,1.006,0.217,1.486c0.345,1.178,1.053,2.239,1.962,3.059
			c0.852,0.767,1.88,1.352,2.905,1.85c0.372,0.181,0.754,0.348,1.135,0.51c0.129,0.055,0.258,0.111,0.385,0.165
			c0.065,0.027-0.003,0.001,0.382,0.159c0.148,0.061,0.307,0.076,0.459,0.085c0.063,0.024,0.262,0.101,0.397,0.147
			c0.276,0.095,0.552,0.187,0.834,0.267c1.212,0.347,2.487,0.577,3.751,0.619c0.771,0.025,1.556-0.055,2.285-0.324
			c0.443-0.163,0.866-0.396,1.226-0.703c0.294-0.251,0.545-0.551,0.737-0.885c0.975-1.681,0.287-3.675-0.855-5.072
			c-1.002-1.224-2.367-2.116-3.769-2.82c-1.42-0.715-2.924-1.256-4.459-1.668c-0.874-0.235-1.772-0.448-2.673-0.556
			C29.426,24.903,29.003,24.887,28.587,24.918z M28.705,27.772c0.232-0.024,0.461-0.021,0.693,0c0.412,0.038,0.826,0.127,1.231,0.21
			c0.659,0.135,1.313,0.296,1.957,0.488c1.765,0.526,3.605,1.257,5.072,2.395c0.382,0.295,0.735,0.628,1.031,1.01
			c0.164,0.208,0.309,0.435,0.422,0.675c0.068,0.151,0.123,0.308,0.157,0.471c0.025,0.117,0.037,0.238,0.029,0.357
			c-0.04,0.595-0.7,0.773-1.198,0.834c-0.465,0.057-0.937,0.021-1.401-0.028c-0.855-0.092-1.699-0.264-2.523-0.511
			c-0.234-0.07-0.467-0.145-0.697-0.227c-0.042-0.015-0.171-0.065-0.194-0.074c-0.091-0.067-0.175-0.143-0.283-0.188
			c-0.73-0.301-0.485-0.198-0.727-0.301c-0.229-0.097-0.461-0.196-0.687-0.3c-0.666-0.306-1.317-0.648-1.923-1.062
			c-0.829-0.563-1.554-1.332-1.799-2.332c-0.129-0.521-0.142-1.131,0.448-1.333C28.441,27.814,28.572,27.787,28.705,27.772z"/>
	</g>
	<g>
		<path fill="#010101" d="M26.334,26.371c-0.532,0.041-1.017,0.393-1.196,0.931c-0.779,2.324-1.72,4.594-2.611,6.876
			c-1.581,4.046-3.13,8.137-4.125,12.374c-0.472,2.014-0.826,4.077-0.833,6.151c-0.006,1.493,0.182,2.993,0.721,4.392
			c0.37,0.961,0.892,1.879,1.594,2.639c0.423,0.457,0.915,0.852,1.458,1.156c0.436,0.246,0.904,0.428,1.391,0.545
			c2.357,0.572,4.695-0.506,6.36-2.145c0.685-0.676,1.258-1.457,1.826-2.23c0.843-1.145,1.631-2.324,2.379-3.534
			c2.785-4.509,4.994-9.419,6.354-14.547c0.203-0.772-0.262-1.566-1.033-1.77c-0.771-0.205-1.562,0.255-1.765,1.027
			c-0.913,3.456-2.24,6.792-3.863,9.974c-1.337,2.617-2.873,5.137-4.625,7.495c-0.254,0.342-0.512,0.688-0.782,1.016
			c-1.113,1.344-3.098,2.684-4.856,1.703c-0.289-0.162-0.552-0.373-0.777-0.613c-0.289-0.309-0.526-0.662-0.721-1.033
			c-0.661-1.254-0.862-2.664-0.862-4.067c-0.002-1.863,0.313-3.723,0.731-5.532c0.995-4.324,2.607-8.49,4.222-12.613
			c0.829-2.12,1.693-4.229,2.416-6.389c0.24-0.717-0.146-1.496-0.862-1.736C26.693,26.379,26.512,26.357,26.334,26.371z"/>
	</g>
	<g>
		<path fill="#010101" d="M22.158,58.485c-0.532-0.047-1.067,0.225-1.333,0.725c-0.922,1.732-1.693,3.539-2.627,5.266
			c-0.18,0.332-0.374,0.654-0.563,0.982c-0.393,0.693-0.149,1.58,0.544,1.975c0.695,0.393,1.582,0.148,1.976-0.545
			c0.397-0.711,0.784-1.42,1.13-2.156c0.379-0.809,0.715-1.637,1.083-2.451c0.272-0.605,0.57-1.199,0.879-1.787
			c0.354-0.668,0.102-1.496-0.566-1.85C22.514,58.556,22.336,58.499,22.158,58.485z"/>
	</g>
	<g>
		<path fill="#010101" d="M14.329,60.499c-2.327,0.053-4.423,1.797-4.528,4.193c-0.016,0.377,0.022,0.754,0.107,1.123
			c0.34,1.447,1.443,2.521,2.542,3.449c2.151,1.814,4.806,3.006,7.593,3.404c1.3,0.186,2.636,0.219,3.92-0.102
			c1.661-0.414,3.33-1.506,3.535-3.348c0.034-0.318,0.021-0.645-0.035-0.959c-0.072-0.396-0.214-0.773-0.402-1.129
			c-0.118-0.221-0.255-0.436-0.403-0.637c-0.051-0.068,0.005,0.002-0.307-0.379c-0.129-0.152-0.285-0.268-0.454-0.352
			c0-0.002-0.004,0-0.006,0c-0.108-0.115-0.315-0.338-0.492-0.5c-0.388-0.352-0.799-0.682-1.22-0.992
			c-1.942-1.436-4.178-2.549-6.496-3.223c-0.773-0.225-1.562-0.395-2.36-0.488C14.992,60.522,14.659,60.491,14.329,60.499z
			 M14.356,63.278c0.56-0.033,1.158,0.086,1.685,0.199c1.086,0.232,2.138,0.609,3.15,1.061c1.182,0.527,2.316,1.166,3.358,1.936
			c0.401,0.295,0.79,0.611,1.151,0.953c0.089,0.084,0.192,0.184,0.278,0.271c0.003,0.004,0.014,0.016,0.018,0.018
			c0.049,0.094,0.08,0.193,0.152,0.277c0.478,0.902,0.514,0.578,0.476,0.902c-0.03,0.281-0.432,0.51-0.651,0.619
			c-0.771,0.379-1.695,0.453-2.542,0.402c-2.68-0.164-5.276-1.197-7.313-2.951c-0.199-0.17-0.39-0.35-0.579-0.533
			c-0.544-0.531-1.135-1.143-0.878-1.969c0.052-0.166,0.138-0.324,0.243-0.465C13.281,63.503,13.799,63.313,14.356,63.278z"/>
	</g>
	<g>
		<path fill="#010101" d="M24.115,39.154c-0.368,0.035-0.727,0.209-0.98,0.516c-0.51,0.615-0.423,1.527,0.192,2.037
			c0.896,0.739,1.861,1.391,2.895,1.923c3.035,1.566,6.447,2.234,9.831,2.451c0.755,0.049,1.403-0.522,1.452-1.276
			c0.05-0.755-0.521-1.409-1.276-1.458c-3.933-0.262-7.976-1.297-11.059-3.869C24.863,39.223,24.483,39.12,24.115,39.154z"/>
	</g>
</g>
<g>
	<g>
		<path fill="#010101" d="M54.55,33.174c-0.396-0.009-0.795-0.001-1.186,0.017c-1.591,0.073-3.164,0.339-4.704,0.732
			c-0.877,0.223-1.761,0.477-2.598,0.823c-1.547,0.639-2.926,1.845-2.985,3.637c-0.009,0.265,0.013,0.529,0.062,0.789
			c0.08,0.418,0.232,0.819,0.438,1.191c0.242,0.439,0.556,0.841,0.913,1.191c0.877,0.858,2.012,1.439,3.207,1.708
			c1.118,0.252,2.299,0.256,3.437,0.188c0.414-0.025,0.826-0.063,1.238-0.108c0.138-0.015,0.281-0.029,0.42-0.045
			c0.07-0.009,0.001,0,0.413-0.051c0.164-0.02,0.31-0.079,0.449-0.147c0.063-0.009,0.269-0.042,0.408-0.068
			c0.287-0.053,0.572-0.108,0.857-0.175c1.227-0.292,2.452-0.712,3.573-1.294c0.688-0.356,1.334-0.816,1.838-1.407
			c0.307-0.359,0.557-0.764,0.721-1.208c0.133-0.362,0.205-0.749,0.211-1.135c0.025-1.942-1.555-3.346-3.236-4.005
			C56.923,33.371,55.735,33.201,54.55,33.174z M54.374,35.959c0.47,0.007,0.937,0.045,1.396,0.114
			c0.478,0.071,0.95,0.187,1.395,0.374c0.242,0.103,0.479,0.226,0.693,0.38c0.135,0.098,0.264,0.209,0.373,0.335
			c0.078,0.089,0.148,0.187,0.199,0.295c0.256,0.538-0.23,1.02-0.637,1.316c-0.377,0.277-0.807,0.475-1.235,0.658
			c-0.791,0.339-1.61,0.605-2.451,0.794c-0.239,0.053-0.479,0.101-0.721,0.142c-0.041,0.007-0.17,0.025-0.192,0.028
			c-0.116-0.015-0.23-0.038-0.352-0.023c-0.783,0.095-0.521,0.068-0.783,0.097c-0.246,0.027-0.495,0.048-0.744,0.068
			c-0.729,0.059-1.463,0.08-2.195,0.017c-0.998-0.086-2.002-0.401-2.707-1.151c-0.364-0.391-0.681-0.914-0.265-1.379
			c0.089-0.101,0.19-0.189,0.3-0.267c0.19-0.134,0.396-0.246,0.607-0.34c0.378-0.169,0.779-0.294,1.174-0.42
			c0.641-0.205,1.29-0.38,1.946-0.528C51.523,36.166,52.963,35.938,54.374,35.959z"/>
	</g>
	<g>
		<path fill="#010101" d="M44.201,37.497c-0.742,0.142-1.231,0.857-1.09,1.6c0.458,2.408,0.743,4.847,1.084,7.273
			c0.604,4.303,1.255,8.625,2.462,12.806c0.574,1.988,1.276,3.959,2.286,5.77c0.727,1.305,1.627,2.521,2.781,3.479
			c0.794,0.658,1.692,1.203,2.677,1.521c0.594,0.189,1.216,0.293,1.839,0.295c0.501,0,0.999-0.07,1.48-0.205
			c2.336-0.656,3.852-2.742,4.5-4.986c0.266-0.926,0.381-1.885,0.498-2.838c0.174-1.41,0.281-2.824,0.34-4.244
			c0.223-5.296-0.256-10.658-1.582-15.795c-0.201-0.773-0.992-1.238-1.764-1.038c-0.773,0.2-1.238,0.985-1.039,1.758
			c0.898,3.46,1.373,7.018,1.516,10.588c0.115,2.935,0.008,5.886-0.363,8.8c-0.055,0.422-0.105,0.846-0.182,1.266
			c-0.313,1.717-1.389,3.863-3.404,3.869c-0.33,0-0.661-0.059-0.975-0.158c-0.401-0.129-0.777-0.316-1.13-0.545
			c-1.19-0.771-2.064-1.904-2.752-3.127c-0.913-1.623-1.544-3.398-2.066-5.18c-1.247-4.258-1.885-8.682-2.494-13.067
			c-0.316-2.255-0.596-4.521-1.022-6.757C45.659,37.838,44.943,37.355,44.201,37.497z"/>
	</g>
	<g>
		<path fill="#010101" d="M56.308,67.624c-0.756,0.02-1.351,0.646-1.333,1.402c0.044,1.961,0.258,3.916,0.291,5.877
			c0.005,0.377-0.01,0.76-0.013,1.135c-0.004,0.799,0.643,1.449,1.441,1.453c0.798,0.004,1.448-0.643,1.452-1.441
			c0-0.813-0.016-1.621-0.074-2.434c-0.066-0.891-0.176-1.777-0.254-2.666c-0.059-0.662-0.092-1.328-0.109-1.992
			C57.689,68.202,57.064,67.606,56.308,67.624z"/>
	</g>
	<g>
		<path fill="#010101" d="M58.561,71.653c-1.821-0.064-3.666,0.111-5.431,0.521c-0.782,0.184-1.554,0.416-2.297,0.727
			c-0.305,0.127-0.611,0.262-0.896,0.432c-2.003,1.186-2.976,3.73-1.896,5.871c0.171,0.338,0.387,0.652,0.641,0.932
			c1.004,1.096,2.499,1.494,3.911,1.764c2.764,0.529,5.659,0.262,8.282-0.754c1.225-0.475,2.408-1.102,3.369-2.008
			c1.248-1.176,2.172-2.945,1.447-4.654c-0.123-0.293-0.295-0.564-0.498-0.811c-0.258-0.311-0.568-0.576-0.908-0.795
			c-0.211-0.135-0.432-0.25-0.658-0.352c-0.08-0.035-0.002,0-0.459-0.182c-0.193-0.07-0.389-0.102-0.58-0.09
			c-0.145-0.045-0.438-0.135-0.67-0.188c-0.51-0.117-1.029-0.207-1.547-0.271C59.771,71.72,59.168,71.675,58.561,71.653z
			 M58.096,74.394c0.648,0.006,1.297,0.045,1.939,0.125c0.494,0.061,0.986,0.146,1.471,0.266c0.117,0.031,0.256,0.068,0.373,0.104
			c0.006,0.002,0.031,0.01,0.035,0.012c0.084,0.053,0.16,0.121,0.262,0.158c0.855,0.553,0.729,0.254,0.855,0.557
			c0.109,0.26-0.133,0.66-0.271,0.861c-0.488,0.709-1.258,1.221-2.021,1.59c-2.416,1.168-5.183,1.539-7.817,1.01
			c-0.258-0.053-0.512-0.115-0.766-0.182c-0.735-0.197-1.551-0.443-1.73-1.289c-0.036-0.172-0.042-0.348-0.018-0.521
			c0.17-1.236,1.448-1.672,2.479-1.992c1.061-0.328,2.164-0.516,3.269-0.617C56.8,74.413,57.447,74.388,58.096,74.394z"/>
	</g>
	<g>
		<path fill="#010101" d="M61.166,47.522c-0.178,0.008-0.357,0.049-0.529,0.131c-3.556,1.696-7.587,2.776-11.533,2.042
			c-0.786-0.144-1.542,0.377-1.686,1.164c-0.144,0.785,0.378,1.541,1.162,1.684c1.144,0.207,2.306,0.297,3.468,0.256
			c3.413-0.121,6.712-1.205,9.769-2.672c0.684-0.327,0.975-1.145,0.646-1.827C62.219,47.789,61.697,47.498,61.166,47.522z"/>
	</g>
</g>
<g>
	<path fill="#010101" d="M53.386,25.605c-0.185,0.028-0.368,0.095-0.539,0.199c-0.88,0.549-1.731,1.135-2.614,1.679
		c-0.646,0.394-0.854,1.238-0.461,1.884c0.394,0.646,1.238,0.853,1.885,0.459c0.89-0.535,1.803-1.024,2.694-1.555
		c0.683-0.415,0.898-1.303,0.482-1.985C54.521,25.774,53.943,25.523,53.386,25.605z"/>
</g>
<g>
	<path fill="#010101" d="M51.09,19.404c-0.558-0.094-1.137,0.142-1.46,0.647c-1.111,1.765-2.181,3.56-3.296,5.322
		c-0.406,0.638-0.218,1.483,0.42,1.889c0.637,0.406,1.483,0.218,1.89-0.42c1.124-1.756,2.297-3.483,3.426-5.237
		c0.429-0.673,0.231-1.568-0.442-1.997C51.46,19.5,51.274,19.435,51.09,19.404z"/>
</g>
<g>
	<path fill="#010101" d="M44.529,18.842c-0.797-0.04-1.481,0.575-1.52,1.373c-0.058,1.367-0.063,2.736-0.125,4.103
		c-0.038,0.755,0.543,1.397,1.298,1.435c0.756,0.038,1.398-0.544,1.437-1.299c0.072-1.365,0.205-2.731,0.283-4.096
		C45.942,19.559,45.327,18.882,44.529,18.842z"/>
</g>
<g>
	<path fill="#010101" d="M37.403,17.872c-0.187-0.003-0.383,0.032-0.566,0.107c-0.74,0.302-1.091,1.144-0.79,1.884
		c0.908,2.199,1.861,4.381,2.764,6.582c0.285,0.7,1.082,1.034,1.781,0.749c0.7-0.286,1.04-1.082,0.755-1.782
		c-0.893-2.205-1.733-4.431-2.621-6.638C38.5,18.219,37.967,17.879,37.403,17.872z"/>
</g>
<g>
	<g>
		<path fill="#4374BA" d="M24.898,12.2c-0.771-1.867-1.541-3.734-2.312-5.602c-0.365-0.884-1.761-1.393-2.285-0.298
			c-0.845,1.767-1.69,3.533-2.535,5.3c-0.281,0.587,0.688-0.429,0.079-0.053c-0.506,0.313-1.012,0.625-1.518,0.938
			c-0.745,0.46-1.49,0.92-2.234,1.38c-0.978,0.604-0.694,1.908,0.298,2.285c0.759,0.288,1.518,0.575,2.277,0.863
			c0.46,0.174,0.921,0.349,1.382,0.523c0.856,0.325-0.609-0.86-0.271-0.19c0.828,1.64,1.656,3.28,2.484,4.92
			c0.407,0.806,1.757,0.826,2.158,0c0.784-1.613,1.567-3.226,2.351-4.839c0.284-0.584-0.692,0.391-0.044,0.053
			c0.387-0.202,0.774-0.403,1.161-0.605c0.799-0.417,1.599-0.833,2.398-1.25c0.808-0.421,0.822-1.741,0-2.158
			c-1.322-0.671-2.643-1.342-3.965-2.014c-1.434-0.728-2.7,1.429-1.262,2.159c1.322,0.671,2.643,1.342,3.965,2.013
			c0-0.719,0-1.439,0-2.158c-1.073,0.559-3.734,1.303-4.292,2.451c-0.824,1.695-1.647,3.391-2.471,5.086c0.719,0,1.439,0,2.158,0
			c-0.859-1.702-1.718-3.404-2.577-5.105c-0.622-1.231-3.612-1.714-4.788-2.16c0.099,0.762,0.199,1.523,0.298,2.285
			c1.135-0.701,3.86-1.677,4.456-2.924c0.883-1.846,1.766-3.692,2.648-5.538c-0.761-0.1-1.523-0.199-2.285-0.298
			c0.771,1.867,1.541,3.734,2.312,5.602C23.093,14.333,25.513,13.691,24.898,12.2z"/>
	</g>
</g>
<g>
	<g>
		<path fill="#4374BA" d="M32.267,4.675c0.079-1.476,2.205-1.475,2.284,0C34.63,6.151,32.346,6.144,32.267,4.675
			c-0.086-1.604-2.587-1.612-2.5,0c0.11,2.057,1.583,3.531,3.641,3.642c2.053,0.11,3.542-1.75,3.644-3.642
			c0.111-2.054-1.752-3.541-3.644-3.642c-2.053-0.11-3.539,1.751-3.641,3.642C29.68,6.287,32.18,6.279,32.267,4.675z"/>
	</g>
</g>
<g>
	<g>
		<path fill="#4374BA" d="M78.547,45.342c0.079-1.476,2.206-1.476,2.285,0C80.911,46.818,78.626,46.81,78.547,45.342
			c-0.086-1.604-2.587-1.612-2.5,0c0.11,2.058,1.585,3.531,3.643,3.642c2.053,0.11,3.541-1.75,3.643-3.642
			c0.11-2.053-1.751-3.541-3.643-3.643c-2.054-0.11-3.541,1.751-3.643,3.643C75.96,46.954,78.461,46.945,78.547,45.342z"/>
	</g>
</g>
<g>
	<g>
		<path fill="#4374BA" d="M73.203,33.786c-0.533-1.293-1.066-2.586-1.6-3.879c-0.364-0.884-1.761-1.393-2.284-0.298
			c-0.586,1.223-1.172,2.447-1.757,3.67c-0.227,0.473,0.676-0.473,0.192-0.174c-0.351,0.216-0.701,0.433-1.051,0.649
			c-0.517,0.319-1.032,0.637-1.548,0.956c-0.979,0.604-0.694,1.908,0.299,2.285c0.525,0.199,1.051,0.398,1.576,0.598
			c0.319,0.121,0.638,0.242,0.957,0.363c0.69,0.262-0.7-0.869-0.417-0.309c0.573,1.136,1.146,2.271,1.721,3.407
			c0.407,0.806,1.757,0.826,2.158,0c0.543-1.117,1.085-2.234,1.628-3.351c0.23-0.474-0.684,0.443-0.168,0.174
			c0.268-0.14,0.536-0.279,0.804-0.419c0.554-0.288,1.107-0.577,1.661-0.865c0.809-0.421,0.822-1.742,0-2.159
			c-0.915-0.464-1.831-0.929-2.746-1.394c-1.434-0.728-2.699,1.429-1.262,2.158c0.915,0.465,1.831,0.93,2.746,1.395
			c0-0.72,0-1.439,0-2.159c-0.814,0.424-2.681,0.95-3.11,1.835c-0.57,1.174-1.141,2.348-1.711,3.522c0.72,0,1.438,0,2.158,0
			c-0.595-1.179-1.19-2.357-1.785-3.536c-0.486-0.962-2.631-1.325-3.546-1.672c0.1,0.762,0.199,1.523,0.299,2.285
			c0.847-0.522,2.772-1.219,3.224-2.162c0.612-1.278,1.225-2.557,1.836-3.835c-0.762-0.1-1.522-0.199-2.284-0.298
			c0.533,1.293,1.066,2.586,1.6,3.879C71.398,35.919,73.818,35.276,73.203,33.786z"/>
	</g>
</g>
</svg>
