<svg width="251" height="247" viewBox="0 0 251 247" fill="none" xmlns="http://www.w3.org/2000/svg">
<path d="M198.128 107.663C197.561 107.574 196.976 107.614 196.429 107.788C196.012 107.918 195.621 108.15 195.239 108.355C194.976 108.494 194.698 108.642 194.437 108.784C194.177 108.923 193.922 109.059 193.661 109.198C193.14 109.479 192.66 109.742 192.141 110.029C191.403 110.44 190.662 110.851 189.93 111.274C183.448 115.002 177.157 119.276 172.166 124.906C169.797 127.579 167.759 130.523 166.069 133.67C163.338 138.753 161.497 144.266 160.07 149.844C158.02 157.846 156.726 166.045 155.507 174.204C154.989 177.675 154.509 181.157 154.222 184.655C153.848 189.2 153.805 193.815 154.818 198.287C156.208 204.437 159.586 209.807 163.127 214.931C164.172 216.445 166.254 216.819 167.771 215.774C169.285 214.729 169.658 212.647 168.613 211.13C165.698 206.906 162.783 202.506 161.494 197.471C160.293 192.796 160.582 187.877 161.077 183.12C161.706 177.116 162.702 171.135 163.732 165.191C164.656 159.841 165.712 154.494 167.186 149.265C168.39 144.992 169.899 140.789 172.012 136.877C173.546 134.037 175.425 131.368 177.611 128.983C180.874 125.428 184.765 122.509 188.824 119.927C190.986 118.552 193.201 117.263 195.445 116.027C195.922 115.767 196.403 115.512 196.884 115.254C201.536 120.352 206.107 125.691 209.269 131.901C211.211 135.711 212.554 139.796 213.278 144.011C214.141 149.037 214.184 154.17 213.875 159.248C213.519 165.026 212.699 170.767 211.758 176.473C210.849 182.011 209.943 187.564 208.678 193.036C207.589 197.735 206.206 202.471 203.617 206.585C201.226 210.392 197.877 213.385 194.342 216.098C192.799 217.282 192.506 219.491 193.69 221.031C194.874 222.574 197.083 222.869 198.626 221.682C201.177 219.723 203.643 217.65 205.815 215.267C207.809 213.078 209.523 210.647 210.901 208.024C212.94 204.147 214.242 199.932 215.27 195.691C216.249 191.667 216.987 187.59 217.69 183.511C219.199 174.788 220.655 166.01 220.968 157.149C221.257 148.944 220.438 140.699 217.389 133.024C214.485 125.726 209.761 119.342 204.599 113.488C204.066 112.883 203.525 112.287 202.981 111.69C202.604 111.274 202.242 110.871 201.86 110.46C200.812 109.325 199.753 107.918 198.128 107.663Z" fill="#637CC6"/>
<path d="M192.373 127.238C192.373 127.238 175.81 120.574 170.075 112.375C168.286 127.065 189.811 147.133 189.811 147.133L192.373 127.238Z" fill="#637CC6" stroke="#637CC6" stroke-width="6" stroke-miterlimit="10" stroke-linejoin="round"/>
<path d="M129.217 59.4099C129.217 49.7925 137.011 41.9961 146.631 41.9961C156.251 41.9961 164.048 49.7925 164.048 59.4099C164.048 69.0273 156.251 76.8237 146.631 76.8237C137.011 76.8237 129.217 69.0302 129.217 59.4099Z" stroke="#637CC6" stroke-width="6" stroke-miterlimit="10" stroke-linejoin="round"/>
<path d="M145.913 20.3457C143.965 20.3457 142.387 21.9235 142.387 23.869C142.413 26.8133 142.566 29.746 142.578 32.6902C142.578 34.5315 144.069 36.0225 145.91 36.0225C147.751 36.0225 149.254 34.5315 149.254 32.6902C149.266 29.746 149.407 26.8133 149.433 23.869C149.436 21.9235 147.859 20.3457 145.913 20.3457Z" fill="#637CC6"/>
<path d="M110.961 55.2949C109.016 55.2949 107.449 56.8727 107.449 58.8211C107.449 60.7695 109.016 62.3328 110.961 62.3328C113.905 62.3068 116.852 62.1649 119.797 62.1533C121.638 62.1533 123.129 60.6624 123.129 58.8211C123.129 56.9798 121.638 55.4744 119.797 55.4744C116.852 55.4599 113.905 55.321 110.961 55.2949Z" fill="#637CC6"/>
<path d="M182.02 55.2949C179.076 55.321 176.132 55.4628 173.187 55.4744C171.343 55.4744 169.855 56.9798 169.855 58.8211C169.855 60.6624 171.346 62.1533 173.187 62.1533C176.132 62.1649 179.076 62.3068 182.02 62.3328C183.966 62.3328 185.532 60.7666 185.532 58.8211C185.532 56.8756 183.966 55.2949 182.02 55.2949Z" fill="#637CC6"/>
<path d="M123.708 31.5857C122.813 31.7131 121.968 32.1879 121.386 32.9695C120.219 34.5271 120.535 36.7389 122.09 37.9056C122.776 38.4065 123.502 38.861 124.177 39.3705C124.904 39.9206 125.584 40.5343 126.264 41.1394C127.634 42.3727 129.744 42.2598 130.977 40.8904C132.214 39.5211 132.101 37.4077 130.728 36.1773C129.955 35.4709 129.249 34.695 128.476 33.9915C127.793 33.372 127.052 32.8277 126.319 32.2631C125.543 31.6783 124.6 31.4583 123.708 31.5857Z" fill="#637CC6"/>
<path d="M166.911 32.7461C166.008 32.7461 165.113 33.0964 164.424 33.7825C163.941 34.3471 163.99 34.2892 163.941 34.3471C163.964 34.3007 164.036 34.2371 164.007 34.211C163.868 34.072 163.773 34.5237 163.648 34.68C163.527 34.8363 163.147 35.2995 163.275 35.1519C163.663 34.7003 163.278 35.1461 162.872 35.5804C161.572 36.8831 161.572 38.9907 162.872 40.2935C164.175 41.5963 166.3 41.5963 167.603 40.2935C168.115 39.8593 168.06 39.9085 168.115 39.865C168.24 39.8506 168.373 39.6334 168.503 39.5321C168.66 39.4105 169.123 39.0313 168.972 39.1587C168.521 39.5437 168.969 39.1587 169.401 38.7562C170.776 37.3811 170.776 35.1548 169.401 33.7796C168.712 33.0964 167.811 32.7461 166.911 32.7461Z" fill="#637CC6"/>
<path d="M145.913 83.3613C144.069 83.3613 142.581 84.8494 142.581 86.6935C142.566 89.6378 142.413 92.5705 142.39 95.5119C142.39 97.4574 143.968 99.0381 145.916 99.0381C147.861 99.0381 149.439 97.4603 149.439 95.5119C149.413 92.5676 149.271 89.6349 149.26 86.6935C149.257 84.8494 147.754 83.3613 145.913 83.3613Z" fill="#637CC6"/>
<path d="M128.673 77.399C127.819 77.3556 126.95 77.6277 126.267 78.2444C125.587 78.8494 124.907 79.4632 124.18 80.0132C123.505 80.5257 122.779 80.9773 122.093 81.4781C120.535 82.6448 120.222 84.8567 121.389 86.4142C122.556 87.9718 124.768 88.2844 126.325 87.1206C127.055 86.5561 127.796 86.0118 128.482 85.3923C129.258 84.6917 129.964 83.9158 130.734 83.2094C132.107 81.9761 132.219 79.8627 130.983 78.4962C130.364 77.8072 129.524 77.4453 128.673 77.399Z" fill="#637CC6"/>
<path d="M165.241 78.1055C164.387 78.1055 163.527 78.4355 162.875 79.0869C161.575 80.3897 161.575 82.5002 162.875 83.8029C163.301 84.3009 163.263 84.2459 163.304 84.3009C163.301 84.4254 163.544 84.5672 163.648 84.7004C163.773 84.8567 164.138 85.3229 164.007 85.1723C163.625 84.7207 164.022 85.1694 164.424 85.6008C165.802 86.9759 168.026 86.9759 169.404 85.6008C170.779 84.2227 170.779 81.9993 169.404 80.6242C168.88 80.1783 168.932 80.2246 168.877 80.1812C168.906 80.187 168.952 80.242 168.972 80.2247C169.114 80.0828 168.66 79.9728 168.503 79.8512C168.344 79.7296 167.881 79.3648 168.031 79.4922C168.483 79.8772 168.037 79.4922 167.606 79.0898C166.949 78.4355 166.092 78.1055 165.241 78.1055Z" fill="#637CC6"/>
<path d="M234.849 222.037C234.392 222.057 233.92 222.176 233.48 222.384C227.95 225.053 221.871 224.715 216.005 223.545C214.199 223.18 212.442 224.35 212.08 226.156C211.715 227.96 212.885 229.717 214.691 230.082C220.145 231.188 225.863 231.845 231.352 230.58C233.147 230.163 234.858 229.523 236.52 228.739C238.277 227.902 239.015 225.794 238.179 224.04C237.55 222.723 236.219 221.976 234.849 222.037Z" fill="#637CC6"/>
<path d="M167.244 209.318C157.792 209.078 148.414 211.351 139.469 214.28C136.151 215.366 132.874 216.553 129.597 217.752C128.638 218.102 127.68 218.449 126.722 218.8C125.995 219.066 125.283 219.341 124.524 219.477C122.654 219.819 120.706 219.671 118.827 219.463C116.134 219.164 113.471 218.635 110.796 218.232C108.688 217.917 106.578 217.685 104.45 217.94C98.4949 218.658 93.4893 222.34 88.8283 225.835C87.6037 226.752 86.3733 227.687 85.1226 228.57C84.2512 229.19 83.3769 229.795 82.4273 230.287C79.7667 231.659 76.7964 232.38 73.8406 232.76C69.2056 233.359 64.504 233.098 59.8922 232.444C58.0683 232.183 56.3776 233.454 56.117 235.278C55.8564 237.102 57.1274 238.778 58.9513 239.039C64.7559 239.867 70.7081 240.116 76.5098 239.108C79.7783 238.541 83.0092 237.568 85.939 235.982C87.7803 234.986 89.4739 233.721 91.1501 232.473C93.2317 230.924 95.293 229.361 97.4556 227.925C99.6906 226.437 102.195 225.085 104.879 224.677C106.52 224.425 108.162 224.659 109.786 224.911C110.877 225.079 111.96 225.276 113.048 225.461C117.2 226.173 121.531 226.917 125.726 226.179C127.706 225.835 129.582 225.024 131.464 224.341C134.185 223.353 136.912 222.372 139.66 221.451C149.546 218.139 160.032 215.392 170.544 216.53C177.322 217.262 183.766 219.766 190.095 222.169C195.812 224.344 201.519 226.599 207.375 228.379C209.755 229.1 212.152 229.72 214.578 230.258C216.477 230.681 218.359 229.474 218.782 227.574C219.204 225.675 218.012 223.794 216.112 223.374C207.572 221.483 199.477 218.183 191.311 215.117C184.826 212.682 178.225 210.303 171.294 209.576C169.942 209.44 168.593 209.353 167.244 209.318Z" fill="#637CC6"/>
<path d="M82.1638 153.326C81.2751 153.175 80.3313 153.358 79.538 153.922C77.9515 155.051 77.5781 157.257 78.7071 158.841C81.9496 163.372 85.3253 167.868 89.5607 171.533C93.3764 174.836 97.7943 177.338 102.198 179.761C103.81 180.652 105.828 180.062 106.72 178.446C107.611 176.834 107.032 174.801 105.42 173.913C101.74 171.877 98.0375 169.802 94.8297 167.057C90.7419 163.557 87.5371 159.119 84.4481 154.753C83.8806 153.96 83.0526 153.476 82.1638 153.326Z" fill="#637CC6"/>
<path d="M157.647 175.74C157.215 175.708 156.77 175.757 156.335 175.908C154.705 176.458 153.029 176.892 151.356 177.291C148.689 177.925 145.985 178.438 143.27 178.811C135.401 179.888 127.269 179.995 119.461 178.394C117.808 178.056 116.181 177.621 114.568 177.135C112.704 176.579 110.744 177.636 110.185 179.497C109.626 181.365 110.683 183.322 112.548 183.881C115.718 184.822 118.943 185.539 122.226 185.968C129.886 186.973 137.68 186.53 145.285 185.305C148.087 184.853 150.872 184.289 153.623 183.603C155.253 183.197 156.882 182.76 158.478 182.219C160.223 181.628 161.156 179.735 160.565 177.989C160.122 176.683 158.947 175.832 157.647 175.74Z" fill="#637CC6"/>
<path d="M80.4761 97.6973C78.2527 97.6307 76.0264 97.6799 73.829 97.8218C68.4037 98.1721 63.0218 99.1158 57.8049 100.642C54.1108 101.724 50.4804 103.097 47.0758 104.9C44.0446 106.507 41.2509 108.548 38.6019 110.719C34.0972 114.413 30.0876 118.736 26.9754 123.675C23.7271 128.831 21.5153 134.572 20.3109 140.541C18.1599 151.21 19.1269 162.292 21.4313 172.85C23.0699 180.36 25.3194 187.771 28.5387 194.763C34.7312 208.216 44.3428 219.961 56.311 228.69C59.6693 231.136 63.2128 233.354 66.9011 235.268C68.8553 236.284 70.8645 237.262 72.9431 238.006C74.6802 238.623 76.5822 237.708 77.2018 235.974C77.8184 234.234 76.9036 232.332 75.1694 231.715C75.1897 231.724 75.1347 231.707 75.1144 231.701C75.0652 231.681 75.0247 231.663 74.9755 231.643C74.8539 231.594 74.7236 231.539 74.602 231.49C74.2691 231.356 73.9361 231.232 73.6061 231.087C72.645 230.67 71.707 230.216 70.7718 229.747C67.9318 228.322 65.1902 226.687 62.5615 224.909C54.8577 219.692 48.0601 213.141 42.5971 205.608C39.6094 201.488 37.0125 197.096 34.8557 192.49C32.5744 187.618 30.8374 182.537 29.4362 177.352C27.9742 171.932 26.819 166.22 26.2429 160.471C29.3233 165.375 33.5414 169.686 39.2533 171.171C40.4229 171.475 41.6128 171.649 42.82 171.698C44.5513 171.767 46.2941 171.576 47.9761 171.171C53.4362 169.868 58.3636 166.655 61.4411 161.924C62.7728 159.877 63.7224 157.596 64.3853 155.245C68.4703 158.137 73.3108 160.3 78.4032 160.152C79.6249 160.115 80.8553 159.95 82.0394 159.64C88.0872 158.068 92.3545 153.123 94.4534 147.403C94.5808 147.058 94.6445 146.69 94.7574 146.34C98.2141 149.881 102.913 152.179 107.947 151.467C108.966 151.322 109.962 151.053 110.918 150.68C112.035 150.246 113.089 149.664 114.056 148.951C119.478 144.956 121.262 137.936 120.567 131.506C120.341 129.404 119.814 127.403 119.226 125.383C119.027 124.694 118.865 123.996 118.659 123.31C118.025 121.202 117.214 119.144 116.213 117.184C112.684 110.299 106.925 105.088 99.8846 101.892C93.8165 99.1448 87.1434 97.8999 80.4761 97.6973ZM75.8324 104.538C80.505 104.359 85.1863 104.712 89.6853 105.728C93.7326 106.643 97.6843 108.14 101.158 110.43C104.447 112.601 107.241 115.485 109.247 118.878C110.278 120.626 111.112 122.482 111.749 124.407C112.064 125.365 112.287 126.341 112.565 127.308C112.791 128.092 113.046 128.877 113.228 129.673C113.761 131.978 113.952 134.378 113.575 136.723C113.332 138.237 112.84 139.734 112.026 141.036C111.52 141.85 110.897 142.582 110.145 143.179C109.615 143.601 109.021 143.957 108.39 144.204C104.048 145.888 100.024 142.417 97.7596 139.033C97.3485 138.422 96.975 137.788 96.6247 137.14C96.4423 136.801 96.2715 136.451 96.0978 136.106C96.0863 136.08 96.0428 136.013 96.0573 136.037C96.0428 136.005 96.0312 135.973 96.0139 135.941C95.9647 135.837 95.9154 135.738 95.8633 135.637C95.7417 135.403 95.6144 135.165 95.4464 134.962C95.2293 134.696 94.9166 134.381 94.63 134.216C94.2855 134.016 93.9468 133.781 93.5531 133.715C92.9393 133.619 92.285 133.573 91.6858 133.744C91.101 133.912 90.5856 134.288 90.1224 134.685C89.83 134.934 89.6592 135.301 89.471 135.637C89.0165 136.462 89.1584 137.823 89.1121 138.746C89.0976 139.027 89.0802 139.311 89.057 139.592C89.0107 140.136 88.9355 140.68 88.8486 141.222C88.2175 145.139 86.4718 149.252 83.099 151.563C82.4708 151.988 81.7933 152.339 81.0812 152.596C76.4867 154.275 71.5361 151.838 67.8913 149.128C67.2225 148.63 66.5624 148.109 65.9284 147.565C65.5926 147.275 65.2741 146.977 64.947 146.679C64.9325 146.667 64.8891 146.638 64.9065 146.65V146.638C64.8804 146.615 64.8601 146.589 64.837 146.569C64.7588 146.496 64.6835 146.418 64.5996 146.349C64.3767 146.155 64.1422 145.978 63.8816 145.836C63.1463 145.437 62.2806 145.263 61.4469 145.419C61.1516 145.477 60.865 145.573 60.5899 145.697C59.7272 146.091 59.0787 146.821 58.7226 147.689C58.5981 147.996 58.5315 148.317 58.4881 148.645C58.4736 148.749 58.4563 148.856 58.4447 148.96C58.4418 148.992 58.4476 149.024 58.4447 149.056C58.4447 149.061 58.4447 149.064 58.4447 149.07C58.4447 149.096 58.4302 149.128 58.4302 149.114C58.4099 149.307 58.3868 149.501 58.3607 149.693C58.2652 150.468 58.1378 151.241 57.9757 152.003C57.7933 152.851 57.5675 153.685 57.2838 154.504C56.7163 156.137 55.9144 157.7 54.849 159.067C52.6632 161.875 49.36 163.719 45.8917 164.431C44.8582 164.643 43.7928 164.732 42.739 164.651C37.5713 164.243 33.9061 159.84 31.5004 155.653C31.0314 154.84 30.5942 154.012 30.186 153.167C29.2972 151.314 28.5445 149.394 27.9047 147.44C27.6991 146.815 27.5023 146.181 27.3228 145.547C27.2649 145.344 27.2099 145.142 27.1578 144.939C27.1433 144.878 27.1317 144.809 27.1172 144.748C27.1143 144.73 27.097 144.69 27.1028 144.704C27.013 144.322 26.8277 143.998 26.6338 143.68C27.3807 139.181 28.669 134.78 30.7824 130.629C32.0273 128.179 33.5066 125.863 35.206 123.701C37.7045 120.525 40.6401 117.717 43.8188 115.227C45.5182 113.898 47.2669 112.598 49.14 111.521C53.1409 109.222 57.5906 107.677 62.0519 106.559C66.5132 105.442 71.1598 104.721 75.8324 104.538Z" fill="#637CC6"/>
<path d="M63.9279 197.139C63.0738 197.154 62.2314 197.498 61.5916 198.164C60.312 199.49 60.3467 201.601 61.6726 202.877C68.864 209.82 77.3436 215.326 86.5586 219.191C92.2705 221.588 98.2112 223.305 104.268 224.582C106.173 224.981 108.043 223.765 108.442 221.86C108.842 219.955 107.611 218.082 105.707 217.686C95.3074 215.529 85.111 211.89 76.2058 206.018C72.6594 203.679 69.3648 201.025 66.3076 198.083C65.6447 197.44 64.7819 197.122 63.9279 197.139Z" fill="#637CC6"/>
<path d="M45.4718 166.42C43.6392 166.62 42.3278 168.267 42.5275 170.1C42.7736 172.32 43.48 174.515 44.2154 176.611C45.8076 181.15 48.0455 185.389 50.6713 189.413C51.7425 191.04 53.9283 191.494 55.5524 190.423C57.1794 189.355 57.6311 187.169 56.5628 185.542C54.3683 182.239 52.3592 178.765 50.8537 175.091C50.3297 173.814 49.8868 172.5 49.5394 171.165C49.4409 170.78 49.3396 170.395 49.2615 170.007C49.2325 169.857 49.2036 169.703 49.1804 169.55C49.1775 169.521 49.1514 169.379 49.1514 169.385C48.9488 167.549 47.3044 166.221 45.4718 166.42Z" fill="#637CC6"/>
<path d="M156.778 198.648C147.902 200.067 138.89 201.149 129.889 200.886C126.131 200.776 122.394 200.385 118.676 199.823C116.855 199.543 115.153 200.793 114.875 202.614C114.597 204.435 115.845 206.138 117.669 206.415C123.74 207.351 129.869 207.782 136.012 207.686C143.351 207.573 150.641 206.74 157.884 205.611C159.806 205.31 161.118 203.497 160.817 201.572C160.513 199.655 158.701 198.341 156.778 198.648Z" fill="#637CC6"/>
<path d="M60.9691 155.844C60.5406 155.783 60.089 155.798 59.6431 155.913C57.8598 156.374 56.7886 158.195 57.2518 159.975C57.7758 161.99 58.5691 163.956 59.4086 165.852C60.8301 169.06 62.5382 172.143 64.4692 175.073C70.1493 183.697 77.7836 190.955 86.6714 196.213C91.0401 198.798 95.6722 200.856 100.455 202.547C102.29 203.193 104.302 202.226 104.948 200.39C105.594 198.552 104.627 196.543 102.791 195.897C99.6065 194.78 96.4944 193.494 93.4864 191.957C85.2268 187.727 77.8704 181.781 72.2251 174.401C69.7324 171.138 67.5785 167.592 65.8501 163.863C65.2885 162.653 64.7703 161.428 64.3158 160.175C64.1594 159.744 64.0118 159.301 63.8728 158.861C63.8294 158.724 63.7889 158.585 63.7483 158.447C63.7367 158.406 63.731 158.386 63.7194 158.351C63.7165 158.337 63.702 158.293 63.7078 158.308C63.3604 156.964 62.2574 156.032 60.9691 155.844Z" fill="#637CC6"/>
<path d="M207.778 123.605L193.302 216.404" stroke="#637CC6" stroke-width="6" stroke-miterlimit="10" stroke-linejoin="round"/>
<path d="M180.112 120.396L167.015 212.083" stroke="#637CC6" stroke-width="6" stroke-miterlimit="10" stroke-linejoin="round"/>
<path d="M54.8606 194.385C54.8606 192.558 56.34 191.076 58.1696 191.076C59.9935 191.076 61.4758 192.558 61.4758 194.385C61.4758 196.212 59.9935 197.694 58.1696 197.694C56.34 197.694 54.8606 196.212 54.8606 194.385Z" fill="#637CC6"/>
<path d="M106.734 201.568C106.734 199.744 108.214 198.262 110.04 198.262C111.867 198.262 113.349 199.744 113.349 201.568C113.349 203.398 111.867 204.877 110.04 204.877C108.214 204.877 106.734 203.398 106.734 201.568Z" fill="#637CC6"/>
</svg>
