<svg width="36" height="50" viewBox="0 0 36 50" fill="none" xmlns="http://www.w3.org/2000/svg">
<path fill-rule="evenodd" clip-rule="evenodd" d="M18.3004 49.5023C21.6629 45.2765 35.0877 27.7004 35.0877 16.4474C35.0877 6.57895 26.9006 0 17.5439 0C8.5006 0 0 6.57895 0 16.4474C0 27.7004 13.4248 45.2765 16.7873 49.5023C17.177 49.992 17.9107 49.992 18.3004 49.5023ZM17.2802 25.5997L10.8994 18.8831C9.64868 17.5665 9.45303 15.5682 10.4247 14.034C12.0428 11.479 15.8115 11.6057 17.2544 14.2636L17.4071 14.5449L17.415 14.5593C17.4732 14.6569 17.6145 14.6569 17.6727 14.5593L17.6806 14.5449L17.8333 14.2636C19.2762 11.6057 23.0449 11.479 24.663 14.034C25.6347 15.5682 25.439 17.5665 24.1883 18.8831L17.8075 25.5997L17.8075 25.5997C17.6838 25.7299 17.6219 25.795 17.5439 25.795C17.4658 25.795 17.404 25.7299 17.2802 25.5997L17.2802 25.5997Z" fill="#637CC6"/>
</svg>
