<?xml version="1.0" encoding="utf-8"?>
<!-- Generator: Adobe Illustrator 16.0.0, SVG Export Plug-In . SVG Version: 6.00 Build 0)  -->
<!DOCTYPE svg PUBLIC "-//W3C//DTD SVG 1.1//EN" "http://www.w3.org/Graphics/SVG/1.1/DTD/svg11.dtd">
<svg version="1.1" id="Layer_1" xmlns="http://www.w3.org/2000/svg" xmlns:xlink="http://www.w3.org/1999/xlink" x="0px" y="0px"
	 width="192.186px" height="23.629px" viewBox="0 0 192.186 23.629" enable-background="new 0 0 192.186 23.629"
	 xml:space="preserve">
<g>
	<g>
		<path d="M4.186,15.5c12.988,0.775,25.99,1.108,39,1.216c13.753,0.114,27.5,0.726,41.25,0.784c3.225,0.014,3.224-4.986,0-5
			c-13.104-0.056-26.193-0.707-39.3-0.771c-13.659-0.067-27.315-0.415-40.95-1.229C0.963,10.308,0.982,15.309,4.186,15.5L4.186,15.5
			z"/>
	</g>
</g>
<g>
	<g>
		<path d="M93.686,17c3.224,0,3.224-5,0-5S90.461,17,93.686,17L93.686,17z"/>
	</g>
</g>
<g>
	<g>
		<path d="M102.271,16.911c5.389,1.164,11.114,0.839,16.601,0.839c7.697,0,15.392-0.079,23.088-0.177
			c15.577-0.199,31.152-1.008,46.725-1.073c3.224-0.013,3.225-5.013,0-5c-14.25,0.059-28.482,0.917-42.735,1.029
			c-7.315,0.058-14.629,0.208-21.945,0.221c-6.609,0.012-13.919,0.74-20.405-0.661C100.457,11.41,99.12,16.23,102.271,16.911
			L102.271,16.911z"/>
	</g>
</g>
</svg>
