<svg width="653" height="168" viewBox="0 0 653 168" fill="none" xmlns="http://www.w3.org/2000/svg">
<path d="M14.2613 60.2031H15.0582C19.0582 60.6719 21.0582 62.5 21.0582 65.6875V67.375C21.0582 70.4688 18.7301 74.2188 14.0738 78.625C11.9176 80.0625 10.4957 80.9375 9.8082 81.25V80.2188C12.7144 83.25 15.1676 85.1562 17.1676 85.9375C21.6051 83.4688 30.3707 80.5938 43.4644 77.3125L55.9801 74.7812C57.8238 75.4375 58.7457 76.5312 58.7457 78.0625C58.7457 80.1562 57.1051 81.3594 53.8238 81.6719C42.9176 83.7656 33.7926 86.1094 26.4488 88.7031C26.4176 88.7969 25.1832 89.3281 22.7457 90.2969V89.125C30.1207 92.7188 33.8082 96.9062 33.8082 101.688C33.8082 105.75 31.1832 109.719 25.9332 113.594C23.4957 114.688 21.0426 115.234 18.5738 115.234C13.0426 115.234 8.51132 112.656 4.98007 107.5C4.26132 105.531 3.90195 103.969 3.90195 102.812C3.90195 97.9688 6.41757 93.6719 11.4488 89.9219C4.04257 85.1406 0.339447 79.75 0.339447 73.75C0.339447 70.0625 3.40195 65.9688 9.52695 61.4688C11.4644 60.625 13.0426 60.2031 14.2613 60.2031ZM6.6207 74.3594C6.71445 75.0781 6.8082 75.5156 6.90195 75.6719C12.1519 72.7031 14.7769 69.5625 14.7769 66.25V65.875C14.7769 66.1562 14.8863 66.3594 15.1051 66.4844H14.4488C12.2926 66.4844 9.7457 68.7188 6.8082 73.1875C6.8082 73.3125 6.7457 73.7031 6.6207 74.3594ZM17.2144 93.2969C12.6519 96.7969 10.3707 99.7188 10.3707 102.062V103.562C10.3707 105.938 12.9644 107.734 18.1519 108.953H18.9488C22.9488 108.953 25.7457 106.656 27.3394 102.062V101.312C27.3394 99.25 23.9644 96.5781 17.2144 93.2969ZM85.6032 10.8438C87.3219 10.8438 88.6657 12.375 89.6344 15.4375H89.7282L89.2126 14.3594C89.2126 18.7031 87.3688 25.9687 83.6813 36.1562C83.6188 36.25 83.5876 36.3281 83.5876 36.3906C83.5876 36.3281 83.8376 36.3125 84.3376 36.3438C88.4001 36.3438 98.8844 33.8438 115.791 28.8438H117.15C119.4 29.0312 120.525 30.0469 120.525 31.8906C120.525 33.8906 116.603 35.6406 108.759 37.1406C95.9157 40.7969 87.5719 42.625 83.7282 42.625C81.4782 42.625 79.8532 44.5469 78.8532 48.3906C75.7282 55.6719 71.5563 63.7656 66.3376 72.6719C63.3376 76.8281 61.8376 79.4844 61.8376 80.6406V81.2969L62.2594 83.5C63.6032 87.5625 66.6501 92.3281 71.4001 97.7969C74.4001 100.078 77.5094 101.219 80.7282 101.219H81.2907C86.3219 101.219 91.1657 99.4062 95.8219 95.7812C99.8219 93.3438 103.197 89.7969 105.947 85.1406C108.322 80.3281 110.041 77.3438 111.103 76.1875C111.791 75.75 112.416 75.5312 112.978 75.5312H113.259C115.228 75.9375 116.213 77.0156 116.213 78.7656C115.275 81.8594 112.447 86.8594 107.728 93.7656C103.759 97.9219 100.384 100.766 97.6032 102.297C92.1969 105.266 87.2594 106.75 82.7907 106.75H79.7907C72.6032 106.75 66.9157 103.484 62.7282 96.9531C58.7282 92.7344 55.9157 86.5156 54.2907 78.2969C54.1344 77.7969 54.0563 77.0625 54.0563 76.0938H53.5407L54.0563 77.1719V72.3906C54.0563 71.8906 54.0719 71.625 54.1032 71.5938C54.0719 71.5625 54.0563 71.375 54.0563 71.0312C54.1813 68.2812 54.0719 66.9062 53.7282 66.9062L54.2438 67.9844C54.2438 64.2344 56.2594 57.1406 60.2907 46.7031C60.3844 46.3906 60.4313 45.9531 60.4313 45.3906V45.0156C60.4313 45.2656 60.1657 45.3438 59.6344 45.25C57.4157 45.375 55.9626 45.5 55.2751 45.625C53.8376 45.5 52.5719 45.4375 51.4782 45.4375H46.6501C43.8376 44.7812 42.4313 43.8906 42.4313 42.7656V42.3906C42.4313 41.6406 43.4313 40.8125 45.4313 39.9062C45.6813 39.9062 46.5719 39.9688 48.1032 40.0938C54.7594 39.7188 58.3219 39.5312 58.7907 39.5312H61.2282C62.8219 39.5312 64.5407 37.2344 66.3844 32.6406C68.6969 29.0469 70.2126 26.375 70.9313 24.625C71.8063 23.9062 72.5407 22.8281 73.1344 21.3906C78.0407 14.3594 81.7594 10.8438 84.2907 10.8438H85.6032ZM71.2126 38.2188V38.2656C71.1501 38.1094 71.3219 38.0312 71.7282 38.0312C74.6657 38.0312 76.3688 37.4062 76.8376 36.1562C78.5563 31.9062 80.3844 26.2344 82.3219 19.1406C82.3532 19.2969 82.3219 19.375 82.2282 19.375H82.6032C76.4157 27.0625 72.6188 33.3438 71.2126 38.2188ZM61.2282 69.25L60.7126 68.1719V68.8281C60.7126 69.7344 60.7126 70.1875 60.7126 70.1875C60.6813 70 60.4938 69.9062 60.1501 69.9062C60.8063 69.5625 62.5094 67.0156 65.2594 62.2656C67.7594 57.6406 70.5251 51.875 73.5563 44.9688V44.4531C73.5563 44.2344 73.5094 44.125 73.4157 44.125H72.5251C69.4001 44.3438 67.8376 44.9062 67.8376 45.8125C63.0876 57.0312 60.7126 64.0156 60.7126 66.7656C60.7126 68.4219 60.8844 69.25 61.2282 69.25ZM134.539 59.9219H135.383C139.976 60.5469 142.273 62.2812 142.273 65.125C141.586 69.125 137.961 73.25 131.398 77.5C129.867 78.2812 125.023 79.9219 116.867 82.4219C116.679 82.5469 116.586 82.6875 116.586 82.8438V83.0312C117.898 87.375 119.945 90.3438 122.726 91.9375C125.539 93.4688 128.851 94.2344 132.664 94.2344H134.351C146.726 94.2344 158.164 88.9531 168.664 78.3906C170.226 75.5781 171.726 74.1719 173.164 74.1719H173.351C174.695 74.1719 175.726 75.0938 176.445 76.9375C175.57 80.4062 170.242 85.7188 160.461 92.875C150.492 97.3438 142.789 99.5781 137.351 99.5781C136.758 99.5781 135.086 99.7031 132.336 99.9531C129.617 99.9531 125.414 98.9062 119.726 96.8125C116.32 94.0938 113.664 91.1406 111.758 87.9531C111.07 87.9531 110.461 85.9062 109.929 81.8125C109.929 79.5312 111.711 75.6875 115.273 70.2812C120.648 65.2188 124.945 62.3438 128.164 61.6562C130.476 60.5 132.601 59.9219 134.539 59.9219ZM118.461 76.1406C118.461 76.0781 118.258 76.0469 117.851 76.0469H118.039C119.851 76.0469 123.211 74.9062 128.117 72.625C132.867 69.0625 135.242 66.7188 135.242 65.5938C135.242 65.375 135.07 65.2656 134.726 65.2656H134.304C128.148 66.7969 123.523 69.4688 120.429 73.2812C119.117 74.8125 118.461 75.7656 118.461 76.1406ZM188.162 72.2031C194.037 72.2031 199.146 74.2188 203.49 78.25L204.381 78.3906C204.568 78.3906 206.928 77.5312 211.459 75.8125C215.334 75.0312 220.693 74.4531 227.537 74.0781C230.943 74.3906 232.646 75.5938 232.646 77.6875C232.646 79.1562 231.724 80.0469 229.881 80.3594C228.162 80.3594 225.99 80.2969 223.365 80.1719C217.178 80.1719 211.349 81.6719 205.881 84.6719C205.693 84.6719 205.49 87.0938 205.271 91.9375C202.834 102.094 198.537 107.172 192.381 107.172C187.162 106.484 184.553 103.969 184.553 99.625C184.553 96.2188 186.412 92.3125 190.131 87.9062C194.537 84.2812 196.74 82.4688 196.74 82.4688V81.8125C196.74 81.25 195.693 80.3438 193.599 79.0938C192.006 78.3125 190.443 77.9219 188.912 77.9219H188.724C184.006 77.9219 180.756 79.9062 178.974 83.875C178.756 84.9062 178.646 85.5156 178.646 85.7031C179.521 94.9531 179.959 105.531 179.959 117.438C179.959 129.656 178.131 141.656 174.474 153.438C171.974 160.406 169.349 164.438 166.599 165.531C164.131 167.125 161.818 167.922 159.662 167.922C158.318 167.922 156.928 166.812 155.49 164.594C154.24 162.656 153.615 159.125 153.615 154C153.615 145.094 156.631 131.094 162.662 112C166.037 101.438 167.974 94.7656 168.474 91.9844C170.568 86.6406 171.615 82.3125 171.615 79C171.615 77.8125 173.084 76.8594 176.021 76.1406C176.271 76.1406 177.834 75.2969 180.709 73.6094C183.146 72.6719 185.631 72.2031 188.162 72.2031ZM191.771 99.0625V100C191.771 100.844 192.115 101.266 192.803 101.266C194.334 100.578 195.568 99.3594 196.506 97.6094C198.037 94.4531 198.803 91.8125 198.803 89.6875C198.803 89.5938 198.803 89.5312 198.803 89.5C196.896 90.0625 194.99 91.7656 193.084 94.6094C192.209 96.1406 191.771 97.625 191.771 99.0625ZM160.084 154.141C160.334 159.266 160.834 161.828 161.584 161.828C163.271 161.391 164.49 160.516 165.24 159.203C167.209 156.047 169.334 148.984 171.615 138.016L172.928 129.906C172.928 130.625 172.803 130.984 172.553 130.984C173.303 125.953 173.678 120.938 173.678 115.938V114.625C173.678 105.562 173.396 100.078 172.834 98.1719C172.959 98.1719 171.881 102.516 169.599 111.203C166.099 121.516 163.599 130.797 162.099 139.047C160.756 144.672 160.084 149.703 160.084 154.141ZM270.285 9.625H270.707C273.457 9.9375 274.832 11.2656 274.832 13.6094C274.832 19.8281 270.082 31.0313 260.582 47.2188C257.426 52.375 252.332 59.2969 245.301 67.9844C238.363 76.3906 234.894 81.1406 234.894 82.2344C234.301 83.9219 233.801 87.2188 233.394 92.125C233.488 92.5 233.348 92.6875 232.973 92.6875H232.879C234.004 91.5938 235.582 89.0156 237.613 84.9531C240.832 81.1094 244.098 79.1875 247.41 79.1875C251.723 79.1875 255.332 83.0625 258.238 90.8125C260.207 95.2812 262.191 97.9375 264.191 98.7812C264.848 99.0938 265.566 99.25 266.348 99.25H267.473C270.41 99.25 273.738 97.3906 277.457 93.6719C280.144 89.9844 282.191 86.1875 283.598 82.2812C284.754 77.4688 286.332 75.0625 288.332 75.0625C290.332 75.25 291.332 76.25 291.332 78.0625C290.082 84.1562 287.004 90.6562 282.098 97.5625C277.816 102.5 272.566 104.969 266.348 104.969C259.691 104.969 254.707 100.359 251.394 91.1406C249.301 87.2344 247.926 85.2812 247.269 85.2812C247.051 85.1562 246.91 85.0938 246.848 85.0938H246.66C243.691 85.0938 240.254 90.4375 236.348 101.125L234.613 110.594C233.832 111.281 232.973 111.781 232.035 112.094C229.566 112.094 228.176 109.812 227.863 105.25C227.488 102.906 227.238 100.625 227.113 98.4062C227.113 86.8125 228.707 77.875 231.894 71.5938C242.332 46.7812 250.129 31.0313 255.285 24.3438C259.223 18.5938 262.332 14.6094 264.613 12.3906C266.738 10.5469 268.629 9.625 270.285 9.625ZM242.207 64.1406C242.144 63.6719 241.879 63.4375 241.41 63.4375C242.035 63.4375 244.535 60.1562 248.91 53.5938C254.285 46.7188 259.176 38.5938 263.582 29.2188C265.676 24.7813 267.207 20.7187 268.176 17.0312V16.8438C268.238 16.9687 268.191 17.0312 268.035 17.0312C267.723 17.0312 265.613 19.7969 261.707 25.3281C254.707 35.5781 251.207 41.3906 251.207 42.7656C246.738 52.1719 243.738 59.0781 242.207 63.4844V64.1406ZM374.484 50.1719H375.469C379.813 50.1719 383.578 51.7812 386.766 55C386.766 55.25 386.828 55.5156 386.953 55.7969C386.797 57.9844 385.688 59.0781 383.625 59.0781C380.188 57.4531 378.375 56.6406 378.188 56.6406C377.375 56.5156 376.594 56.4531 375.844 56.4531C372.156 56.4531 361.469 59.5625 343.781 65.7812C340.75 66.6562 335.813 67.6719 328.969 68.8281L327.563 69.0156C323.656 69.0156 320.563 67.7344 318.281 65.1719C317.5 63.9219 317.109 62.625 317.109 61.2812C317.109 58.5938 318.453 56.8281 321.141 55.9844C323.016 56.1406 323.953 56.9844 323.953 58.5156C323.828 60.2656 323.766 61.375 323.766 61.8438C323.766 62.5625 324.875 62.9219 327.094 62.9219C328.031 62.9219 333.594 61.5625 343.781 58.8438C357.531 53.4688 367.766 50.5781 374.484 50.1719ZM370.219 64.6094H371.719C375.938 64.6094 379.234 67.1719 381.609 72.2969C381.922 73.3281 382.078 74.2188 382.078 74.9688V75.7188C382.078 79.375 379.641 83.6719 374.766 88.6094C372.516 90.4219 370.688 91.3281 369.281 91.3281H368.719C366.656 91.3281 365.453 89.9219 365.109 87.1094C365.984 82.2344 366.422 77.375 366.422 72.5312V68.2188C366.422 65.8125 367.688 64.6094 370.219 64.6094ZM372.328 81.3438C372.328 81.9375 372.125 82.2344 371.719 82.2344H372.094C373.031 82.2344 374.203 80 375.609 75.5312C375.609 74.4688 375.672 73.875 375.797 73.75C375.797 72.1875 374.859 71.0469 372.984 70.3281H373.031C372.563 70.3281 372.328 71.3125 372.328 73.2812V81.3438ZM358.875 67.9844C360.719 68.2969 361.641 69.2656 361.641 70.8906C361.516 73.5469 361.453 75.4844 361.453 76.7031H361.266C361.266 75.2656 361.328 74.5469 361.453 74.5469C361.453 76.3594 361.375 77.2656 361.219 77.2656C361.125 79.6406 361.078 81.75 361.078 83.5938V87.7188C361.078 90.625 359.875 92.0781 357.469 92.0781C355.688 92.0781 353.859 90.3438 351.984 86.875C351.984 86.5625 351.781 86.2969 351.375 86.0781C351.594 86.0781 351.703 87.8281 351.703 91.3281C351.453 93.9531 350.438 95.2656 348.656 95.2656H347.578C346.266 94.4531 345.609 93.4688 345.609 92.3125C345.859 90.7188 346.047 88.75 346.172 86.4062L345.188 73.375C346.219 72.4062 347.266 71.9219 348.328 71.9219C350.984 74.1094 353.109 76.4219 354.703 78.8594C354.859 78.8594 355.172 79.0469 355.641 79.4219H354.563C354.844 78.5469 355.375 75.2969 356.156 69.6719C356.875 68.5469 357.781 67.9844 358.875 67.9844ZM333.094 73.0469H334.172C336.797 74.5469 338.875 77.625 340.406 82.2812C341.281 84.75 342.172 88.9375 343.078 94.8438C342.828 96.875 341.813 97.8906 340.031 97.8906C338.25 97.8906 337.063 96.0781 336.469 92.4531C336.375 92.3281 336.25 92.2656 336.094 92.2656H335.344C334.375 92.2656 333.703 93.8438 333.328 97C333.328 97.7812 332.625 98.7031 331.219 99.7656H329.625C328.281 99.0469 327.609 97.9531 327.609 96.4844C329.016 81.2344 330.266 73.6094 331.359 73.6094C331.828 73.2344 332.406 73.0469 333.094 73.0469ZM335.25 83.8281C334.844 84.2344 334.641 84.6406 334.641 85.0469C334.734 85.9219 334.656 86.3594 334.406 86.3594H335.156C335.375 86.3594 335.484 86.3438 335.484 86.3125V86.2188C335.484 84.625 335.406 83.8281 335.25 83.8281ZM381.094 90.8594C384.5 90.8594 386.203 92.0625 386.203 94.4688C386.203 96.0625 385 97.0156 382.594 97.3281C380.125 97.0781 378.266 96.9531 377.016 96.9531C372.047 97.4531 362.047 100.922 347.016 107.359C337.609 110.547 331.781 112.141 329.531 112.141H328.031C325.844 112.141 323 111.391 319.5 109.891C316.906 107.547 315.609 105.312 315.609 103.188C316.266 99.5938 317.844 97.7969 320.344 97.7969C322 98.3594 322.828 99.375 322.828 100.844V103.094C322.828 105.188 324.125 106.234 326.719 106.234C330.219 106.234 340.141 102.891 356.484 96.2031C365.141 92.6406 372.656 90.8594 379.031 90.8594H381.094ZM428.994 66.8125C433.682 66.8125 437.713 69.4219 441.088 74.6406C441.776 75.0469 443.369 75.25 445.869 75.25C448.838 75.25 454.322 74.9375 462.322 74.3125C464.76 74.3125 465.979 75.2656 465.979 77.1719C465.979 78.9844 464.729 80 462.229 80.2188C460.104 80.2188 454.588 80.2812 445.682 80.4062C443.588 80.4062 442.541 81.0781 442.541 82.4219C442.541 89.6719 440.572 94.4688 436.635 96.8125C433.885 97.875 431.776 98.4062 430.307 98.4062C426.338 98.4062 423.854 97.4219 422.854 95.4531C422.166 93.7969 421.822 92.3906 421.822 91.2344V89.7344C421.822 86.9219 424.26 83.6562 429.135 79.9375C432.76 78.1562 434.572 77.125 434.572 76.8438C433.229 73.7188 431.057 72.1562 428.057 72.1562C425.463 72.1562 422.541 73.5469 419.291 76.3281C418.041 77.7031 417.416 79.0312 417.416 80.3125C418.416 92.0625 418.916 101.328 418.916 108.109C418.916 118.578 417.385 128.219 414.322 137.031C411.791 143.062 409.182 146.672 406.494 147.859C405.213 148.141 404.276 148.281 403.682 148.281H403.494C399.869 148.281 397.416 145.344 396.135 139.469C395.76 137.156 395.572 135.078 395.572 133.234C395.572 129.266 397.151 119.172 400.307 102.953C403.588 91.3594 406.572 83.6406 409.26 79.7969C409.26 76.8281 412.854 73.0938 420.041 68.5938C423.76 67.4062 426.744 66.8125 428.994 66.8125ZM427.541 91.6094C427.791 92.8281 428.276 93.4375 428.994 93.4375H429.744C432.682 93.4375 434.822 91.5469 436.166 87.7656C436.354 87.3594 436.447 86.5156 436.447 85.2344V83.9219C436.447 83.4531 436.447 83.2188 436.447 83.2188H435.932C434.119 83.2188 431.697 84.9844 428.666 88.5156C428.104 89.6719 427.729 90.7031 427.541 91.6094ZM411.979 88.7969C410.072 91.3281 408.369 96.0312 406.869 102.906C403.651 116.719 402.041 126.891 402.041 133.422C402.26 139.141 403.01 142 404.291 142C404.291 142.125 403.963 142.188 403.307 142.188H403.869C405.276 142.188 406.713 139.703 408.182 134.734C411.276 126.641 412.822 118.516 412.822 110.359V107.734C412.541 95.2656 412.354 89.0312 412.26 89.0312L411.979 88.7969ZM483.649 61.6094L486.18 61.7031C489.867 61.7344 492.446 63.3594 493.914 66.5781C494.289 67.4219 495.117 70.9531 496.399 77.1719C498.742 82.6406 502.867 85.375 508.774 85.375C514.43 85.375 520.68 82.0938 527.524 75.5312C528.836 75.2188 529.805 75.0625 530.43 75.0625C531.899 75.75 532.633 76.6406 532.633 77.7344C532.633 79.3281 531.117 81.2031 528.086 83.3594C524.055 86.8906 518.867 89.4688 512.524 91.0938C511.149 91.2188 510.086 91.2812 509.336 91.2812H508.586C500.211 91.2812 494.164 87.4844 490.446 79.8906L490.071 79.6562C490.164 79.6562 489.164 81.5469 487.071 85.3281C482.352 91.6719 477.211 94.8438 471.649 94.8438H471.461C467.211 94.8438 463.977 92.4688 461.758 87.7188C461.321 86.375 461.102 85.1719 461.102 84.1094C461.289 78.6406 463.977 73.1562 469.164 67.6562C473.321 63.7188 478.149 61.7031 483.649 61.6094ZM467.196 83.1719C467.196 86.3281 468.555 88.3125 471.274 89.125H472.211C476.649 89.125 481.164 84.3594 485.758 74.8281C487.071 71.6406 487.727 69.4844 487.727 68.3594V67.2344C487.727 67.3594 486.758 67.375 484.821 67.2812C478.258 67.1562 473.117 70.4219 469.399 77.0781C467.93 79.2031 467.196 81.2344 467.196 83.1719ZM532.444 73.4688H532.772C534.741 73.875 535.725 74.8906 535.725 76.5156V77.8281C534.131 82.6406 532.616 85.7031 531.178 87.0156C529.209 90.5469 528.225 93.7344 528.225 96.5781C528.225 97.9219 529.209 98.5938 531.178 98.5938C537.084 98.5938 545.194 93.9375 555.506 84.625C555.819 83.8438 556.787 83.0156 558.412 82.1406C560.787 79.8906 563.35 77.1875 566.1 74.0312H568.022C569.866 74.2812 570.787 75.2344 570.787 76.8906V77.2656C570.787 78.2969 569.256 80.375 566.194 83.5C561.506 89.2188 559.162 94.2656 559.162 98.6406C559.162 99.9844 560.147 100.656 562.116 100.656C568.022 100.656 576.131 96 586.444 86.6875C586.756 85.9062 587.725 85.0781 589.35 84.2031C591.725 81.9531 594.287 79.25 597.037 76.0938H598.959C600.803 76.3438 601.725 77.2969 601.725 78.9531V79.3281C601.725 80.3594 600.194 82.4219 597.131 85.5156C595.6 87.4844 593.553 89.3594 590.991 91.1406C579.491 101.672 569.803 106.938 561.928 106.938C555.897 106.938 552.881 104.109 552.881 98.4531C552.881 96.9844 552.991 95.8438 553.209 95.0312C545.084 101.594 537.741 104.875 531.178 104.875C525.022 104.875 521.944 102.047 521.944 96.3906C521.944 93.9531 522.787 90.3594 524.475 85.6094C528.287 77.7656 530.256 73.8438 530.381 73.8438C530.381 73.6562 531.069 73.5312 532.444 73.4688ZM635.426 0.4375H636.036C637.911 1.28125 638.848 2.92188 638.848 5.35938V5.54688C638.848 12.2031 634.754 25.3594 626.567 45.0156C623.379 52.7656 617.27 63.4844 608.239 77.1719C606.52 78.9219 605.661 80.5469 605.661 82.0469V82.6094C605.661 84.4219 606.879 87.2344 609.317 91.0469C611.942 93.5156 614.645 94.75 617.426 94.75H619.817C623.098 94.5625 627.879 92.75 634.161 89.3125C639.692 84.3438 643.567 80.6719 645.786 78.2969C647.348 76.3906 648.707 75.4375 649.864 75.4375H650.52C651.989 76.125 652.723 77.1094 652.723 78.3906C652.317 80.6094 647.661 85.3906 638.754 92.7344C631.786 97.7656 624.801 100.281 617.801 100.281C608.426 100.281 602.176 95.1094 599.051 84.7656C598.645 82.9219 598.379 81.3438 598.254 80.0312C598.254 72.75 599.817 65.3438 602.942 57.8125C602.942 56.625 603.973 53.875 606.036 49.5625C610.348 36.9062 614.989 26.3437 619.957 17.875C623.645 11.625 625.614 8.5 625.864 8.5C626.582 7.59375 627.504 6.07813 628.629 3.95312C630.661 1.60938 632.926 0.4375 635.426 0.4375ZM605.332 70.4688C605.426 70.625 605.473 70.9531 605.473 71.4531L605.332 71.6875C605.364 71.6875 605.207 71.6875 604.864 71.6875H604.911C605.911 70.625 608.614 66.25 613.02 58.5625C617.395 51.0625 622.364 39.8906 627.926 25.0469C630.395 16.9531 631.629 12.0313 631.629 10.2812C631.504 9.1875 631.442 8.875 631.442 9.34375H632.426C631.457 9.34375 628.176 14.7656 622.582 25.6094C618.114 34.0781 613.207 46.0156 607.864 61.4219C606.864 64.5156 606.02 67.5312 605.332 70.4688Z" fill="#637CC6"/>
</svg>
