<svg width="451" height="282" viewBox="0 0 451 282" fill="none" xmlns="http://www.w3.org/2000/svg">
<path d="M77.3961 50H71.7594V49.2266C71.9391 49.2109 72.1188 49.1953 72.2984 49.1797C72.4859 49.1641 72.65 49.1328 72.7906 49.0859C73.0094 49.0156 73.1695 48.8945 73.2711 48.7227C73.3805 48.543 73.4352 48.3125 73.4352 48.0312V42.0664C73.4352 41.2539 73.2477 40.6289 72.8727 40.1914C72.5055 39.7461 72.0445 39.5234 71.4898 39.5234C71.107 39.5234 70.7477 39.582 70.4117 39.6992C70.0758 39.8164 69.7672 39.9805 69.4859 40.1914C69.2594 40.3633 69.068 40.5508 68.9117 40.7539C68.7633 40.9492 68.65 41.1133 68.5719 41.2461V47.9141C68.5719 48.1875 68.6188 48.4141 68.7125 48.5938C68.8063 48.7656 68.9664 48.8984 69.193 48.9922C69.3727 49.0625 69.5328 49.1172 69.6734 49.1562C69.8219 49.1875 70.0133 49.2109 70.2477 49.2266V50H64.7281V49.2266C64.9078 49.2109 65.0797 49.1953 65.2438 49.1797C65.4156 49.1641 65.5719 49.1328 65.7125 49.0859C65.9313 49.0156 66.0914 48.8945 66.193 48.7227C66.3023 48.543 66.357 48.3125 66.357 48.0312V42.0664C66.357 41.2539 66.1695 40.6289 65.7945 40.1914C65.4273 39.7461 64.9664 39.5234 64.4117 39.5234C64.0289 39.5234 63.6695 39.5859 63.3336 39.7109C62.9977 39.8281 62.6891 39.9922 62.4078 40.2031C62.1813 40.375 61.9898 40.5703 61.8336 40.7891C61.6773 41 61.5602 41.1602 61.482 41.2695V47.8906C61.482 48.1562 61.5367 48.3789 61.6461 48.5586C61.7555 48.7383 61.9195 48.875 62.1383 48.9688C62.3023 49.0469 62.4703 49.1055 62.6422 49.1445C62.8141 49.1836 63.0055 49.2109 63.2164 49.2266V50H57.6031V49.2266C57.7828 49.2109 57.9664 49.1953 58.1539 49.1797C58.3492 49.1641 58.5172 49.1328 58.6578 49.0859C58.8766 49.0156 59.0367 48.8945 59.1383 48.7227C59.2477 48.543 59.3023 48.3125 59.3023 48.0312V40.8477C59.3023 40.5977 59.2438 40.375 59.1266 40.1797C59.0172 39.9766 58.8609 39.8047 58.6578 39.6641C58.5094 39.5703 58.3258 39.4961 58.107 39.4414C57.8883 39.3789 57.6617 39.3398 57.4273 39.3242V38.5625L61.2945 38.3047L61.4586 38.4688V40.1211H61.5406C61.7359 39.9258 61.9742 39.6953 62.2555 39.4297C62.5367 39.1641 62.7984 38.9492 63.0406 38.7852C63.3141 38.5977 63.6539 38.4414 64.0602 38.3164C64.4742 38.1914 64.9195 38.1289 65.3961 38.1289C66.1461 38.1289 66.7906 38.332 67.3297 38.7383C67.8688 39.1367 68.2555 39.6211 68.4898 40.1914C68.7711 39.918 69.0172 39.6797 69.2281 39.4766C69.4469 39.2656 69.732 39.043 70.0836 38.8086C70.3805 38.6055 70.7281 38.4414 71.1266 38.3164C71.5328 38.1914 71.982 38.1289 72.4742 38.1289C73.4508 38.1289 74.2242 38.4492 74.7945 39.0898C75.3648 39.7305 75.65 40.7148 75.65 42.043V47.9141C75.65 48.1875 75.6969 48.4141 75.7906 48.5938C75.8844 48.7656 76.0445 48.8984 76.2711 48.9922C76.4508 49.0625 76.6266 49.1172 76.7984 49.1562C76.9781 49.1875 77.1773 49.2109 77.3961 49.2266V50ZM90.2094 47.2812C89.725 48.2031 89.0766 48.9375 88.2641 49.4844C87.4516 50.0312 86.518 50.3047 85.4633 50.3047C84.5336 50.3047 83.7172 50.1406 83.0141 49.8125C82.3188 49.4844 81.7445 49.0391 81.2914 48.4766C80.8383 47.9141 80.4984 47.2578 80.2719 46.5078C80.0531 45.7578 79.9438 44.9648 79.9438 44.1289C79.9438 43.3789 80.0609 42.6445 80.2953 41.9258C80.5375 41.1992 80.8891 40.5469 81.35 39.9688C81.7953 39.4141 82.3461 38.9688 83.0023 38.6328C83.6664 38.2891 84.4086 38.1172 85.2289 38.1172C86.0727 38.1172 86.7953 38.25 87.3969 38.5156C87.9984 38.7812 88.4867 39.1445 88.8617 39.6055C89.2211 40.043 89.4867 40.5586 89.6586 41.1523C89.8383 41.7461 89.9281 42.3906 89.9281 43.0859V43.8594H82.2758C82.2758 44.6172 82.3461 45.3047 82.4867 45.9219C82.6352 46.5391 82.8656 47.082 83.1781 47.5508C83.4828 48.0039 83.8813 48.3633 84.3734 48.6289C84.8656 48.8867 85.4516 49.0156 86.1313 49.0156C86.8266 49.0156 87.4242 48.8555 87.9242 48.5352C88.432 48.207 88.9203 47.6211 89.3891 46.7773L90.2094 47.2812ZM87.6195 42.875C87.6195 42.4375 87.5805 41.9688 87.5023 41.4688C87.432 40.9688 87.3148 40.5508 87.1508 40.2148C86.9711 39.8555 86.725 39.5625 86.4125 39.3359C86.1 39.1094 85.6977 38.9961 85.2055 38.9961C84.3852 38.9961 83.7016 39.3398 83.1547 40.0273C82.6156 40.707 82.3227 41.6562 82.2758 42.875H87.6195ZM103.011 47.2812C102.527 48.2031 101.878 48.9375 101.066 49.4844C100.253 50.0312 99.3195 50.3047 98.2648 50.3047C97.3352 50.3047 96.5188 50.1406 95.8156 49.8125C95.1203 49.4844 94.5461 49.0391 94.093 48.4766C93.6398 47.9141 93.3 47.2578 93.0734 46.5078C92.8547 45.7578 92.7453 44.9648 92.7453 44.1289C92.7453 43.3789 92.8625 42.6445 93.0969 41.9258C93.3391 41.1992 93.6906 40.5469 94.1516 39.9688C94.5969 39.4141 95.1477 38.9688 95.8039 38.6328C96.468 38.2891 97.2102 38.1172 98.0305 38.1172C98.8742 38.1172 99.5969 38.25 100.198 38.5156C100.8 38.7812 101.288 39.1445 101.663 39.6055C102.023 40.043 102.288 40.5586 102.46 41.1523C102.64 41.7461 102.73 42.3906 102.73 43.0859V43.8594H95.0773C95.0773 44.6172 95.1477 45.3047 95.2883 45.9219C95.4367 46.5391 95.6672 47.082 95.9797 47.5508C96.2844 48.0039 96.6828 48.3633 97.175 48.6289C97.6672 48.8867 98.2531 49.0156 98.9328 49.0156C99.6281 49.0156 100.226 48.8555 100.726 48.5352C101.234 48.207 101.722 47.6211 102.191 46.7773L103.011 47.2812ZM100.421 42.875C100.421 42.4375 100.382 41.9688 100.304 41.4688C100.234 40.9688 100.116 40.5508 99.9523 40.2148C99.7727 39.8555 99.5266 39.5625 99.2141 39.3359C98.9016 39.1094 98.4992 38.9961 98.007 38.9961C97.1867 38.9961 96.5031 39.3398 95.9563 40.0273C95.4172 40.707 95.1242 41.6562 95.0773 42.875H100.421ZM112.684 49.4961C112.176 49.707 111.695 49.8828 111.242 50.0234C110.789 50.1719 110.234 50.2461 109.578 50.2461C108.609 50.2461 107.926 50.0039 107.527 49.5195C107.137 49.0273 106.941 48.3359 106.941 47.4453V39.6172H104.855V38.4922H106.988V34.8945H109.121V38.4922H112.438V39.6172H109.145V46.0742C109.145 46.5586 109.16 46.9648 109.191 47.293C109.23 47.6133 109.316 47.8945 109.449 48.1367C109.574 48.3633 109.762 48.5352 110.012 48.6523C110.262 48.7695 110.598 48.8281 111.02 48.8281C111.215 48.8281 111.5 48.8125 111.875 48.7812C112.258 48.7422 112.527 48.6953 112.684 48.6406V49.4961Z" fill="#637CC6"/>
<path d="M57.1414 79H49.243V78.168C49.4773 78.1523 49.8406 78.1211 50.3328 78.0742C50.8328 78.0195 51.1766 77.9648 51.3641 77.9102C51.6062 77.832 51.7898 77.707 51.9148 77.5352C52.0477 77.3555 52.1141 77.0898 52.1141 76.7383V68.5117H49.1961V67.5273H49.8406C50.6844 67.5273 51.4383 67.3711 52.1023 67.0586C52.7742 66.7461 53.2547 66.4102 53.5437 66.0508H54.5164C54.493 66.5586 54.4695 67.1523 54.4461 67.832C54.4227 68.5117 54.4109 69.1211 54.4109 69.6602V76.6094C54.4109 76.8828 54.4695 77.1289 54.5867 77.3477C54.7117 77.5586 54.8875 77.7148 55.1141 77.8164C55.3172 77.9023 55.6492 77.9805 56.1102 78.0508C56.5711 78.1211 56.9148 78.1602 57.1414 78.168V79ZM64.8805 83.2773C64.1461 83.2773 63.4742 83.1836 62.8648 82.9961C62.2555 82.8164 61.732 82.5703 61.2945 82.2578C60.857 81.9453 60.5172 81.5859 60.275 81.1797C60.0406 80.7734 59.9234 80.3555 59.9234 79.9258C59.9234 79.543 60.0172 79.1992 60.2047 78.8945C60.3922 78.582 60.693 78.4258 61.107 78.4258C61.5758 78.4258 61.9312 78.543 62.1734 78.7773C62.4234 79.0039 62.5484 79.2656 62.5484 79.5625C62.5484 79.8125 62.5055 80.1289 62.4195 80.5117C62.3414 80.8945 62.2789 81.168 62.232 81.332C62.2867 81.4023 62.3844 81.4961 62.525 81.6133C62.6734 81.7305 62.8531 81.8359 63.0641 81.9297C63.3141 82.0469 63.5758 82.1406 63.8492 82.2109C64.1227 82.2812 64.5094 82.3164 65.0094 82.3164C65.4781 82.3164 65.9273 82.2383 66.357 82.082C66.7945 81.9258 67.1773 81.6758 67.5055 81.332C67.8492 80.9727 68.1148 80.5508 68.3023 80.0664C68.4977 79.5898 68.5953 78.9609 68.5953 78.1797C68.5953 77.7578 68.5484 77.3398 68.4547 76.9258C68.3687 76.5117 68.2047 76.1523 67.9625 75.8477C67.7203 75.543 67.3883 75.3086 66.9664 75.1445C66.5523 74.9727 66.025 74.8867 65.3844 74.8867H63.8492V73.5391H64.8687C65.9469 73.5391 66.7242 73.2422 67.2008 72.6484C67.6773 72.0547 67.9156 71.1602 67.9156 69.9648C67.9156 68.9883 67.6852 68.2539 67.2242 67.7617C66.7633 67.2617 66.1109 67.0117 65.2672 67.0117C64.8609 67.0117 64.525 67.0625 64.2594 67.1641C64.0016 67.2578 63.7906 67.3516 63.6266 67.4453C63.4312 67.5547 63.2711 67.6758 63.1461 67.8086C63.0211 67.9414 62.9273 68.0391 62.8648 68.1016C62.9195 68.3516 62.9859 68.6602 63.0641 69.0273C63.1422 69.3867 63.1812 69.7305 63.1812 70.0586C63.1812 70.3477 63.0562 70.6094 62.8062 70.8438C62.5641 71.0703 62.2047 71.1836 61.7281 71.1836C61.3141 71.1836 61.0094 71.0352 60.8141 70.7383C60.6266 70.4414 60.5328 70.0977 60.5328 69.707C60.5328 69.3008 60.6461 68.8867 60.8727 68.4648C61.0992 68.043 61.4352 67.6484 61.8805 67.2812C62.3258 66.9141 62.8687 66.6172 63.5094 66.3906C64.15 66.1641 64.8883 66.0508 65.7242 66.0508C66.6852 66.0508 67.4781 66.1953 68.1031 66.4844C68.7359 66.7656 69.232 67.1094 69.5914 67.5156C69.943 67.9141 70.1852 68.332 70.318 68.7695C70.4508 69.207 70.5172 69.582 70.5172 69.8945C70.5172 70.2852 70.4625 70.6797 70.3531 71.0781C70.2437 71.4688 70.0641 71.832 69.8141 72.168C69.5406 72.5352 69.1773 72.8711 68.7242 73.1758C68.2789 73.4727 67.7164 73.7148 67.0367 73.9023V74.0898C67.4742 74.1289 67.9391 74.2266 68.4312 74.3828C68.9312 74.5391 69.3805 74.7695 69.7789 75.0742C70.193 75.3945 70.5328 75.8086 70.7984 76.3164C71.0641 76.8164 71.1969 77.4531 71.1969 78.2266C71.1969 79.7266 70.5953 80.9414 69.3922 81.8711C68.1891 82.8086 66.6852 83.2773 64.8805 83.2773ZM78.9711 69.0039C78.9711 69.4414 78.8109 69.8164 78.4906 70.1289C78.1781 70.4414 77.8031 70.5977 77.3656 70.5977C76.9281 70.5977 76.5492 70.4414 76.2289 70.1289C75.9164 69.8164 75.7602 69.4414 75.7602 69.0039C75.7602 68.5664 75.9164 68.1914 76.2289 67.8789C76.5414 67.5586 76.9203 67.3984 77.3656 67.3984C77.8109 67.3984 78.1898 67.5586 78.5023 67.8789C78.8148 68.1914 78.9711 68.5664 78.9711 69.0039ZM78.9711 77.6523C78.9711 78.0898 78.8109 78.4648 78.4906 78.7773C78.1781 79.082 77.8031 79.2344 77.3656 79.2344C76.9281 79.2344 76.5492 79.082 76.2289 78.7773C75.9164 78.4648 75.7602 78.0898 75.7602 77.6523C75.7602 77.2148 75.9164 76.8398 76.2289 76.5273C76.5492 76.207 76.9281 76.0469 77.3656 76.0469C77.8031 76.0469 78.1781 76.207 78.4906 76.5273C78.8109 76.8398 78.9711 77.2148 78.9711 77.6523ZM94.3508 68.0547C94.8508 68.6562 95.2219 69.3633 95.4641 70.1758C95.7141 70.9805 95.8391 71.8242 95.8391 72.707C95.8391 73.7695 95.6867 74.7227 95.382 75.5664C95.0773 76.4023 94.6594 77.0977 94.1281 77.6523C93.5812 78.2227 92.9328 78.6523 92.1828 78.9414C91.4328 79.2305 90.5969 79.375 89.675 79.375C88.6672 79.375 87.7687 79.207 86.9797 78.8711C86.1906 78.5352 85.55 78.0742 85.0578 77.4883C84.5422 76.8789 84.1555 76.168 83.8977 75.3555C83.6477 74.5352 83.5227 73.6523 83.5227 72.707C83.5227 71.7773 83.6437 70.9219 83.8859 70.1406C84.1359 69.3594 84.5227 68.6523 85.0461 68.0195C85.5461 67.4102 86.1906 66.9297 86.9797 66.5781C87.7687 66.2266 88.6711 66.0508 89.6867 66.0508C90.757 66.0508 91.675 66.2305 92.4406 66.5898C93.2062 66.9492 93.843 67.4375 94.3508 68.0547ZM93.2492 72.707C93.2492 70.8477 92.9289 69.4062 92.2883 68.3828C91.6555 67.3594 90.7922 66.8477 89.6984 66.8477C88.5891 66.8477 87.7141 67.3594 87.0734 68.3828C86.4328 69.4062 86.1125 70.8477 86.1125 72.707C86.1125 74.4727 86.4172 75.8945 87.0266 76.9727C87.6437 78.043 88.5266 78.5781 89.675 78.5781C90.8234 78.5781 91.7062 78.043 92.3234 76.9727C92.9406 75.8945 93.2492 74.4727 93.2492 72.707ZM110.293 68.0547C110.793 68.6562 111.164 69.3633 111.406 70.1758C111.656 70.9805 111.781 71.8242 111.781 72.707C111.781 73.7695 111.629 74.7227 111.324 75.5664C111.02 76.4023 110.602 77.0977 110.07 77.6523C109.523 78.2227 108.875 78.6523 108.125 78.9414C107.375 79.2305 106.539 79.375 105.617 79.375C104.609 79.375 103.711 79.207 102.922 78.8711C102.133 78.5352 101.492 78.0742 101 77.4883C100.484 76.8789 100.098 76.168 99.8398 75.3555C99.5898 74.5352 99.4648 73.6523 99.4648 72.707C99.4648 71.7773 99.5859 70.9219 99.8281 70.1406C100.078 69.3594 100.465 68.6523 100.988 68.0195C101.488 67.4102 102.133 66.9297 102.922 66.5781C103.711 66.2266 104.613 66.0508 105.629 66.0508C106.699 66.0508 107.617 66.2305 108.383 66.5898C109.148 66.9492 109.785 67.4375 110.293 68.0547ZM109.191 72.707C109.191 70.8477 108.871 69.4062 108.23 68.3828C107.598 67.3594 106.734 66.8477 105.641 66.8477C104.531 66.8477 103.656 67.3594 103.016 68.3828C102.375 69.4062 102.055 70.8477 102.055 72.707C102.055 74.4727 102.359 75.8945 102.969 76.9727C103.586 78.043 104.469 78.5781 105.617 78.5781C106.766 78.5781 107.648 78.043 108.266 76.9727C108.883 75.8945 109.191 74.4727 109.191 72.707Z" fill="#637CC6"/>
<path d="M49.1211 214.934C49.1211 215.332 49.0234 215.688 48.8281 216C48.6328 216.305 48.332 216.457 47.9258 216.457C47.4883 216.457 47.1523 216.344 46.918 216.117C46.6914 215.891 46.5781 215.641 46.5781 215.367C46.5781 215.195 46.5898 215.039 46.6133 214.898C46.6445 214.758 46.6719 214.617 46.6953 214.477C46.3281 214.477 45.8984 214.625 45.4062 214.922C44.9141 215.219 44.4961 215.641 44.1523 216.188V222.914C44.1523 223.188 44.2031 223.41 44.3047 223.582C44.4141 223.754 44.582 223.883 44.8086 223.969C45.0039 224.047 45.2539 224.105 45.5586 224.145C45.8711 224.184 46.1406 224.211 46.3672 224.227V225H40.2734V224.227C40.4531 224.211 40.6367 224.195 40.8242 224.18C41.0195 224.164 41.1875 224.133 41.3281 224.086C41.5469 224.016 41.707 223.895 41.8086 223.723C41.918 223.543 41.9727 223.312 41.9727 223.031V215.895C41.9727 215.652 41.9141 215.414 41.7969 215.18C41.6875 214.945 41.5312 214.758 41.3281 214.617C41.1797 214.523 41.0039 214.457 40.8008 214.418C40.5977 214.371 40.3789 214.34 40.1445 214.324V213.562L43.9883 213.305L44.1523 213.469V215.098H44.2109C44.6953 214.465 45.2344 213.984 45.8281 213.656C46.4219 213.328 46.9648 213.164 47.457 213.164C47.9492 213.164 48.3477 213.324 48.6523 213.645C48.9648 213.965 49.1211 214.395 49.1211 214.934ZM61.5828 222.281C61.0984 223.203 60.45 223.938 59.6375 224.484C58.825 225.031 57.8914 225.305 56.8367 225.305C55.907 225.305 55.0906 225.141 54.3875 224.812C53.6922 224.484 53.118 224.039 52.6648 223.477C52.2117 222.914 51.8719 222.258 51.6453 221.508C51.4266 220.758 51.3172 219.965 51.3172 219.129C51.3172 218.379 51.4344 217.645 51.6687 216.926C51.9109 216.199 52.2625 215.547 52.7234 214.969C53.1687 214.414 53.7195 213.969 54.3758 213.633C55.0398 213.289 55.782 213.117 56.6023 213.117C57.4461 213.117 58.1687 213.25 58.7703 213.516C59.3719 213.781 59.8602 214.145 60.2352 214.605C60.5945 215.043 60.8602 215.559 61.032 216.152C61.2117 216.746 61.3016 217.391 61.3016 218.086V218.859H53.6492C53.6492 219.617 53.7195 220.305 53.8602 220.922C54.0086 221.539 54.2391 222.082 54.5516 222.551C54.8562 223.004 55.2547 223.363 55.7469 223.629C56.2391 223.887 56.825 224.016 57.5047 224.016C58.2 224.016 58.7977 223.855 59.2977 223.535C59.8055 223.207 60.2937 222.621 60.7625 221.777L61.5828 222.281ZM58.993 217.875C58.993 217.438 58.9539 216.969 58.8758 216.469C58.8055 215.969 58.6883 215.551 58.5242 215.215C58.3445 214.855 58.0984 214.562 57.7859 214.336C57.4734 214.109 57.0711 213.996 56.5789 213.996C55.7586 213.996 55.075 214.34 54.5281 215.027C53.9891 215.707 53.6961 216.656 53.6492 217.875H58.993ZM71.2555 224.496C70.7477 224.707 70.2672 224.883 69.8141 225.023C69.3609 225.172 68.8063 225.246 68.15 225.246C67.1813 225.246 66.4977 225.004 66.0992 224.52C65.7086 224.027 65.5133 223.336 65.5133 222.445V214.617H63.4273V213.492H65.5602V209.895H67.693V213.492H71.0094V214.617H67.7164V221.074C67.7164 221.559 67.732 221.965 67.7633 222.293C67.8023 222.613 67.8883 222.895 68.0211 223.137C68.1461 223.363 68.3336 223.535 68.5836 223.652C68.8336 223.77 69.1695 223.828 69.5914 223.828C69.7867 223.828 70.0719 223.812 70.4469 223.781C70.8297 223.742 71.0992 223.695 71.2555 223.641V224.496ZM86.0023 224.789L82.2406 225.047L82.0648 224.883V223.418H81.9945C81.807 223.613 81.5961 223.824 81.3617 224.051C81.1273 224.27 80.8578 224.469 80.5531 224.648C80.2016 224.859 79.8617 225.02 79.5336 225.129C79.2055 225.238 78.7406 225.293 78.1391 225.293C77.1156 225.293 76.3344 224.961 75.7953 224.297C75.2641 223.625 74.9984 222.652 74.9984 221.379V215.848C74.9984 215.566 74.9437 215.332 74.8344 215.145C74.7328 214.949 74.5805 214.781 74.3773 214.641C74.2367 214.547 74.0609 214.48 73.85 214.441C73.6391 214.395 73.4164 214.363 73.182 214.348V213.586L77.0375 213.305L77.2133 213.469V221.496C77.2133 222.332 77.4008 222.961 77.7758 223.383C78.1508 223.805 78.6 224.016 79.1234 224.016C79.5531 224.016 79.9359 223.949 80.2719 223.816C80.6078 223.684 80.8891 223.527 81.1156 223.348C81.3266 223.184 81.5102 223.012 81.6664 222.832C81.8305 222.645 81.9555 222.473 82.0414 222.316V215.766C82.0414 215.508 81.9867 215.281 81.8773 215.086C81.768 214.883 81.6156 214.711 81.4203 214.57C81.2797 214.477 81.0687 214.422 80.7875 214.406C80.5141 214.383 80.2055 214.363 79.8617 214.348V213.586L84.057 213.305L84.2328 213.469V222.645C84.2328 222.91 84.2875 223.137 84.3969 223.324C84.5062 223.512 84.6586 223.672 84.8539 223.805C84.9945 223.891 85.1625 223.949 85.3578 223.98C85.5531 224.004 85.768 224.02 86.0023 224.027V224.789ZM97.468 214.934C97.468 215.332 97.3703 215.688 97.175 216C96.9797 216.305 96.6789 216.457 96.2727 216.457C95.8352 216.457 95.4992 216.344 95.2648 216.117C95.0383 215.891 94.925 215.641 94.925 215.367C94.925 215.195 94.9367 215.039 94.9602 214.898C94.9914 214.758 95.0188 214.617 95.0422 214.477C94.675 214.477 94.2453 214.625 93.7531 214.922C93.2609 215.219 92.843 215.641 92.4992 216.188V222.914C92.4992 223.188 92.55 223.41 92.6516 223.582C92.7609 223.754 92.9289 223.883 93.1555 223.969C93.3508 224.047 93.6008 224.105 93.9055 224.145C94.218 224.184 94.4875 224.211 94.7141 224.227V225H88.6203V224.227C88.8 224.211 88.9836 224.195 89.1711 224.18C89.3664 224.164 89.5344 224.133 89.675 224.086C89.8938 224.016 90.0539 223.895 90.1555 223.723C90.2648 223.543 90.3195 223.312 90.3195 223.031V215.895C90.3195 215.652 90.2609 215.414 90.1438 215.18C90.0344 214.945 89.8781 214.758 89.675 214.617C89.5266 214.523 89.3508 214.457 89.1477 214.418C88.9445 214.371 88.7258 214.34 88.4914 214.324V213.562L92.3352 213.305L92.4992 213.469V215.098H92.5578C93.0422 214.465 93.5813 213.984 94.175 213.656C94.7688 213.328 95.3117 213.164 95.8039 213.164C96.2961 213.164 96.6945 213.324 96.9992 213.645C97.3117 213.965 97.468 214.395 97.468 214.934ZM112.426 225H106.766V224.227C106.945 224.211 107.141 224.195 107.352 224.18C107.57 224.164 107.75 224.133 107.891 224.086C108.109 224.016 108.27 223.895 108.371 223.723C108.48 223.543 108.535 223.312 108.535 223.031V217.09C108.535 216.27 108.34 215.637 107.949 215.191C107.566 214.746 107.098 214.523 106.543 214.523C106.129 214.523 105.75 214.59 105.406 214.723C105.062 214.848 104.758 215.004 104.492 215.191C104.234 215.371 104.027 215.566 103.871 215.777C103.723 215.98 103.613 216.145 103.543 216.27V222.914C103.543 223.18 103.598 223.398 103.707 223.57C103.816 223.742 103.98 223.875 104.199 223.969C104.363 224.047 104.539 224.105 104.727 224.145C104.922 224.184 105.121 224.211 105.324 224.227V225H99.6641V224.227C99.8438 224.211 100.027 224.195 100.215 224.18C100.41 224.164 100.578 224.133 100.719 224.086C100.938 224.016 101.098 223.895 101.199 223.723C101.309 223.543 101.363 223.312 101.363 223.031V215.895C101.363 215.629 101.305 215.387 101.188 215.168C101.078 214.941 100.922 214.758 100.719 214.617C100.57 214.523 100.395 214.457 100.191 214.418C99.9883 214.371 99.7695 214.34 99.5352 214.324V213.562L103.379 213.305L103.543 213.469V215.098H103.602C103.789 214.91 104.023 214.688 104.305 214.43C104.586 214.164 104.852 213.949 105.102 213.785C105.391 213.598 105.734 213.441 106.133 213.316C106.531 213.191 106.98 213.129 107.48 213.129C108.59 213.129 109.41 213.477 109.941 214.172C110.48 214.859 110.75 215.777 110.75 216.926V222.938C110.75 223.211 110.797 223.434 110.891 223.605C110.984 223.77 111.145 223.898 111.371 223.992C111.559 224.07 111.719 224.125 111.852 224.156C111.992 224.188 112.184 224.211 112.426 224.227V225Z" fill="#637CC6"/>
<path d="M56.7898 254H48.8914V253.168C49.1258 253.152 49.4891 253.121 49.9812 253.074C50.4812 253.02 50.825 252.965 51.0125 252.91C51.2547 252.832 51.4383 252.707 51.5633 252.535C51.6961 252.355 51.7625 252.09 51.7625 251.738V243.512H48.8445V242.527H49.4891C50.3328 242.527 51.0867 242.371 51.7508 242.059C52.4227 241.746 52.9031 241.41 53.1922 241.051H54.1648C54.1414 241.559 54.118 242.152 54.0945 242.832C54.0711 243.512 54.0594 244.121 54.0594 244.66V251.609C54.0594 251.883 54.118 252.129 54.2352 252.348C54.3602 252.559 54.5359 252.715 54.7625 252.816C54.9656 252.902 55.2977 252.98 55.7586 253.051C56.2195 253.121 56.5633 253.16 56.7898 253.168V254ZM71.4195 248.598C71.4195 249.41 71.2711 250.172 70.9742 250.883C70.6852 251.594 70.2945 252.199 69.8023 252.699C69.232 253.27 68.5992 253.691 67.9039 253.965C67.2164 254.238 66.4977 254.375 65.7477 254.375C64.8805 254.375 64.0953 254.215 63.3922 253.895C62.6891 253.574 62.0914 253.121 61.5992 252.535C61.0992 251.941 60.7125 251.215 60.4391 250.355C60.1656 249.496 60.0289 248.531 60.0289 247.461C60.0289 244.672 60.857 242.32 62.5133 240.406C64.1773 238.492 66.4039 237.344 69.193 236.961L69.4039 238.016L68.3492 238.203C66.6539 238.75 65.3414 239.602 64.4117 240.758C63.4898 241.914 62.8922 243.316 62.6187 244.965C63.2906 244.379 63.9547 243.965 64.6109 243.723C65.2672 243.48 65.9586 243.359 66.6852 243.359C67.9898 243.359 69.1031 243.859 70.025 244.859C70.9547 245.859 71.4195 247.105 71.4195 248.598ZM68.8766 248.914C68.8766 247.648 68.5836 246.633 67.9977 245.867C67.4195 245.102 66.6422 244.719 65.6656 244.719C65.0797 244.719 64.5328 244.828 64.025 245.047C63.525 245.266 63.0406 245.633 62.5719 246.148C62.5641 246.242 62.5523 246.461 62.5367 246.805C62.5211 247.141 62.5133 247.406 62.5133 247.602C62.5133 249.43 62.8102 250.863 63.4039 251.902C64.0055 252.934 64.7945 253.449 65.7711 253.449C66.7008 253.449 67.4508 253.047 68.0211 252.242C68.5914 251.43 68.8766 250.32 68.8766 248.914ZM78.9711 244.004C78.9711 244.441 78.8109 244.816 78.4906 245.129C78.1781 245.441 77.8031 245.598 77.3656 245.598C76.9281 245.598 76.5492 245.441 76.2289 245.129C75.9164 244.816 75.7602 244.441 75.7602 244.004C75.7602 243.566 75.9164 243.191 76.2289 242.879C76.5414 242.559 76.9203 242.398 77.3656 242.398C77.8109 242.398 78.1898 242.559 78.5023 242.879C78.8148 243.191 78.9711 243.566 78.9711 244.004ZM78.9711 252.652C78.9711 253.09 78.8109 253.465 78.4906 253.777C78.1781 254.082 77.8031 254.234 77.3656 254.234C76.9281 254.234 76.5492 254.082 76.2289 253.777C75.9164 253.465 75.7602 253.09 75.7602 252.652C75.7602 252.215 75.9164 251.84 76.2289 251.527C76.5492 251.207 76.9281 251.047 77.3656 251.047C77.8031 251.047 78.1781 251.207 78.4906 251.527C78.8109 251.84 78.9711 252.215 78.9711 252.652ZM94.3508 243.055C94.8508 243.656 95.2219 244.363 95.4641 245.176C95.7141 245.98 95.8391 246.824 95.8391 247.707C95.8391 248.77 95.6867 249.723 95.382 250.566C95.0773 251.402 94.6594 252.098 94.1281 252.652C93.5812 253.223 92.9328 253.652 92.1828 253.941C91.4328 254.23 90.5969 254.375 89.675 254.375C88.6672 254.375 87.7687 254.207 86.9797 253.871C86.1906 253.535 85.55 253.074 85.0578 252.488C84.5422 251.879 84.1555 251.168 83.8977 250.355C83.6477 249.535 83.5227 248.652 83.5227 247.707C83.5227 246.777 83.6437 245.922 83.8859 245.141C84.1359 244.359 84.5227 243.652 85.0461 243.02C85.5461 242.41 86.1906 241.93 86.9797 241.578C87.7687 241.227 88.6711 241.051 89.6867 241.051C90.757 241.051 91.675 241.23 92.4406 241.59C93.2062 241.949 93.843 242.438 94.3508 243.055ZM93.2492 247.707C93.2492 245.848 92.9289 244.406 92.2883 243.383C91.6555 242.359 90.7922 241.848 89.6984 241.848C88.5891 241.848 87.7141 242.359 87.0734 243.383C86.4328 244.406 86.1125 245.848 86.1125 247.707C86.1125 249.473 86.4172 250.895 87.0266 251.973C87.6437 253.043 88.5266 253.578 89.675 253.578C90.8234 253.578 91.7062 253.043 92.3234 251.973C92.9406 250.895 93.2492 249.473 93.2492 247.707ZM110.293 243.055C110.793 243.656 111.164 244.363 111.406 245.176C111.656 245.98 111.781 246.824 111.781 247.707C111.781 248.77 111.629 249.723 111.324 250.566C111.02 251.402 110.602 252.098 110.07 252.652C109.523 253.223 108.875 253.652 108.125 253.941C107.375 254.23 106.539 254.375 105.617 254.375C104.609 254.375 103.711 254.207 102.922 253.871C102.133 253.535 101.492 253.074 101 252.488C100.484 251.879 100.098 251.168 99.8398 250.355C99.5898 249.535 99.4648 248.652 99.4648 247.707C99.4648 246.777 99.5859 245.922 99.8281 245.141C100.078 244.359 100.465 243.652 100.988 243.02C101.488 242.41 102.133 241.93 102.922 241.578C103.711 241.227 104.613 241.051 105.629 241.051C106.699 241.051 107.617 241.23 108.383 241.59C109.148 241.949 109.785 242.438 110.293 243.055ZM109.191 247.707C109.191 245.848 108.871 244.406 108.23 243.383C107.598 242.359 106.734 241.848 105.641 241.848C104.531 241.848 103.656 242.359 103.016 243.383C102.375 244.406 102.055 245.848 102.055 247.707C102.055 249.473 102.359 250.895 102.969 251.973C103.586 253.043 104.469 253.578 105.617 253.578C106.766 253.578 107.648 253.043 108.266 251.973C108.883 250.895 109.191 249.473 109.191 247.707Z" fill="#637CC6"/>
<path d="M354.3 76.9169C353.792 76.856 353.258 76.9849 352.822 77.3259C345.679 82.9442 338.581 88.6165 331.436 94.2279C330.609 94.8753 330.464 96.0688 331.111 96.8936C331.763 97.7197 332.958 97.8625 333.785 97.2166C340.938 91.6149 348.138 86.0728 355.296 80.4795C356.166 79.7961 356.326 78.536 355.643 77.6641C355.297 77.2288 354.811 76.9793 354.3 76.9169Z" fill="#637CC6"/>
<path d="M359.577 76.9169C359.068 76.9793 358.582 77.2288 358.239 77.6641C357.553 78.536 357.703 79.7961 358.576 80.4795C365.734 86.0728 372.937 91.6149 380.089 97.2166C380.914 97.8625 382.109 97.7184 382.758 96.8936C383.406 96.0688 383.262 94.8753 382.436 94.2279C375.291 88.6151 368.2 82.9428 361.06 77.3259C360.624 76.9849 360.091 76.856 359.577 76.9169Z" fill="#637CC6"/>
<path d="M353.743 66.7901C353.952 62.9323 359.526 62.9337 359.734 66.7901C359.944 70.6479 353.95 70.6285 353.743 66.7901C353.624 64.5667 350.152 64.5556 350.273 66.7901C350.47 70.44 353.084 73.0502 356.738 73.2457C360.384 73.4425 363.023 70.1434 363.205 66.7901C363.402 63.15 360.096 60.5148 356.738 60.3346C353.091 60.1377 350.453 63.4355 350.273 66.7901C350.152 69.0233 353.624 69.0122 353.743 66.7901Z" fill="#637CC6"/>
<path d="M356.608 52.6394C355.499 52.6685 354.626 53.5862 354.655 54.6924C354.733 57.0752 354.876 59.4581 354.947 61.8396C354.976 62.8876 355.849 63.7166 356.901 63.6888C357.949 63.6611 358.778 62.7864 358.751 61.7384C358.696 59.3542 358.721 56.9727 358.671 54.5898C358.642 53.4822 357.718 52.6103 356.608 52.6394Z" fill="#637CC6"/>
<path d="M334.829 91.783C334.571 91.8274 334.321 91.923 334.088 92.0741C332.791 92.9128 331.571 93.872 330.605 95.0864C330.034 95.8058 329.561 96.6043 329.25 97.4692C328.987 98.2095 328.847 98.9816 328.84 99.7662C328.808 103.564 332.001 106.356 335.056 108.064C335.525 108.326 336.004 108.573 336.49 108.8C337.102 109.093 337.725 109.357 338.358 109.604C340.333 110.376 342.382 110.956 344.453 111.406C347.803 112.133 351.228 112.511 354.654 112.625C358.793 112.763 362.962 112.523 367.045 111.822C369.813 111.345 372.554 110.66 375.182 109.658C375.922 109.374 376.662 109.065 377.381 108.722C377.958 108.448 378.528 108.149 379.082 107.827C381.861 106.212 384.664 103.725 384.942 100.318C384.974 99.891 384.967 99.464 384.917 99.0412C384.849 98.4327 384.695 97.8324 384.47 97.2641C384.15 96.4601 383.678 95.7157 383.13 95.0462C382.291 94.0231 381.278 93.1886 380.191 92.4429C379.326 91.8482 378.138 92.0672 377.545 92.9308C376.952 93.7944 377.17 94.9796 378.033 95.5729C378.755 96.0678 379.45 96.6043 380.03 97.2641C380.357 97.6398 380.653 98.0515 380.863 98.5061C380.982 98.764 381.068 99.0384 381.116 99.3184C381.411 101.046 380.001 102.519 378.746 103.485C378.504 103.67 378.257 103.846 378.006 104.011C377.659 104.241 377.295 104.454 376.935 104.655C376.456 104.923 375.976 105.17 375.476 105.396C374.933 105.646 374.382 105.877 373.823 106.087C373.117 106.355 372.405 106.593 371.681 106.812C366.792 108.283 361.61 108.8 356.519 108.754C351.414 108.707 346.159 108.078 341.307 106.441C340.62 106.211 339.94 105.953 339.268 105.671C338.743 105.45 338.225 105.214 337.716 104.953C337.331 104.757 336.946 104.547 336.574 104.324C336.233 104.12 335.907 103.903 335.58 103.673C334.184 102.67 332.473 101.048 332.927 99.141C332.998 98.8471 333.113 98.5657 333.256 98.301C333.52 97.8158 333.878 97.3861 334.264 96.9952C334.868 96.3894 335.561 95.8987 336.273 95.4371C337.206 94.8355 337.468 93.5906 336.867 92.6619C336.406 91.9674 335.598 91.6458 334.829 91.783Z" fill="#637CC6"/>
<path d="M328.623 130.094C327.514 130.115 326.631 131.031 326.655 132.139C326.664 132.679 326.723 133.21 326.851 133.737C327.668 137.101 330.752 139.444 333.673 140.972C334.177 141.234 334.682 141.481 335.2 141.709C335.859 142.002 336.528 142.273 337.2 142.52C342.383 144.425 347.968 145.218 353.467 145.399C357.198 145.523 360.943 145.344 364.636 144.825C367.492 144.425 370.331 143.82 373.072 142.93C374.004 142.626 374.924 142.286 375.829 141.906C376.463 141.64 377.089 141.353 377.706 141.042C380.699 139.53 383.931 137.146 384.761 133.712C384.889 133.194 384.949 132.673 384.96 132.139C384.979 131.092 384.143 130.223 383.091 130.204C382.041 130.186 381.174 131.023 381.154 132.07C381.12 134.053 379.359 135.564 377.838 136.576C377.55 136.766 377.252 136.948 376.956 137.118C376.552 137.352 376.137 137.566 375.716 137.774C375.171 138.039 374.618 138.284 374.056 138.51C373.448 138.757 372.837 138.99 372.214 139.195C367.683 140.708 362.865 141.345 358.106 141.5C352.322 141.688 346.423 141.163 340.854 139.527C339.022 138.988 337.216 138.321 335.521 137.431C334.506 136.9 333.523 136.285 332.655 135.53C331.633 134.638 330.684 133.479 330.661 132.061C330.642 130.952 329.731 130.071 328.623 130.094Z" fill="#637CC6"/>
<path d="M330.496 118.588C329.387 118.609 328.504 119.527 328.528 120.633C328.538 121.149 328.594 121.649 328.714 122.151C329.491 125.345 332.396 127.571 335.167 129.019C335.642 129.266 336.126 129.492 336.616 129.711C337.233 129.986 337.857 130.239 338.492 130.474C343.359 132.26 348.607 133.01 353.771 133.178C357.273 133.292 360.78 133.124 364.248 132.635C366.93 132.258 369.604 131.688 372.18 130.851C373.058 130.564 373.921 130.246 374.771 129.891C375.372 129.638 375.965 129.369 376.545 129.071C379.382 127.629 382.426 125.389 383.216 122.127C383.336 121.634 383.387 121.132 383.398 120.625C383.417 119.578 382.579 118.717 381.532 118.699C380.48 118.678 379.62 119.507 379.601 120.554C379.569 122.367 377.925 123.76 376.534 124.683C376.272 124.859 376 125.033 375.723 125.195C375.349 125.411 374.964 125.609 374.574 125.799C374.067 126.049 373.549 126.272 373.023 126.484C372.454 126.714 371.879 126.928 371.297 127.123C367.066 128.532 362.566 129.13 358.121 129.277C352.714 129.453 347.191 128.958 341.989 127.427C340.28 126.926 338.606 126.305 337.026 125.478C336.083 124.984 335.16 124.41 334.357 123.708C333.424 122.898 332.557 121.846 332.536 120.555C332.515 119.446 331.606 118.567 330.496 118.588Z" fill="#637CC6"/>
<path d="M331.985 107.811C330.878 107.832 329.995 108.748 330.016 109.856C330.026 110.348 330.081 110.831 330.198 111.31C331.054 114.836 334.578 117.11 337.689 118.49C338.271 118.751 338.865 118.985 339.461 119.208C344.043 120.893 348.98 121.597 353.842 121.756C357.137 121.864 360.442 121.705 363.706 121.245C366.23 120.89 368.747 120.351 371.171 119.56C371.897 119.325 372.616 119.066 373.322 118.776C373.896 118.543 374.46 118.296 375.017 118.022C377.804 116.645 380.841 114.49 381.617 111.29C381.731 110.816 381.782 110.337 381.79 109.85C381.812 108.802 380.974 107.943 379.924 107.922C378.875 107.904 378.004 108.73 377.986 109.779C377.967 110.984 377.148 111.972 376.277 112.729C374.572 114.208 372.398 115.127 370.276 115.834C366.312 117.155 362.098 117.722 357.932 117.855C352.869 118.019 347.699 117.55 342.823 116.118C340.396 115.403 337.802 114.405 335.839 112.767C334.938 112.017 334.052 111.014 334.035 109.779C334.013 108.67 333.094 107.79 331.985 107.811Z" fill="#637CC6"/>
<path d="M381.909 122.668C381.169 122.679 380.469 123.127 380.176 123.856C379.783 124.828 380.249 125.93 381.223 126.325C383.112 127.09 384.964 127.964 386.665 129.093C387.728 129.799 388.739 130.601 389.596 131.548C390.148 132.16 390.634 132.835 390.984 133.585C391.182 134.02 391.337 134.48 391.416 134.953C391.925 138.041 389.271 140.571 386.966 142.156C386.579 142.424 386.183 142.677 385.776 142.922C385.231 143.245 384.673 143.544 384.109 143.831C383.369 144.206 382.615 144.552 381.856 144.871C380.888 145.274 379.901 145.635 378.908 145.963C375.747 147.016 372.486 147.75 369.196 148.26C365.221 148.877 361.199 149.167 357.176 149.188C353.207 149.207 349.23 148.963 345.299 148.417C342.013 147.961 338.745 147.298 335.569 146.332C334.394 145.975 333.232 145.573 332.088 145.122C331.175 144.762 330.273 144.375 329.393 143.941C328.708 143.604 328.034 143.242 327.378 142.85C326.879 142.549 326.386 142.228 325.912 141.888C323.73 140.33 321.282 137.886 321.793 134.944C321.872 134.484 322.02 134.038 322.218 133.615C322.553 132.897 323.023 132.251 323.548 131.665C324.439 130.672 325.488 129.863 326.59 129.124C327.51 128.507 327.752 127.258 327.133 126.339C326.515 125.423 325.265 125.181 324.342 125.798C322.823 126.821 321.392 127.969 320.218 129.387C319.362 130.414 318.653 131.573 318.216 132.837C317.946 133.612 317.776 134.426 317.726 135.245C317.691 135.866 317.728 136.493 317.828 137.107C318.47 141.076 321.692 144.031 324.957 146.049C325.567 146.429 326.196 146.787 326.834 147.118C327.639 147.542 328.461 147.929 329.299 148.292C330.337 148.74 331.4 149.142 332.471 149.511C336.448 150.882 340.585 151.767 344.752 152.334C350.14 153.066 355.599 153.263 361.026 152.989C365.104 152.781 369.172 152.3 373.172 151.468C376.486 150.783 379.758 149.857 382.893 148.583C383.891 148.176 384.878 147.734 385.837 147.244C386.483 146.919 387.123 146.573 387.744 146.2C391.112 144.179 394.528 141.17 395.178 137.093C395.27 136.529 395.306 135.958 395.281 135.387C395.246 134.566 395.085 133.747 394.825 132.971C394.487 131.96 393.972 131.013 393.345 130.15C392.446 128.908 391.328 127.835 390.116 126.9C387.857 125.159 385.285 123.874 382.646 122.811C382.406 122.711 382.156 122.664 381.909 122.668Z" fill="#637CC6"/>
<path d="M386.502 142.489C385.404 142.636 384.631 143.648 384.781 144.746C385.998 153.724 387.21 162.711 388.357 171.698C388.582 173.485 388.807 175.266 389.016 177.053C389.082 177.614 389.15 178.175 389.206 178.737C389.223 178.885 389.234 179.036 389.247 179.185C389.252 179.246 389.252 179.319 389.261 179.381C389.241 180.298 388.984 181.159 388.529 181.953C387.499 183.755 385.763 185.113 384.025 186.192C380.825 188.178 377.198 189.451 373.573 190.392C367.339 192.01 360.853 192.636 354.424 192.602C347.838 192.567 341.178 191.827 334.842 189.985C331.56 189.028 328.279 187.776 325.422 185.876C324.007 184.94 322.644 183.808 321.704 182.378C321.154 181.543 320.757 180.592 320.718 179.585C320.703 179.167 320.782 178.691 320.836 178.248C320.904 177.707 320.981 177.169 321.059 176.627C321.295 174.94 321.551 173.254 321.815 171.572C323.183 162.748 324.65 153.942 326.137 145.138C326.313 144.104 325.62 143.117 324.586 142.944C323.551 142.77 322.572 143.468 322.397 144.502C320.853 153.617 319.322 162.74 317.908 171.879C317.659 173.487 317.416 175.095 317.189 176.709C317.021 177.934 316.805 179.164 316.955 180.403C317.13 181.863 317.693 183.252 318.497 184.477C319.792 186.455 321.657 188.013 323.634 189.285C326.735 191.275 330.226 192.652 333.753 193.689C340.432 195.65 347.453 196.457 354.399 196.509C361.599 196.568 368.882 195.833 375.826 193.876C379.785 192.76 383.738 191.24 387.143 188.898C389.055 187.584 390.834 185.963 391.994 183.934C392.729 182.653 393.187 181.215 393.246 179.736C393.271 179.125 393.201 178.518 393.135 177.912C393.067 177.261 392.987 176.612 392.908 175.962C392.72 174.372 392.518 172.786 392.319 171.196C391.178 162.197 389.974 153.202 388.757 144.211C388.61 143.111 387.603 142.341 386.502 142.489Z" fill="#637CC6"/>
<path d="M318.897 167.49C318.637 167.496 318.382 167.551 318.126 167.665C314.869 169.101 311.697 170.806 308.94 173.076C307.353 174.384 305.902 175.896 304.789 177.636C304.003 178.87 303.388 180.213 303.051 181.641C302.884 182.342 302.786 183.065 302.758 183.788C302.622 187.348 304.279 190.615 306.642 193.188C307.986 194.648 309.547 195.905 311.188 197.015C313.936 198.878 316.946 200.337 320.031 201.547C324.127 203.152 328.392 204.322 332.698 205.204C338.593 206.412 344.599 207.069 350.61 207.298C357.739 207.567 364.908 207.246 371.973 206.235C377.625 205.428 383.241 204.182 388.632 202.286C392.137 201.055 395.573 199.538 398.722 197.552C400.707 196.301 402.583 194.854 404.175 193.123C406.957 190.09 408.655 186.22 407.831 182.066C407.592 180.876 407.164 179.735 406.591 178.669C405.74 177.076 404.579 175.657 403.285 174.406C401.365 172.558 399.148 171.079 396.832 169.782C395.916 169.269 394.764 169.591 394.249 170.504C393.734 171.418 394.056 172.57 394.975 173.082C396.906 174.165 398.768 175.393 400.392 176.907C401.371 177.818 402.266 178.835 402.96 179.982C403.405 180.716 403.763 181.511 403.985 182.34C404.127 182.876 404.21 183.43 404.227 183.985C404.315 186.628 402.879 188.997 401.095 190.843C399.43 192.563 397.434 193.942 395.359 195.12C392.157 196.939 388.708 198.304 385.197 199.4C380.46 200.879 375.576 201.863 370.657 202.516C364.908 203.275 359.101 203.578 353.303 203.467C347.653 203.359 342.001 202.865 336.433 201.893C332.064 201.131 327.732 200.086 323.545 198.615C320.475 197.535 317.466 196.221 314.686 194.526C312.836 193.396 311.056 192.089 309.588 190.49C307.728 188.465 306.398 185.928 306.839 183.112C306.942 182.448 307.145 181.802 307.414 181.186C307.86 180.167 308.49 179.232 309.212 178.385C310.288 177.123 311.56 176.039 312.912 175.083C315.039 173.575 317.368 172.38 319.751 171.33C320.763 170.883 321.222 169.701 320.774 168.688C320.437 167.927 319.68 167.478 318.897 167.49Z" fill="#637CC6"/>
<path d="M353.689 73.5436C355.553 73.5436 357.419 73.5436 359.283 73.5436C358.704 72.9656 358.127 72.3889 357.548 71.8109C357.548 74.0122 357.548 76.2135 357.548 78.4162C358.127 77.8381 358.704 77.2614 359.283 76.6834C357.419 76.6834 355.553 76.6834 353.689 76.6834C354.267 77.2614 354.845 77.8381 355.424 78.4162C355.424 76.2149 355.424 74.0136 355.424 71.8109C355.424 69.5763 351.953 69.5763 351.953 71.8109C351.953 74.0122 351.953 76.2135 351.953 78.4162C351.953 79.3615 352.742 80.1489 353.689 80.1489C355.553 80.1489 357.419 80.1489 359.283 80.1489C360.23 80.1489 361.019 79.3615 361.019 78.4162C361.019 76.2149 361.019 74.0136 361.019 71.8109C361.019 70.8655 360.23 70.0781 359.283 70.0781C357.419 70.0781 355.553 70.0781 353.689 70.0781C351.451 70.0781 351.451 73.5436 353.689 73.5436Z" fill="#637CC6"/>
<path d="M333.025 102.718C331.986 102.565 331.021 103.276 330.866 104.313C329.527 113.272 328.117 122.223 326.77 131.179C326.606 132.275 327.366 133.291 328.461 133.454C329.561 133.616 330.576 132.864 330.742 131.77C332.057 122.807 333.308 113.835 334.631 104.872C334.785 103.834 334.063 102.87 333.025 102.718Z" fill="#637CC6"/>
<path d="M379.193 103.674C378.152 103.819 377.426 104.774 377.569 105.813C378.795 114.685 379.944 123.561 381.162 132.435C381.313 133.532 382.325 134.304 383.423 134.149C384.519 133.998 385.292 132.982 385.139 131.884C383.893 123.015 382.574 114.155 381.335 105.285C381.189 104.248 380.232 103.532 379.193 103.674Z" fill="#637CC6"/>
<path d="M341.705 109.605C340.34 120.092 338.975 130.58 337.611 141.066C337.322 143.277 340.797 143.25 341.082 141.066C342.446 130.58 343.811 120.092 345.176 109.605C345.464 107.394 341.99 107.422 341.705 109.605Z" fill="#637CC6"/>
<path d="M367.892 109.605C369.257 120.092 370.621 130.58 371.986 141.066C372.271 143.25 375.744 143.277 375.457 141.066C374.092 130.58 372.727 120.092 371.363 109.605C371.078 107.422 367.604 107.394 367.892 109.605Z" fill="#637CC6"/>
<path d="M354.046 111.243C353.697 122.007 353.349 132.772 352.999 143.536C352.927 145.772 356.398 145.765 356.47 143.536C356.818 132.772 357.167 122.007 357.517 111.243C357.589 109.007 354.118 109.014 354.046 111.243Z" fill="#637CC6"/>
<path d="M352.495 193.845C352.141 187.045 351.787 180.243 351.432 173.442C351.379 172.423 350.677 171.809 349.697 171.709C347.506 171.485 345.315 171.26 343.124 171.037C342.118 170.934 341.472 171.907 341.389 172.77C340.729 179.595 340.071 186.421 339.412 193.245C339.197 195.469 342.67 195.449 342.883 193.245C343.542 186.419 344.2 179.594 344.86 172.77C344.281 173.348 343.703 173.924 343.124 174.502C345.315 174.727 347.506 174.95 349.697 175.175C349.118 174.597 348.54 174.02 347.961 173.442C348.315 180.243 348.669 187.045 349.025 193.845C349.141 196.067 352.612 196.08 352.495 193.845Z" fill="#637CC6"/>
<path d="M343.293 173.732L340.816 193.19L350.722 194.605L349.307 173.732H343.293Z" fill="#637CC6" stroke="#637CC6" stroke-width="0.707547"/>
<path d="M335.272 151.846C333.964 151.571 332.657 151.295 331.349 151.019C330.138 150.764 329.305 151.541 329.151 152.691C328.857 154.898 328.562 157.105 328.267 159.31C328.171 160.027 328.864 160.841 329.54 160.982C330.957 161.276 332.376 161.571 333.794 161.866C334.961 162.109 335.894 161.36 335.991 160.195C336.176 157.968 336.361 155.744 336.544 153.517C336.728 151.29 333.256 151.306 333.073 153.517C332.888 155.744 332.704 157.968 332.521 160.195C333.252 159.637 333.985 159.08 334.718 158.523C333.301 158.229 331.882 157.934 330.464 157.638C330.889 158.196 331.314 158.753 331.738 159.31C332.032 157.103 332.326 154.897 332.622 152.691C331.89 153.248 331.157 153.806 330.424 154.363C331.732 154.637 333.04 154.913 334.348 155.189C336.533 155.648 337.462 152.307 335.272 151.846Z" fill="#637CC6"/>
<path d="M376.743 155.193C378.05 154.917 379.36 154.642 380.666 154.366C379.934 153.809 379.201 153.252 378.47 152.695C378.764 154.901 379.06 157.108 379.354 159.314C379.779 158.756 380.202 158.199 380.628 157.642C379.211 157.937 377.794 158.231 376.376 158.526C377.108 159.084 377.841 159.641 378.572 160.198C378.386 157.972 378.202 155.747 378.017 153.521C377.832 151.31 374.36 151.293 374.546 153.521C374.732 155.747 374.917 157.972 375.102 160.198C375.199 161.363 376.13 162.111 377.298 161.87C378.715 161.575 380.133 161.281 381.55 160.986C382.228 160.844 382.921 160.032 382.825 159.314C382.53 157.107 382.235 154.9 381.94 152.695C381.788 151.544 380.953 150.769 379.744 151.023C378.436 151.299 377.127 151.573 375.821 151.849C373.631 152.311 374.56 155.651 376.743 155.193Z" fill="#637CC6"/>
<path d="M353.411 158.348C355.002 158.348 356.593 158.348 358.184 158.348C357.605 157.77 357.028 157.194 356.449 156.616C356.449 158.767 356.449 160.918 356.449 163.068C357.028 162.49 357.605 161.914 358.184 161.336C356.593 161.336 355.002 161.336 353.411 161.336C353.99 161.914 354.568 162.49 355.147 163.068C355.147 160.917 355.147 158.766 355.147 156.616C355.147 154.381 351.676 154.381 351.676 156.616C351.676 158.767 351.676 160.918 351.676 163.068C351.676 164.014 352.464 164.801 353.411 164.801C355.002 164.801 356.593 164.801 358.184 164.801C359.131 164.801 359.92 164.014 359.92 163.068C359.92 160.917 359.92 158.766 359.92 156.616C359.92 155.67 359.131 154.883 358.184 154.883C356.593 154.883 355.002 154.883 353.411 154.883C351.173 154.883 351.173 158.348 353.411 158.348Z" fill="#637CC6"/>
<path d="M322.389 154.124C322.144 154.091 321.885 154.107 321.633 154.178C316.88 155.498 312.131 156.821 307.383 158.14C305.903 158.553 304.426 158.958 302.947 159.368C302.528 159.484 302.094 159.581 301.678 159.723C301.416 159.81 301.137 159.86 300.9 160.004C300.652 160.155 300.468 160.387 300.262 160.586C299.983 160.855 299.733 161.181 299.474 161.468C298.623 162.418 297.772 163.36 296.922 164.307C294.105 167.443 291.281 170.575 288.46 173.707C285.512 176.982 282.567 180.253 279.617 183.53C278.632 184.622 277.645 185.717 276.661 186.809C276.336 187.171 276.01 187.533 275.686 187.893C275.674 187.896 275.663 187.899 275.653 187.903C275.269 188.001 274.883 188.103 274.498 188.208C273.303 188.538 272.109 188.887 270.929 189.263C269.035 189.867 267.168 190.54 265.337 191.31C263.846 191.937 262.4 192.583 261.098 193.557C259.528 194.736 258.091 196.1 256.694 197.476C254.94 199.205 253.251 201.001 251.583 202.814C247.296 207.48 243.142 212.277 239.113 217.17C238.41 218.025 238.541 219.288 239.397 219.994C240.254 220.695 241.512 220.572 242.218 219.716C244.219 217.279 246.265 214.874 248.328 212.489C250.775 209.66 253.258 206.859 255.813 204.127C257.462 202.361 259.146 200.617 260.908 198.961C261.932 197.999 262.988 197.005 264.177 196.247C264.601 195.978 265.062 195.768 265.516 195.555C266.196 195.237 266.883 194.941 267.58 194.659C269.586 193.847 271.635 193.162 273.708 192.536C274.459 192.31 275.213 192.091 275.968 191.884C276.277 191.797 276.581 191.721 276.892 191.639C276.98 191.617 277.13 191.599 277.214 191.553C277.54 191.364 277.876 191.198 278.188 190.985C278.278 190.924 278.335 190.824 278.409 190.742C278.542 190.598 278.664 190.448 278.795 190.303C279.252 189.79 279.715 189.278 280.174 188.768C281.545 187.236 282.914 185.702 284.284 184.167C288.66 179.275 293.038 174.375 297.416 169.484C298.853 167.879 300.285 166.277 301.726 164.67C302.119 164.232 302.514 163.793 302.908 163.356C302.918 163.344 302.938 163.33 302.954 163.319C302.976 163.309 303 163.309 303.025 163.301C303.131 163.273 303.236 163.245 303.343 163.215C303.869 163.069 304.395 162.922 304.926 162.775C306.401 162.362 307.874 161.952 309.352 161.539C313.784 160.305 318.222 159.07 322.654 157.836C323.666 157.555 324.252 156.501 323.971 155.491C323.759 154.734 323.121 154.215 322.389 154.124Z" fill="#637CC6"/>
<path d="M389.64 154.052C388.599 153.921 387.649 154.659 387.52 155.702C387.393 156.742 388.126 157.688 389.17 157.816C392.54 158.236 395.91 158.653 399.281 159.073C400.354 159.21 401.431 159.341 402.502 159.477C402.811 159.514 403.117 159.567 403.426 159.594C403.478 159.597 403.532 159.572 403.58 159.587C403.612 159.594 403.621 159.64 403.651 159.658C403.779 159.729 403.912 159.788 404.041 159.855C404.294 159.981 404.553 160.104 404.812 160.232C405.582 160.61 406.357 160.997 407.125 161.378C409.053 162.332 410.974 163.291 412.9 164.251C413.543 164.568 414.18 164.881 414.823 165.202C414.945 165.263 415.07 165.328 415.192 165.391C415.252 165.468 415.317 165.541 415.374 165.617C415.607 165.92 415.835 166.222 416.068 166.524C416.714 167.357 417.359 168.189 418.005 169.026C419.922 171.499 421.842 173.976 423.764 176.449C427.468 181.215 431.185 185.967 434.941 190.691C436.329 192.435 437.715 194.18 439.122 195.906C439.979 196.951 440.83 197.998 441.734 199.004C442.471 199.83 443.74 199.9 444.567 199.159C445.392 198.422 445.464 197.154 444.724 196.33C443.675 195.163 442.69 193.936 441.698 192.721C440.241 190.928 438.804 189.123 437.368 187.317C433.428 182.364 429.515 177.393 425.607 172.413C423.85 170.178 422.096 167.937 420.344 165.698C419.792 164.985 419.238 164.276 418.682 163.566C418.512 163.344 418.335 163.118 418.164 162.896C418.11 162.828 418.059 162.726 417.991 162.668C417.766 162.486 417.556 162.292 417.322 162.127C417.202 162.042 417.059 161.992 416.929 161.93C416.798 161.866 416.671 161.804 416.542 161.74C416.029 161.485 415.514 161.237 414.996 160.985C413.583 160.29 412.168 159.596 410.752 158.901C409.339 158.204 407.922 157.504 406.508 156.807C406.121 156.618 405.738 156.423 405.348 156.241C405.117 156.136 404.901 155.999 404.653 155.925C404.406 155.853 404.152 155.845 403.9 155.81C403.593 155.766 403.285 155.737 402.978 155.699C401.905 155.566 400.827 155.43 399.757 155.297C396.381 154.884 393.014 154.467 389.64 154.052Z" fill="#637CC6"/>
<circle cx="204.5" cy="56.5" r="6.5" fill="#637CC6"/>
<circle cx="204.5" cy="232.5" r="6.5" fill="#637CC6"/>
<path d="M205 280L205 2" stroke="#637CC6" stroke-width="3" stroke-linecap="round"/>
</svg>
