<svg width="451" height="320" viewBox="0 0 451 320" fill="none" xmlns="http://www.w3.org/2000/svg">
<path d="M77.3961 77H71.7594V76.2266C71.9391 76.2109 72.1188 76.1953 72.2984 76.1797C72.4859 76.1641 72.65 76.1328 72.7906 76.0859C73.0094 76.0156 73.1695 75.8945 73.2711 75.7227C73.3805 75.543 73.4352 75.3125 73.4352 75.0312V69.0664C73.4352 68.2539 73.2477 67.6289 72.8727 67.1914C72.5055 66.7461 72.0445 66.5234 71.4898 66.5234C71.107 66.5234 70.7477 66.582 70.4117 66.6992C70.0758 66.8164 69.7672 66.9805 69.4859 67.1914C69.2594 67.3633 69.068 67.5508 68.9117 67.7539C68.7633 67.9492 68.65 68.1133 68.5719 68.2461V74.9141C68.5719 75.1875 68.6188 75.4141 68.7125 75.5938C68.8063 75.7656 68.9664 75.8984 69.193 75.9922C69.3727 76.0625 69.5328 76.1172 69.6734 76.1562C69.8219 76.1875 70.0133 76.2109 70.2477 76.2266V77H64.7281V76.2266C64.9078 76.2109 65.0797 76.1953 65.2438 76.1797C65.4156 76.1641 65.5719 76.1328 65.7125 76.0859C65.9313 76.0156 66.0914 75.8945 66.193 75.7227C66.3023 75.543 66.357 75.3125 66.357 75.0312V69.0664C66.357 68.2539 66.1695 67.6289 65.7945 67.1914C65.4273 66.7461 64.9664 66.5234 64.4117 66.5234C64.0289 66.5234 63.6695 66.5859 63.3336 66.7109C62.9977 66.8281 62.6891 66.9922 62.4078 67.2031C62.1813 67.375 61.9898 67.5703 61.8336 67.7891C61.6773 68 61.5602 68.1602 61.482 68.2695V74.8906C61.482 75.1562 61.5367 75.3789 61.6461 75.5586C61.7555 75.7383 61.9195 75.875 62.1383 75.9688C62.3023 76.0469 62.4703 76.1055 62.6422 76.1445C62.8141 76.1836 63.0055 76.2109 63.2164 76.2266V77H57.6031V76.2266C57.7828 76.2109 57.9664 76.1953 58.1539 76.1797C58.3492 76.1641 58.5172 76.1328 58.6578 76.0859C58.8766 76.0156 59.0367 75.8945 59.1383 75.7227C59.2477 75.543 59.3023 75.3125 59.3023 75.0312V67.8477C59.3023 67.5977 59.2438 67.375 59.1266 67.1797C59.0172 66.9766 58.8609 66.8047 58.6578 66.6641C58.5094 66.5703 58.3258 66.4961 58.107 66.4414C57.8883 66.3789 57.6617 66.3398 57.4273 66.3242V65.5625L61.2945 65.3047L61.4586 65.4688V67.1211H61.5406C61.7359 66.9258 61.9742 66.6953 62.2555 66.4297C62.5367 66.1641 62.7984 65.9492 63.0406 65.7852C63.3141 65.5977 63.6539 65.4414 64.0602 65.3164C64.4742 65.1914 64.9195 65.1289 65.3961 65.1289C66.1461 65.1289 66.7906 65.332 67.3297 65.7383C67.8688 66.1367 68.2555 66.6211 68.4898 67.1914C68.7711 66.918 69.0172 66.6797 69.2281 66.4766C69.4469 66.2656 69.732 66.043 70.0836 65.8086C70.3805 65.6055 70.7281 65.4414 71.1266 65.3164C71.5328 65.1914 71.982 65.1289 72.4742 65.1289C73.4508 65.1289 74.2242 65.4492 74.7945 66.0898C75.3648 66.7305 75.65 67.7148 75.65 69.043V74.9141C75.65 75.1875 75.6969 75.4141 75.7906 75.5938C75.8844 75.7656 76.0445 75.8984 76.2711 75.9922C76.4508 76.0625 76.6266 76.1172 76.7984 76.1562C76.9781 76.1875 77.1773 76.2109 77.3961 76.2266V77ZM90.2094 74.2812C89.725 75.2031 89.0766 75.9375 88.2641 76.4844C87.4516 77.0312 86.518 77.3047 85.4633 77.3047C84.5336 77.3047 83.7172 77.1406 83.0141 76.8125C82.3188 76.4844 81.7445 76.0391 81.2914 75.4766C80.8383 74.9141 80.4984 74.2578 80.2719 73.5078C80.0531 72.7578 79.9438 71.9648 79.9438 71.1289C79.9438 70.3789 80.0609 69.6445 80.2953 68.9258C80.5375 68.1992 80.8891 67.5469 81.35 66.9688C81.7953 66.4141 82.3461 65.9688 83.0023 65.6328C83.6664 65.2891 84.4086 65.1172 85.2289 65.1172C86.0727 65.1172 86.7953 65.25 87.3969 65.5156C87.9984 65.7812 88.4867 66.1445 88.8617 66.6055C89.2211 67.043 89.4867 67.5586 89.6586 68.1523C89.8383 68.7461 89.9281 69.3906 89.9281 70.0859V70.8594H82.2758C82.2758 71.6172 82.3461 72.3047 82.4867 72.9219C82.6352 73.5391 82.8656 74.082 83.1781 74.5508C83.4828 75.0039 83.8813 75.3633 84.3734 75.6289C84.8656 75.8867 85.4516 76.0156 86.1313 76.0156C86.8266 76.0156 87.4242 75.8555 87.9242 75.5352C88.432 75.207 88.9203 74.6211 89.3891 73.7773L90.2094 74.2812ZM87.6195 69.875C87.6195 69.4375 87.5805 68.9688 87.5023 68.4688C87.432 67.9688 87.3148 67.5508 87.1508 67.2148C86.9711 66.8555 86.725 66.5625 86.4125 66.3359C86.1 66.1094 85.6977 65.9961 85.2055 65.9961C84.3852 65.9961 83.7016 66.3398 83.1547 67.0273C82.6156 67.707 82.3227 68.6562 82.2758 69.875H87.6195ZM103.011 74.2812C102.527 75.2031 101.878 75.9375 101.066 76.4844C100.253 77.0312 99.3195 77.3047 98.2648 77.3047C97.3352 77.3047 96.5188 77.1406 95.8156 76.8125C95.1203 76.4844 94.5461 76.0391 94.093 75.4766C93.6398 74.9141 93.3 74.2578 93.0734 73.5078C92.8547 72.7578 92.7453 71.9648 92.7453 71.1289C92.7453 70.3789 92.8625 69.6445 93.0969 68.9258C93.3391 68.1992 93.6906 67.5469 94.1516 66.9688C94.5969 66.4141 95.1477 65.9688 95.8039 65.6328C96.468 65.2891 97.2102 65.1172 98.0305 65.1172C98.8742 65.1172 99.5969 65.25 100.198 65.5156C100.8 65.7812 101.288 66.1445 101.663 66.6055C102.023 67.043 102.288 67.5586 102.46 68.1523C102.64 68.7461 102.73 69.3906 102.73 70.0859V70.8594H95.0773C95.0773 71.6172 95.1477 72.3047 95.2883 72.9219C95.4367 73.5391 95.6672 74.082 95.9797 74.5508C96.2844 75.0039 96.6828 75.3633 97.175 75.6289C97.6672 75.8867 98.2531 76.0156 98.9328 76.0156C99.6281 76.0156 100.226 75.8555 100.726 75.5352C101.234 75.207 101.722 74.6211 102.191 73.7773L103.011 74.2812ZM100.421 69.875C100.421 69.4375 100.382 68.9688 100.304 68.4688C100.234 67.9688 100.116 67.5508 99.9523 67.2148C99.7727 66.8555 99.5266 66.5625 99.2141 66.3359C98.9016 66.1094 98.4992 65.9961 98.007 65.9961C97.1867 65.9961 96.5031 66.3398 95.9563 67.0273C95.4172 67.707 95.1242 68.6562 95.0773 69.875H100.421ZM112.684 76.4961C112.176 76.707 111.695 76.8828 111.242 77.0234C110.789 77.1719 110.234 77.2461 109.578 77.2461C108.609 77.2461 107.926 77.0039 107.527 76.5195C107.137 76.0273 106.941 75.3359 106.941 74.4453V66.6172H104.855V65.4922H106.988V61.8945H109.121V65.4922H112.438V66.6172H109.145V73.0742C109.145 73.5586 109.16 73.9648 109.191 74.293C109.23 74.6133 109.316 74.8945 109.449 75.1367C109.574 75.3633 109.762 75.5352 110.012 75.6523C110.262 75.7695 110.598 75.8281 111.02 75.8281C111.215 75.8281 111.5 75.8125 111.875 75.7812C112.258 75.7422 112.527 75.6953 112.684 75.6406V76.4961Z" fill="#637CC6"/>
<path d="M57.1414 106H49.243V105.168C49.4773 105.152 49.8406 105.121 50.3328 105.074C50.8328 105.02 51.1766 104.965 51.3641 104.91C51.6062 104.832 51.7898 104.707 51.9148 104.535C52.0477 104.355 52.1141 104.09 52.1141 103.738V95.5117H49.1961V94.5273H49.8406C50.6844 94.5273 51.4383 94.3711 52.1023 94.0586C52.7742 93.7461 53.2547 93.4102 53.5437 93.0508H54.5164C54.493 93.5586 54.4695 94.1523 54.4461 94.832C54.4227 95.5117 54.4109 96.1211 54.4109 96.6602V103.609C54.4109 103.883 54.4695 104.129 54.5867 104.348C54.7117 104.559 54.8875 104.715 55.1141 104.816C55.3172 104.902 55.6492 104.98 56.1102 105.051C56.5711 105.121 56.9148 105.16 57.1414 105.168V106ZM64.8805 110.277C64.1461 110.277 63.4742 110.184 62.8648 109.996C62.2555 109.816 61.732 109.57 61.2945 109.258C60.857 108.945 60.5172 108.586 60.275 108.18C60.0406 107.773 59.9234 107.355 59.9234 106.926C59.9234 106.543 60.0172 106.199 60.2047 105.895C60.3922 105.582 60.693 105.426 61.107 105.426C61.5758 105.426 61.9312 105.543 62.1734 105.777C62.4234 106.004 62.5484 106.266 62.5484 106.562C62.5484 106.812 62.5055 107.129 62.4195 107.512C62.3414 107.895 62.2789 108.168 62.232 108.332C62.2867 108.402 62.3844 108.496 62.525 108.613C62.6734 108.73 62.8531 108.836 63.0641 108.93C63.3141 109.047 63.5758 109.141 63.8492 109.211C64.1227 109.281 64.5094 109.316 65.0094 109.316C65.4781 109.316 65.9273 109.238 66.357 109.082C66.7945 108.926 67.1773 108.676 67.5055 108.332C67.8492 107.973 68.1148 107.551 68.3023 107.066C68.4977 106.59 68.5953 105.961 68.5953 105.18C68.5953 104.758 68.5484 104.34 68.4547 103.926C68.3687 103.512 68.2047 103.152 67.9625 102.848C67.7203 102.543 67.3883 102.309 66.9664 102.145C66.5523 101.973 66.025 101.887 65.3844 101.887H63.8492V100.539H64.8687C65.9469 100.539 66.7242 100.242 67.2008 99.6484C67.6773 99.0547 67.9156 98.1602 67.9156 96.9648C67.9156 95.9883 67.6852 95.2539 67.2242 94.7617C66.7633 94.2617 66.1109 94.0117 65.2672 94.0117C64.8609 94.0117 64.525 94.0625 64.2594 94.1641C64.0016 94.2578 63.7906 94.3516 63.6266 94.4453C63.4312 94.5547 63.2711 94.6758 63.1461 94.8086C63.0211 94.9414 62.9273 95.0391 62.8648 95.1016C62.9195 95.3516 62.9859 95.6602 63.0641 96.0273C63.1422 96.3867 63.1812 96.7305 63.1812 97.0586C63.1812 97.3477 63.0562 97.6094 62.8062 97.8438C62.5641 98.0703 62.2047 98.1836 61.7281 98.1836C61.3141 98.1836 61.0094 98.0352 60.8141 97.7383C60.6266 97.4414 60.5328 97.0977 60.5328 96.707C60.5328 96.3008 60.6461 95.8867 60.8727 95.4648C61.0992 95.043 61.4352 94.6484 61.8805 94.2812C62.3258 93.9141 62.8687 93.6172 63.5094 93.3906C64.15 93.1641 64.8883 93.0508 65.7242 93.0508C66.6852 93.0508 67.4781 93.1953 68.1031 93.4844C68.7359 93.7656 69.232 94.1094 69.5914 94.5156C69.943 94.9141 70.1852 95.332 70.318 95.7695C70.4508 96.207 70.5172 96.582 70.5172 96.8945C70.5172 97.2852 70.4625 97.6797 70.3531 98.0781C70.2437 98.4688 70.0641 98.832 69.8141 99.168C69.5406 99.5352 69.1773 99.8711 68.7242 100.176C68.2789 100.473 67.7164 100.715 67.0367 100.902V101.09C67.4742 101.129 67.9391 101.227 68.4312 101.383C68.9312 101.539 69.3805 101.77 69.7789 102.074C70.193 102.395 70.5328 102.809 70.7984 103.316C71.0641 103.816 71.1969 104.453 71.1969 105.227C71.1969 106.727 70.5953 107.941 69.3922 108.871C68.1891 109.809 66.6852 110.277 64.8805 110.277ZM78.9711 96.0039C78.9711 96.4414 78.8109 96.8164 78.4906 97.1289C78.1781 97.4414 77.8031 97.5977 77.3656 97.5977C76.9281 97.5977 76.5492 97.4414 76.2289 97.1289C75.9164 96.8164 75.7602 96.4414 75.7602 96.0039C75.7602 95.5664 75.9164 95.1914 76.2289 94.8789C76.5414 94.5586 76.9203 94.3984 77.3656 94.3984C77.8109 94.3984 78.1898 94.5586 78.5023 94.8789C78.8148 95.1914 78.9711 95.5664 78.9711 96.0039ZM78.9711 104.652C78.9711 105.09 78.8109 105.465 78.4906 105.777C78.1781 106.082 77.8031 106.234 77.3656 106.234C76.9281 106.234 76.5492 106.082 76.2289 105.777C75.9164 105.465 75.7602 105.09 75.7602 104.652C75.7602 104.215 75.9164 103.84 76.2289 103.527C76.5492 103.207 76.9281 103.047 77.3656 103.047C77.8031 103.047 78.1781 103.207 78.4906 103.527C78.8109 103.84 78.9711 104.215 78.9711 104.652ZM94.3508 95.0547C94.8508 95.6562 95.2219 96.3633 95.4641 97.1758C95.7141 97.9805 95.8391 98.8242 95.8391 99.707C95.8391 100.77 95.6867 101.723 95.382 102.566C95.0773 103.402 94.6594 104.098 94.1281 104.652C93.5812 105.223 92.9328 105.652 92.1828 105.941C91.4328 106.23 90.5969 106.375 89.675 106.375C88.6672 106.375 87.7687 106.207 86.9797 105.871C86.1906 105.535 85.55 105.074 85.0578 104.488C84.5422 103.879 84.1555 103.168 83.8977 102.355C83.6477 101.535 83.5227 100.652 83.5227 99.707C83.5227 98.7773 83.6437 97.9219 83.8859 97.1406C84.1359 96.3594 84.5227 95.6523 85.0461 95.0195C85.5461 94.4102 86.1906 93.9297 86.9797 93.5781C87.7687 93.2266 88.6711 93.0508 89.6867 93.0508C90.757 93.0508 91.675 93.2305 92.4406 93.5898C93.2062 93.9492 93.843 94.4375 94.3508 95.0547ZM93.2492 99.707C93.2492 97.8477 92.9289 96.4062 92.2883 95.3828C91.6555 94.3594 90.7922 93.8477 89.6984 93.8477C88.5891 93.8477 87.7141 94.3594 87.0734 95.3828C86.4328 96.4062 86.1125 97.8477 86.1125 99.707C86.1125 101.473 86.4172 102.895 87.0266 103.973C87.6437 105.043 88.5266 105.578 89.675 105.578C90.8234 105.578 91.7062 105.043 92.3234 103.973C92.9406 102.895 93.2492 101.473 93.2492 99.707ZM110.293 95.0547C110.793 95.6562 111.164 96.3633 111.406 97.1758C111.656 97.9805 111.781 98.8242 111.781 99.707C111.781 100.77 111.629 101.723 111.324 102.566C111.02 103.402 110.602 104.098 110.07 104.652C109.523 105.223 108.875 105.652 108.125 105.941C107.375 106.23 106.539 106.375 105.617 106.375C104.609 106.375 103.711 106.207 102.922 105.871C102.133 105.535 101.492 105.074 101 104.488C100.484 103.879 100.098 103.168 99.8398 102.355C99.5898 101.535 99.4648 100.652 99.4648 99.707C99.4648 98.7773 99.5859 97.9219 99.8281 97.1406C100.078 96.3594 100.465 95.6523 100.988 95.0195C101.488 94.4102 102.133 93.9297 102.922 93.5781C103.711 93.2266 104.613 93.0508 105.629 93.0508C106.699 93.0508 107.617 93.2305 108.383 93.5898C109.148 93.9492 109.785 94.4375 110.293 95.0547ZM109.191 99.707C109.191 97.8477 108.871 96.4062 108.23 95.3828C107.598 94.3594 106.734 93.8477 105.641 93.8477C104.531 93.8477 103.656 94.3594 103.016 95.3828C102.375 96.4062 102.055 97.8477 102.055 99.707C102.055 101.473 102.359 102.895 102.969 103.973C103.586 105.043 104.469 105.578 105.617 105.578C106.766 105.578 107.648 105.043 108.266 103.973C108.883 102.895 109.191 101.473 109.191 99.707Z" fill="#637CC6"/>
<path d="M49.1211 241.934C49.1211 242.332 49.0234 242.688 48.8281 243C48.6328 243.305 48.332 243.457 47.9258 243.457C47.4883 243.457 47.1523 243.344 46.918 243.117C46.6914 242.891 46.5781 242.641 46.5781 242.367C46.5781 242.195 46.5898 242.039 46.6133 241.898C46.6445 241.758 46.6719 241.617 46.6953 241.477C46.3281 241.477 45.8984 241.625 45.4062 241.922C44.9141 242.219 44.4961 242.641 44.1523 243.188V249.914C44.1523 250.188 44.2031 250.41 44.3047 250.582C44.4141 250.754 44.582 250.883 44.8086 250.969C45.0039 251.047 45.2539 251.105 45.5586 251.145C45.8711 251.184 46.1406 251.211 46.3672 251.227V252H40.2734V251.227C40.4531 251.211 40.6367 251.195 40.8242 251.18C41.0195 251.164 41.1875 251.133 41.3281 251.086C41.5469 251.016 41.707 250.895 41.8086 250.723C41.918 250.543 41.9727 250.312 41.9727 250.031V242.895C41.9727 242.652 41.9141 242.414 41.7969 242.18C41.6875 241.945 41.5312 241.758 41.3281 241.617C41.1797 241.523 41.0039 241.457 40.8008 241.418C40.5977 241.371 40.3789 241.34 40.1445 241.324V240.562L43.9883 240.305L44.1523 240.469V242.098H44.2109C44.6953 241.465 45.2344 240.984 45.8281 240.656C46.4219 240.328 46.9648 240.164 47.457 240.164C47.9492 240.164 48.3477 240.324 48.6523 240.645C48.9648 240.965 49.1211 241.395 49.1211 241.934ZM61.5828 249.281C61.0984 250.203 60.45 250.938 59.6375 251.484C58.825 252.031 57.8914 252.305 56.8367 252.305C55.907 252.305 55.0906 252.141 54.3875 251.812C53.6922 251.484 53.118 251.039 52.6648 250.477C52.2117 249.914 51.8719 249.258 51.6453 248.508C51.4266 247.758 51.3172 246.965 51.3172 246.129C51.3172 245.379 51.4344 244.645 51.6687 243.926C51.9109 243.199 52.2625 242.547 52.7234 241.969C53.1687 241.414 53.7195 240.969 54.3758 240.633C55.0398 240.289 55.782 240.117 56.6023 240.117C57.4461 240.117 58.1687 240.25 58.7703 240.516C59.3719 240.781 59.8602 241.145 60.2352 241.605C60.5945 242.043 60.8602 242.559 61.032 243.152C61.2117 243.746 61.3016 244.391 61.3016 245.086V245.859H53.6492C53.6492 246.617 53.7195 247.305 53.8602 247.922C54.0086 248.539 54.2391 249.082 54.5516 249.551C54.8562 250.004 55.2547 250.363 55.7469 250.629C56.2391 250.887 56.825 251.016 57.5047 251.016C58.2 251.016 58.7977 250.855 59.2977 250.535C59.8055 250.207 60.2937 249.621 60.7625 248.777L61.5828 249.281ZM58.993 244.875C58.993 244.438 58.9539 243.969 58.8758 243.469C58.8055 242.969 58.6883 242.551 58.5242 242.215C58.3445 241.855 58.0984 241.562 57.7859 241.336C57.4734 241.109 57.0711 240.996 56.5789 240.996C55.7586 240.996 55.075 241.34 54.5281 242.027C53.9891 242.707 53.6961 243.656 53.6492 244.875H58.993ZM71.2555 251.496C70.7477 251.707 70.2672 251.883 69.8141 252.023C69.3609 252.172 68.8063 252.246 68.15 252.246C67.1813 252.246 66.4977 252.004 66.0992 251.52C65.7086 251.027 65.5133 250.336 65.5133 249.445V241.617H63.4273V240.492H65.5602V236.895H67.693V240.492H71.0094V241.617H67.7164V248.074C67.7164 248.559 67.732 248.965 67.7633 249.293C67.8023 249.613 67.8883 249.895 68.0211 250.137C68.1461 250.363 68.3336 250.535 68.5836 250.652C68.8336 250.77 69.1695 250.828 69.5914 250.828C69.7867 250.828 70.0719 250.812 70.4469 250.781C70.8297 250.742 71.0992 250.695 71.2555 250.641V251.496ZM86.0023 251.789L82.2406 252.047L82.0648 251.883V250.418H81.9945C81.807 250.613 81.5961 250.824 81.3617 251.051C81.1273 251.27 80.8578 251.469 80.5531 251.648C80.2016 251.859 79.8617 252.02 79.5336 252.129C79.2055 252.238 78.7406 252.293 78.1391 252.293C77.1156 252.293 76.3344 251.961 75.7953 251.297C75.2641 250.625 74.9984 249.652 74.9984 248.379V242.848C74.9984 242.566 74.9437 242.332 74.8344 242.145C74.7328 241.949 74.5805 241.781 74.3773 241.641C74.2367 241.547 74.0609 241.48 73.85 241.441C73.6391 241.395 73.4164 241.363 73.182 241.348V240.586L77.0375 240.305L77.2133 240.469V248.496C77.2133 249.332 77.4008 249.961 77.7758 250.383C78.1508 250.805 78.6 251.016 79.1234 251.016C79.5531 251.016 79.9359 250.949 80.2719 250.816C80.6078 250.684 80.8891 250.527 81.1156 250.348C81.3266 250.184 81.5102 250.012 81.6664 249.832C81.8305 249.645 81.9555 249.473 82.0414 249.316V242.766C82.0414 242.508 81.9867 242.281 81.8773 242.086C81.768 241.883 81.6156 241.711 81.4203 241.57C81.2797 241.477 81.0687 241.422 80.7875 241.406C80.5141 241.383 80.2055 241.363 79.8617 241.348V240.586L84.057 240.305L84.2328 240.469V249.645C84.2328 249.91 84.2875 250.137 84.3969 250.324C84.5062 250.512 84.6586 250.672 84.8539 250.805C84.9945 250.891 85.1625 250.949 85.3578 250.98C85.5531 251.004 85.768 251.02 86.0023 251.027V251.789ZM97.468 241.934C97.468 242.332 97.3703 242.688 97.175 243C96.9797 243.305 96.6789 243.457 96.2727 243.457C95.8352 243.457 95.4992 243.344 95.2648 243.117C95.0383 242.891 94.925 242.641 94.925 242.367C94.925 242.195 94.9367 242.039 94.9602 241.898C94.9914 241.758 95.0188 241.617 95.0422 241.477C94.675 241.477 94.2453 241.625 93.7531 241.922C93.2609 242.219 92.843 242.641 92.4992 243.188V249.914C92.4992 250.188 92.55 250.41 92.6516 250.582C92.7609 250.754 92.9289 250.883 93.1555 250.969C93.3508 251.047 93.6008 251.105 93.9055 251.145C94.218 251.184 94.4875 251.211 94.7141 251.227V252H88.6203V251.227C88.8 251.211 88.9836 251.195 89.1711 251.18C89.3664 251.164 89.5344 251.133 89.675 251.086C89.8938 251.016 90.0539 250.895 90.1555 250.723C90.2648 250.543 90.3195 250.312 90.3195 250.031V242.895C90.3195 242.652 90.2609 242.414 90.1438 242.18C90.0344 241.945 89.8781 241.758 89.675 241.617C89.5266 241.523 89.3508 241.457 89.1477 241.418C88.9445 241.371 88.7258 241.34 88.4914 241.324V240.562L92.3352 240.305L92.4992 240.469V242.098H92.5578C93.0422 241.465 93.5813 240.984 94.175 240.656C94.7688 240.328 95.3117 240.164 95.8039 240.164C96.2961 240.164 96.6945 240.324 96.9992 240.645C97.3117 240.965 97.468 241.395 97.468 241.934ZM112.426 252H106.766V251.227C106.945 251.211 107.141 251.195 107.352 251.18C107.57 251.164 107.75 251.133 107.891 251.086C108.109 251.016 108.27 250.895 108.371 250.723C108.48 250.543 108.535 250.312 108.535 250.031V244.09C108.535 243.27 108.34 242.637 107.949 242.191C107.566 241.746 107.098 241.523 106.543 241.523C106.129 241.523 105.75 241.59 105.406 241.723C105.062 241.848 104.758 242.004 104.492 242.191C104.234 242.371 104.027 242.566 103.871 242.777C103.723 242.98 103.613 243.145 103.543 243.27V249.914C103.543 250.18 103.598 250.398 103.707 250.57C103.816 250.742 103.98 250.875 104.199 250.969C104.363 251.047 104.539 251.105 104.727 251.145C104.922 251.184 105.121 251.211 105.324 251.227V252H99.6641V251.227C99.8438 251.211 100.027 251.195 100.215 251.18C100.41 251.164 100.578 251.133 100.719 251.086C100.938 251.016 101.098 250.895 101.199 250.723C101.309 250.543 101.363 250.312 101.363 250.031V242.895C101.363 242.629 101.305 242.387 101.188 242.168C101.078 241.941 100.922 241.758 100.719 241.617C100.57 241.523 100.395 241.457 100.191 241.418C99.9883 241.371 99.7695 241.34 99.5352 241.324V240.562L103.379 240.305L103.543 240.469V242.098H103.602C103.789 241.91 104.023 241.688 104.305 241.43C104.586 241.164 104.852 240.949 105.102 240.785C105.391 240.598 105.734 240.441 106.133 240.316C106.531 240.191 106.98 240.129 107.48 240.129C108.59 240.129 109.41 240.477 109.941 241.172C110.48 241.859 110.75 242.777 110.75 243.926V249.938C110.75 250.211 110.797 250.434 110.891 250.605C110.984 250.77 111.145 250.898 111.371 250.992C111.559 251.07 111.719 251.125 111.852 251.156C111.992 251.188 112.184 251.211 112.426 251.227V252Z" fill="#637CC6"/>
<path d="M56.7898 281H48.8914V280.168C49.1258 280.152 49.4891 280.121 49.9812 280.074C50.4812 280.02 50.825 279.965 51.0125 279.91C51.2547 279.832 51.4383 279.707 51.5633 279.535C51.6961 279.355 51.7625 279.09 51.7625 278.738V270.512H48.8445V269.527H49.4891C50.3328 269.527 51.0867 269.371 51.7508 269.059C52.4227 268.746 52.9031 268.41 53.1922 268.051H54.1648C54.1414 268.559 54.118 269.152 54.0945 269.832C54.0711 270.512 54.0594 271.121 54.0594 271.66V278.609C54.0594 278.883 54.118 279.129 54.2352 279.348C54.3602 279.559 54.5359 279.715 54.7625 279.816C54.9656 279.902 55.2977 279.98 55.7586 280.051C56.2195 280.121 56.5633 280.16 56.7898 280.168V281ZM71.4195 275.598C71.4195 276.41 71.2711 277.172 70.9742 277.883C70.6852 278.594 70.2945 279.199 69.8023 279.699C69.232 280.27 68.5992 280.691 67.9039 280.965C67.2164 281.238 66.4977 281.375 65.7477 281.375C64.8805 281.375 64.0953 281.215 63.3922 280.895C62.6891 280.574 62.0914 280.121 61.5992 279.535C61.0992 278.941 60.7125 278.215 60.4391 277.355C60.1656 276.496 60.0289 275.531 60.0289 274.461C60.0289 271.672 60.857 269.32 62.5133 267.406C64.1773 265.492 66.4039 264.344 69.193 263.961L69.4039 265.016L68.3492 265.203C66.6539 265.75 65.3414 266.602 64.4117 267.758C63.4898 268.914 62.8922 270.316 62.6187 271.965C63.2906 271.379 63.9547 270.965 64.6109 270.723C65.2672 270.48 65.9586 270.359 66.6852 270.359C67.9898 270.359 69.1031 270.859 70.025 271.859C70.9547 272.859 71.4195 274.105 71.4195 275.598ZM68.8766 275.914C68.8766 274.648 68.5836 273.633 67.9977 272.867C67.4195 272.102 66.6422 271.719 65.6656 271.719C65.0797 271.719 64.5328 271.828 64.025 272.047C63.525 272.266 63.0406 272.633 62.5719 273.148C62.5641 273.242 62.5523 273.461 62.5367 273.805C62.5211 274.141 62.5133 274.406 62.5133 274.602C62.5133 276.43 62.8102 277.863 63.4039 278.902C64.0055 279.934 64.7945 280.449 65.7711 280.449C66.7008 280.449 67.4508 280.047 68.0211 279.242C68.5914 278.43 68.8766 277.32 68.8766 275.914ZM78.9711 271.004C78.9711 271.441 78.8109 271.816 78.4906 272.129C78.1781 272.441 77.8031 272.598 77.3656 272.598C76.9281 272.598 76.5492 272.441 76.2289 272.129C75.9164 271.816 75.7602 271.441 75.7602 271.004C75.7602 270.566 75.9164 270.191 76.2289 269.879C76.5414 269.559 76.9203 269.398 77.3656 269.398C77.8109 269.398 78.1898 269.559 78.5023 269.879C78.8148 270.191 78.9711 270.566 78.9711 271.004ZM78.9711 279.652C78.9711 280.09 78.8109 280.465 78.4906 280.777C78.1781 281.082 77.8031 281.234 77.3656 281.234C76.9281 281.234 76.5492 281.082 76.2289 280.777C75.9164 280.465 75.7602 280.09 75.7602 279.652C75.7602 279.215 75.9164 278.84 76.2289 278.527C76.5492 278.207 76.9281 278.047 77.3656 278.047C77.8031 278.047 78.1781 278.207 78.4906 278.527C78.8109 278.84 78.9711 279.215 78.9711 279.652ZM94.3508 270.055C94.8508 270.656 95.2219 271.363 95.4641 272.176C95.7141 272.98 95.8391 273.824 95.8391 274.707C95.8391 275.77 95.6867 276.723 95.382 277.566C95.0773 278.402 94.6594 279.098 94.1281 279.652C93.5812 280.223 92.9328 280.652 92.1828 280.941C91.4328 281.23 90.5969 281.375 89.675 281.375C88.6672 281.375 87.7687 281.207 86.9797 280.871C86.1906 280.535 85.55 280.074 85.0578 279.488C84.5422 278.879 84.1555 278.168 83.8977 277.355C83.6477 276.535 83.5227 275.652 83.5227 274.707C83.5227 273.777 83.6437 272.922 83.8859 272.141C84.1359 271.359 84.5227 270.652 85.0461 270.02C85.5461 269.41 86.1906 268.93 86.9797 268.578C87.7687 268.227 88.6711 268.051 89.6867 268.051C90.757 268.051 91.675 268.23 92.4406 268.59C93.2062 268.949 93.843 269.438 94.3508 270.055ZM93.2492 274.707C93.2492 272.848 92.9289 271.406 92.2883 270.383C91.6555 269.359 90.7922 268.848 89.6984 268.848C88.5891 268.848 87.7141 269.359 87.0734 270.383C86.4328 271.406 86.1125 272.848 86.1125 274.707C86.1125 276.473 86.4172 277.895 87.0266 278.973C87.6437 280.043 88.5266 280.578 89.675 280.578C90.8234 280.578 91.7062 280.043 92.3234 278.973C92.9406 277.895 93.2492 276.473 93.2492 274.707ZM110.293 270.055C110.793 270.656 111.164 271.363 111.406 272.176C111.656 272.98 111.781 273.824 111.781 274.707C111.781 275.77 111.629 276.723 111.324 277.566C111.02 278.402 110.602 279.098 110.07 279.652C109.523 280.223 108.875 280.652 108.125 280.941C107.375 281.23 106.539 281.375 105.617 281.375C104.609 281.375 103.711 281.207 102.922 280.871C102.133 280.535 101.492 280.074 101 279.488C100.484 278.879 100.098 278.168 99.8398 277.355C99.5898 276.535 99.4648 275.652 99.4648 274.707C99.4648 273.777 99.5859 272.922 99.8281 272.141C100.078 271.359 100.465 270.652 100.988 270.02C101.488 269.41 102.133 268.93 102.922 268.578C103.711 268.227 104.613 268.051 105.629 268.051C106.699 268.051 107.617 268.23 108.383 268.59C109.148 268.949 109.785 269.438 110.293 270.055ZM109.191 274.707C109.191 272.848 108.871 271.406 108.23 270.383C107.598 269.359 106.734 268.848 105.641 268.848C104.531 268.848 103.656 269.359 103.016 270.383C102.375 271.406 102.055 272.848 102.055 274.707C102.055 276.473 102.359 277.895 102.969 278.973C103.586 280.043 104.469 280.578 105.617 280.578C106.766 280.578 107.648 280.043 108.266 278.973C108.883 277.895 109.191 276.473 109.191 274.707Z" fill="#637CC6"/>
<path d="M354.3 103.917C353.792 103.856 353.258 103.985 352.822 104.326C345.679 109.944 338.581 115.617 331.436 121.228C330.609 121.875 330.464 123.069 331.111 123.894C331.763 124.72 332.958 124.863 333.785 124.217C340.938 118.615 348.138 113.073 355.296 107.479C356.166 106.796 356.326 105.536 355.643 104.664C355.297 104.229 354.811 103.979 354.3 103.917Z" fill="#637CC6"/>
<path d="M359.577 103.917C359.068 103.979 358.582 104.229 358.239 104.664C357.553 105.536 357.703 106.796 358.576 107.479C365.734 113.073 372.937 118.615 380.089 124.217C380.914 124.863 382.109 124.718 382.758 123.894C383.406 123.069 383.262 121.875 382.436 121.228C375.291 115.615 368.2 109.943 361.06 104.326C360.624 103.985 360.091 103.856 359.577 103.917Z" fill="#637CC6"/>
<path d="M353.743 93.7901C353.952 89.9323 359.526 89.9337 359.734 93.7901C359.944 97.6479 353.95 97.6285 353.743 93.7901C353.624 91.5667 350.152 91.5556 350.273 93.7901C350.47 97.44 353.084 100.05 356.738 100.246C360.384 100.443 363.023 97.1434 363.205 93.7901C363.402 90.15 360.096 87.5148 356.738 87.3346C353.091 87.1377 350.453 90.4355 350.273 93.7901C350.152 96.0233 353.624 96.0122 353.743 93.7901Z" fill="#637CC6"/>
<path d="M356.608 79.6394C355.499 79.6685 354.626 80.5862 354.655 81.6924C354.733 84.0752 354.876 86.4581 354.947 88.8396C354.976 89.8876 355.849 90.7166 356.901 90.6888C357.949 90.6611 358.778 89.7864 358.751 88.7384C358.696 86.3542 358.721 83.9727 358.671 81.5898C358.642 80.4822 357.718 79.6103 356.608 79.6394Z" fill="#637CC6"/>
<path d="M334.829 118.783C334.571 118.827 334.321 118.923 334.088 119.074C332.791 119.913 331.571 120.872 330.605 122.086C330.034 122.806 329.561 123.604 329.25 124.469C328.987 125.209 328.847 125.982 328.84 126.766C328.808 130.564 332.001 133.356 335.056 135.064C335.525 135.326 336.004 135.573 336.49 135.8C337.102 136.093 337.725 136.357 338.358 136.604C340.333 137.376 342.382 137.956 344.453 138.406C347.803 139.133 351.228 139.511 354.654 139.625C358.793 139.763 362.962 139.523 367.045 138.822C369.813 138.345 372.554 137.66 375.182 136.658C375.922 136.374 376.662 136.065 377.381 135.722C377.958 135.448 378.528 135.149 379.082 134.827C381.861 133.212 384.664 130.725 384.942 127.318C384.974 126.891 384.967 126.464 384.917 126.041C384.849 125.433 384.695 124.832 384.47 124.264C384.15 123.46 383.678 122.716 383.13 122.046C382.291 121.023 381.278 120.189 380.191 119.443C379.326 118.848 378.138 119.067 377.545 119.931C376.952 120.794 377.17 121.98 378.033 122.573C378.755 123.068 379.45 123.604 380.03 124.264C380.357 124.64 380.653 125.051 380.863 125.506C380.982 125.764 381.068 126.038 381.116 126.318C381.411 128.046 380.001 129.519 378.746 130.485C378.504 130.67 378.257 130.846 378.006 131.011C377.659 131.241 377.295 131.454 376.935 131.655C376.456 131.923 375.976 132.17 375.476 132.396C374.933 132.646 374.382 132.877 373.823 133.087C373.117 133.355 372.405 133.593 371.681 133.812C366.792 135.283 361.61 135.8 356.519 135.754C351.414 135.707 346.159 135.078 341.307 133.441C340.62 133.211 339.94 132.953 339.268 132.671C338.743 132.45 338.225 132.214 337.716 131.953C337.331 131.757 336.946 131.547 336.574 131.324C336.233 131.12 335.907 130.903 335.58 130.673C334.184 129.67 332.473 128.048 332.927 126.141C332.998 125.847 333.113 125.566 333.256 125.301C333.52 124.816 333.878 124.386 334.264 123.995C334.868 123.389 335.561 122.899 336.273 122.437C337.206 121.835 337.468 120.591 336.867 119.662C336.406 118.967 335.598 118.646 334.829 118.783Z" fill="#637CC6"/>
<path d="M328.623 157.094C327.514 157.115 326.631 158.031 326.655 159.139C326.664 159.679 326.723 160.21 326.851 160.737C327.668 164.101 330.752 166.444 333.673 167.972C334.177 168.234 334.682 168.481 335.2 168.709C335.859 169.002 336.528 169.273 337.2 169.52C342.383 171.425 347.968 172.218 353.467 172.399C357.198 172.523 360.943 172.344 364.636 171.825C367.492 171.425 370.331 170.82 373.072 169.93C374.004 169.626 374.924 169.286 375.829 168.906C376.463 168.64 377.089 168.353 377.706 168.042C380.699 166.53 383.931 164.146 384.761 160.712C384.889 160.194 384.949 159.673 384.96 159.139C384.979 158.092 384.143 157.223 383.091 157.204C382.041 157.186 381.174 158.023 381.154 159.07C381.12 161.053 379.359 162.564 377.838 163.576C377.55 163.766 377.252 163.948 376.956 164.118C376.552 164.352 376.137 164.566 375.716 164.774C375.171 165.039 374.618 165.284 374.056 165.51C373.448 165.757 372.837 165.99 372.214 166.195C367.683 167.708 362.865 168.345 358.106 168.5C352.322 168.688 346.423 168.163 340.854 166.527C339.022 165.988 337.216 165.321 335.521 164.431C334.506 163.9 333.523 163.285 332.655 162.53C331.633 161.638 330.684 160.479 330.661 159.061C330.642 157.952 329.731 157.071 328.623 157.094Z" fill="#637CC6"/>
<path d="M330.496 145.588C329.387 145.609 328.504 146.527 328.528 147.633C328.538 148.149 328.594 148.649 328.714 149.151C329.491 152.345 332.396 154.571 335.167 156.019C335.642 156.266 336.126 156.492 336.616 156.711C337.233 156.986 337.857 157.239 338.492 157.474C343.359 159.26 348.607 160.01 353.771 160.178C357.273 160.292 360.78 160.124 364.248 159.635C366.93 159.258 369.604 158.688 372.18 157.851C373.058 157.564 373.921 157.246 374.771 156.891C375.372 156.638 375.965 156.369 376.545 156.071C379.382 154.629 382.426 152.389 383.216 149.127C383.336 148.634 383.387 148.132 383.398 147.625C383.417 146.578 382.579 145.717 381.532 145.699C380.48 145.678 379.62 146.507 379.601 147.554C379.569 149.367 377.925 150.76 376.534 151.683C376.272 151.859 376 152.033 375.723 152.195C375.349 152.411 374.964 152.609 374.574 152.799C374.067 153.049 373.549 153.272 373.023 153.484C372.454 153.714 371.879 153.928 371.297 154.123C367.066 155.532 362.566 156.13 358.121 156.277C352.714 156.453 347.191 155.958 341.989 154.427C340.28 153.926 338.606 153.305 337.026 152.478C336.083 151.984 335.16 151.41 334.357 150.708C333.424 149.898 332.557 148.846 332.536 147.555C332.515 146.446 331.606 145.567 330.496 145.588Z" fill="#637CC6"/>
<path d="M331.985 134.811C330.878 134.832 329.995 135.748 330.016 136.856C330.026 137.348 330.081 137.831 330.198 138.31C331.054 141.836 334.578 144.11 337.689 145.49C338.271 145.751 338.865 145.985 339.461 146.208C344.043 147.893 348.98 148.597 353.842 148.756C357.137 148.864 360.442 148.705 363.706 148.245C366.23 147.89 368.747 147.351 371.171 146.56C371.897 146.325 372.616 146.066 373.322 145.776C373.896 145.543 374.46 145.296 375.017 145.022C377.804 143.645 380.841 141.49 381.617 138.29C381.731 137.816 381.782 137.337 381.79 136.85C381.812 135.802 380.974 134.943 379.924 134.922C378.875 134.904 378.004 135.73 377.986 136.779C377.967 137.984 377.148 138.972 376.277 139.729C374.572 141.208 372.398 142.127 370.276 142.834C366.312 144.155 362.098 144.722 357.932 144.855C352.869 145.019 347.699 144.55 342.823 143.118C340.396 142.403 337.802 141.405 335.839 139.767C334.938 139.017 334.052 138.014 334.035 136.779C334.013 135.67 333.094 134.79 331.985 134.811Z" fill="#637CC6"/>
<path d="M381.909 149.668C381.169 149.679 380.469 150.127 380.176 150.856C379.783 151.828 380.249 152.93 381.223 153.325C383.112 154.09 384.964 154.964 386.665 156.093C387.728 156.799 388.739 157.601 389.596 158.548C390.148 159.16 390.634 159.835 390.984 160.585C391.182 161.02 391.337 161.48 391.416 161.953C391.925 165.041 389.271 167.571 386.966 169.156C386.579 169.424 386.183 169.677 385.776 169.922C385.231 170.245 384.673 170.544 384.109 170.831C383.369 171.206 382.615 171.552 381.856 171.871C380.888 172.274 379.901 172.635 378.908 172.963C375.747 174.016 372.486 174.75 369.196 175.26C365.221 175.877 361.199 176.167 357.176 176.188C353.207 176.207 349.23 175.963 345.299 175.417C342.013 174.961 338.745 174.298 335.569 173.332C334.394 172.975 333.232 172.573 332.088 172.122C331.175 171.762 330.273 171.375 329.393 170.941C328.708 170.604 328.034 170.242 327.378 169.85C326.879 169.549 326.386 169.228 325.912 168.888C323.73 167.33 321.282 164.886 321.793 161.944C321.872 161.484 322.02 161.038 322.218 160.615C322.553 159.897 323.023 159.251 323.548 158.665C324.439 157.672 325.488 156.863 326.59 156.124C327.51 155.507 327.752 154.258 327.133 153.339C326.515 152.423 325.265 152.181 324.342 152.798C322.823 153.821 321.392 154.969 320.218 156.387C319.362 157.414 318.653 158.573 318.216 159.837C317.946 160.612 317.776 161.426 317.726 162.245C317.691 162.866 317.728 163.493 317.828 164.107C318.47 168.076 321.692 171.031 324.957 173.049C325.567 173.429 326.196 173.787 326.834 174.118C327.639 174.542 328.461 174.929 329.299 175.292C330.337 175.74 331.4 176.142 332.471 176.511C336.448 177.882 340.585 178.767 344.752 179.334C350.14 180.066 355.599 180.263 361.026 179.989C365.104 179.781 369.172 179.3 373.172 178.468C376.486 177.783 379.758 176.857 382.893 175.583C383.891 175.176 384.878 174.734 385.837 174.244C386.483 173.919 387.123 173.573 387.744 173.2C391.112 171.179 394.528 168.17 395.178 164.093C395.27 163.529 395.306 162.958 395.281 162.387C395.246 161.566 395.085 160.747 394.825 159.971C394.487 158.96 393.972 158.013 393.345 157.15C392.446 155.908 391.328 154.835 390.116 153.9C387.857 152.159 385.285 150.874 382.646 149.811C382.406 149.711 382.156 149.664 381.909 149.668Z" fill="#637CC6"/>
<path d="M386.502 169.489C385.404 169.636 384.631 170.648 384.781 171.746C385.998 180.724 387.21 189.711 388.357 198.698C388.582 200.485 388.807 202.266 389.016 204.053C389.082 204.614 389.15 205.175 389.206 205.737C389.223 205.885 389.234 206.036 389.247 206.185C389.252 206.246 389.252 206.319 389.261 206.381C389.241 207.298 388.984 208.159 388.529 208.953C387.499 210.755 385.763 212.113 384.025 213.192C380.825 215.178 377.198 216.451 373.573 217.392C367.339 219.01 360.853 219.636 354.424 219.602C347.838 219.567 341.178 218.827 334.842 216.985C331.56 216.028 328.279 214.776 325.422 212.876C324.007 211.94 322.644 210.808 321.704 209.378C321.154 208.543 320.757 207.592 320.718 206.585C320.703 206.167 320.782 205.691 320.836 205.248C320.904 204.707 320.981 204.169 321.059 203.627C321.295 201.94 321.551 200.254 321.815 198.572C323.183 189.748 324.65 180.942 326.137 172.138C326.313 171.104 325.62 170.117 324.586 169.944C323.551 169.77 322.572 170.468 322.397 171.502C320.853 180.617 319.322 189.74 317.908 198.879C317.659 200.487 317.416 202.095 317.189 203.709C317.021 204.934 316.805 206.164 316.955 207.403C317.13 208.863 317.693 210.252 318.497 211.477C319.792 213.455 321.657 215.013 323.634 216.285C326.735 218.275 330.226 219.652 333.753 220.689C340.432 222.65 347.453 223.457 354.399 223.509C361.599 223.568 368.882 222.833 375.826 220.876C379.785 219.76 383.738 218.24 387.143 215.898C389.055 214.584 390.834 212.963 391.994 210.934C392.729 209.653 393.187 208.215 393.246 206.736C393.271 206.125 393.201 205.518 393.135 204.912C393.067 204.261 392.987 203.612 392.908 202.962C392.72 201.372 392.518 199.786 392.319 198.196C391.178 189.197 389.974 180.202 388.757 171.211C388.61 170.111 387.603 169.341 386.502 169.489Z" fill="#637CC6"/>
<path d="M318.897 194.49C318.637 194.496 318.382 194.551 318.126 194.665C314.869 196.101 311.697 197.806 308.94 200.076C307.353 201.384 305.902 202.896 304.789 204.636C304.003 205.87 303.388 207.213 303.051 208.641C302.884 209.342 302.786 210.065 302.758 210.788C302.622 214.348 304.279 217.615 306.642 220.188C307.986 221.648 309.547 222.905 311.188 224.015C313.936 225.878 316.946 227.337 320.031 228.547C324.127 230.152 328.392 231.322 332.698 232.204C338.593 233.412 344.599 234.069 350.61 234.298C357.739 234.567 364.908 234.246 371.973 233.235C377.625 232.428 383.241 231.182 388.632 229.286C392.137 228.055 395.573 226.538 398.722 224.552C400.707 223.301 402.583 221.854 404.175 220.123C406.957 217.09 408.655 213.22 407.831 209.066C407.592 207.876 407.164 206.735 406.591 205.669C405.74 204.076 404.579 202.657 403.285 201.406C401.365 199.558 399.148 198.079 396.832 196.782C395.916 196.269 394.764 196.591 394.249 197.504C393.734 198.418 394.056 199.57 394.975 200.082C396.906 201.165 398.768 202.393 400.392 203.907C401.371 204.818 402.266 205.835 402.96 206.982C403.405 207.716 403.763 208.511 403.985 209.34C404.127 209.876 404.21 210.43 404.227 210.985C404.315 213.628 402.879 215.997 401.095 217.843C399.43 219.563 397.434 220.942 395.359 222.12C392.157 223.939 388.708 225.304 385.197 226.4C380.46 227.879 375.576 228.863 370.657 229.516C364.908 230.275 359.101 230.578 353.303 230.467C347.653 230.359 342.001 229.865 336.433 228.893C332.064 228.131 327.732 227.086 323.545 225.615C320.475 224.535 317.466 223.221 314.686 221.526C312.836 220.396 311.056 219.089 309.588 217.49C307.728 215.465 306.398 212.928 306.839 210.112C306.942 209.448 307.145 208.802 307.414 208.186C307.86 207.167 308.49 206.232 309.212 205.385C310.288 204.123 311.56 203.039 312.912 202.083C315.039 200.575 317.368 199.38 319.751 198.33C320.763 197.883 321.222 196.701 320.774 195.688C320.437 194.927 319.68 194.478 318.897 194.49Z" fill="#637CC6"/>
<path d="M353.689 100.544C355.553 100.544 357.419 100.544 359.283 100.544C358.704 99.9656 358.127 99.3889 357.548 98.8109C357.548 101.012 357.548 103.213 357.548 105.416C358.127 104.838 358.704 104.261 359.283 103.683C357.419 103.683 355.553 103.683 353.689 103.683C354.267 104.261 354.845 104.838 355.424 105.416C355.424 103.215 355.424 101.014 355.424 98.8109C355.424 96.5763 351.953 96.5763 351.953 98.8109C351.953 101.012 351.953 103.213 351.953 105.416C351.953 106.362 352.742 107.149 353.689 107.149C355.553 107.149 357.419 107.149 359.283 107.149C360.23 107.149 361.019 106.362 361.019 105.416C361.019 103.215 361.019 101.014 361.019 98.8109C361.019 97.8655 360.23 97.0781 359.283 97.0781C357.419 97.0781 355.553 97.0781 353.689 97.0781C351.451 97.0781 351.451 100.544 353.689 100.544Z" fill="#637CC6"/>
<path d="M333.025 129.718C331.986 129.565 331.021 130.276 330.866 131.313C329.527 140.272 328.117 149.223 326.77 158.179C326.606 159.275 327.366 160.291 328.461 160.454C329.561 160.616 330.576 159.864 330.742 158.77C332.057 149.807 333.308 140.835 334.631 131.872C334.785 130.834 334.063 129.87 333.025 129.718Z" fill="#637CC6"/>
<path d="M379.193 130.674C378.152 130.819 377.426 131.774 377.569 132.813C378.795 141.685 379.944 150.561 381.162 159.435C381.313 160.532 382.325 161.304 383.423 161.149C384.519 160.998 385.292 159.982 385.139 158.884C383.893 150.015 382.574 141.155 381.335 132.285C381.189 131.248 380.232 130.532 379.193 130.674Z" fill="#637CC6"/>
<path d="M341.705 136.605C340.34 147.092 338.975 157.58 337.611 168.066C337.322 170.277 340.797 170.25 341.082 168.066C342.446 157.58 343.811 147.092 345.176 136.605C345.464 134.394 341.99 134.422 341.705 136.605Z" fill="#637CC6"/>
<path d="M367.892 136.605C369.257 147.092 370.621 157.58 371.986 168.066C372.271 170.25 375.744 170.277 375.457 168.066C374.092 157.58 372.727 147.092 371.363 136.605C371.078 134.422 367.604 134.394 367.892 136.605Z" fill="#637CC6"/>
<path d="M354.046 138.243C353.697 149.007 353.349 159.772 352.999 170.536C352.927 172.772 356.398 172.765 356.47 170.536C356.818 159.772 357.167 149.007 357.517 138.243C357.589 136.007 354.118 136.014 354.046 138.243Z" fill="#637CC6"/>
<path d="M352.495 220.845C352.141 214.045 351.787 207.243 351.432 200.442C351.379 199.423 350.677 198.809 349.697 198.709C347.506 198.485 345.315 198.26 343.124 198.037C342.118 197.934 341.472 198.907 341.389 199.77C340.729 206.595 340.071 213.421 339.412 220.245C339.197 222.469 342.67 222.449 342.883 220.245C343.542 213.419 344.2 206.594 344.86 199.77C344.281 200.348 343.703 200.924 343.124 201.502C345.315 201.727 347.506 201.95 349.697 202.175C349.118 201.597 348.54 201.02 347.961 200.442C348.315 207.243 348.669 214.045 349.025 220.845C349.141 223.067 352.612 223.08 352.495 220.845Z" fill="#637CC6"/>
<path d="M343.293 200.732L340.816 220.19L350.722 221.605L349.307 200.732H343.293Z" fill="#637CC6" stroke="#637CC6" stroke-width="0.707547"/>
<path d="M335.272 178.846C333.964 178.571 332.657 178.295 331.349 178.019C330.138 177.764 329.305 178.541 329.151 179.691C328.857 181.898 328.562 184.105 328.267 186.31C328.171 187.027 328.864 187.841 329.54 187.982C330.957 188.276 332.376 188.571 333.794 188.866C334.961 189.109 335.894 188.36 335.991 187.195C336.176 184.968 336.361 182.744 336.544 180.517C336.728 178.29 333.256 178.306 333.073 180.517C332.888 182.744 332.704 184.968 332.521 187.195C333.252 186.637 333.985 186.08 334.718 185.523C333.301 185.229 331.882 184.934 330.464 184.638C330.889 185.196 331.314 185.753 331.738 186.31C332.032 184.103 332.326 181.897 332.622 179.691C331.89 180.248 331.157 180.806 330.424 181.363C331.732 181.637 333.04 181.913 334.348 182.189C336.533 182.648 337.462 179.307 335.272 178.846Z" fill="#637CC6"/>
<path d="M376.743 182.193C378.05 181.917 379.36 181.642 380.666 181.366C379.934 180.809 379.201 180.252 378.47 179.695C378.764 181.901 379.06 184.108 379.354 186.314C379.779 185.756 380.202 185.199 380.628 184.642C379.211 184.937 377.794 185.231 376.376 185.526C377.108 186.084 377.841 186.641 378.572 187.198C378.386 184.972 378.202 182.747 378.017 180.521C377.832 178.31 374.36 178.293 374.546 180.521C374.732 182.747 374.917 184.972 375.102 187.198C375.199 188.363 376.13 189.111 377.298 188.87C378.715 188.575 380.133 188.281 381.55 187.986C382.228 187.844 382.921 187.032 382.825 186.314C382.53 184.107 382.235 181.9 381.94 179.695C381.788 178.544 380.953 177.769 379.744 178.023C378.436 178.299 377.127 178.573 375.821 178.849C373.631 179.311 374.56 182.651 376.743 182.193Z" fill="#637CC6"/>
<path d="M353.411 185.348C355.002 185.348 356.593 185.348 358.184 185.348C357.605 184.77 357.028 184.194 356.449 183.616C356.449 185.767 356.449 187.918 356.449 190.068C357.028 189.49 357.605 188.914 358.184 188.336C356.593 188.336 355.002 188.336 353.411 188.336C353.99 188.914 354.568 189.49 355.147 190.068C355.147 187.917 355.147 185.766 355.147 183.616C355.147 181.381 351.676 181.381 351.676 183.616C351.676 185.767 351.676 187.918 351.676 190.068C351.676 191.014 352.464 191.801 353.411 191.801C355.002 191.801 356.593 191.801 358.184 191.801C359.131 191.801 359.92 191.014 359.92 190.068C359.92 187.917 359.92 185.766 359.92 183.616C359.92 182.67 359.131 181.883 358.184 181.883C356.593 181.883 355.002 181.883 353.411 181.883C351.173 181.883 351.173 185.348 353.411 185.348Z" fill="#637CC6"/>
<path d="M322.389 181.124C322.144 181.091 321.885 181.107 321.633 181.178C316.88 182.498 312.131 183.821 307.383 185.14C305.903 185.553 304.426 185.958 302.947 186.368C302.528 186.484 302.094 186.581 301.678 186.723C301.416 186.81 301.137 186.86 300.9 187.004C300.652 187.155 300.468 187.387 300.262 187.586C299.983 187.855 299.733 188.181 299.474 188.468C298.623 189.418 297.772 190.36 296.922 191.307C294.105 194.443 291.281 197.575 288.46 200.707C285.512 203.982 282.567 207.253 279.617 210.53C278.632 211.622 277.645 212.717 276.661 213.809C276.336 214.171 276.01 214.533 275.686 214.893C275.674 214.896 275.663 214.899 275.653 214.903C275.269 215.001 274.883 215.103 274.498 215.208C273.303 215.538 272.109 215.887 270.929 216.263C269.035 216.867 267.168 217.54 265.337 218.31C263.846 218.937 262.4 219.583 261.098 220.557C259.528 221.736 258.091 223.1 256.694 224.476C254.94 226.205 253.251 228.001 251.583 229.814C247.296 234.48 243.142 239.277 239.113 244.17C238.41 245.025 238.541 246.288 239.397 246.994C240.254 247.695 241.512 247.572 242.218 246.716C244.219 244.279 246.265 241.874 248.328 239.489C250.775 236.66 253.258 233.859 255.813 231.127C257.462 229.361 259.146 227.617 260.908 225.961C261.932 224.999 262.988 224.005 264.177 223.247C264.601 222.978 265.062 222.768 265.516 222.555C266.196 222.237 266.883 221.941 267.58 221.659C269.586 220.847 271.635 220.162 273.708 219.536C274.459 219.31 275.213 219.091 275.968 218.884C276.277 218.797 276.581 218.721 276.892 218.639C276.98 218.617 277.13 218.599 277.214 218.553C277.54 218.364 277.876 218.198 278.188 217.985C278.278 217.924 278.335 217.824 278.409 217.742C278.542 217.598 278.664 217.448 278.795 217.303C279.252 216.79 279.715 216.278 280.174 215.768C281.545 214.236 282.914 212.702 284.284 211.167C288.66 206.275 293.038 201.375 297.416 196.484C298.853 194.879 300.285 193.277 301.726 191.67C302.119 191.232 302.514 190.793 302.908 190.356C302.918 190.344 302.938 190.33 302.954 190.319C302.976 190.309 303 190.309 303.025 190.301C303.131 190.273 303.236 190.245 303.343 190.215C303.869 190.069 304.395 189.922 304.926 189.775C306.401 189.362 307.874 188.952 309.352 188.539C313.784 187.305 318.222 186.07 322.654 184.836C323.666 184.555 324.252 183.501 323.971 182.491C323.759 181.734 323.121 181.215 322.389 181.124Z" fill="#637CC6"/>
<path d="M389.64 181.052C388.599 180.921 387.649 181.659 387.52 182.702C387.393 183.742 388.126 184.688 389.17 184.816C392.54 185.236 395.91 185.653 399.281 186.073C400.354 186.21 401.431 186.341 402.502 186.477C402.811 186.514 403.117 186.567 403.426 186.594C403.478 186.597 403.532 186.572 403.58 186.587C403.612 186.594 403.621 186.64 403.651 186.658C403.779 186.729 403.912 186.788 404.041 186.855C404.294 186.981 404.553 187.104 404.812 187.232C405.582 187.61 406.357 187.997 407.125 188.378C409.053 189.332 410.974 190.291 412.9 191.251C413.543 191.568 414.18 191.881 414.823 192.202C414.945 192.263 415.07 192.328 415.192 192.391C415.252 192.468 415.317 192.541 415.374 192.617C415.607 192.92 415.835 193.222 416.068 193.524C416.714 194.357 417.359 195.189 418.005 196.026C419.922 198.499 421.842 200.976 423.764 203.449C427.468 208.215 431.185 212.967 434.941 217.691C436.329 219.435 437.715 221.18 439.122 222.906C439.979 223.951 440.83 224.998 441.734 226.004C442.471 226.83 443.74 226.9 444.567 226.159C445.392 225.422 445.464 224.154 444.724 223.33C443.675 222.163 442.69 220.936 441.698 219.721C440.241 217.928 438.804 216.123 437.368 214.317C433.428 209.364 429.515 204.393 425.607 199.413C423.85 197.178 422.096 194.937 420.344 192.698C419.792 191.985 419.238 191.276 418.682 190.566C418.512 190.344 418.335 190.118 418.164 189.896C418.11 189.828 418.059 189.726 417.991 189.668C417.766 189.486 417.556 189.292 417.322 189.127C417.202 189.042 417.059 188.992 416.929 188.93C416.798 188.866 416.671 188.804 416.542 188.74C416.029 188.485 415.514 188.237 414.996 187.985C413.583 187.29 412.168 186.596 410.752 185.901C409.339 185.204 407.922 184.504 406.508 183.807C406.121 183.618 405.738 183.423 405.348 183.241C405.117 183.136 404.901 182.999 404.653 182.925C404.406 182.853 404.152 182.845 403.9 182.81C403.593 182.766 403.285 182.737 402.978 182.699C401.905 182.566 400.827 182.43 399.757 182.297C396.381 181.884 393.014 181.467 389.64 181.052Z" fill="#637CC6"/>
<circle cx="204.5" cy="83.5" r="6.5" fill="#637CC6"/>
<circle cx="204.5" cy="259.5" r="6.5" fill="#637CC6"/>
<path d="M205 307L205 29" stroke="#637CC6" stroke-width="3" stroke-linecap="round"/>
</svg>
