<svg width="297" height="279" viewBox="0 0 297 279" fill="none" xmlns="http://www.w3.org/2000/svg">
<path d="M239.313 37.0645C224.032 37.0645 211.646 49.4509 211.646 64.7316C211.646 80.0168 219.969 101.289 239.313 126.062C255.086 101.289 266.983 80.0145 266.983 64.7316C266.985 49.4509 254.594 37.0645 239.313 37.0645ZM252.946 62.8947C251.111 70.3074 245.89 75.7176 237.824 80.64C232.446 77.5545 226.509 68.4519 225.587 61.4756C225.26 59.0179 227.347 53.8925 231.111 53.8878C235.019 53.8878 237.971 59.5618 238.667 61.2142C239.087 59.5828 244.284 53.2647 248.649 53.7758C252.993 54.2823 253.767 59.5664 252.946 62.8947Z" fill="#637CC6" stroke="#637CC6" stroke-width="0.3" stroke-miterlimit="10" stroke-linejoin="round"/>
<path d="M55.1452 203.426C54.7064 203.367 54.2536 203.381 53.8055 203.505C52.1367 203.953 50.4959 204.457 48.8691 205.053C47.5597 205.531 46.2643 206.065 45.0017 206.654C39.099 209.426 32.5568 214.274 32.5125 221.474C32.5078 222.317 32.6058 223.169 32.7926 223.991C33.068 225.207 33.5464 226.369 34.1696 227.447C35.0892 229.041 36.3262 230.449 37.7033 231.669C39.5705 233.322 41.6967 234.657 43.9164 235.777C49.8353 238.767 56.4499 240.349 62.999 241.192C68.2879 241.874 73.635 242.037 78.9565 241.745C84.9152 241.423 90.8762 240.517 96.5945 238.779C102.133 237.096 107.781 234.608 111.863 230.383C115.115 227.022 116.723 222.443 115.178 217.882C114.732 216.58 114.055 215.362 113.24 214.255C112.003 212.573 110.444 211.144 108.752 209.926C106.07 207.989 103.069 206.586 99.9974 205.396C98.3543 204.761 96.5058 205.578 95.8663 207.225C95.2314 208.871 96.046 210.717 97.6914 211.359C99.8854 212.206 102.037 213.168 104.021 214.442C105.23 215.219 106.374 216.099 107.349 217.154C107.896 217.752 108.395 218.41 108.764 219.131C108.993 219.575 109.163 220.046 109.268 220.534C109.791 223.006 108.124 225.216 106.379 226.759C105.037 227.951 103.508 228.908 101.916 229.737C99.1782 231.17 96.2374 232.208 93.2592 233.007C85.6621 235.047 77.6682 235.623 69.8353 235.196C63.4495 234.844 57.003 233.791 50.9907 231.564C48.8901 230.787 46.7988 229.867 44.899 228.677C43.6083 227.867 42.3713 226.955 41.321 225.844C40.7725 225.258 40.2753 224.623 39.8949 223.911C39.6568 223.468 39.4608 222.987 39.3534 222.497C38.6369 219.337 41.5147 216.657 43.8417 215.04C44.2361 214.769 44.6329 214.508 45.0507 214.26C45.6435 213.901 46.2573 213.555 46.8759 213.238C47.5457 212.897 48.2366 212.584 48.9274 212.283C49.8634 211.882 50.7993 211.522 51.7609 211.186C53.0212 210.747 54.3049 210.367 55.5886 210.022C57.3881 209.534 58.4454 207.69 57.96 205.888C57.5865 204.541 56.4475 203.603 55.1452 203.426Z" fill="#637CC6"/>
<path d="M223.083 116.064C222.651 116.011 222.193 116.034 221.75 116.158C220.478 116.508 219.225 116.888 217.988 117.336C216.982 117.705 215.992 118.111 215.021 118.569C210.551 120.665 205.729 124.236 205.195 129.543C205.118 130.316 205.146 131.097 205.263 131.861C205.431 132.983 205.811 134.069 206.348 135.07C206.985 136.265 207.853 137.332 208.827 138.272C210.39 139.78 212.244 140.963 214.174 141.937C218.424 144.081 223.134 145.276 227.83 145.951C233.142 146.714 238.564 146.798 243.906 146.257C247.996 145.841 252.082 145.057 255.966 143.701C256.991 143.344 257.997 142.938 258.989 142.497C263.976 140.258 269.543 136.204 269.303 130.101C269.268 129.223 269.1 128.332 268.815 127.503C268.493 126.563 268.04 125.685 267.477 124.868C266.618 123.622 265.529 122.541 264.341 121.61C262.121 119.876 259.577 118.65 256.963 117.64C255.315 117.005 253.469 117.822 252.832 119.465C252.197 121.113 253.014 122.961 254.657 123.598C256.165 124.182 257.635 124.84 259.012 125.69C259.894 126.236 260.737 126.852 261.463 127.596C261.887 128.028 262.259 128.511 262.534 129.053C263.82 131.553 261.325 133.719 259.425 134.974C259.115 135.173 258.83 135.359 258.508 135.541C258.19 135.723 257.803 135.917 257.479 136.083C256.921 136.365 256.349 136.62 255.772 136.862C255.14 137.124 254.51 137.371 253.866 137.593C252.934 137.91 251.984 138.197 251.032 138.438C245.519 139.857 239.743 140.251 234.066 139.941C229.583 139.691 225.064 138.965 220.812 137.486C219.218 136.935 217.651 136.27 216.188 135.422C215.224 134.862 214.29 134.213 213.49 133.434C213.079 133.035 212.701 132.61 212.4 132.122C212.232 131.847 212.083 131.543 211.989 131.233C211.371 129.167 213.481 127.342 214.972 126.31C215.252 126.114 215.548 125.932 215.845 125.755C216.274 125.494 216.709 125.251 217.154 125.024C217.642 124.775 218.135 124.537 218.639 124.322C219.318 124.028 220.02 123.766 220.721 123.528C221.657 123.206 222.599 122.931 223.552 122.665C225.349 122.168 226.409 120.303 225.911 118.508C225.533 117.166 224.39 116.235 223.083 116.064Z" fill="#637CC6"/>
<path d="M76.7509 102.137C56.1605 102.137 39.4678 118.827 39.4678 139.418C39.4678 160.013 50.6849 188.676 76.7509 222.059C98.0042 188.676 114.039 160.013 114.039 139.418C114.036 118.827 97.339 102.137 76.7509 102.137ZM95.1194 136.943C92.6477 146.931 85.6131 154.222 74.746 160.855C67.5013 156.694 59.5027 144.431 58.2587 135.03C57.8199 131.72 60.63 124.811 65.7018 124.807C70.9649 124.807 74.9444 132.451 75.8827 134.677C76.4451 132.479 83.4518 123.964 89.3334 124.655C95.1801 125.337 96.228 132.455 95.1194 136.943Z" stroke="#637CC6" stroke-width="5" stroke-miterlimit="10" stroke-linejoin="round"/>
<path d="M197.901 134.097C197.901 134.097 131.893 131.27 132 159C132.138 194.759 216.006 166.208 220.87 190.024C225.734 213.84 135.763 222.265 126.035 218.522" stroke="#637CC6" stroke-width="5" stroke-miterlimit="10" stroke-linecap="round" stroke-dasharray="10 10"/>
</svg>
