<svg width="279" height="206" viewBox="0 0 279 206" fill="none" xmlns="http://www.w3.org/2000/svg">
<path d="M10.8698 146.224C9.32044 146.262 8.09979 147.56 8.13847 149.102C8.16506 150.118 8.28349 151.109 8.54696 152.085C9.58873 155.943 12.4168 159.039 15.501 161.427C18.6384 163.868 22.1891 165.742 25.8148 167.342C30.7965 169.537 36.0078 171.214 41.2698 172.592C49.2366 174.675 57.3678 176.092 65.5376 177.088C74.4592 178.178 83.4436 178.746 92.428 178.896C101.729 179.05 111.047 178.763 120.317 177.98C130.454 177.129 140.543 175.676 150.456 173.358C151.882 173.027 152.769 171.596 152.433 170.17C152.097 168.739 150.683 167.852 149.254 168.188C139.598 170.441 129.76 171.852 119.882 172.669C111.272 173.38 102.626 173.658 93.9943 173.525C84.7102 173.387 75.426 172.79 66.212 171.635C59.0114 170.733 51.8374 169.481 44.794 167.736C39.938 166.532 35.1328 165.096 30.4847 163.238C26.9098 161.807 23.3784 160.136 20.2071 157.932C17.222 155.861 13.8429 152.885 13.7558 148.962C13.7123 147.413 12.4143 146.185 10.8698 146.224Z" fill="#637CC6"/>
<path d="M19.8832 133.925C19.5255 133.986 19.175 134.119 18.8463 134.322C14.3383 137.188 9.76033 141.068 8.55661 146.53C8.37533 147.343 8.30523 148.164 8.29315 148.996C8.27139 150.463 9.43402 151.672 10.9036 151.691C12.3684 151.715 13.577 150.538 13.5987 149.071C13.6301 147.06 14.5921 145.312 15.8877 143.821C17.5604 141.899 19.6995 140.408 21.8435 139.066C23.1536 138.24 23.5403 136.516 22.7136 135.204C22.09 134.218 20.9612 133.749 19.8832 133.925Z" fill="#637CC6"/>
<path d="M105.333 77.4983C102.324 77.5539 99.3216 77.914 96.3969 78.5232C93.2595 79.1758 90.1777 80.1475 87.2819 81.5276C84.9688 82.6298 82.7595 84.0245 80.9322 85.8422C78.2758 88.4792 76.6104 91.9454 77.3984 95.7354C77.6038 96.7119 77.9591 97.6522 78.4232 98.532C79.0178 99.6608 79.801 100.688 80.7219 101.568C82.9215 103.666 85.8123 104.865 88.7346 105.544C92.092 106.322 95.5726 106.489 99.0025 106.436C100.344 106.412 101.683 106.322 103.022 106.289C104.634 106.25 106.259 106.487 107.864 106.562C108.304 106.586 107.856 106.566 109.725 106.591C110.099 106.581 110.457 106.506 110.781 106.368C110.793 106.363 110.808 106.359 110.817 106.354C111.074 106.339 111.617 106.31 112.036 106.269C112.741 106.199 113.442 106.11 114.141 106.006C116.652 105.624 119.154 105.01 121.516 104.055C125.661 102.382 129.896 99.3466 130.783 94.6767C130.92 93.9685 130.976 93.2434 130.935 92.5207C130.891 91.6626 130.72 90.8166 130.452 89.9996C130.048 88.7693 129.412 87.626 128.646 86.5866C127.355 84.8367 125.683 83.3429 123.892 82.1198C121.022 80.162 117.68 78.9752 114.293 78.2887C111.361 77.6941 108.342 77.4403 105.333 77.4983ZM105.379 82.9441C107.895 82.8812 110.411 83.0504 112.874 83.5048C116.604 84.1985 120.201 85.6077 122.99 88.2496C124.143 89.3446 125.277 90.7223 125.554 92.3345C126.028 95.0828 123.447 97.1494 121.308 98.2976C120.931 98.5006 120.544 98.6843 120.15 98.8607C119.616 99.0976 119.062 99.3176 118.509 99.5085C117.774 99.7623 117.037 99.9823 116.287 100.171C115.456 100.376 114.624 100.536 113.786 100.674C112.874 100.826 111.946 100.944 111.023 101.026C110.849 101.043 110.404 101.07 110.211 101.082C110.027 101.046 109.86 100.978 109.669 100.983C107.564 100.942 108.236 100.978 107.557 100.935C106.102 100.848 104.666 100.671 103.206 100.671C102.101 100.676 100.989 100.775 99.8824 100.807C97.3855 100.874 94.8741 100.848 92.3869 100.521C89.7643 100.176 86.8904 99.5279 84.8286 97.7561C84.3137 97.3162 83.869 96.8038 83.5185 96.2285C83.243 95.7765 83.0351 95.2834 82.9021 94.7734C82.2471 92.2983 84.2291 90.1326 86.0154 88.7234C86.3054 88.4938 86.581 88.2907 86.8855 88.0828C87.3255 87.7831 87.7775 87.4979 88.2391 87.2368C91.2218 85.5497 94.5526 84.4838 97.9027 83.8046C100.354 83.309 102.865 83.0093 105.379 82.9441Z" fill="#637CC6"/>
<path d="M80.6155 86.1921C78.7156 86.4604 76.8182 86.6779 74.9135 86.864C66.7316 87.6496 58.2548 88.0726 50.8536 92.0342C49.4081 92.8053 48.0328 93.6996 46.7348 94.6979C46.1475 95.1523 45.577 95.6236 44.9945 96.0853C42.123 98.3791 39.1378 101.21 39.5149 105.212C39.6261 106.416 40.0539 107.564 40.6485 108.611C42.0674 111.117 44.4265 112.802 47.1941 113.52C51.0832 114.535 55.1923 113.897 59.1273 113.539C60.5389 113.411 61.965 113.288 63.3839 113.331C64.1767 113.356 64.9719 113.426 65.7406 113.643C67.1425 114.03 68.1383 115.125 69.139 116.116C69.8255 116.795 70.524 117.498 71.2999 118.076C71.764 118.427 72.3103 118.77 72.8179 119.058C74.4277 119.959 76.284 120.602 78.0461 121.124C81.7153 122.214 85.5512 122.758 89.3727 122.886C91.3765 122.951 93.3851 122.901 95.3816 122.712C96.6675 122.589 97.9268 122.429 99.1136 121.886C100.327 121.332 101.335 120.479 102.304 119.572C103.032 118.893 103.813 118.013 104.888 118.018C106.537 118.033 108.212 118.255 109.843 118.473C112.635 118.845 115.41 119.379 118.173 119.928C124.66 121.206 131.194 122.487 137.843 122.161C140.499 122.028 143.192 121.716 145.757 120.977C147.277 120.527 148.807 119.918 150.045 118.905C150.538 118.504 150.99 118.038 151.345 117.508C151.652 117.051 151.903 116.558 152.07 116.036C152.776 113.793 151.87 111.523 150.465 109.771C150.366 109.648 150.245 109.544 150.144 109.43C152.894 109.138 155.705 108.775 158.311 107.796C161.151 106.738 164.165 104.492 164.153 101.142C164.153 100.716 164.095 100.296 163.994 99.885C163.863 99.3847 163.658 98.9012 163.399 98.4541C162.435 96.7983 160.767 95.6551 159.116 94.7656C157.729 94.0187 156.257 93.4434 154.792 92.8633C153.339 92.2904 151.882 91.7563 150.4 91.268C143.262 88.8944 135.854 87.5746 128.356 87.0743C126.811 86.9728 125.477 88.1475 125.373 89.6945C125.274 91.2414 126.437 92.5708 127.984 92.6772C135.189 93.1533 142.303 94.4247 149.148 96.75C150.535 97.2189 151.903 97.7289 153.264 98.268C154.086 98.5943 154.91 98.9327 155.705 99.3146C156.433 99.6602 157.156 100.045 157.799 100.526C158.021 100.687 158.231 100.862 158.415 101.067C158.446 101.103 158.473 101.135 158.502 101.176C158.488 101.2 158.473 101.231 158.459 101.253C158.372 101.372 158.272 101.485 158.159 101.584C157.835 101.869 157.451 102.08 157.061 102.263C155.838 102.844 154.492 103.151 153.168 103.387C150.866 103.798 148.534 103.934 146.221 104.233C144.908 104.407 143.412 104.625 142.436 105.606C142.054 105.998 141.756 106.462 141.609 106.984C141.49 107.409 141.469 107.782 141.519 108.217C141.749 110.199 143.661 110.96 144.99 112.101C145.341 112.403 145.665 112.72 145.969 113.068C146.114 113.237 146.262 113.414 146.388 113.597C146.506 113.771 146.607 113.943 146.685 114.136C146.714 114.206 146.731 114.453 146.772 114.349C146.772 114.344 146.772 114.359 146.772 114.359C146.755 114.397 146.721 114.414 146.694 114.448C146.644 114.509 146.438 114.675 146.322 114.755C145.986 114.977 145.626 115.147 145.256 115.294C144.836 115.463 144.401 115.591 143.968 115.715C143.19 115.927 142.402 116.077 141.602 116.21C140.383 116.404 139.146 116.541 137.916 116.616C130.028 117.092 122.299 115.026 114.598 113.665C112.393 113.278 110.177 112.957 107.946 112.754C106.945 112.659 105.93 112.556 104.922 112.556C102.86 112.556 101.11 113.363 99.5608 114.695C99.0387 115.139 98.5529 115.635 98.0429 116.087C97.6247 116.459 97.1848 116.819 96.6554 117.013C96.0922 117.221 95.4493 117.23 94.8595 117.286C94.0014 117.37 93.1409 117.438 92.2756 117.465C88.7515 117.573 85.1838 117.271 81.7419 116.507C80.0595 116.135 78.3917 115.635 76.8013 114.968C76.0157 114.637 75.2132 114.279 74.5219 113.764C74.2923 113.595 74.082 113.358 73.8645 113.169C73.0523 112.471 72.332 111.664 71.5296 110.946C70.263 109.812 68.8345 108.93 67.1836 108.473C65.0082 107.869 62.7143 107.917 60.4809 108.062C57.7375 108.246 55.011 108.666 52.2603 108.705C49.8553 108.739 46.9572 108.517 45.5021 106.317C45.0114 105.575 44.6271 104.726 44.9631 103.849C45.0598 103.598 45.1951 103.356 45.3474 103.136C45.5456 102.844 45.768 102.568 46.0073 102.309C46.394 101.891 46.8194 101.514 47.2545 101.144C47.8491 100.632 48.4655 100.153 49.0794 99.6602C49.9182 98.9883 50.7617 98.3235 51.6681 97.7434C55.8135 95.0677 60.6066 93.8881 65.436 93.1969C70.7247 92.4451 76.0713 92.1962 81.3624 91.4493C82.8126 91.2414 83.8351 89.9072 83.6296 88.4569C83.4169 86.9945 82.0658 85.989 80.6155 86.1921Z" fill="#637CC6"/>
<path d="M156.361 102.989C155.996 102.984 155.628 103.054 155.273 103.206C153.844 103.81 153.175 105.452 153.774 106.882C155.249 110.38 156.131 114.262 155.913 118.076C155.853 119.091 155.708 120.111 155.384 121.083C155.263 121.433 155.123 121.796 154.898 122.093C154.122 123.118 152.996 123.788 151.85 124.327C150.482 124.979 149.029 125.451 147.577 125.881C142.788 127.312 137.959 128.67 133.084 129.78C122.132 132.257 110.868 132.762 99.6793 133.164C95.2415 133.328 90.7988 133.456 86.361 133.476C80.5696 133.495 74.7975 133.287 69.0569 132.46C66.7002 132.12 64.3484 131.709 62.0038 131.295C60.4109 131.013 58.8132 130.776 57.2493 130.36C55.1609 129.804 53.104 129.062 51.1195 128.201C50.595 127.974 50.0801 127.74 49.5677 127.488C47.883 126.662 45.8913 125.647 45.2749 123.73C44.7722 122.163 44.9897 120.377 45.2121 118.777C45.5843 116.072 46.2224 113.404 46.8388 110.747C47.1699 109.317 46.2853 107.886 44.8592 107.552C43.4307 107.221 41.9949 108.113 41.6662 109.544C40.9797 112.514 40.2643 115.497 39.8848 118.528C39.6165 120.662 39.5198 122.872 40.0926 124.962C40.2763 125.622 40.5253 126.265 40.8444 126.87C42.4058 129.835 45.4538 131.481 48.3954 132.813C50.9841 133.983 53.6889 134.977 56.4517 135.665C57.856 136.016 59.2966 136.236 60.7227 136.487C62.8232 136.864 64.9212 137.239 67.0265 137.568C69.6467 137.974 72.2741 138.295 74.9208 138.503C78.7326 138.805 82.5565 138.89 86.3779 138.89C90.8762 138.89 95.3768 138.771 99.8727 138.626C111.117 138.259 122.434 137.78 133.466 135.402C138.235 134.367 142.929 133.036 147.615 131.692C151.055 130.706 154.71 129.671 157.533 127.368C158.413 126.65 159.193 125.813 159.793 124.846C160.965 122.939 161.369 120.597 161.497 118.398C161.768 113.733 160.745 108.988 158.942 104.702C158.485 103.634 157.453 102.989 156.361 102.989Z" fill="#637CC6"/>
<path d="M43.3025 122.381C42.9617 122.33 42.6016 122.342 42.2463 122.437C41.2287 122.691 40.1724 122.512 39.1427 122.72C37.6707 123.012 36.4597 123.868 35.488 124.987C35.111 125.422 34.7967 125.922 34.5961 126.464C34.3061 127.242 34.2722 128.059 34.3737 128.876C34.1199 128.886 33.871 128.876 33.6172 128.905C32.7228 129.019 31.8358 129.277 31.0744 129.778C30.5209 130.135 30.0785 130.609 29.6555 131.109C28.899 132.001 28.2318 133.021 27.937 134.169C27.6662 135.235 27.7847 136.345 28.2367 137.338C27.5454 137.64 26.8759 137.981 26.2643 138.428C25.6649 138.868 25.1162 139.383 24.669 139.983C24.3379 140.422 24.0672 140.913 23.8569 141.423C22.6701 144.285 23.6635 147.376 24.9446 150.011C25.6286 151.403 27.3085 151.979 28.6984 151.295C30.0906 150.615 30.6659 148.933 29.9867 147.546C29.687 146.937 29.409 146.337 29.2059 145.694C29.0053 145.075 28.7757 144.273 28.9957 143.623C29.2519 142.871 30.3347 142.465 30.9898 142.206C32.0992 141.762 33.5447 141.513 34.236 140.422C34.3592 140.229 34.4656 140.016 34.5526 139.809C34.9973 138.764 34.7097 137.396 34.2142 136.461C33.9822 136.021 33.6607 135.649 33.3658 135.257C33.4021 135.197 33.4407 135.139 33.4746 135.083C33.6534 134.815 33.8758 134.583 34.0788 134.336C34.6904 134.218 35.3067 134.218 35.9279 134.181C37.0736 134.121 38.2387 133.884 39.1282 133.116C39.4956 132.804 39.8195 132.417 40.008 131.972C40.1095 131.735 40.1772 131.491 40.2304 131.245C40.4189 130.343 40.1047 129.487 39.7905 128.668C39.7566 128.579 39.7107 128.451 39.672 128.322C39.9355 128.04 40.095 127.926 40.5833 127.907C40.709 127.902 40.8395 127.897 40.9676 127.897C41.2577 127.892 41.497 127.892 41.7701 127.873C42.3744 127.834 42.9617 127.73 43.5467 127.59C44.9679 127.232 45.8284 125.787 45.4683 124.361C45.2048 123.292 44.325 122.538 43.3025 122.381Z" fill="#637CC6"/>
<path d="M151.85 151.985C151.505 152.028 151.169 152.137 150.847 152.316C149.846 152.886 148.867 153.491 147.93 154.168C147.618 154.395 147.313 154.634 147.009 154.871C146.97 154.9 146.931 154.922 146.895 154.951C146.876 154.941 146.859 154.941 146.842 154.936C146.385 154.798 145.931 154.644 145.479 154.496C144.865 154.293 144.256 154.09 143.637 153.892C143.204 153.749 142.767 153.595 142.317 153.491C141.587 153.326 140.831 153.312 140.093 153.44C138.757 153.677 137.601 154.38 136.453 155.069C135.943 155.376 135.117 155.976 134.481 155.896C134.237 155.867 134.024 155.743 133.811 155.632C132.443 154.91 130.739 155.429 130.016 156.797C129.291 158.165 129.823 159.874 131.191 160.592C132.815 161.443 134.59 161.74 136.378 161.245C136.966 161.08 137.541 160.839 138.082 160.561C138.863 160.164 139.569 159.659 140.33 159.219C140.41 159.171 140.499 159.12 140.582 159.077C140.664 159.033 140.741 159.007 140.823 158.963C140.879 158.939 141.075 158.835 141.123 158.845C141.539 158.9 142.034 159.108 142.443 159.227C143.187 159.449 143.932 159.676 144.676 159.901C145.672 160.198 146.685 160.486 147.739 160.35C149.013 160.186 149.917 159.34 150.898 158.598C151.72 157.979 152.602 157.44 153.494 156.928C154.768 156.2 155.2 154.581 154.473 153.307C153.919 152.355 152.873 151.864 151.85 151.985Z" fill="#637CC6"/>
<path d="M38.7028 146.917C38.3379 146.907 37.9608 146.977 37.6006 147.125C36.1649 147.705 35.4808 149.344 36.0609 150.775C36.8658 152.761 38.1566 154.637 40.419 155.038C40.8202 155.108 41.1296 155.137 41.5405 155.128C42.5267 155.099 43.4646 154.797 44.4024 154.533C44.6804 154.453 44.9656 154.391 45.2508 154.345C45.3499 154.42 45.4418 154.492 45.536 154.567C45.8551 154.818 46.1669 155.092 46.4835 155.345C47.3392 156.049 48.2335 156.738 49.2342 157.214C50.3606 157.758 51.5498 157.883 52.7801 157.973C55.0135 158.137 57.4113 158.043 59.3498 156.808C59.4078 156.907 59.4658 157.001 59.5263 157.095C59.913 157.724 60.2852 158.364 60.7469 158.947C62.2866 160.883 64.52 161.917 67.0096 161.731C68.2617 161.632 69.4268 161.236 70.587 160.791C70.9785 160.644 71.3701 160.494 71.7738 160.385C71.8656 160.361 71.9575 160.346 72.0493 160.329C72.1122 160.378 72.175 160.414 72.2354 160.462C72.3539 160.557 72.4747 160.651 72.5883 160.736C73.0428 161.093 73.4875 161.453 73.954 161.794C74.5462 162.224 75.1626 162.626 75.849 162.884C76.9005 163.286 78.1235 163.365 79.2378 163.271C81.2005 163.107 82.8635 162.212 84.5313 161.246C84.9978 160.977 85.4667 160.711 85.9598 160.499C86.1242 160.429 86.274 160.366 86.436 160.31C86.5278 160.349 86.6124 160.39 86.6994 160.443C87.1031 160.67 87.4922 160.939 87.8741 161.202C88.8821 161.891 89.9021 162.614 91.0768 162.981C92.2854 163.363 93.6583 163.353 94.8886 163.08C96.3147 162.763 97.5088 162.021 98.7536 161.301C99.2177 161.028 99.6793 160.815 100.204 160.692C100.511 160.801 100.789 160.994 101.052 161.178C101.499 161.494 101.925 161.838 102.372 162.159C103.566 163.005 104.908 163.709 106.399 163.774C107.963 163.844 109.37 163.312 110.641 162.423C111.02 162.15 111.388 161.862 111.76 161.582C111.958 161.439 112.159 161.328 112.367 161.209C112.388 161.209 112.413 161.209 112.432 161.209C112.468 161.209 112.5 161.204 112.531 161.209C112.683 161.219 112.84 161.248 112.99 161.275C113.396 161.349 113.798 161.463 114.192 161.572C115.444 161.922 116.676 162.309 117.958 162.539C120.928 163.073 123.792 162.582 126.05 160.448C126.768 159.764 127.358 158.981 127.873 158.135C128.641 156.887 128.245 155.251 126.995 154.485C125.743 153.716 124.116 154.113 123.35 155.362C123.038 155.872 122.695 156.358 122.226 156.75C121.047 157.736 119.437 157.468 118.057 157.136C115.724 156.566 113.203 155.362 110.769 156.121C109.674 156.462 108.77 157.165 107.864 157.84C107.62 158.024 107.218 158.369 106.94 158.41C106.885 158.415 106.648 158.461 106.65 158.43C106.66 158.396 106.58 158.42 106.542 158.41C106.486 158.396 106.44 158.376 106.387 158.359C106.297 158.311 106.177 158.241 106.094 158.19C105.705 157.968 105.338 157.7 104.98 157.431C103.293 156.172 101.637 155.07 99.4328 155.386C98.362 155.539 97.3444 155.947 96.3969 156.462C95.7878 156.793 95.2077 157.18 94.5889 157.497C94.0837 157.755 93.564 157.908 92.9936 157.869C92.9162 157.869 92.8317 157.888 92.7664 157.849C92.5706 157.75 92.37 157.675 92.1814 157.562C90.4073 156.513 88.7975 154.886 86.6124 154.809C85.8003 154.78 85.0413 155.012 84.2896 155.295C83.3106 155.662 82.3897 156.182 81.4857 156.706C80.7074 157.151 79.9074 157.651 79.0058 157.782C78.5973 157.842 78.213 157.791 77.8093 157.733C77.7537 157.7 77.6739 157.673 77.6208 157.634C77.4685 157.545 77.3331 157.441 77.1905 157.342C76.7869 157.045 76.3953 156.728 76.0013 156.416C75.0296 155.643 74.0289 154.915 72.7527 154.787C71.3314 154.644 69.9392 155.123 68.6291 155.609C67.8677 155.896 66.896 156.356 66.0597 156.148C65.3418 155.974 64.9599 155.307 64.5998 154.707C64.3702 154.33 64.1478 153.943 63.9061 153.574C63.1036 152.36 62.0231 151.246 60.5608 150.879C59.4513 150.601 58.3129 150.929 57.346 151.473C57.0826 151.625 56.8312 151.79 56.5774 151.959C56.4541 152.039 56.3381 152.119 56.2124 152.201C56.1761 152.21 56.1423 152.225 56.1036 152.235C56.0215 152.259 55.9199 152.283 55.8402 152.3C55.5163 152.375 55.1827 152.418 54.8516 152.433C53.8751 152.481 52.9034 152.377 51.9341 152.268C51.6634 152.239 51.3806 152.017 51.1631 151.872C50.7763 151.613 50.4041 151.323 50.0391 151.021C48.9756 150.144 47.8492 149.054 46.4448 148.778C45.391 148.57 44.2815 148.764 43.2615 149.032C42.7177 149.17 42.1811 149.329 41.6348 149.448C41.6179 149.419 41.5985 149.382 41.5792 149.349C41.4608 149.126 41.3568 148.899 41.2626 148.669C40.8202 147.601 39.7954 146.931 38.7028 146.917Z" fill="#637CC6"/>
<path d="M52.7994 142.134C52.7076 140.292 54.1191 138.731 55.9586 138.641C57.798 138.547 59.3619 139.963 59.4513 141.8C59.5432 143.642 58.1267 145.204 56.2873 145.298C54.4527 145.387 52.8913 143.971 52.7994 142.134Z" fill="#637CC6"/>
<path d="M146.235 140.018C146.143 138.181 147.555 136.619 149.394 136.53C151.234 136.436 152.795 137.847 152.887 139.689C152.979 141.526 151.563 143.092 149.723 143.182C147.891 143.271 146.325 141.855 146.235 140.018Z" fill="#637CC6"/>
<path d="M63.7924 149.206C63.7006 147.369 65.117 145.807 66.9516 145.713C68.791 145.624 70.3549 147.04 70.4467 148.877C70.5386 150.719 69.1222 152.28 67.2827 152.375C65.4457 152.464 63.8819 151.048 63.7924 149.206Z" fill="#637CC6"/>
<path d="M165.497 116.506C163.508 116.242 161.519 116.972 159.65 117.847C158.321 118.471 157.753 120.042 158.376 121.369C158.995 122.701 160.581 123.276 161.91 122.657C162.57 122.345 163.244 122.043 163.955 121.864C164.233 121.794 164.567 121.717 164.847 121.79C165.106 121.855 165.333 122.058 165.529 122.229C165.751 122.418 165.956 122.636 166.157 122.848C166.159 123.017 166.159 123.194 166.157 123.363C166.143 123.854 166.109 124.34 166.092 124.83C166.075 125.258 166.056 125.691 166.077 126.121C166.092 126.433 166.089 126.74 166.145 127.047C166.21 127.409 166.283 127.774 166.45 128.096C166.701 128.557 167.013 128.993 167.378 129.37C167.549 129.548 167.801 129.638 168.025 129.742C168.847 130.124 169.662 129.996 170.493 129.797C171.709 129.51 172.964 129.292 174.216 129.268C174.605 129.263 175.054 129.283 175.47 129.367C175.354 129.778 175.178 130.175 174.984 130.547C174.276 131.924 174.82 133.619 176.195 134.332C177.573 135.04 179.263 134.496 179.973 133.119C180.445 132.202 180.853 131.245 181.051 130.225C181.177 129.577 181.223 128.913 181.138 128.258C181.075 127.753 180.938 127.252 180.718 126.795C179.299 123.75 175.606 123.501 172.695 123.822C172.306 123.871 171.929 123.912 171.54 123.977C171.576 122.759 171.627 121.412 171.011 120.322C170.609 119.604 169.94 119 169.338 118.449C168.78 117.934 168.17 117.477 167.489 117.127C166.829 116.793 166.157 116.59 165.497 116.506Z" fill="#637CC6"/>
<path d="M188.38 128.321C186.381 128.369 184.401 128.806 182.49 129.36C180.147 130.03 177.87 130.9 175.596 131.772C174.465 132.207 173.331 132.645 172.188 133.046C170.215 133.735 168.224 134.368 166.263 135.091C162.676 136.423 159.118 137.938 155.853 139.944C154.891 140.539 153.965 141.172 153.081 141.876C152.955 141.97 152.829 142.064 152.706 142.173C152.505 142.342 152.278 142.504 152.114 142.712C151.899 142.971 151.744 143.268 151.575 143.558C151.434 143.79 151.347 144.068 151.253 144.317C151.077 144.779 150.929 145.252 150.792 145.729C150.18 147.834 149.815 150.043 149.735 152.233C149.646 154.59 149.863 157.28 151.451 159.168C151.884 159.678 152.421 160.098 152.948 160.509C153.595 161.01 154.265 161.481 154.939 161.95C156.902 163.301 158.923 164.57 160.958 165.803C163.878 167.572 166.848 169.281 169.896 170.821C170.827 171.292 171.77 171.746 172.736 172.143C173.394 172.411 174.078 172.677 174.784 172.791C175.971 172.991 177.225 172.658 178.371 172.399C179.867 172.053 181.346 171.652 182.828 171.241C186.144 170.32 189.441 169.32 192.704 168.21C195.162 167.379 197.625 166.521 199.977 165.411C203.596 163.697 207.279 162.097 210.787 160.156C211.877 159.557 212.979 158.933 213.958 158.155C214.465 157.749 214.959 157.273 215.278 156.7C215.72 155.912 215.942 154.972 216.148 154.104C216.593 152.221 216.781 150.266 216.699 148.339C216.638 146.937 216.428 145.53 215.993 144.199C215.865 143.812 216 144.194 215.336 142.579C215.099 142.093 214.712 141.757 214.289 141.489C213.303 140.554 212.121 139.795 210.985 139.057C209.394 138.018 207.78 137.022 206.153 136.041C205.044 135.366 203.927 134.704 202.822 134.025C200.512 132.618 198.184 131.226 195.711 130.121C193.398 129.087 190.932 128.27 188.38 128.321ZM188.213 133.665C188.813 133.636 189.422 133.665 190.016 133.783C192.272 134.233 194.396 135.313 196.388 136.413C197.814 137.201 199.201 138.057 200.594 138.9C201.911 139.698 203.236 140.476 204.546 141.279C206.001 142.166 207.451 143.077 208.86 144.032C209.336 144.353 209.81 144.675 210.269 145.033H210.279L210.289 145.042C210.649 145.893 210.564 145.656 210.651 145.934C210.765 146.275 210.852 146.618 210.92 146.969C211.171 148.351 211.154 149.777 210.98 151.174C210.898 151.854 210.762 152.535 210.586 153.2C210.53 153.413 210.477 153.606 210.412 153.814C210.33 153.874 210.257 153.932 210.168 153.993C209.878 154.196 209.578 154.379 209.276 154.563C208.309 155.148 207.301 155.682 206.293 156.202C204.103 157.326 201.87 158.365 199.634 159.393C198.718 159.818 197.816 160.26 196.893 160.671C195.131 161.45 193.301 162.102 191.481 162.731C189.477 163.419 187.462 164.062 185.436 164.676C183.553 165.252 181.66 165.81 179.758 166.32C178.368 166.687 176.969 167.048 175.552 167.287C175.49 167.263 175.441 167.239 175.378 167.222C175.2 167.161 175.023 167.093 174.849 167.023C174.327 166.811 173.812 166.583 173.304 166.339C171.291 165.382 169.336 164.294 167.397 163.19C164.364 161.471 161.366 159.668 158.473 157.722C157.782 157.261 157.088 156.792 156.426 156.291C156.228 156.139 156.041 155.989 155.853 155.83C155.785 155.769 155.705 155.711 155.645 155.656C155.64 155.651 155.638 155.646 155.633 155.641C155.652 155.67 155.582 155.586 155.568 155.557C155.524 155.482 155.498 155.409 155.469 155.334C155.382 155.088 155.324 154.829 155.282 154.575C155.133 153.683 155.145 152.767 155.205 151.871C155.278 150.727 155.447 149.586 155.686 148.467C155.829 147.839 155.991 147.215 156.194 146.606C156.242 146.473 156.286 146.343 156.339 146.214C156.375 146.181 156.414 146.154 156.45 146.12C156.544 146.05 156.636 145.966 156.735 145.893C156.945 145.729 157.136 145.591 157.352 145.439C158.016 144.967 158.708 144.527 159.409 144.116C161.565 142.864 163.846 141.832 166.157 140.902C168.726 139.872 171.359 139.014 173.972 138.098C176.319 137.271 178.608 136.314 180.95 135.478C182.734 134.84 184.551 134.245 186.42 133.897C187.012 133.783 187.611 133.689 188.213 133.665Z" fill="#637CC6"/>
<path d="M154.855 156.85C151.403 156.77 147.161 158.989 146.951 162.808C146.883 164.021 147.292 165.186 147.961 166.182C146.823 166.929 145.863 167.848 145.235 169.179C144.85 169.987 144.592 170.874 144.505 171.766C144.449 172.365 144.468 172.972 144.604 173.557C144.705 174.006 144.877 174.434 145.099 174.835C146.151 176.704 148.092 177.308 150.074 177.506C149.967 177.794 149.822 178.067 149.757 178.364C149.351 180.153 149.856 181.915 151.067 183.274C153.136 185.601 156.416 186.309 159.406 185.894C159.706 185.85 160.001 185.79 160.301 185.729C160.305 185.749 160.308 185.768 160.313 185.78C160.721 187.484 161.347 189.118 162.643 190.341C163.114 190.786 163.658 191.168 164.238 191.451C166.319 192.466 168.311 191.876 170.097 190.682C170.223 190.895 170.341 191.117 170.479 191.32C171.448 192.703 173.082 193.578 174.728 193.875C177.873 194.445 181.172 192.809 182.49 189.867C182.934 188.881 183.104 187.823 183.082 186.742C183.048 185.193 181.772 183.962 180.222 183.994C178.671 184.023 177.45 185.302 177.481 186.851C177.489 187.129 177.462 187.4 177.334 187.644C176.908 188.49 175.768 188.574 175.045 188.088C174.636 187.4 174.235 186.711 173.812 186.029C173.616 185.712 173.404 185.311 173.109 185.079C172.831 184.862 172.538 184.644 172.229 184.475C171.936 184.315 171.591 184.262 171.262 184.221C169.998 184.066 168.874 184.671 167.893 185.401C167.54 185.659 167.201 185.94 166.834 186.184C166.718 186.259 166.674 186.293 166.573 186.343C165.952 185.824 165.809 184.937 165.623 184.178C165.338 182.984 165.016 181.722 164.214 180.755C164.049 180.557 163.912 180.315 163.684 180.18C163.167 179.878 162.628 179.542 162.034 179.457C161.514 179.382 160.98 179.571 160.472 179.711C160.257 179.766 160.083 179.933 159.899 180.052C159.829 180.095 159.766 180.141 159.701 180.199C159.578 180.238 159.455 180.269 159.329 180.308C158.86 180.431 158.381 180.501 157.893 180.516C157.192 180.54 156.457 180.46 155.817 180.153C155.631 180.064 155.452 179.945 155.3 179.807C155.208 179.728 155.145 179.633 155.065 179.544C155.084 179.484 155.099 179.44 155.121 179.37C155.164 179.252 155.212 179.116 155.266 178.998C155.428 178.621 155.614 178.256 155.759 177.874C156.179 176.798 156.365 175.607 156.013 174.485C155.971 174.362 155.942 174.226 155.877 174.113C155.732 173.84 155.582 173.564 155.384 173.334C155.213 173.127 154.997 172.972 154.78 172.812C153.731 172.065 152.285 172.264 151.082 172.218C150.726 172.203 150.373 172.189 150.023 172.123C149.972 172.109 149.921 172.09 149.868 172.075C149.895 171.952 149.919 171.821 149.958 171.703C150.122 171.203 150.465 170.876 150.905 170.598C151.541 170.202 152.256 169.914 152.931 169.598C153.574 169.305 154.185 169.037 154.635 168.454C154.77 168.28 154.896 168.101 154.988 167.906C155.519 166.782 155.348 165.484 154.56 164.534C153.997 163.859 153.23 163.572 152.433 163.311C152.413 163.287 152.397 163.267 152.38 163.245C152.343 163.202 152.312 163.156 152.283 163.103C152.29 163.088 152.293 163.074 152.305 163.069C152.916 162.45 153.837 162.129 154.702 162.158C156.167 162.192 157.393 161.034 157.431 159.567C157.48 158.107 156.32 156.893 154.855 156.85Z" fill="#637CC6"/>
<path d="M211.71 154.1C210.245 154.044 209.005 155.175 208.947 156.64C208.892 158.107 210.035 159.345 211.502 159.403C212.261 159.437 213.03 159.388 213.789 159.441C214.345 159.475 214.739 159.625 215.111 160.031C215.389 160.333 215.621 160.691 215.826 161.046C215.863 161.107 215.892 161.165 215.925 161.22C215.957 161.276 215.996 161.339 216.027 161.394C216.056 161.45 216.044 161.445 216.037 161.419C216.032 161.399 216.032 161.469 216.027 161.484C216.015 161.523 216.005 161.535 215.991 161.573C215.947 161.687 215.899 161.801 215.836 161.904C215.664 162.202 215.442 162.48 215.21 162.741C214.449 163.592 213.528 164.237 212.667 164.979C212.438 165.172 212.191 165.4 212.027 165.658C211.896 165.866 211.717 166.064 211.674 166.311C211.575 166.881 211.565 167.476 211.608 168.058C211.625 168.271 211.758 168.46 211.853 168.653C211.988 168.917 212.184 169.168 212.382 169.39C213.001 170.103 213.796 170.642 214.485 171.283C214.565 171.358 214.632 171.452 214.717 171.537C214.562 171.65 214.407 171.759 214.241 171.858C213.723 172.16 213.175 172.412 212.614 172.627C210.866 173.294 208.971 173.739 207.098 173.833C206.68 173.862 206.255 173.867 205.836 173.823C205.73 173.814 205.621 173.789 205.515 173.768C205.442 173.758 205.406 173.748 205.341 173.724C205.336 173.724 205.329 173.724 205.329 173.724C205.326 173.719 205.319 173.724 205.319 173.724C205.314 173.724 205.319 173.714 205.319 173.714C203.98 172.931 202.259 173.378 201.476 174.715C200.693 176.052 201.14 177.77 202.479 178.558C203.975 179.409 205.72 179.52 207.41 179.426C209.092 179.332 210.782 179.02 212.404 178.568C213.895 178.152 215.365 177.606 216.716 176.84C218.236 175.984 219.677 174.795 220.276 173.11C220.994 171.087 220.136 169.209 218.712 167.749C218.555 167.585 218.362 167.452 218.195 167.295C219.319 166.236 220.354 165.1 220.934 163.63C221.318 162.668 221.485 161.619 221.323 160.59C221.173 159.678 220.762 158.871 220.286 158.093C219.348 156.567 218.057 155.214 216.344 154.585C214.804 154.015 213.298 154.162 211.71 154.1Z" fill="#637CC6"/>
<path d="M162.113 140.099L187.075 156.584L183.198 186.761L202.155 177.866L206.201 152.716L179.26 133.621L162.113 140.099Z" fill="#637CC6" stroke="#637CC6" stroke-width="2.5" stroke-miterlimit="10" stroke-linejoin="round"/>
<path d="M49.1785 111.185L43.7183 109.952V124.044L49.1785 130.913L70.4491 136.526L104.076 135.317L133.541 133.623L151.331 126.862L158.123 122.915V115.238V106.59H146.23L147.944 112.241L144.478 117.699L139.175 119.993L122.622 117.699L110.646 114.885H104.076L100.922 120.938L91.7995 121.557L80.3182 119.64L72.2499 116.447L67.1183 111.364L49.1785 111.185Z" fill="#637CC6"/>
</svg>
