<svg width="326" height="249" viewBox="0 0 326 249" fill="none" xmlns="http://www.w3.org/2000/svg">
<path d="M85.8185 0.00100116C84.1166 0.0139646 82.4125 0.151424 80.7309 0.405999C79.1144 0.650964 77.478 0.95091 75.9547 1.55818C74.0174 2.33129 72.2626 3.52013 70.6927 4.8757C68.742 6.56006 67.0442 8.522 65.5083 10.5812C63.641 13.084 62.0067 15.7563 60.5277 18.5009C58.0363 23.1224 55.9593 27.9701 54.2737 32.9364C53.0307 36.5975 51.938 40.4024 51.4033 44.236C51.2475 45.3556 51.1658 46.4812 51.101 47.6092C51.0156 49.0886 50.9728 50.5689 50.9812 52.0508C50.9958 54.6224 51.1595 57.2037 51.5512 59.7468C51.7334 60.9305 51.9632 62.1274 52.3109 63.2809C52.1055 63.506 51.8727 63.706 51.692 63.9512C50.9427 64.9661 50.4032 66.1532 50.0599 67.3592C48.453 73.0008 51.1762 79.453 56.0113 82.6816C56.9927 83.3371 58.05 83.8329 59.1699 84.2043C60.4235 84.616 61.7732 83.9399 62.1879 82.6959C62.6024 81.4516 61.9213 80.1043 60.6684 79.6926C60.1621 79.5285 59.6776 79.3372 59.212 79.078C56.7608 77.7139 55.0475 75.1163 54.4776 72.4156C54.1048 70.6484 54.241 68.7546 55.1038 67.1427C55.842 65.7629 57.3104 64.7829 58.8461 64.4959C59.606 64.3537 60.4685 64.4018 61.0761 64.929C61.2621 65.0906 61.3985 65.2837 61.5332 65.4878C62.2228 66.5227 63.6284 66.8081 64.671 66.1232C64.9864 65.9158 65.2104 65.6347 65.3813 65.3269L66.8941 66.507C66.709 67.6353 66.5482 68.7709 66.4368 69.9083C66.2914 71.3897 66.227 72.8761 66.2117 74.3642C66.1991 75.6746 67.2622 76.7468 68.5824 76.7593C69.9024 76.772 70.9827 75.7166 70.9955 74.406C71.0072 73.0553 71.0628 71.7078 71.1923 70.3623C71.5286 66.8689 72.2653 63.4201 73.2816 60.0615C74.7106 55.3381 76.6763 50.7837 79.057 46.4573C80.553 43.7383 82.2211 41.1096 84.0513 38.6005C84.7267 37.6768 85.3952 36.7376 86.1832 35.9048C87.4483 34.5689 89.0443 33.5113 90.904 33.2578C91.5252 33.1731 92.1578 33.1769 92.7815 33.2439C93.6368 33.3351 94.4698 33.5459 95.2801 33.8304C95.5593 33.9292 95.834 34.0383 96.1109 34.1518C96.7143 34.4004 97.3332 34.6681 97.869 35.0456C98.2653 35.3264 98.5265 35.5908 98.6143 36.0724C98.7426 36.7409 99.1681 37.2584 99.7195 37.574C99.8321 37.7 99.9244 37.8426 100.071 37.9441C101.093 38.6571 102.505 38.4146 103.222 37.3992C103.43 37.0905 103.918 36.9003 104.249 36.7707C105.091 36.4421 105.971 36.2852 106.874 36.3026C108.736 36.3389 110.759 36.5887 112.263 37.7832C113.022 38.3871 113.614 39.1714 114.161 39.9621C114.803 40.887 115.401 41.8423 115.921 42.8393C116.419 43.7975 116.851 44.7872 117.222 45.8006C118.706 49.8526 119.305 54.5556 118.067 58.7486C117.785 59.7005 117.398 60.6026 116.934 61.479C116.32 62.6392 116.77 64.0748 117.938 64.6847C118.087 64.7616 118.242 64.7733 118.398 64.8175C118.792 65.115 119.269 65.3126 119.804 65.2992C120.678 65.2775 121.554 65.2069 122.427 65.1456C123.239 65.0884 124.055 65.0392 124.87 64.9849C124.579 67.1458 124.235 69.2841 123.708 71.4029C123.418 72.5679 123.075 73.7194 122.603 74.8251C121.97 76.3375 122.691 78.0784 124.215 78.7081C125.739 79.3374 127.485 78.6211 128.118 77.1089C129.642 73.4114 130.02 69.4108 130.518 65.4811C130.533 65.3647 130.524 65.2529 130.524 65.1387C130.651 65.1988 130.781 65.2516 130.905 65.3135C131.636 65.6778 132.336 66.089 133.03 66.5215C135.204 67.8822 137.284 69.4457 139.76 70.2369C140.197 70.3761 140.641 70.4774 141.084 70.5652C139.099 79.1493 136.449 87.6837 132.1 95.3991C129.417 100.161 126.026 104.656 121.688 108.054C119.957 109.41 118.071 110.576 116.074 111.51C114.548 112.226 112.954 112.812 111.326 113.257C102.725 115.602 93.4004 113.978 85.6766 109.716C82.7727 108.113 80.0093 106.161 77.7207 103.759C72.7075 98.4983 70.2755 91.6098 68.2024 84.812C67.8194 83.5577 66.4832 82.8463 65.2197 83.2265C63.9564 83.6069 63.2398 84.9332 63.623 86.1877C64.7045 89.7232 65.8665 93.2452 67.4076 96.6141C68.8884 99.8512 70.762 102.912 73.0706 105.63C73.0567 105.667 73.0335 105.697 73.0213 105.735C72.5665 107.161 72.1217 108.589 71.6354 110.002L71.2204 108.871C71.1835 108.884 63.9105 111.554 61.8639 112.321C61.7083 112.379 60.0943 112.991 59.4862 113.222C56.9139 114.198 54.8192 116.245 53.0775 119.011C52.593 119.78 52.1717 120.578 51.7762 121.385C51.7624 121.508 51.7822 121.626 51.748 121.749C49.5981 129.364 47.4494 136.983 45.304 144.599C44.597 147.109 43.8932 149.619 43.1865 152.129C42.9818 152.855 42.7792 153.579 42.5746 154.307C42.6286 154.332 42.682 154.359 42.7362 154.384C43.9401 154.938 45.1482 155.485 46.3525 156.039C49.0017 157.255 51.6526 158.475 54.3018 159.691C54.7032 159.874 55.1033 160.058 55.5048 160.243C55.9021 160.424 56.3508 160.601 56.6798 160.894C57.0954 161.26 57.3777 161.749 57.4676 162.297C57.4901 162.431 57.497 162.57 57.4957 162.708C57.491 163.171 57.3295 163.624 57.0736 164.007C56.8759 164.304 56.5917 164.563 56.3421 164.818C56.1552 165.008 55.9661 165.2 55.7792 165.39C54.0974 167.1 52.4171 168.807 50.7353 170.517C50.1747 171.087 49.6143 171.657 49.054 172.226C48.9715 172.311 48.89 172.396 48.8076 172.479C48.8574 172.707 48.9056 172.935 48.9553 173.163C49.2512 174.517 49.5457 175.867 49.842 177.221C50.6901 181.103 51.5407 184.987 52.3885 188.869C54.3396 197.804 56.2777 206.738 58.2204 215.673C66.3404 221.016 74.8914 225.81 83.8424 229.969L113.766 183.932L100.653 171.745C99.3703 170.552 99.9016 168.424 101.596 167.96L116.004 164.013L118.185 130.212L116.242 125.61C116.078 124.821 115.628 124.146 114.955 123.508C114.419 122.998 113.719 122.497 112.866 121.972C112.031 121.457 111.047 120.922 109.939 120.379C108.809 119.824 107.605 119.289 106.4 118.78C108.298 118.606 110.189 118.328 112.051 117.844C113.94 117.353 115.794 116.695 117.573 115.889C119.891 114.837 122.086 113.521 124.108 111.978C128.855 108.353 132.612 103.559 135.595 98.4364C140.557 89.9141 143.519 80.3727 145.683 70.816C145.696 70.7592 145.683 70.7051 145.692 70.6484C145.818 70.6305 145.944 70.6271 146.07 70.6064C146.338 70.5623 146.608 70.5035 146.873 70.4457C146.954 70.428 147.042 70.4208 147.119 70.3898C147.407 70.2744 147.688 70.1348 147.97 70.0058C148.109 69.9423 148.238 69.8051 148.357 69.7123C148.623 69.506 148.886 69.2921 149.145 69.0767C149.692 68.6185 150.221 68.1482 150.741 67.6592C153.024 65.516 155.088 63.088 156.65 60.3751C157.605 58.7191 158.44 56.8781 158.838 55.0046C159.178 53.4041 159.205 51.737 159.133 50.1089C159.039 47.9503 158.742 45.8048 158.332 43.684C157.276 38.206 155.48 32.841 153.105 27.789C150.712 22.6989 147.679 17.8615 143.841 13.717C141.869 11.5876 139.681 9.642 137.277 8.00414C130.573 3.43788 122.599 1.19632 114.513 1.02042C110.84 0.940628 107.15 1.2665 103.546 1.97011C102.42 2.18981 101.301 2.44886 100.196 2.75238C99.9847 2.81094 99.7751 2.87844 99.5635 2.94102C99.5454 2.93275 99.5297 2.92135 99.5139 2.91308C98.8723 2.59771 98.2171 2.31095 97.5509 2.05392C95.4123 1.2303 93.1653 0.669735 90.8963 0.342967C89.2132 0.100909 87.5181 -0.0119623 85.8185 0.00100116ZM226.733 15.3511C223.91 15.2889 221.096 15.6662 218.382 16.6362C217.29 17.026 216.232 17.5079 215.223 18.0749C213.528 19.0271 211.997 20.2137 210.608 21.5668C209.717 22.4365 209.703 23.8591 210.581 24.7444C211.457 25.6297 212.889 25.642 213.78 24.7723C214.888 23.6941 216.101 22.7445 217.454 21.9859C223.041 18.8489 229.734 19.5619 235.576 21.5737C240.465 23.2585 245.021 25.8615 249.18 28.8996C253.38 31.967 257.283 35.5403 260.507 39.6197C261.167 40.4563 261.8 41.3204 262.385 42.2106C263.276 43.5651 264.096 44.9694 264.953 46.3451C268.954 52.7653 273.062 59.1196 276.885 65.6481C279.009 69.2805 281.072 72.9646 282.877 76.766C286.26 83.8829 288.717 91.3825 291.6 98.7019C294.27 105.482 297.221 112.155 300.098 118.85C303.04 125.694 305.933 132.56 308.506 139.551C309.67 142.715 310.73 145.916 311.791 149.118C312.554 151.424 313.353 153.72 314.161 156.01C317.15 164.489 320.264 172.99 322.182 181.773C323.487 180.287 324.741 178.758 326 177.234C324.03 169.501 321.32 161.968 318.663 154.446C317.864 152.184 317.067 149.92 316.313 147.643C315.237 144.394 314.157 141.144 312.973 137.931C310.368 130.861 307.424 123.923 304.438 117.006C301.57 110.359 298.628 103.736 295.963 97.0051C293.025 89.5931 290.513 82.0032 287.071 74.7969C285.927 72.4065 284.676 70.0686 283.39 67.7504C280.941 63.3276 278.305 59.0126 275.624 54.7259C273.645 51.5633 271.637 48.4217 269.651 45.2628C268.598 43.585 267.572 41.8863 266.506 40.2136C264.595 37.2076 262.25 34.4728 259.726 31.9588C257.804 30.0444 255.76 28.2566 253.619 26.5883C251.98 25.3108 250.285 24.0987 248.534 22.9778C247.084 22.0502 245.591 21.1819 244.067 20.38C242.876 19.7542 241.67 19.1683 240.436 18.6339C236.154 16.7799 231.434 15.4554 226.733 15.3511ZM198.608 21.8321C197.941 21.8424 197.279 21.8699 196.615 21.9226C195.501 22.0116 194.389 22.1553 193.288 22.3558C187.228 23.4599 180.963 26.4285 177.762 31.8955C177.174 32.8995 176.724 33.9603 176.371 35.0662C175.992 36.249 176.657 37.5118 177.848 37.8878C179.038 38.2633 180.31 37.6108 180.688 36.4283C180.943 35.6368 181.26 34.8764 181.681 34.1583C183.876 30.4237 188.144 28.3424 192.234 27.3494C192.961 27.1726 193.695 27.0278 194.436 26.9093C195.276 26.775 196.124 26.682 196.975 26.623C198.105 26.5445 199.24 26.5251 200.372 26.581C201.957 26.6596 203.517 26.8968 205.05 27.3004C206.326 27.6339 207.634 26.8778 207.97 25.61C208.305 24.3428 207.544 23.0455 206.268 22.712C204.411 22.2299 202.522 21.9488 200.604 21.8598C199.94 21.8294 199.272 21.822 198.608 21.8321ZM218.319 32.2728C217.594 32.2652 216.878 32.2759 216.18 32.3077C211.678 32.512 207.961 33.509 204.981 35.0662C203.774 35.6963 202.765 36.3815 201.941 37.0775C201.332 36.9075 200.703 36.7324 199.972 36.5747C197.315 36.0027 194.443 35.6741 191.447 35.7019C187.55 35.7378 183.743 36.3804 180.141 37.7691C175.346 39.6161 171.112 42.7026 167.618 47.162C161.238 55.0641 157.765 61.8292 156.554 68.0923C156.036 70.7626 155.928 73.3132 156.16 75.9352C156.333 77.9142 156.63 79.5583 157.256 82.3881C157.835 85.0016 157.965 85.6234 158.136 86.7668C158.157 86.9135 158.179 87.0576 158.199 87.2C159.26 95.2188 157.641 101.948 152.142 114.01C149.517 119.768 149.71 126.785 152.142 134.179C154.147 140.277 157.628 146.32 161.265 150.347C164.077 153.458 166.054 158.589 166.466 164.049C166.907 169.935 165.522 175.538 162.377 179.692C162.418 179.636 160.239 182.495 159.521 183.456C159.179 183.916 158.913 184.327 158.593 184.77C157.968 173.806 156.741 165.904 154.767 161.689C151.707 155.161 145.62 148.984 137.39 143.182C133.241 140.255 128.809 137.613 124.376 135.289C123.674 134.923 123.088 134.645 122.433 134.319L120.394 165.886C120.333 166.835 119.673 167.644 118.748 167.897L106.668 171.207L118.219 181.947C119.014 182.687 119.162 183.882 118.572 184.79L87.9909 231.819C109.46 241.211 133.005 247.087 157.819 248.593C157.891 247.187 157.965 245.871 158.037 244.432C158.612 245.194 159.145 245.958 159.769 246.722C159.836 246.805 159.915 246.886 159.993 246.96L162.004 248.81C164.87 248.926 167.746 249 170.644 249C171.27 249 171.891 248.984 172.515 248.977C171.803 243.73 171.209 238.465 170.664 233.196C170.632 232.883 170.534 232.594 170.389 232.335C170.783 232.326 171.177 232.308 171.571 232.302C174.279 232.241 176.985 232.19 179.691 232.302C179.274 237.859 180.238 243.545 182.498 248.649C184.196 248.555 185.888 248.443 187.577 248.307C186.913 247.058 186.339 245.762 185.859 244.425C184.504 240.637 183.939 236.619 184.22 232.614C188.617 233.044 192.982 233.797 197.284 234.78C203.177 236.125 208.963 237.913 214.667 239.9C216.83 240.653 218.973 241.435 221.132 242.197C221.475 242.318 221.823 242.432 222.166 242.552C224.271 242.016 226.366 241.451 228.442 240.85C228.275 239.94 227.58 239.173 226.612 238.957C225.176 238.637 223.778 238.105 222.391 237.616C220.338 236.889 218.294 236.15 216.236 235.437C210.575 233.475 204.836 231.72 198.988 230.395C192.908 229.014 186.717 228.082 180.486 227.789C178.935 227.716 177.388 227.7 175.842 227.713C174.295 227.725 172.749 227.765 171.2 227.803C168.931 227.861 166.664 227.93 164.397 227.999C164.185 224.213 164.012 220.428 163.791 216.642C163.695 214.99 163.573 213.334 163.44 211.685C163.375 210.874 163.314 210.067 163.215 209.26C163.01 207.618 162.63 205.979 162.652 204.317C162.659 203.846 162.682 203.332 162.891 202.898C163.607 202.603 164.408 202.466 165.165 202.326C166.211 202.131 167.265 201.977 168.323 201.836C171.846 201.374 175.394 201.079 178.937 200.817C182.89 200.527 186.852 200.308 190.812 200.16C192.264 200.107 193.714 200.057 195.168 200.042C195.974 200.033 196.789 200.013 197.595 200.078C198.576 200.156 199.562 200.303 200.535 200.455C202.797 200.806 205.03 201.3 207.219 201.97C209.927 202.797 212.552 203.897 215.068 205.188C218.602 207.003 221.93 209.175 225.255 211.334C228.487 213.435 231.731 215.52 235.07 217.453C236.171 218.09 237.278 218.722 238.404 219.317C241.807 221.118 245.301 222.734 248.703 224.542C250.119 225.293 251.526 226.073 252.887 226.915C254.074 227.648 255.245 228.421 256.271 229.367C256.64 229.706 257.097 229.858 257.559 229.912C258.277 229.577 258.979 229.219 259.691 228.877C260.247 227.983 260.152 226.812 259.346 226.07C258.225 225.04 256.983 224.168 255.695 223.355C254.972 222.894 254.216 222.488 253.473 222.061C254.23 221.619 254.997 221.189 255.794 220.812C261.026 218.333 266.834 217.299 272.592 217.062C275.325 216.95 278.062 217.021 280.789 217.209C282.859 215.886 284.881 214.503 286.896 213.108C286.081 213.014 285.27 212.894 284.453 212.815C281.921 212.567 279.379 212.433 276.835 212.395C268.592 212.275 260.091 213.492 252.712 217.312C251.395 217.996 250.148 218.782 248.928 219.618C245.288 217.759 241.598 215.991 238.053 213.96C234.876 212.143 231.794 210.174 228.731 208.178C228.602 208.093 228.472 208.011 228.343 207.926C229.246 207.076 230.149 206.227 231.051 205.378C237.859 198.98 245.175 192.343 254.268 189.413C255.544 189.001 256.852 188.664 258.171 188.414C260.01 188.065 261.879 187.868 263.749 187.848C265.588 187.828 267.427 187.944 269.251 188.184C272.418 188.599 275.525 189.361 278.613 190.152C280.18 190.555 281.752 190.948 283.314 191.368C285.268 191.893 287.202 192.51 289.187 192.912C290.272 193.131 291.382 193.321 292.494 193.297C293.55 193.272 294.61 193.093 295.666 193.107C295.815 193.158 295.979 193.156 296.139 193.176C296.265 193.435 296.393 193.692 296.497 193.958C296.677 194.419 296.846 194.888 297.003 195.355C297.46 196.703 297.868 198.061 298.264 199.427C298.67 200.83 299.043 202.243 299.424 203.653C305.09 199.02 310.49 194.108 315.562 188.903C315.528 188.883 315.506 188.852 315.47 188.834C314.031 188.065 312.631 187.209 311.312 186.248L306.832 181.975C306.256 181.236 305.718 180.467 305.263 179.649C302.145 174.055 302.375 167.306 302.555 161.116C302.645 158.005 302.755 154.89 302.668 151.777C302.517 146.525 301.801 141.182 299.847 136.267C298.688 133.356 296.95 130.718 294.888 128.361C292.77 125.943 290.34 123.818 287.88 121.754C285.611 119.853 283.297 118 281.147 115.965C279.924 114.806 278.727 113.596 277.694 112.263C273.441 106.78 272.516 99.703 271.847 93.0235C271.73 91.8418 271.622 90.6579 271.51 89.4757C271.464 88.991 271.239 88.5808 270.94 88.2395C271.514 82.2332 268.932 72.533 264.173 63.189C257.299 49.695 247.313 39.3419 235.673 35.4991C229.169 33.3519 223.4 32.3262 218.319 32.2728ZM95.4262 54.8931C94.1139 54.9899 93.0064 55.991 92.8308 57.3374C92.5358 59.5749 92.1801 61.7937 91.6353 63.9858C91.3448 65.151 91.0049 66.3025 90.53 67.4082C89.8974 68.9207 90.6178 70.6544 92.1418 71.284C93.6661 71.9136 95.4127 71.1971 96.0454 69.6848C97.5694 65.9873 97.9499 61.9868 98.4449 58.0571C98.6431 56.5182 97.5468 55.1117 95.9981 54.9141C95.8022 54.8895 95.6153 54.8792 95.4262 54.8931ZM197.516 67.387C197.741 67.84 197.774 67.8896 198.045 68.4345C199.493 71.3721 200.213 72.7668 201.034 74.1963C204.431 80.1034 208.024 82.8472 216.061 85.3981C218.4 86.1401 220.074 83.1639 218.213 81.5779C218.222 81.5859 218.226 81.5815 218.213 81.571C218.184 81.5444 218.145 81.5111 218.1 81.4661C217.952 81.315 217.781 81.1235 217.587 80.8864C217.004 80.1738 216.408 79.2668 215.842 78.1558C215.172 76.8348 214.638 75.3112 214.204 73.6581C215.953 75.9205 217.567 78.0257 218.326 78.9729C221.547 82.9927 224.062 85.7613 226.542 87.8909C230.254 91.0758 233.886 92.7566 237.861 92.8981C240.304 92.9855 241.112 89.6867 238.903 88.6452C238.933 88.6593 238.946 88.6642 238.937 88.6593C238.892 88.6336 238.831 88.5994 238.755 88.5475C238.498 88.3743 238.187 88.128 237.847 87.8073C236.798 86.8194 235.722 85.3999 234.689 83.4563C234.079 82.3081 233.53 80.9771 233.014 79.5594C233.577 80.2254 234.217 80.9827 234.401 81.2004C236.58 83.7705 237.778 85.0939 239.05 86.2707C240.04 87.1866 241.033 87.9626 242.194 88.729C243.849 89.8186 245.799 90.8575 250.109 93.0449C250.204 93.5134 250.305 93.8963 250.397 94.3858C251.595 100.827 252.201 107.339 251.89 113.375C251.823 114.684 251.701 115.94 251.543 117.167C251.494 117.316 251.451 117.466 251.397 117.614C250.967 118.786 250.438 119.921 249.835 121.015C248.027 124.29 245.571 127.199 242.757 129.668C238.689 133.238 233.887 135.897 228.843 137.846C227.62 138.317 226.384 138.751 225.135 139.144C224.608 139.312 224.075 139.464 223.545 139.62C223.453 139.647 223.365 139.683 223.271 139.703C222.92 139.781 222.544 139.812 222.188 139.864C221.4 139.978 220.614 140.074 219.824 140.157C217.053 140.452 214.257 140.561 211.472 140.423C207.58 140.23 203.699 139.544 200.028 138.23C197.977 137.497 195.991 136.574 194.118 135.464C192.777 134.67 191.489 133.779 190.271 132.811C181.654 125.968 176.746 115.496 174.056 105.092C173.568 103.211 173.149 101.311 172.795 99.4004C172.662 98.6809 172.559 97.9579 172.444 97.235C173.624 96.2556 174.785 94.8075 175.99 92.8845C177.739 90.0911 179.567 86.3348 181.435 81.836C182.406 79.4955 183.331 77.0315 184.233 74.545L184.515 75.956C184.51 76.1234 184.53 76.2828 184.524 76.4517C184.33 80.0598 183.335 83.6248 181.379 87.0668C180.298 88.9666 182.32 91.117 184.305 90.1818C189.882 87.5552 193.288 84.625 195.16 80.9565C195.984 79.3399 196.504 77.6046 196.826 75.593C197.067 74.0899 197.173 72.784 197.319 70.0758C197.381 68.9251 197.453 68.2718 197.516 67.387ZM112.366 76.0327C112.056 76.0409 111.747 76.1067 111.446 76.2423C110.243 76.7848 109.71 78.1918 110.257 79.3851C110.475 79.7719 110.453 79.7382 110.475 79.7762C110.457 79.7626 110.444 79.7125 110.426 79.7203C110.311 79.7715 110.556 79.9297 110.622 80.0346C110.689 80.1396 110.88 80.4568 110.82 80.3488C110.637 80.0256 110.822 80.3479 110.989 80.6772C111.506 81.807 112.848 82.3079 113.985 81.7945C115.124 81.2809 115.628 79.949 115.11 78.8194C114.971 78.4296 114.982 78.4696 114.971 78.4282C114.996 78.3533 114.888 78.2206 114.859 78.1209C114.823 78.0024 114.71 77.648 114.753 77.7646C114.876 78.114 114.753 77.7635 114.611 77.4224C114.201 76.5277 113.298 76.0083 112.366 76.0327ZM87.9278 82.5414C87.3199 82.6058 86.7393 82.8977 86.325 83.4075C85.4945 84.4274 85.6564 85.9222 86.683 86.7458C88.601 88.2782 90.5865 89.7283 92.6689 91.0338C98.2786 94.5507 104.681 97.0891 111.353 97.4867C113.242 97.5994 115.122 97.5178 116.997 97.2911C118.237 97.1427 119.122 96.023 118.973 94.791C118.822 93.559 117.694 92.68 116.454 92.8288C114.854 93.019 113.247 93.0957 111.635 92.9893C103.445 92.4475 95.9308 88.0739 89.686 83.0517C89.1727 82.6398 88.5357 82.4771 87.9278 82.5414ZM225.148 89.63C223.588 89.6771 222.366 90.9708 222.413 92.5215C222.521 96.4803 222.504 100.504 223.658 104.331C224.142 105.898 225.808 106.773 227.386 106.293C228.964 105.814 229.854 104.159 229.37 102.592C228.982 101.366 228.769 100.11 228.575 98.8416C228.249 96.6921 228.136 94.5239 228.062 92.3539C228.014 90.8032 226.711 89.5828 225.148 89.63ZM191.262 91.6623C189.7 91.7095 188.471 93.0034 188.52 94.5536C188.628 98.5126 188.617 102.529 189.772 106.356C190.254 107.923 191.922 108.805 193.5 108.326C195.078 107.846 195.967 106.191 195.483 104.624C195.096 103.398 194.882 102.142 194.688 100.874C194.362 98.7249 194.247 96.5493 194.175 94.3791C194.128 92.8286 192.824 91.6152 191.262 91.6623ZM255.042 94.9027C255.222 94.9195 255.402 94.9479 255.589 94.9519C255.69 94.9537 255.931 95.0248 256.271 95.1542C256.557 95.3898 256.881 95.5822 257.27 95.6571C257.401 95.6821 257.527 95.7252 257.657 95.7547C257.734 95.7903 257.876 95.8538 257.889 95.8598C258.731 96.2453 259.377 96.4988 260.014 96.7047C260.555 97.0482 261.052 97.4525 261.422 98.0106C262.259 99.2775 262.353 100.888 262.067 102.341C261.516 105.154 259.402 108.108 256.456 108.738C256.368 104.207 255.843 99.5434 255.042 94.9027ZM209.744 108.067C208.868 107.955 207.972 108.36 207.5 109.163C207.115 109.579 207.335 109.334 207.112 109.582C207.015 109.69 207.315 109.371 207.43 109.282C207.461 109.257 207.38 109.352 207.358 109.387C207.308 109.466 207.259 109.542 207.204 109.617C207.193 109.632 207.155 109.691 207.139 109.708C207.133 109.717 207.117 109.74 207.112 109.729C207.099 109.701 207.202 109.594 207.218 109.561C207.223 109.552 207.198 109.562 207.189 109.568C207.137 109.606 206.995 109.738 207.036 109.687C207.178 109.503 207.033 109.687 206.725 109.994C205.827 110.954 205.878 112.454 206.844 113.346C207.812 114.239 209.329 114.187 210.228 113.228C210.817 112.329 210.57 112.641 210.82 112.327C210.955 112.155 210.579 112.702 210.502 112.906C210.469 112.995 210.622 112.759 210.678 112.683C210.734 112.611 210.788 112.54 210.84 112.467C210.984 112.268 211.088 112.074 211.184 111.852C211.218 111.778 211.254 111.7 211.29 111.629C211.306 111.598 211.367 111.509 211.347 111.538C210.973 112.099 211.342 111.542 211.403 111.433C212.033 110.361 211.673 108.979 210.595 108.353C210.325 108.197 210.034 108.104 209.744 108.067ZM76.6864 109.268C78.7456 111.017 81.0076 112.537 83.3759 113.836C88.621 116.712 94.5034 118.47 100.464 118.871C100.336 119.706 100.167 120.535 99.9849 121.357C99.8406 122.017 99.6877 122.675 99.5346 123.334L99.269 123.068L84.4316 137.678L74.3085 116.245C74.7426 115.266 75.148 114.278 75.4903 113.263C75.9349 111.945 76.3037 110.605 76.6864 109.268ZM261.133 109.869C262.882 109.869 264.305 111.274 264.305 113.012C264.305 114.75 262.882 116.161 261.133 116.161C259.382 116.161 257.968 114.75 257.968 113.012C257.968 111.274 259.382 109.869 261.133 109.869ZM226.661 118.494C226.051 118.514 225.452 118.77 225.002 119.248C223.418 120.936 221.292 122.039 219.143 122.852C216.975 123.67 214.69 124.202 212.389 124.465C210.69 124.66 208.972 124.711 207.268 124.563C205.292 124.391 203.311 123.977 201.554 123.033C200.456 122.442 199.083 122.843 198.488 123.934C197.892 125.025 198.304 126.395 199.402 126.986C201.89 128.325 204.699 128.929 207.507 129.123C212.18 129.446 217.061 128.74 221.421 127.028C224.046 125.998 226.547 124.54 228.492 122.488C229.394 121.532 229.343 120.033 228.379 119.136C227.897 118.688 227.274 118.474 226.661 118.494ZM70.6859 119.094L79.9436 138.697L73.3518 144.642C72.4628 136.125 71.5759 127.61 70.6859 119.094ZM46.1764 124.856C41.9356 125.972 37.693 127.122 33.7316 128.25C32.3283 128.65 30.9831 129.037 29.7009 129.417C23.135 131.361 18.5518 132.926 16.3488 134.075C13.056 135.79 9.06471 140.751 4.5936 147.931C2.98833 150.508 1.38193 153.315 0 155.878C13.3503 177.723 31.2776 196.757 52.536 211.831C51.1291 205.319 49.7188 198.807 48.3153 192.292C47.2832 187.503 46.2496 182.714 45.22 177.925C44.9284 176.57 44.6389 175.216 44.3476 173.862C44.289 173.589 44.2298 173.321 44.1715 173.051C44.0544 172.505 43.9146 171.975 44.0098 171.41C44.1461 170.599 44.6326 170.11 45.1705 169.567C45.4517 169.283 45.7333 168.999 46.0147 168.715C47.6083 167.104 49.2046 165.497 50.7984 163.888C50.9737 163.711 51.1503 163.535 51.3261 163.358C50.4676 162.961 49.6096 162.56 48.7511 162.162C46.1861 160.976 43.6212 159.787 41.0551 158.602C40.7342 158.453 40.4188 158.303 40.0982 158.155C39.6644 157.954 39.0263 157.722 38.6138 157.429C38.2223 157.148 37.9163 156.754 37.7484 156.303C37.453 155.512 37.6793 154.873 37.8891 154.133C37.9906 153.773 38.0904 153.415 38.1917 153.056C38.8007 150.906 39.4118 148.76 40.0208 146.611C42.075 139.359 44.1269 132.108 46.1764 124.856ZM97.9318 130.687C97.8801 130.862 97.826 131.037 97.7765 131.211C97.36 132.657 96.9414 134.102 96.5249 135.548C95.3767 139.524 94.2332 143.495 93.0852 147.469L88.4344 140.038L97.9318 130.687ZM237.017 139.285C237.526 141.14 238.036 142.997 238.593 144.836C239.349 147.337 240.144 149.826 241.062 152.273C241.479 153.386 241.918 154.493 242.449 155.556C242.732 156.126 243.034 156.72 243.448 157.212C243.72 157.538 244.049 157.818 244.405 158.057C245.582 158.848 247.023 159.232 248.392 159.543C250.415 160.005 252.482 160.289 254.542 160.542C259.512 161.154 264.514 161.53 269.476 162.211C271.151 162.441 272.821 162.701 274.471 163.072C275.552 163.313 276.648 163.595 277.666 164.042C278.431 164.379 279.138 164.866 279.804 165.369C280.849 166.158 281.81 167.047 282.722 167.988C284.138 169.445 285.428 171.019 286.614 172.666C288.21 174.885 289.621 177.238 290.806 179.699C292.172 182.544 293.225 185.561 293.752 188.674C293.662 188.68 293.57 188.687 293.48 188.694C293.025 188.732 292.57 188.785 292.113 188.763C291.769 188.747 291.42 188.692 291.08 188.638C290.416 188.535 289.761 188.392 289.111 188.233C287.449 187.827 285.817 187.297 284.165 186.857C282.706 186.47 281.243 186.092 279.781 185.712C275.101 184.49 270.365 183.384 265.509 183.212C262.934 183.12 260.343 183.283 257.806 183.721C255.951 184.041 254.116 184.51 252.331 185.105C244.306 187.777 237.554 193.031 231.369 198.618C228.955 200.795 226.603 203.041 224.234 205.267C222.44 204.125 220.626 203.012 218.762 201.984C215.806 200.355 212.724 198.949 209.519 197.885C206.916 197.02 204.24 196.379 201.534 195.936C200.302 195.735 199.051 195.536 197.806 195.454C196.914 195.396 196.016 195.398 195.125 195.404C194.046 195.413 192.973 195.438 191.896 195.467C189.013 195.55 186.129 195.679 183.25 195.845C180.438 196.005 177.629 196.209 174.822 196.446C174.835 196.157 174.844 195.867 174.871 195.579C175.024 193.934 175.353 192.311 175.841 190.733C176.832 187.54 178.525 184.583 180.85 182.163C181.998 180.969 183.306 179.937 184.657 178.978C186.94 177.356 189.362 175.93 191.804 174.558C196.138 172.124 200.606 169.941 205 167.624C207.002 166.569 209.03 165.505 210.889 164.216C211.848 163.552 212.877 162.769 213.379 161.688C213.712 160.97 213.757 160.162 213.753 159.384C213.746 158.202 213.611 157.019 213.451 155.848C213.152 153.672 212.737 151.506 212.296 149.354C212.001 147.919 211.673 146.493 211.346 145.065C213.237 145.166 215.14 145.177 217.037 145.081C218.698 144.996 220.355 144.837 222.005 144.625C222.579 144.551 223.156 144.473 223.727 144.381C223.916 144.352 224.11 144.332 224.297 144.29C224.634 144.216 224.958 144.109 225.289 144.01C225.715 143.888 226.14 143.76 226.564 143.628C227.91 143.206 229.24 142.743 230.559 142.238C232.771 141.39 234.928 140.4 237.017 139.285ZM81.4851 143.35C81.3365 153.541 80.6636 163.718 79.3175 173.826C78.8237 177.536 78.2264 181.23 77.5519 184.908C77.3508 182.973 77.148 181.035 76.9467 179.098C75.9376 169.39 74.9206 159.684 73.9075 149.976L74.0133 150.088L81.4851 143.35ZM86.0008 144.619L91.3831 153.371C88.4589 163.483 85.5303 173.595 82.6037 183.708L82.5386 183.911C83.4457 178.581 84.1661 173.218 84.6997 167.834C85.463 160.118 85.8702 152.372 86.0008 144.619ZM158.965 216.077C158.992 216.492 159.026 216.906 159.05 217.321C159.28 221.331 159.456 225.342 159.683 229.353C159.526 229.673 159.417 230.019 159.431 230.401C159.474 231.642 160.523 232.609 161.772 232.565C163.325 232.511 164.876 232.482 166.43 232.44C166.243 232.806 166.117 233.208 166.162 233.649C166.641 238.393 167.087 243.149 167.632 247.889L163.179 243.795C161.327 241.511 159.751 239.247 158.362 236.994C158.654 229.881 158.852 222.902 158.965 216.077Z" fill="#637CC6"/>
</svg>
