<?xml version="1.0" encoding="utf-8"?>
<!-- Generator: Adobe Illustrator 16.0.0, SVG Export Plug-In . SVG Version: 6.00 Build 0)  -->
<!DOCTYPE svg PUBLIC "-//W3C//DTD SVG 1.1//EN" "http://www.w3.org/Graphics/SVG/1.1/DTD/svg11.dtd">
<svg version="1.1" id="Layer_1" xmlns="http://www.w3.org/2000/svg" xmlns:xlink="http://www.w3.org/1999/xlink" x="0px" y="0px"
	 width="612px" height="792px" viewBox="0 0 612 792" enable-background="new 0 0 612 792" xml:space="preserve">
<g>
	<path fill="#4374BA" d="M278.432,540.073c-6.029,0.069-12.038,0.229-18.058,0.47c-65.399,2.689-129.244,18.229-193.006,31.776
		c-53.561,11.389-108.021,21.497-163.011,20.317c-43.953-0.95-87.337-9.679-130.172-18.908
		c-26.414-5.688-52.757-11.718-79.333-16.617c-15.651-2.89-31.389-5.319-47.182-7.289c-53.453-6.649-107.466-8.02-161.198-4.31
		c-50.891,3.51-101.288,11.498-151.262,21.558c-8.165,1.649-13.454,9.588-11.812,17.747c1.643,8.169,9.615,13.458,17.78,11.818
		c48.696-9.798,97.798-17.587,147.387-20.997c51.795-3.569,103.834-2.229,155.355,4.21c25.174,3.159,50.108,7.688,74.927,12.908
		c61.034,12.848,122.146,28.876,184.852,30.276c67.606,1.51,134.017-12.938,199.725-27.057c15.951-3.43,31.887-6.939,47.901-10.06
		c5.518-1.079,11.062-2.02,16.591-3.029c4.3-0.8,8.599-1.62,12.905-2.38c26.676-4.679,53.695-7.959,80.771-9.028
		c29.757-1.18,59.663-0.17,89.359,1.939c34.785,2.47,69.49,6.688,103.736,13.309c26.236,5.069,52.033,12.089,78.09,17.968
		c22.638,5.109,45.494,9.469,68.642,11.368c24.087,1.979,48.214,0.819,72.151-2.34c26.326-3.47,52.293-9.079,78.619-12.589
		c15.269-2.039,30.606-3.199,46.024-3.249c19.588-0.08,39.195,1.05,58.702,2.68c22.378,1.88,44.685,4.43,66.963,7.189
		c59.922,7.419,119.744,16.407,180.076,19.747c31.316,1.74,62.852,1.939,94.078-1.31c27.947-2.909,55.643-8.789,81.65-19.628
		c8.119-3.379,11.979-12.688,8.588-20.807c-3.379-8.119-12.719-11.979-20.836-8.59c-24.588,10.249-50.904,15.349-77.342,17.809
		c-31.516,2.93-63.311,2.209-94.857,0.13c-59.662-3.95-118.834-13.009-178.168-20.128c-22.517-2.699-45.054-5.169-67.681-6.809
		c-18.628-1.36-37.306-2.18-55.993-1.91c-21.157,0.311-42.114,2.77-62.992,6.129c-24.797,3.979-49.434,9.159-74.46,11.648
		c-17.278,1.721-34.636,2.061-51.954,0.66c-48.783-3.949-95.537-19.518-143.392-28.686c-35.855-6.869-72.171-11.189-108.576-13.719
		c-18.468-1.279-36.985-2.04-55.493-2.22C290.5,540.023,284.461,540.014,278.432,540.073z"/>
</g>
<g>
	<path fill="#4374BA" d="M-128.107,391.585c-1.894-0.08-3.797,0.04-5.688,0.131c-6.009,0.279-12.024,0.649-18.028,1.029
		c-24.272,1.53-48.528,3.21-72.803,4.689c-10.321,0.63-20.631,1.279-30.965,1.62c-17.084,0.569-34.215,0.649-51.307,0.569
		c-28.676-0.149-57.347-1.14-86.021-0.35c-23.535,0.65-46.936,2.66-70.304,5.469c-18.805,2.271-37.749,3.38-56.493,6.16
		c-2.426,0.359-4.844,0.91-7.28,1.18c-2.229,0.26-4.466,0.38-6.686,0.72c-3.593,0.56-7.166,1.53-10.374,3.279
		c-2.012,1.101-3.865,2.45-5.468,4.1c-1.213,1.24-2.346,2.71-3.218,4.22c-5.746,9.898-2.448,22.437,1.094,32.466
		c0.701,1.979,1.437,3.949,2.219,5.899c0.895,2.239,1.842,4.439,2.781,6.659c3.436,8.099,12.774,11.898,20.872,8.469
		c8.098-3.439,11.872-12.809,8.437-20.907c-1.832-4.31-3.661-8.629-5.093-13.089c-0.037-0.12-0.058-0.229-0.094-0.35
		c0.114-0.01,0.23-0.01,0.344-0.03c2.006-0.29,3.997-0.709,5.999-1.029c3.28-0.521,6.578-0.96,9.874-1.37
		c10.263-1.29,20.578-2.149,30.871-3.159c14.639-1.43,29.219-3.46,43.87-4.779c14.394-1.301,28.826-2.15,43.275-2.53
		c18.641-0.49,37.287-0.26,55.931-0.1c18.558,0.159,37.123,0.189,55.68-0.15c10.595-0.2,21.165-0.44,31.746-1.03
		c25.934-1.47,51.856-3.43,77.771-5.189c5.959-0.409,11.912-0.799,17.872-1.189c-1.404,3.22-2.816,6.449-4.249,9.659
		c-5.102,11.429-10.557,22.827-17.935,32.995c-4.015,5.529-8.585,10.539-13.654,15.119c-6.182,5.578-6.677,15.127-1.094,21.307
		c5.581,6.189,15.097,6.68,21.278,1.1c7.534-6.809,14.243-14.408,19.997-22.777c7.616-11.078,13.524-23.196,18.998-35.436
		c2.765-6.188,5.597-12.348,8.093-18.657c1.183-2.979,2.313-6.009,3.249-9.089c0.84-2.76,1.552-5.579,1.688-8.469
		c0.106-2.29-0.132-4.689-0.969-6.839c-0.366-0.94-0.734-1.899-1.281-2.75c-0.752-1.17-1.466-2.47-2.594-3.279
		c-2.272-1.649-4.85-2.79-7.405-3.939c-0.611-0.28-1.333-0.23-2-0.311C-127.476,391.585-127.801,391.605-128.107,391.585z"/>
</g>
<g>
	<path fill="#4374BA" d="M-336.394,68.227c-8.793,0.229-15.757,7.519-15.529,16.308c0.779,28.837,1.507,57.693,2.344,86.52
		c1.398,48.193,2.946,96.388,4.374,144.581c0.981,33.126,1.842,66.252,2.718,99.388c0.216,8.329,7.143,14.908,15.467,14.688
		c8.326-0.22,14.87-7.139,14.655-15.468c-0.842-33.136-1.7-66.281-2.438-99.427c-1.071-48.204-2.023-96.398-3.125-144.602
		c-0.657-28.837-1.439-57.653-2.155-86.489C-320.311,74.926-327.6,67.996-336.394,68.227z"/>
</g>
<g>
	<path fill="#4374BA" d="M-358.813,378.647l-9.855-221.842l0.007-11.959c0,0-2.344-5.659-4.843,2.649
		c-14.373,47.824-67.104,211.403-123.981,240.89C-441.561,381.356-358.813,378.647-358.813,378.647z"/>
	<path fill="#4374BA" d="M-369.39,137.968c-0.951-0.2-1.976-0.11-2.905,0.149c-0.449,0.13-0.87,0.32-1.281,0.54
		c-0.892,0.471-1.652,1.15-2.28,1.93c-1.937,2.4-2.596,5.699-3.469,8.569c-1.229,4.029-2.48,8.039-3.75,12.059
		c-4.65,14.718-9.552,29.376-14.717,43.935c-8.479,23.887-17.67,47.523-27.935,70.711c-8.888,20.067-18.56,39.885-29.996,58.643
		c-4.76,7.809-9.836,15.447-15.435,22.687c-4.986,6.439-10.414,12.599-16.561,17.968c-1.334,1.16-2.713,2.3-4.124,3.37
		c-1.061,0.81-2.141,1.579-3.25,2.319c-0.535,0.35-1.079,0.689-1.625,1.03c-0.528,0.319-1.053,0.659-1.593,0.97
		c-0.918,0.52-2.04,0.949-2.718,1.779c-0.327,0.4-0.708,0.79-0.875,1.28c-0.317,0.92-0.709,1.899-0.563,2.869
		c0.174,1.15,0.787,2.22,1.469,3.16c0.415,0.569,1.104,0.88,1.719,1.22c1.526,0.84,4.218,0.24,5.938,0.029
		c0.594-0.069,1.218-0.119,1.812-0.189c0.595-0.07,1.186-0.15,1.781-0.22c1.21-0.14,2.415-0.271,3.625-0.4
		c1.847-0.21,3.683-0.409,5.531-0.6c1.878-0.19,3.745-0.38,5.624-0.56c2.545-0.25,5.109-0.49,7.656-0.721
		c26.972-2.449,54.032-4.119,81.083-5.409c7.082-0.329,14.163-0.63,21.247-0.899c1.571-0.061,3.117-0.13,4.688-0.19
		c0.096,0,0.011,0.03,1.656-0.03c2.931-0.1,5.221-2.569,5.124-5.499c-0.02-0.6-0.175-1.13-0.375-1.659
		c0.032-0.08-0.013,0,0.032-0.12c0.196-0.54-0.069-1.14-0.095-1.72c-0.051-1.16-0.104-2.311-0.155-3.47
		c-0.129-2.89-0.247-5.77-0.376-8.649c-0.436-9.828-0.876-19.647-1.313-29.466c-1.69-38.135-3.35-76.271-5.03-114.396
		c-0.79-17.908-1.593-35.836-2.374-53.743c-0.189-4.31-0.381-8.589-0.375-12.908c0.002-1.99-0.003-4,0-5.999
		c0-0.511,0.094-1.021,0.03-1.53C-363.944,141.627-366.095,138.668-369.39,137.968z M-373.39,164.435
		c0.046,1,0.05,1.999,0.095,2.999c0.627,13.858,1.254,27.717,1.874,41.585c1.682,37.555,3.359,75.12,5.031,112.676
		c0.565,12.708,1.152,25.406,1.719,38.115c0.18,4.049,0.351,8.079,0.53,12.128c0.024,0.53,0.039,1.061,0.063,1.59
		c-2.568,0.101-5.119,0.21-7.688,0.32c-8.553,0.35-17.104,0.729-25.652,1.18c-24.932,1.31-49.884,2.93-74.741,5.279
		c-2.138,0.21-4.269,0.44-6.405,0.66c9.687-8.959,17.867-19.548,25.153-30.496c12.161-18.268,22.254-37.896,31.496-57.772
		c12.527-26.947,23.379-54.653,33.309-82.649c5.002-14.099,9.759-28.327,14.279-42.585
		C-374.006,166.454-373.706,165.444-373.39,164.435z"/>
</g>
<g>
	<path fill="#4374BA" d="M-292.407,377.597c-10.994-44.054-7.739-239.959-10.558-262.517c-1.036-8.278-3.037-16.228-3.996-24.536
		c-0.219-1.9-2.473-5.899-0.569-5.699c4.447,0.439,41.865,46.004,46.224,51.354c42.831,52.563,79.498,97.777,100.439,163.219
		c5.825,18.197,10.441,38.045,12.555,57.063c0.214,1.93,2.86,14.148,1.712,15.408C-153.212,379.157-271.007,378.167-292.407,377.597
		z"/>
	<path fill="#4374BA" d="M-307.929,79.695c-0.588,0.02-1.18,0.17-1.78,0.399c-0.537,0.21-1.046,0.49-1.5,0.85
		c-0.452,0.351-0.856,0.78-1.188,1.25c-0.293,0.41-0.521,0.891-0.688,1.37c-0.163,0.47-0.227,0.95-0.281,1.44
		c-0.281,2.52,1.14,4.799,1.468,7.248c0.656,4.87,1.557,9.699,2.438,14.528c0.626,3.439,1.287,6.89,1.594,10.379
		c0.747,8.519,0.723,17.108,0.874,25.646c0.239,13.538,0.359,27.087,0.5,40.625c0.302,29.076,0.632,58.143,1.344,87.209
		c0.478,19.487,1.102,38.995,2.249,58.452c0.714,12.099,1.563,24.207,3.188,36.216c0.432,3.189,0.905,6.379,1.531,9.539
		c0.161,0.8,0.349,1.6,0.531,2.399c-0.006,0.08-0.061,0.141-0.063,0.22c-0.076,2.93,2.224,5.359,5.155,5.439
		c0.703,0.021-0.368-0.56,0.719,0.03c0.226,0.12,0.524-0.01,0.781,0c0.886,0.02,1.77,0.04,2.655,0.06
		c2.258,0.04,4.493,0.061,6.75,0.091c6.696,0.09,13.394,0.17,20.091,0.189c15.203,0.061,30.418-0.04,45.619-0.28
		c14.114-0.22,28.25-0.579,42.339-1.47c2.634-0.16,5.244-0.34,7.874-0.56c1.874-0.16,3.755-0.33,5.624-0.53
		c1.255-0.14,2.498-0.3,3.75-0.47c1.118-0.149,2.261-0.31,3.374-0.5c3.987-0.68,9.682-1.63,11.436-5.839
		c0.402-0.971,0.517-2.061,0.531-3.1c0.073-4.939-1.38-9.759-2.03-14.618c-0.548-4.09-1.03-8.179-1.688-12.249
		c-1.393-8.639-3.233-17.168-5.343-25.656c-7.975-32.076-21.104-62.782-37.965-91.179c-16.866-28.396-37.272-54.453-58.023-80.08
		c-11.723-14.478-23.535-28.866-35.745-42.935c-4.417-5.089-8.892-10.139-13.529-15.027c-2.409-2.54-4.857-5.199-7.688-7.279
		C-304.473,80.435-306.164,79.625-307.929,79.695z M-300.616,98.192c4.201,4.529,8.305,9.159,12.341,13.839
		c15.863,18.407,31.21,37.305,46.275,56.372c20.133,25.467,39.322,51.813,54.4,80.641c13.153,25.156,23.071,52.033,29.246,79.739
		c1.395,6.259,2.604,12.568,3.562,18.907c0.495,3.271,0.8,6.569,1.281,9.84c0.527,3.589,1.383,7.139,1.781,10.748
		c-1.02,0.27-2.044,0.58-3.063,0.75c-2.146,0.37-4.304,0.64-6.468,0.88c-7.17,0.78-14.357,1.189-21.56,1.529
		c-26.773,1.261-53.63,1.351-80.428,1.22c-6.495-0.039-13.003-0.1-19.498-0.189c-1.883-0.03-3.772-0.061-5.655-0.09
		c-0.018-0.1-0.044-0.19-0.062-0.29c-0.45-2.359-0.818-4.729-1.156-7.119c-1.049-7.389-1.706-14.838-2.281-22.277
		c-1.72-22.287-2.463-44.654-3.062-66.991c-1.113-41.465-1.196-82.92-1.75-124.395c-0.099-7.419-0.195-14.857-0.406-22.277
		c-0.126-4.409-0.244-8.849-0.656-13.248c-0.471-4.999-1.48-9.929-2.375-14.868C-300.312,100.003-300.455,99.093-300.616,98.192z"/>
</g>
<g>
	<path fill="#4374BA" d="M-365.617,119.33c0.258-11.608,2.339-30.406-2.837-32.066c-12.871-4.129-22.256,22.947-34.552,21.248
		c-15.159-2.11-26.651-18.888-42.545-18.888c-8.23,0-14.696,7.339-19.854,16.527c-0.56,0.99-11.064,14.368-10.456,15.299
		c1.576,2.409,20.814-11.989,23.864-10.979c7.92,2.63,17.627,4.87,24.754,11.019c7.228,6.229,12.651,17.628,21.917,13.769
		C-390.281,128.999-382.063,109.871-365.617,119.33z"/>
	<path fill="#4374BA" d="M-370.64,81.814c-9.389-0.359-15.936,8.609-21.715,14.719c-0.855,0.899-1.698,1.829-2.594,2.689
		c-0.399,0.38-0.836,0.729-1.25,1.09c-1.594,1.409-3.791,3.529-6.155,3.189c-5.383-0.76-10.193-3.779-14.655-6.689
		c-8.063-5.259-16.222-11.349-26.121-12.218c-2.189-0.19-4.411-0.131-6.562,0.35c-2.188,0.48-4.269,1.38-6.188,2.529
		c-6.199,3.72-10.483,9.93-13.998,16.088c-0.029,0.051,0.097-0.199,0.063-0.149c-2.638,3.68-5.472,7.229-8.03,10.969
		c-1.117,1.63-2.996,4.029-3.188,6.119c-0.045,0.489-0.143,0.989-0.031,1.47c0.203,0.87,0.523,1.729,0.969,2.5
		c0.291,0.5,0.753,0.899,1.218,1.249c3.958,2.979,9.416-0.369,13.03-2.409c0.891-0.5,1.772-1.01,2.656-1.53
		c1.346-0.779,2.684-1.56,4.03-2.339c1.595-0.931,3.215-1.86,4.843-2.72c0.551-0.29,1.115-0.57,1.688-0.811
		c0.065-0.03,0.128-0.04,0.188-0.069c0.29,0.1,0.584,0.189,0.875,0.279c1.05,0.34,2.104,0.67,3.156,1
		c3.745,1.18,7.52,2.38,11.062,4.1c3.01,1.46,5.782,3.279,8.154,5.659c4.588,4.579,8.364,10.509,14.498,13.208
		c5.58,2.46,10.628,0.84,15.654-2.06c3.766-2.169,7.113-4.929,10.437-7.719c1.442-1.21,2.889-2.43,4.374-3.59
		c1.658-1.289,3.351-2.47,5.218-3.439c2.004-1.04,4.306-1.479,6.53-1.029c0.921,0.189,1.802,0.489,2.657,0.869
		c0.253,0.12,0.001,0.021,1.655,0.88c2.572,1.41,5.813,0.45,7.218-2.119c0.71-1.3,0.804-2.75,0.406-4.069
		c0.151-0.391,0.045-0.87,0.063-1.311c0.021-0.529,0.039-1.069,0.063-1.59c0.099-2.259,0.191-4.529,0.281-6.789
		c0.069-1.739,0.133-3.47,0.155-5.209c0.023-1.689,0.029-3.409-0.03-5.1c-0.19-5.419-0.793-13.318-6.937-15.338
		C-368.136,82.085-369.396,81.864-370.64,81.814z M-370.983,91.943c0.812,2.43,0.94,5.169,0.969,7.679
		c0.044,3.84-0.138,7.67-0.312,11.499c-0.015,0.31-0.019,0.61-0.031,0.91c-2.741-0.55-5.533-0.72-8.281-0.091
		c-8.169,1.851-14.145,8.319-20.497,13.309c-2.104,1.65-4.319,3.229-6.718,4.439c-0.869,0.43-1.823,0.93-2.813,1.03
		c-2.195,0.229-4.122-1.78-5.53-3.16c-2.979-2.919-5.502-6.278-8.562-9.118c-6.022-5.6-13.717-8.56-21.435-10.999
		c-2.077-0.66-4.173-1.42-6.281-1.97c-3.585-0.939-7.14,1.08-10.248,2.84c0.553-0.92,1.114-1.84,1.688-2.75
		c1.345-2.119,2.807-4.159,4.53-5.999c2.181-2.319,5.012-4.539,8.312-4.779c5.146-0.37,10.19,2.12,14.467,4.659
		c7.09,4.199,13.622,9.539,21.436,12.398c3.596,1.32,7.588,2.33,11.404,1.47c3.65-0.81,6.664-2.989,9.404-5.429
		c3.344-2.98,6.185-6.439,9.249-9.689c1.814-1.93,3.726-3.869,5.999-5.249C-373.265,92.354-372.14,91.894-370.983,91.943z"/>
</g>
</svg>
